G75*
%MOIN*%
%OFA0B0*%
%FSLAX25Y25*%
%IPPOS*%
%LPD*%
%AMOC8*
5,1,8,0,0,1.08239X$1,22.5*
%
%ADD10C,0.00000*%
%ADD11R,0.05906X0.05118*%
%ADD12C,0.05937*%
%ADD13C,0.09449*%
%ADD14R,0.04331X0.05512*%
%ADD15R,0.05512X0.04331*%
%ADD16R,0.04724X0.04724*%
%ADD17C,0.04500*%
%ADD18R,0.08268X0.06299*%
%ADD19R,0.06299X0.08268*%
%ADD20R,0.05512X0.03937*%
%ADD21OC8,0.05937*%
%ADD22C,0.07400*%
%ADD23R,0.04200X0.08600*%
%ADD24R,0.08600X0.04200*%
%ADD25C,0.10000*%
%ADD26OC8,0.10000*%
%ADD27R,0.10000X0.10000*%
%ADD28C,0.05543*%
%ADD29C,0.04362*%
%ADD30R,0.05118X0.05906*%
%ADD31R,0.03268X0.02480*%
%ADD32C,0.01600*%
%ADD33C,0.03562*%
%ADD34C,0.10000*%
D10*
X0001000Y0023933D02*
X0001000Y0203933D01*
X0281000Y0203933D01*
X0281000Y0023933D01*
X0001000Y0023933D01*
X0005094Y0033933D02*
X0005096Y0034086D01*
X0005102Y0034240D01*
X0005112Y0034393D01*
X0005126Y0034545D01*
X0005144Y0034698D01*
X0005166Y0034849D01*
X0005191Y0035000D01*
X0005221Y0035151D01*
X0005255Y0035301D01*
X0005292Y0035449D01*
X0005333Y0035597D01*
X0005378Y0035743D01*
X0005427Y0035889D01*
X0005480Y0036033D01*
X0005536Y0036175D01*
X0005596Y0036316D01*
X0005660Y0036456D01*
X0005727Y0036594D01*
X0005798Y0036730D01*
X0005873Y0036864D01*
X0005950Y0036996D01*
X0006032Y0037126D01*
X0006116Y0037254D01*
X0006204Y0037380D01*
X0006295Y0037503D01*
X0006389Y0037624D01*
X0006487Y0037742D01*
X0006587Y0037858D01*
X0006691Y0037971D01*
X0006797Y0038082D01*
X0006906Y0038190D01*
X0007018Y0038295D01*
X0007132Y0038396D01*
X0007250Y0038495D01*
X0007369Y0038591D01*
X0007491Y0038684D01*
X0007616Y0038773D01*
X0007743Y0038860D01*
X0007872Y0038942D01*
X0008003Y0039022D01*
X0008136Y0039098D01*
X0008271Y0039171D01*
X0008408Y0039240D01*
X0008547Y0039305D01*
X0008687Y0039367D01*
X0008829Y0039425D01*
X0008972Y0039480D01*
X0009117Y0039531D01*
X0009263Y0039578D01*
X0009410Y0039621D01*
X0009558Y0039660D01*
X0009707Y0039696D01*
X0009857Y0039727D01*
X0010008Y0039755D01*
X0010159Y0039779D01*
X0010312Y0039799D01*
X0010464Y0039815D01*
X0010617Y0039827D01*
X0010770Y0039835D01*
X0010923Y0039839D01*
X0011077Y0039839D01*
X0011230Y0039835D01*
X0011383Y0039827D01*
X0011536Y0039815D01*
X0011688Y0039799D01*
X0011841Y0039779D01*
X0011992Y0039755D01*
X0012143Y0039727D01*
X0012293Y0039696D01*
X0012442Y0039660D01*
X0012590Y0039621D01*
X0012737Y0039578D01*
X0012883Y0039531D01*
X0013028Y0039480D01*
X0013171Y0039425D01*
X0013313Y0039367D01*
X0013453Y0039305D01*
X0013592Y0039240D01*
X0013729Y0039171D01*
X0013864Y0039098D01*
X0013997Y0039022D01*
X0014128Y0038942D01*
X0014257Y0038860D01*
X0014384Y0038773D01*
X0014509Y0038684D01*
X0014631Y0038591D01*
X0014750Y0038495D01*
X0014868Y0038396D01*
X0014982Y0038295D01*
X0015094Y0038190D01*
X0015203Y0038082D01*
X0015309Y0037971D01*
X0015413Y0037858D01*
X0015513Y0037742D01*
X0015611Y0037624D01*
X0015705Y0037503D01*
X0015796Y0037380D01*
X0015884Y0037254D01*
X0015968Y0037126D01*
X0016050Y0036996D01*
X0016127Y0036864D01*
X0016202Y0036730D01*
X0016273Y0036594D01*
X0016340Y0036456D01*
X0016404Y0036316D01*
X0016464Y0036175D01*
X0016520Y0036033D01*
X0016573Y0035889D01*
X0016622Y0035743D01*
X0016667Y0035597D01*
X0016708Y0035449D01*
X0016745Y0035301D01*
X0016779Y0035151D01*
X0016809Y0035000D01*
X0016834Y0034849D01*
X0016856Y0034698D01*
X0016874Y0034545D01*
X0016888Y0034393D01*
X0016898Y0034240D01*
X0016904Y0034086D01*
X0016906Y0033933D01*
X0016904Y0033780D01*
X0016898Y0033626D01*
X0016888Y0033473D01*
X0016874Y0033321D01*
X0016856Y0033168D01*
X0016834Y0033017D01*
X0016809Y0032866D01*
X0016779Y0032715D01*
X0016745Y0032565D01*
X0016708Y0032417D01*
X0016667Y0032269D01*
X0016622Y0032123D01*
X0016573Y0031977D01*
X0016520Y0031833D01*
X0016464Y0031691D01*
X0016404Y0031550D01*
X0016340Y0031410D01*
X0016273Y0031272D01*
X0016202Y0031136D01*
X0016127Y0031002D01*
X0016050Y0030870D01*
X0015968Y0030740D01*
X0015884Y0030612D01*
X0015796Y0030486D01*
X0015705Y0030363D01*
X0015611Y0030242D01*
X0015513Y0030124D01*
X0015413Y0030008D01*
X0015309Y0029895D01*
X0015203Y0029784D01*
X0015094Y0029676D01*
X0014982Y0029571D01*
X0014868Y0029470D01*
X0014750Y0029371D01*
X0014631Y0029275D01*
X0014509Y0029182D01*
X0014384Y0029093D01*
X0014257Y0029006D01*
X0014128Y0028924D01*
X0013997Y0028844D01*
X0013864Y0028768D01*
X0013729Y0028695D01*
X0013592Y0028626D01*
X0013453Y0028561D01*
X0013313Y0028499D01*
X0013171Y0028441D01*
X0013028Y0028386D01*
X0012883Y0028335D01*
X0012737Y0028288D01*
X0012590Y0028245D01*
X0012442Y0028206D01*
X0012293Y0028170D01*
X0012143Y0028139D01*
X0011992Y0028111D01*
X0011841Y0028087D01*
X0011688Y0028067D01*
X0011536Y0028051D01*
X0011383Y0028039D01*
X0011230Y0028031D01*
X0011077Y0028027D01*
X0010923Y0028027D01*
X0010770Y0028031D01*
X0010617Y0028039D01*
X0010464Y0028051D01*
X0010312Y0028067D01*
X0010159Y0028087D01*
X0010008Y0028111D01*
X0009857Y0028139D01*
X0009707Y0028170D01*
X0009558Y0028206D01*
X0009410Y0028245D01*
X0009263Y0028288D01*
X0009117Y0028335D01*
X0008972Y0028386D01*
X0008829Y0028441D01*
X0008687Y0028499D01*
X0008547Y0028561D01*
X0008408Y0028626D01*
X0008271Y0028695D01*
X0008136Y0028768D01*
X0008003Y0028844D01*
X0007872Y0028924D01*
X0007743Y0029006D01*
X0007616Y0029093D01*
X0007491Y0029182D01*
X0007369Y0029275D01*
X0007250Y0029371D01*
X0007132Y0029470D01*
X0007018Y0029571D01*
X0006906Y0029676D01*
X0006797Y0029784D01*
X0006691Y0029895D01*
X0006587Y0030008D01*
X0006487Y0030124D01*
X0006389Y0030242D01*
X0006295Y0030363D01*
X0006204Y0030486D01*
X0006116Y0030612D01*
X0006032Y0030740D01*
X0005950Y0030870D01*
X0005873Y0031002D01*
X0005798Y0031136D01*
X0005727Y0031272D01*
X0005660Y0031410D01*
X0005596Y0031550D01*
X0005536Y0031691D01*
X0005480Y0031833D01*
X0005427Y0031977D01*
X0005378Y0032123D01*
X0005333Y0032269D01*
X0005292Y0032417D01*
X0005255Y0032565D01*
X0005221Y0032715D01*
X0005191Y0032866D01*
X0005166Y0033017D01*
X0005144Y0033168D01*
X0005126Y0033321D01*
X0005112Y0033473D01*
X0005102Y0033626D01*
X0005096Y0033780D01*
X0005094Y0033933D01*
X0265094Y0033933D02*
X0265096Y0034086D01*
X0265102Y0034240D01*
X0265112Y0034393D01*
X0265126Y0034545D01*
X0265144Y0034698D01*
X0265166Y0034849D01*
X0265191Y0035000D01*
X0265221Y0035151D01*
X0265255Y0035301D01*
X0265292Y0035449D01*
X0265333Y0035597D01*
X0265378Y0035743D01*
X0265427Y0035889D01*
X0265480Y0036033D01*
X0265536Y0036175D01*
X0265596Y0036316D01*
X0265660Y0036456D01*
X0265727Y0036594D01*
X0265798Y0036730D01*
X0265873Y0036864D01*
X0265950Y0036996D01*
X0266032Y0037126D01*
X0266116Y0037254D01*
X0266204Y0037380D01*
X0266295Y0037503D01*
X0266389Y0037624D01*
X0266487Y0037742D01*
X0266587Y0037858D01*
X0266691Y0037971D01*
X0266797Y0038082D01*
X0266906Y0038190D01*
X0267018Y0038295D01*
X0267132Y0038396D01*
X0267250Y0038495D01*
X0267369Y0038591D01*
X0267491Y0038684D01*
X0267616Y0038773D01*
X0267743Y0038860D01*
X0267872Y0038942D01*
X0268003Y0039022D01*
X0268136Y0039098D01*
X0268271Y0039171D01*
X0268408Y0039240D01*
X0268547Y0039305D01*
X0268687Y0039367D01*
X0268829Y0039425D01*
X0268972Y0039480D01*
X0269117Y0039531D01*
X0269263Y0039578D01*
X0269410Y0039621D01*
X0269558Y0039660D01*
X0269707Y0039696D01*
X0269857Y0039727D01*
X0270008Y0039755D01*
X0270159Y0039779D01*
X0270312Y0039799D01*
X0270464Y0039815D01*
X0270617Y0039827D01*
X0270770Y0039835D01*
X0270923Y0039839D01*
X0271077Y0039839D01*
X0271230Y0039835D01*
X0271383Y0039827D01*
X0271536Y0039815D01*
X0271688Y0039799D01*
X0271841Y0039779D01*
X0271992Y0039755D01*
X0272143Y0039727D01*
X0272293Y0039696D01*
X0272442Y0039660D01*
X0272590Y0039621D01*
X0272737Y0039578D01*
X0272883Y0039531D01*
X0273028Y0039480D01*
X0273171Y0039425D01*
X0273313Y0039367D01*
X0273453Y0039305D01*
X0273592Y0039240D01*
X0273729Y0039171D01*
X0273864Y0039098D01*
X0273997Y0039022D01*
X0274128Y0038942D01*
X0274257Y0038860D01*
X0274384Y0038773D01*
X0274509Y0038684D01*
X0274631Y0038591D01*
X0274750Y0038495D01*
X0274868Y0038396D01*
X0274982Y0038295D01*
X0275094Y0038190D01*
X0275203Y0038082D01*
X0275309Y0037971D01*
X0275413Y0037858D01*
X0275513Y0037742D01*
X0275611Y0037624D01*
X0275705Y0037503D01*
X0275796Y0037380D01*
X0275884Y0037254D01*
X0275968Y0037126D01*
X0276050Y0036996D01*
X0276127Y0036864D01*
X0276202Y0036730D01*
X0276273Y0036594D01*
X0276340Y0036456D01*
X0276404Y0036316D01*
X0276464Y0036175D01*
X0276520Y0036033D01*
X0276573Y0035889D01*
X0276622Y0035743D01*
X0276667Y0035597D01*
X0276708Y0035449D01*
X0276745Y0035301D01*
X0276779Y0035151D01*
X0276809Y0035000D01*
X0276834Y0034849D01*
X0276856Y0034698D01*
X0276874Y0034545D01*
X0276888Y0034393D01*
X0276898Y0034240D01*
X0276904Y0034086D01*
X0276906Y0033933D01*
X0276904Y0033780D01*
X0276898Y0033626D01*
X0276888Y0033473D01*
X0276874Y0033321D01*
X0276856Y0033168D01*
X0276834Y0033017D01*
X0276809Y0032866D01*
X0276779Y0032715D01*
X0276745Y0032565D01*
X0276708Y0032417D01*
X0276667Y0032269D01*
X0276622Y0032123D01*
X0276573Y0031977D01*
X0276520Y0031833D01*
X0276464Y0031691D01*
X0276404Y0031550D01*
X0276340Y0031410D01*
X0276273Y0031272D01*
X0276202Y0031136D01*
X0276127Y0031002D01*
X0276050Y0030870D01*
X0275968Y0030740D01*
X0275884Y0030612D01*
X0275796Y0030486D01*
X0275705Y0030363D01*
X0275611Y0030242D01*
X0275513Y0030124D01*
X0275413Y0030008D01*
X0275309Y0029895D01*
X0275203Y0029784D01*
X0275094Y0029676D01*
X0274982Y0029571D01*
X0274868Y0029470D01*
X0274750Y0029371D01*
X0274631Y0029275D01*
X0274509Y0029182D01*
X0274384Y0029093D01*
X0274257Y0029006D01*
X0274128Y0028924D01*
X0273997Y0028844D01*
X0273864Y0028768D01*
X0273729Y0028695D01*
X0273592Y0028626D01*
X0273453Y0028561D01*
X0273313Y0028499D01*
X0273171Y0028441D01*
X0273028Y0028386D01*
X0272883Y0028335D01*
X0272737Y0028288D01*
X0272590Y0028245D01*
X0272442Y0028206D01*
X0272293Y0028170D01*
X0272143Y0028139D01*
X0271992Y0028111D01*
X0271841Y0028087D01*
X0271688Y0028067D01*
X0271536Y0028051D01*
X0271383Y0028039D01*
X0271230Y0028031D01*
X0271077Y0028027D01*
X0270923Y0028027D01*
X0270770Y0028031D01*
X0270617Y0028039D01*
X0270464Y0028051D01*
X0270312Y0028067D01*
X0270159Y0028087D01*
X0270008Y0028111D01*
X0269857Y0028139D01*
X0269707Y0028170D01*
X0269558Y0028206D01*
X0269410Y0028245D01*
X0269263Y0028288D01*
X0269117Y0028335D01*
X0268972Y0028386D01*
X0268829Y0028441D01*
X0268687Y0028499D01*
X0268547Y0028561D01*
X0268408Y0028626D01*
X0268271Y0028695D01*
X0268136Y0028768D01*
X0268003Y0028844D01*
X0267872Y0028924D01*
X0267743Y0029006D01*
X0267616Y0029093D01*
X0267491Y0029182D01*
X0267369Y0029275D01*
X0267250Y0029371D01*
X0267132Y0029470D01*
X0267018Y0029571D01*
X0266906Y0029676D01*
X0266797Y0029784D01*
X0266691Y0029895D01*
X0266587Y0030008D01*
X0266487Y0030124D01*
X0266389Y0030242D01*
X0266295Y0030363D01*
X0266204Y0030486D01*
X0266116Y0030612D01*
X0266032Y0030740D01*
X0265950Y0030870D01*
X0265873Y0031002D01*
X0265798Y0031136D01*
X0265727Y0031272D01*
X0265660Y0031410D01*
X0265596Y0031550D01*
X0265536Y0031691D01*
X0265480Y0031833D01*
X0265427Y0031977D01*
X0265378Y0032123D01*
X0265333Y0032269D01*
X0265292Y0032417D01*
X0265255Y0032565D01*
X0265221Y0032715D01*
X0265191Y0032866D01*
X0265166Y0033017D01*
X0265144Y0033168D01*
X0265126Y0033321D01*
X0265112Y0033473D01*
X0265102Y0033626D01*
X0265096Y0033780D01*
X0265094Y0033933D01*
X0265094Y0193933D02*
X0265096Y0194086D01*
X0265102Y0194240D01*
X0265112Y0194393D01*
X0265126Y0194545D01*
X0265144Y0194698D01*
X0265166Y0194849D01*
X0265191Y0195000D01*
X0265221Y0195151D01*
X0265255Y0195301D01*
X0265292Y0195449D01*
X0265333Y0195597D01*
X0265378Y0195743D01*
X0265427Y0195889D01*
X0265480Y0196033D01*
X0265536Y0196175D01*
X0265596Y0196316D01*
X0265660Y0196456D01*
X0265727Y0196594D01*
X0265798Y0196730D01*
X0265873Y0196864D01*
X0265950Y0196996D01*
X0266032Y0197126D01*
X0266116Y0197254D01*
X0266204Y0197380D01*
X0266295Y0197503D01*
X0266389Y0197624D01*
X0266487Y0197742D01*
X0266587Y0197858D01*
X0266691Y0197971D01*
X0266797Y0198082D01*
X0266906Y0198190D01*
X0267018Y0198295D01*
X0267132Y0198396D01*
X0267250Y0198495D01*
X0267369Y0198591D01*
X0267491Y0198684D01*
X0267616Y0198773D01*
X0267743Y0198860D01*
X0267872Y0198942D01*
X0268003Y0199022D01*
X0268136Y0199098D01*
X0268271Y0199171D01*
X0268408Y0199240D01*
X0268547Y0199305D01*
X0268687Y0199367D01*
X0268829Y0199425D01*
X0268972Y0199480D01*
X0269117Y0199531D01*
X0269263Y0199578D01*
X0269410Y0199621D01*
X0269558Y0199660D01*
X0269707Y0199696D01*
X0269857Y0199727D01*
X0270008Y0199755D01*
X0270159Y0199779D01*
X0270312Y0199799D01*
X0270464Y0199815D01*
X0270617Y0199827D01*
X0270770Y0199835D01*
X0270923Y0199839D01*
X0271077Y0199839D01*
X0271230Y0199835D01*
X0271383Y0199827D01*
X0271536Y0199815D01*
X0271688Y0199799D01*
X0271841Y0199779D01*
X0271992Y0199755D01*
X0272143Y0199727D01*
X0272293Y0199696D01*
X0272442Y0199660D01*
X0272590Y0199621D01*
X0272737Y0199578D01*
X0272883Y0199531D01*
X0273028Y0199480D01*
X0273171Y0199425D01*
X0273313Y0199367D01*
X0273453Y0199305D01*
X0273592Y0199240D01*
X0273729Y0199171D01*
X0273864Y0199098D01*
X0273997Y0199022D01*
X0274128Y0198942D01*
X0274257Y0198860D01*
X0274384Y0198773D01*
X0274509Y0198684D01*
X0274631Y0198591D01*
X0274750Y0198495D01*
X0274868Y0198396D01*
X0274982Y0198295D01*
X0275094Y0198190D01*
X0275203Y0198082D01*
X0275309Y0197971D01*
X0275413Y0197858D01*
X0275513Y0197742D01*
X0275611Y0197624D01*
X0275705Y0197503D01*
X0275796Y0197380D01*
X0275884Y0197254D01*
X0275968Y0197126D01*
X0276050Y0196996D01*
X0276127Y0196864D01*
X0276202Y0196730D01*
X0276273Y0196594D01*
X0276340Y0196456D01*
X0276404Y0196316D01*
X0276464Y0196175D01*
X0276520Y0196033D01*
X0276573Y0195889D01*
X0276622Y0195743D01*
X0276667Y0195597D01*
X0276708Y0195449D01*
X0276745Y0195301D01*
X0276779Y0195151D01*
X0276809Y0195000D01*
X0276834Y0194849D01*
X0276856Y0194698D01*
X0276874Y0194545D01*
X0276888Y0194393D01*
X0276898Y0194240D01*
X0276904Y0194086D01*
X0276906Y0193933D01*
X0276904Y0193780D01*
X0276898Y0193626D01*
X0276888Y0193473D01*
X0276874Y0193321D01*
X0276856Y0193168D01*
X0276834Y0193017D01*
X0276809Y0192866D01*
X0276779Y0192715D01*
X0276745Y0192565D01*
X0276708Y0192417D01*
X0276667Y0192269D01*
X0276622Y0192123D01*
X0276573Y0191977D01*
X0276520Y0191833D01*
X0276464Y0191691D01*
X0276404Y0191550D01*
X0276340Y0191410D01*
X0276273Y0191272D01*
X0276202Y0191136D01*
X0276127Y0191002D01*
X0276050Y0190870D01*
X0275968Y0190740D01*
X0275884Y0190612D01*
X0275796Y0190486D01*
X0275705Y0190363D01*
X0275611Y0190242D01*
X0275513Y0190124D01*
X0275413Y0190008D01*
X0275309Y0189895D01*
X0275203Y0189784D01*
X0275094Y0189676D01*
X0274982Y0189571D01*
X0274868Y0189470D01*
X0274750Y0189371D01*
X0274631Y0189275D01*
X0274509Y0189182D01*
X0274384Y0189093D01*
X0274257Y0189006D01*
X0274128Y0188924D01*
X0273997Y0188844D01*
X0273864Y0188768D01*
X0273729Y0188695D01*
X0273592Y0188626D01*
X0273453Y0188561D01*
X0273313Y0188499D01*
X0273171Y0188441D01*
X0273028Y0188386D01*
X0272883Y0188335D01*
X0272737Y0188288D01*
X0272590Y0188245D01*
X0272442Y0188206D01*
X0272293Y0188170D01*
X0272143Y0188139D01*
X0271992Y0188111D01*
X0271841Y0188087D01*
X0271688Y0188067D01*
X0271536Y0188051D01*
X0271383Y0188039D01*
X0271230Y0188031D01*
X0271077Y0188027D01*
X0270923Y0188027D01*
X0270770Y0188031D01*
X0270617Y0188039D01*
X0270464Y0188051D01*
X0270312Y0188067D01*
X0270159Y0188087D01*
X0270008Y0188111D01*
X0269857Y0188139D01*
X0269707Y0188170D01*
X0269558Y0188206D01*
X0269410Y0188245D01*
X0269263Y0188288D01*
X0269117Y0188335D01*
X0268972Y0188386D01*
X0268829Y0188441D01*
X0268687Y0188499D01*
X0268547Y0188561D01*
X0268408Y0188626D01*
X0268271Y0188695D01*
X0268136Y0188768D01*
X0268003Y0188844D01*
X0267872Y0188924D01*
X0267743Y0189006D01*
X0267616Y0189093D01*
X0267491Y0189182D01*
X0267369Y0189275D01*
X0267250Y0189371D01*
X0267132Y0189470D01*
X0267018Y0189571D01*
X0266906Y0189676D01*
X0266797Y0189784D01*
X0266691Y0189895D01*
X0266587Y0190008D01*
X0266487Y0190124D01*
X0266389Y0190242D01*
X0266295Y0190363D01*
X0266204Y0190486D01*
X0266116Y0190612D01*
X0266032Y0190740D01*
X0265950Y0190870D01*
X0265873Y0191002D01*
X0265798Y0191136D01*
X0265727Y0191272D01*
X0265660Y0191410D01*
X0265596Y0191550D01*
X0265536Y0191691D01*
X0265480Y0191833D01*
X0265427Y0191977D01*
X0265378Y0192123D01*
X0265333Y0192269D01*
X0265292Y0192417D01*
X0265255Y0192565D01*
X0265221Y0192715D01*
X0265191Y0192866D01*
X0265166Y0193017D01*
X0265144Y0193168D01*
X0265126Y0193321D01*
X0265112Y0193473D01*
X0265102Y0193626D01*
X0265096Y0193780D01*
X0265094Y0193933D01*
X0004937Y0195193D02*
X0004939Y0195346D01*
X0004945Y0195500D01*
X0004955Y0195653D01*
X0004969Y0195805D01*
X0004987Y0195958D01*
X0005009Y0196109D01*
X0005034Y0196260D01*
X0005064Y0196411D01*
X0005098Y0196561D01*
X0005135Y0196709D01*
X0005176Y0196857D01*
X0005221Y0197003D01*
X0005270Y0197149D01*
X0005323Y0197293D01*
X0005379Y0197435D01*
X0005439Y0197576D01*
X0005503Y0197716D01*
X0005570Y0197854D01*
X0005641Y0197990D01*
X0005716Y0198124D01*
X0005793Y0198256D01*
X0005875Y0198386D01*
X0005959Y0198514D01*
X0006047Y0198640D01*
X0006138Y0198763D01*
X0006232Y0198884D01*
X0006330Y0199002D01*
X0006430Y0199118D01*
X0006534Y0199231D01*
X0006640Y0199342D01*
X0006749Y0199450D01*
X0006861Y0199555D01*
X0006975Y0199656D01*
X0007093Y0199755D01*
X0007212Y0199851D01*
X0007334Y0199944D01*
X0007459Y0200033D01*
X0007586Y0200120D01*
X0007715Y0200202D01*
X0007846Y0200282D01*
X0007979Y0200358D01*
X0008114Y0200431D01*
X0008251Y0200500D01*
X0008390Y0200565D01*
X0008530Y0200627D01*
X0008672Y0200685D01*
X0008815Y0200740D01*
X0008960Y0200791D01*
X0009106Y0200838D01*
X0009253Y0200881D01*
X0009401Y0200920D01*
X0009550Y0200956D01*
X0009700Y0200987D01*
X0009851Y0201015D01*
X0010002Y0201039D01*
X0010155Y0201059D01*
X0010307Y0201075D01*
X0010460Y0201087D01*
X0010613Y0201095D01*
X0010766Y0201099D01*
X0010920Y0201099D01*
X0011073Y0201095D01*
X0011226Y0201087D01*
X0011379Y0201075D01*
X0011531Y0201059D01*
X0011684Y0201039D01*
X0011835Y0201015D01*
X0011986Y0200987D01*
X0012136Y0200956D01*
X0012285Y0200920D01*
X0012433Y0200881D01*
X0012580Y0200838D01*
X0012726Y0200791D01*
X0012871Y0200740D01*
X0013014Y0200685D01*
X0013156Y0200627D01*
X0013296Y0200565D01*
X0013435Y0200500D01*
X0013572Y0200431D01*
X0013707Y0200358D01*
X0013840Y0200282D01*
X0013971Y0200202D01*
X0014100Y0200120D01*
X0014227Y0200033D01*
X0014352Y0199944D01*
X0014474Y0199851D01*
X0014593Y0199755D01*
X0014711Y0199656D01*
X0014825Y0199555D01*
X0014937Y0199450D01*
X0015046Y0199342D01*
X0015152Y0199231D01*
X0015256Y0199118D01*
X0015356Y0199002D01*
X0015454Y0198884D01*
X0015548Y0198763D01*
X0015639Y0198640D01*
X0015727Y0198514D01*
X0015811Y0198386D01*
X0015893Y0198256D01*
X0015970Y0198124D01*
X0016045Y0197990D01*
X0016116Y0197854D01*
X0016183Y0197716D01*
X0016247Y0197576D01*
X0016307Y0197435D01*
X0016363Y0197293D01*
X0016416Y0197149D01*
X0016465Y0197003D01*
X0016510Y0196857D01*
X0016551Y0196709D01*
X0016588Y0196561D01*
X0016622Y0196411D01*
X0016652Y0196260D01*
X0016677Y0196109D01*
X0016699Y0195958D01*
X0016717Y0195805D01*
X0016731Y0195653D01*
X0016741Y0195500D01*
X0016747Y0195346D01*
X0016749Y0195193D01*
X0016747Y0195040D01*
X0016741Y0194886D01*
X0016731Y0194733D01*
X0016717Y0194581D01*
X0016699Y0194428D01*
X0016677Y0194277D01*
X0016652Y0194126D01*
X0016622Y0193975D01*
X0016588Y0193825D01*
X0016551Y0193677D01*
X0016510Y0193529D01*
X0016465Y0193383D01*
X0016416Y0193237D01*
X0016363Y0193093D01*
X0016307Y0192951D01*
X0016247Y0192810D01*
X0016183Y0192670D01*
X0016116Y0192532D01*
X0016045Y0192396D01*
X0015970Y0192262D01*
X0015893Y0192130D01*
X0015811Y0192000D01*
X0015727Y0191872D01*
X0015639Y0191746D01*
X0015548Y0191623D01*
X0015454Y0191502D01*
X0015356Y0191384D01*
X0015256Y0191268D01*
X0015152Y0191155D01*
X0015046Y0191044D01*
X0014937Y0190936D01*
X0014825Y0190831D01*
X0014711Y0190730D01*
X0014593Y0190631D01*
X0014474Y0190535D01*
X0014352Y0190442D01*
X0014227Y0190353D01*
X0014100Y0190266D01*
X0013971Y0190184D01*
X0013840Y0190104D01*
X0013707Y0190028D01*
X0013572Y0189955D01*
X0013435Y0189886D01*
X0013296Y0189821D01*
X0013156Y0189759D01*
X0013014Y0189701D01*
X0012871Y0189646D01*
X0012726Y0189595D01*
X0012580Y0189548D01*
X0012433Y0189505D01*
X0012285Y0189466D01*
X0012136Y0189430D01*
X0011986Y0189399D01*
X0011835Y0189371D01*
X0011684Y0189347D01*
X0011531Y0189327D01*
X0011379Y0189311D01*
X0011226Y0189299D01*
X0011073Y0189291D01*
X0010920Y0189287D01*
X0010766Y0189287D01*
X0010613Y0189291D01*
X0010460Y0189299D01*
X0010307Y0189311D01*
X0010155Y0189327D01*
X0010002Y0189347D01*
X0009851Y0189371D01*
X0009700Y0189399D01*
X0009550Y0189430D01*
X0009401Y0189466D01*
X0009253Y0189505D01*
X0009106Y0189548D01*
X0008960Y0189595D01*
X0008815Y0189646D01*
X0008672Y0189701D01*
X0008530Y0189759D01*
X0008390Y0189821D01*
X0008251Y0189886D01*
X0008114Y0189955D01*
X0007979Y0190028D01*
X0007846Y0190104D01*
X0007715Y0190184D01*
X0007586Y0190266D01*
X0007459Y0190353D01*
X0007334Y0190442D01*
X0007212Y0190535D01*
X0007093Y0190631D01*
X0006975Y0190730D01*
X0006861Y0190831D01*
X0006749Y0190936D01*
X0006640Y0191044D01*
X0006534Y0191155D01*
X0006430Y0191268D01*
X0006330Y0191384D01*
X0006232Y0191502D01*
X0006138Y0191623D01*
X0006047Y0191746D01*
X0005959Y0191872D01*
X0005875Y0192000D01*
X0005793Y0192130D01*
X0005716Y0192262D01*
X0005641Y0192396D01*
X0005570Y0192532D01*
X0005503Y0192670D01*
X0005439Y0192810D01*
X0005379Y0192951D01*
X0005323Y0193093D01*
X0005270Y0193237D01*
X0005221Y0193383D01*
X0005176Y0193529D01*
X0005135Y0193677D01*
X0005098Y0193825D01*
X0005064Y0193975D01*
X0005034Y0194126D01*
X0005009Y0194277D01*
X0004987Y0194428D01*
X0004969Y0194581D01*
X0004955Y0194733D01*
X0004945Y0194886D01*
X0004939Y0195040D01*
X0004937Y0195193D01*
D11*
X0085000Y0167280D03*
X0085000Y0160587D03*
X0140000Y0105280D03*
X0151000Y0105280D03*
X0151000Y0098587D03*
X0140000Y0098587D03*
X0251000Y0160587D03*
X0251000Y0167280D03*
D12*
X0159823Y0082012D03*
X0159823Y0071776D03*
X0159823Y0061933D03*
D13*
X0185500Y0082933D03*
X0185500Y0097933D03*
X0185500Y0127933D03*
X0185500Y0142933D03*
X0021000Y0144433D03*
X0021000Y0129433D03*
X0021000Y0099433D03*
X0021000Y0084433D03*
D14*
X0120063Y0142933D03*
X0127937Y0142933D03*
X0160063Y0142933D03*
X0167937Y0142933D03*
X0192063Y0174933D03*
X0199937Y0174933D03*
X0199937Y0183933D03*
X0192063Y0183933D03*
X0037437Y0182933D03*
X0029563Y0182933D03*
X0029563Y0171933D03*
X0037437Y0171933D03*
D15*
X0061000Y0167870D03*
X0073000Y0167870D03*
X0073000Y0159996D03*
X0061000Y0159996D03*
X0069000Y0184996D03*
X0079500Y0184996D03*
X0079500Y0192870D03*
X0069000Y0192870D03*
X0231000Y0167870D03*
X0241000Y0167870D03*
X0241000Y0159996D03*
X0231000Y0159996D03*
X0233000Y0184996D03*
X0243000Y0184996D03*
X0243000Y0192870D03*
X0233000Y0192870D03*
D16*
X0200134Y0193433D03*
X0191866Y0193433D03*
X0037634Y0193433D03*
X0029366Y0193433D03*
D17*
X0139000Y0116633D03*
X0144700Y0116733D03*
X0150300Y0116733D03*
D18*
X0256000Y0054791D03*
X0256000Y0037075D03*
D19*
X0083858Y0052433D03*
X0066142Y0052433D03*
D20*
X0058331Y0184693D03*
X0049669Y0188433D03*
X0058331Y0192173D03*
X0213669Y0188933D03*
X0222331Y0185193D03*
X0222331Y0192673D03*
D21*
X0152000Y0183933D03*
X0142000Y0183933D03*
X0132000Y0183933D03*
X0122000Y0183933D03*
X0122000Y0173933D03*
X0132000Y0173933D03*
X0142000Y0173933D03*
X0152000Y0173933D03*
D22*
X0172000Y0058333D02*
X0172000Y0050933D01*
X0105700Y0050933D02*
X0098300Y0050933D01*
X0098300Y0040933D02*
X0105700Y0040933D01*
D23*
X0090000Y0035421D03*
X0066000Y0035421D03*
D24*
X0238512Y0032933D03*
X0238512Y0056933D03*
D25*
X0191000Y0053933D03*
X0191000Y0033933D03*
X0049000Y0033933D03*
X0049000Y0053933D03*
D26*
X0029000Y0053933D03*
X0029000Y0033933D03*
D27*
X0216000Y0033933D03*
X0216000Y0053933D03*
D28*
X0206000Y0095311D03*
X0206000Y0105311D03*
X0206000Y0115311D03*
X0256000Y0115311D03*
X0256000Y0105311D03*
X0256000Y0095311D03*
X0096000Y0095311D03*
X0096000Y0105311D03*
X0096000Y0115311D03*
X0046000Y0115311D03*
X0046000Y0105311D03*
X0046000Y0095311D03*
D29*
X0061000Y0145232D03*
X0071000Y0145232D03*
X0081000Y0145232D03*
X0221000Y0145232D03*
X0231000Y0145232D03*
X0241000Y0145232D03*
D30*
X0167346Y0152933D03*
X0160654Y0152933D03*
X0127346Y0152933D03*
X0120654Y0152933D03*
D31*
X0138000Y0152461D03*
X0151000Y0152461D03*
X0151000Y0143406D03*
X0138000Y0143406D03*
D32*
X0128409Y0143406D01*
X0127937Y0142933D01*
X0124372Y0142223D02*
X0123628Y0142223D01*
X0123628Y0143821D02*
X0124372Y0143821D01*
X0124372Y0145420D02*
X0123628Y0145420D01*
X0123628Y0146269D02*
X0122854Y0147044D01*
X0122854Y0148580D01*
X0123792Y0148580D01*
X0124000Y0148788D01*
X0124207Y0148580D01*
X0128588Y0148580D01*
X0128616Y0148552D01*
X0130439Y0148552D01*
X0130467Y0148580D01*
X0130485Y0148580D01*
X0131305Y0149400D01*
X0131305Y0149419D01*
X0131728Y0149841D01*
X0131728Y0151549D01*
X0131911Y0151733D01*
X0134966Y0151733D01*
X0134966Y0150641D01*
X0135786Y0149820D01*
X0140214Y0149820D01*
X0141034Y0150641D01*
X0141034Y0154281D01*
X0140214Y0155101D01*
X0140200Y0155101D01*
X0140200Y0158844D01*
X0140181Y0158863D01*
X0140181Y0159566D01*
X0139697Y0160735D01*
X0138802Y0161630D01*
X0137633Y0162114D01*
X0136367Y0162114D01*
X0135198Y0161630D01*
X0134303Y0160735D01*
X0133819Y0159566D01*
X0133819Y0158300D01*
X0134303Y0157131D01*
X0135198Y0156236D01*
X0135447Y0156133D01*
X0131305Y0156133D01*
X0131305Y0156466D01*
X0130485Y0157286D01*
X0125464Y0157286D01*
X0125930Y0157752D01*
X0126633Y0157752D01*
X0127802Y0158236D01*
X0128697Y0159131D01*
X0129181Y0160300D01*
X0129181Y0161566D01*
X0128697Y0162735D01*
X0127802Y0163630D01*
X0126633Y0164114D01*
X0125367Y0164114D01*
X0124198Y0163630D01*
X0123303Y0162735D01*
X0122819Y0161566D01*
X0122819Y0160863D01*
X0119327Y0157371D01*
X0100565Y0176133D01*
X0075089Y0176133D01*
X0073800Y0174844D01*
X0070800Y0171844D01*
X0070800Y0171435D01*
X0069664Y0171435D01*
X0068844Y0170615D01*
X0068844Y0165125D01*
X0069664Y0164305D01*
X0076336Y0164305D01*
X0077156Y0165125D01*
X0077156Y0170615D01*
X0076475Y0171297D01*
X0076911Y0171733D01*
X0098742Y0171733D01*
X0116694Y0153781D01*
X0116694Y0149400D01*
X0117515Y0148580D01*
X0118454Y0148580D01*
X0118454Y0147089D01*
X0117318Y0147089D01*
X0116498Y0146269D01*
X0116498Y0139597D01*
X0117318Y0138777D01*
X0122808Y0138777D01*
X0123628Y0139597D01*
X0123628Y0146269D01*
X0124372Y0146269D02*
X0124372Y0139597D01*
X0125192Y0138777D01*
X0130682Y0138777D01*
X0131502Y0139597D01*
X0131502Y0141206D01*
X0135346Y0141206D01*
X0135786Y0140765D01*
X0140214Y0140765D01*
X0141034Y0141585D01*
X0141034Y0145226D01*
X0140214Y0146046D01*
X0135786Y0146046D01*
X0135346Y0145605D01*
X0131502Y0145605D01*
X0131502Y0146269D01*
X0130682Y0147089D01*
X0125192Y0147089D01*
X0124372Y0146269D01*
X0125121Y0147018D02*
X0122879Y0147018D01*
X0123829Y0148617D02*
X0124171Y0148617D01*
X0127346Y0152933D02*
X0129528Y0150752D01*
X0129528Y0152461D01*
X0131000Y0153933D01*
X0136528Y0153933D01*
X0138000Y0152461D01*
X0138000Y0157933D01*
X0137000Y0158933D01*
X0134825Y0156610D02*
X0131162Y0156610D01*
X0133857Y0158208D02*
X0127734Y0158208D01*
X0128977Y0159807D02*
X0133919Y0159807D01*
X0134973Y0161405D02*
X0129181Y0161405D01*
X0128428Y0163004D02*
X0138818Y0163004D01*
X0138800Y0163022D02*
X0140800Y0161022D01*
X0142800Y0159022D01*
X0142800Y0119897D01*
X0142632Y0119827D01*
X0142083Y0119278D01*
X0141582Y0119779D01*
X0140918Y0120222D01*
X0140181Y0120527D01*
X0139399Y0120683D01*
X0139000Y0120683D01*
X0139000Y0116633D01*
X0139000Y0112583D01*
X0139399Y0112583D01*
X0140181Y0112739D01*
X0140918Y0113044D01*
X0141582Y0113487D01*
X0142146Y0114051D01*
X0142175Y0114096D01*
X0142632Y0113639D01*
X0142800Y0113569D01*
X0142800Y0112022D01*
X0146647Y0108175D01*
X0146647Y0102141D01*
X0146855Y0101933D01*
X0146647Y0101726D01*
X0146647Y0100787D01*
X0144353Y0100787D01*
X0144353Y0101575D01*
X0144393Y0101615D01*
X0144630Y0102026D01*
X0144753Y0102483D01*
X0144753Y0104800D01*
X0140480Y0104800D01*
X0140480Y0105759D01*
X0144753Y0105759D01*
X0144753Y0108076D01*
X0144630Y0108533D01*
X0144393Y0108944D01*
X0144058Y0109279D01*
X0143648Y0109516D01*
X0143190Y0109639D01*
X0140480Y0109639D01*
X0140480Y0105759D01*
X0139520Y0105759D01*
X0139520Y0104800D01*
X0135247Y0104800D01*
X0135247Y0102483D01*
X0135370Y0102026D01*
X0135607Y0101615D01*
X0135647Y0101575D01*
X0135647Y0095448D01*
X0136467Y0094628D01*
X0143533Y0094628D01*
X0144353Y0095448D01*
X0144353Y0096387D01*
X0146647Y0096387D01*
X0146647Y0095448D01*
X0147467Y0094628D01*
X0154533Y0094628D01*
X0155353Y0095448D01*
X0155353Y0096733D01*
X0156911Y0096733D01*
X0158200Y0098022D01*
X0163200Y0103022D01*
X0163200Y0109844D01*
X0161911Y0111133D01*
X0154111Y0118933D01*
X0153262Y0118933D01*
X0152368Y0119827D01*
X0151026Y0120383D01*
X0149574Y0120383D01*
X0148232Y0119827D01*
X0147500Y0119095D01*
X0147200Y0119395D01*
X0147200Y0160844D01*
X0145911Y0162133D01*
X0143911Y0164133D01*
X0141911Y0166133D01*
X0136145Y0171900D01*
X0136368Y0172124D01*
X0136368Y0175743D01*
X0133809Y0178302D01*
X0130191Y0178302D01*
X0127631Y0175743D01*
X0127631Y0172124D01*
X0130191Y0169565D01*
X0132257Y0169565D01*
X0138800Y0163022D01*
X0139027Y0161405D02*
X0140417Y0161405D01*
X0140081Y0159807D02*
X0142015Y0159807D01*
X0142800Y0158208D02*
X0140200Y0158208D01*
X0140200Y0156610D02*
X0142800Y0156610D01*
X0142800Y0155011D02*
X0140304Y0155011D01*
X0141034Y0153412D02*
X0142800Y0153412D01*
X0142800Y0151814D02*
X0141034Y0151814D01*
X0140609Y0150215D02*
X0142800Y0150215D01*
X0142800Y0148617D02*
X0130522Y0148617D01*
X0130753Y0147018D02*
X0142800Y0147018D01*
X0142800Y0145420D02*
X0140839Y0145420D01*
X0141034Y0143821D02*
X0142800Y0143821D01*
X0142800Y0142223D02*
X0141034Y0142223D01*
X0142800Y0140624D02*
X0131502Y0140624D01*
X0130931Y0139026D02*
X0142800Y0139026D01*
X0142800Y0137427D02*
X0042606Y0137427D01*
X0044204Y0139026D02*
X0117069Y0139026D01*
X0116498Y0140624D02*
X0045803Y0140624D01*
X0046911Y0141733D02*
X0048200Y0143022D01*
X0048200Y0178844D01*
X0045696Y0181348D01*
X0049412Y0185065D01*
X0053005Y0185065D01*
X0053825Y0185885D01*
X0053825Y0190981D01*
X0053005Y0191802D01*
X0046333Y0191802D01*
X0045513Y0190981D01*
X0045513Y0187388D01*
X0043258Y0185133D01*
X0041002Y0185133D01*
X0041002Y0186269D01*
X0040182Y0187089D01*
X0034692Y0187089D01*
X0033872Y0186269D01*
X0033872Y0179597D01*
X0034692Y0178777D01*
X0040182Y0178777D01*
X0041002Y0179597D01*
X0041002Y0179819D01*
X0043800Y0177022D01*
X0043800Y0144844D01*
X0033889Y0134933D01*
X0023726Y0134933D01*
X0022218Y0135557D01*
X0019782Y0135557D01*
X0018274Y0134933D01*
X0011000Y0134933D01*
X0011000Y0187487D01*
X0012375Y0187487D01*
X0015207Y0188660D01*
X0017375Y0190828D01*
X0018548Y0193660D01*
X0018548Y0196726D01*
X0017375Y0199558D01*
X0016000Y0200933D01*
X0065971Y0200933D01*
X0065819Y0200566D01*
X0065819Y0199300D01*
X0066303Y0198131D01*
X0066800Y0197634D01*
X0066800Y0196435D01*
X0065664Y0196435D01*
X0064844Y0195615D01*
X0064844Y0194373D01*
X0062487Y0194373D01*
X0062487Y0194722D01*
X0061667Y0195542D01*
X0054995Y0195542D01*
X0054175Y0194722D01*
X0054175Y0189625D01*
X0054995Y0188805D01*
X0061667Y0188805D01*
X0062487Y0189625D01*
X0062487Y0189973D01*
X0064624Y0189973D01*
X0064815Y0189843D01*
X0065077Y0189892D01*
X0065664Y0189305D01*
X0072336Y0189305D01*
X0073156Y0190125D01*
X0073156Y0195615D01*
X0072336Y0196435D01*
X0071200Y0196435D01*
X0071200Y0197634D01*
X0071697Y0198131D01*
X0072181Y0199300D01*
X0072181Y0200566D01*
X0072029Y0200933D01*
X0220971Y0200933D01*
X0220819Y0200566D01*
X0220819Y0199863D01*
X0220131Y0199175D01*
X0220131Y0196042D01*
X0218995Y0196042D01*
X0218175Y0195222D01*
X0218175Y0190125D01*
X0218995Y0189305D01*
X0225667Y0189305D01*
X0226487Y0190125D01*
X0226487Y0190473D01*
X0228844Y0190473D01*
X0228844Y0190125D01*
X0229664Y0189305D01*
X0236336Y0189305D01*
X0237156Y0190125D01*
X0237156Y0195615D01*
X0236336Y0196435D01*
X0229664Y0196435D01*
X0228844Y0195615D01*
X0228844Y0194873D01*
X0226487Y0194873D01*
X0226487Y0195222D01*
X0225667Y0196042D01*
X0224531Y0196042D01*
X0224531Y0196752D01*
X0224633Y0196752D01*
X0225802Y0197236D01*
X0226697Y0198131D01*
X0227181Y0199300D01*
X0227181Y0200566D01*
X0227029Y0200933D01*
X0264000Y0200933D01*
X0264000Y0197169D01*
X0263294Y0195466D01*
X0263294Y0192400D01*
X0264000Y0190697D01*
X0264000Y0174003D01*
X0263697Y0174735D01*
X0262802Y0175630D01*
X0261633Y0176114D01*
X0260367Y0176114D01*
X0259198Y0175630D01*
X0258303Y0174735D01*
X0257819Y0173566D01*
X0257819Y0172863D01*
X0255353Y0170397D01*
X0255353Y0170418D01*
X0254533Y0171239D01*
X0247467Y0171239D01*
X0246647Y0170418D01*
X0246647Y0169480D01*
X0245156Y0169480D01*
X0245156Y0170615D01*
X0244336Y0171435D01*
X0237664Y0171435D01*
X0236844Y0170615D01*
X0236844Y0165125D01*
X0237664Y0164305D01*
X0244336Y0164305D01*
X0245111Y0165080D01*
X0246647Y0165080D01*
X0246647Y0164291D01*
X0246607Y0164251D01*
X0246370Y0163840D01*
X0246247Y0163383D01*
X0246247Y0161066D01*
X0250520Y0161066D01*
X0250520Y0160107D01*
X0246247Y0160107D01*
X0246247Y0157791D01*
X0246370Y0157333D01*
X0246607Y0156922D01*
X0246942Y0156587D01*
X0247352Y0156350D01*
X0247810Y0156228D01*
X0250520Y0156228D01*
X0250520Y0160107D01*
X0251480Y0160107D01*
X0251480Y0161066D01*
X0255753Y0161066D01*
X0255753Y0163383D01*
X0255630Y0163840D01*
X0255393Y0164251D01*
X0255353Y0164291D01*
X0255353Y0165080D01*
X0256258Y0165080D01*
X0257546Y0166368D01*
X0260930Y0169752D01*
X0261633Y0169752D01*
X0262802Y0170236D01*
X0263697Y0171131D01*
X0264000Y0171863D01*
X0264000Y0132933D01*
X0187279Y0133825D01*
X0186718Y0134057D01*
X0184282Y0134057D01*
X0183818Y0133865D01*
X0178000Y0133933D01*
X0178000Y0101515D01*
X0177200Y0099584D01*
X0177200Y0096282D01*
X0178000Y0094351D01*
X0178000Y0093933D01*
X0105000Y0093933D01*
X0105000Y0134933D01*
X0040111Y0134933D01*
X0046911Y0141733D01*
X0047401Y0142223D02*
X0058945Y0142223D01*
X0058971Y0142196D02*
X0060288Y0141651D01*
X0061712Y0141651D01*
X0063029Y0142196D01*
X0064036Y0143204D01*
X0064581Y0144520D01*
X0064581Y0145945D01*
X0064036Y0147261D01*
X0063200Y0148097D01*
X0063200Y0156431D01*
X0064336Y0156431D01*
X0065156Y0157251D01*
X0065156Y0157796D01*
X0068844Y0157796D01*
X0068844Y0157251D01*
X0069664Y0156431D01*
X0076336Y0156431D01*
X0077156Y0157251D01*
X0077156Y0162741D01*
X0076336Y0163561D01*
X0069664Y0163561D01*
X0068844Y0162741D01*
X0068844Y0162196D01*
X0065156Y0162196D01*
X0065156Y0162741D01*
X0064336Y0163561D01*
X0057664Y0163561D01*
X0056844Y0162741D01*
X0056844Y0157251D01*
X0057664Y0156431D01*
X0058800Y0156431D01*
X0058800Y0148097D01*
X0057964Y0147261D01*
X0057419Y0145945D01*
X0057419Y0144520D01*
X0057964Y0143204D01*
X0058971Y0142196D01*
X0057708Y0143821D02*
X0048200Y0143821D01*
X0048200Y0145420D02*
X0057419Y0145420D01*
X0057864Y0147018D02*
X0048200Y0147018D01*
X0048200Y0148617D02*
X0058800Y0148617D01*
X0058800Y0150215D02*
X0048200Y0150215D01*
X0048200Y0151814D02*
X0058800Y0151814D01*
X0058800Y0153412D02*
X0048200Y0153412D01*
X0048200Y0155011D02*
X0058800Y0155011D01*
X0057485Y0156610D02*
X0048200Y0156610D01*
X0048200Y0158208D02*
X0056844Y0158208D01*
X0056844Y0159807D02*
X0048200Y0159807D01*
X0048200Y0161405D02*
X0056844Y0161405D01*
X0057106Y0163004D02*
X0048200Y0163004D01*
X0048200Y0164602D02*
X0057367Y0164602D01*
X0057664Y0164305D02*
X0064336Y0164305D01*
X0065156Y0165125D01*
X0065156Y0170615D01*
X0064336Y0171435D01*
X0060609Y0171435D01*
X0057181Y0174863D01*
X0057181Y0175566D01*
X0056697Y0176735D01*
X0055802Y0177630D01*
X0054633Y0178114D01*
X0053367Y0178114D01*
X0052198Y0177630D01*
X0051303Y0176735D01*
X0050819Y0175566D01*
X0050819Y0174300D01*
X0051303Y0173131D01*
X0052198Y0172236D01*
X0053367Y0171752D01*
X0054070Y0171752D01*
X0056844Y0168978D01*
X0056844Y0165125D01*
X0057664Y0164305D01*
X0056844Y0166201D02*
X0048200Y0166201D01*
X0048200Y0167799D02*
X0056844Y0167799D01*
X0056424Y0169398D02*
X0048200Y0169398D01*
X0048200Y0170996D02*
X0054826Y0170996D01*
X0051840Y0172595D02*
X0048200Y0172595D01*
X0048200Y0174193D02*
X0050863Y0174193D01*
X0050912Y0175792D02*
X0048200Y0175792D01*
X0048200Y0177390D02*
X0051958Y0177390D01*
X0054000Y0174933D02*
X0061000Y0167933D01*
X0061000Y0167870D01*
X0065156Y0167799D02*
X0068844Y0167799D01*
X0068844Y0166201D02*
X0065156Y0166201D01*
X0064633Y0164602D02*
X0069367Y0164602D01*
X0069106Y0163004D02*
X0064894Y0163004D01*
X0061000Y0159996D02*
X0073000Y0159996D01*
X0077156Y0159807D02*
X0080647Y0159807D01*
X0080647Y0161405D02*
X0077156Y0161405D01*
X0076894Y0163004D02*
X0080647Y0163004D01*
X0080647Y0163575D02*
X0080647Y0157991D01*
X0071470Y0148813D01*
X0070288Y0148813D01*
X0068971Y0148268D01*
X0067964Y0147261D01*
X0067419Y0145945D01*
X0067419Y0144520D01*
X0067964Y0143204D01*
X0068971Y0142196D01*
X0070288Y0141651D01*
X0071712Y0141651D01*
X0073029Y0142196D01*
X0074036Y0143204D01*
X0074581Y0144520D01*
X0074581Y0145702D01*
X0085507Y0156628D01*
X0088533Y0156628D01*
X0089353Y0157448D01*
X0089353Y0163575D01*
X0089393Y0163615D01*
X0089630Y0164026D01*
X0089753Y0164483D01*
X0089753Y0166800D01*
X0085480Y0166800D01*
X0085480Y0167759D01*
X0089753Y0167759D01*
X0089753Y0170076D01*
X0089630Y0170533D01*
X0089393Y0170944D01*
X0089058Y0171279D01*
X0088648Y0171516D01*
X0088190Y0171639D01*
X0085480Y0171639D01*
X0085480Y0167759D01*
X0084520Y0167759D01*
X0084520Y0166800D01*
X0080247Y0166800D01*
X0080247Y0164483D01*
X0080370Y0164026D01*
X0080607Y0163615D01*
X0080647Y0163575D01*
X0080247Y0164602D02*
X0076633Y0164602D01*
X0077156Y0166201D02*
X0080247Y0166201D01*
X0080247Y0167759D02*
X0084520Y0167759D01*
X0084520Y0171639D01*
X0081810Y0171639D01*
X0081352Y0171516D01*
X0080942Y0171279D01*
X0080607Y0170944D01*
X0080370Y0170533D01*
X0080247Y0170076D01*
X0080247Y0167759D01*
X0080247Y0167799D02*
X0077156Y0167799D01*
X0077156Y0169398D02*
X0080247Y0169398D01*
X0080659Y0170996D02*
X0076775Y0170996D01*
X0076000Y0173933D02*
X0073000Y0170933D01*
X0073000Y0167870D01*
X0068844Y0169398D02*
X0065156Y0169398D01*
X0064775Y0170996D02*
X0069225Y0170996D01*
X0071550Y0172595D02*
X0059450Y0172595D01*
X0057851Y0174193D02*
X0073149Y0174193D01*
X0074747Y0175792D02*
X0057088Y0175792D01*
X0056042Y0177390D02*
X0118713Y0177390D01*
X0120025Y0178702D02*
X0117231Y0175908D01*
X0117231Y0174117D01*
X0121816Y0174117D01*
X0121816Y0173749D01*
X0122184Y0173749D01*
X0122184Y0169165D01*
X0123975Y0169165D01*
X0126768Y0171958D01*
X0126768Y0173749D01*
X0122184Y0173749D01*
X0122184Y0174117D01*
X0126768Y0174117D01*
X0126768Y0175908D01*
X0123975Y0178702D01*
X0122184Y0178702D01*
X0122184Y0174117D01*
X0121816Y0174117D01*
X0121816Y0178702D01*
X0120025Y0178702D01*
X0120191Y0179565D02*
X0123809Y0179565D01*
X0126368Y0182124D01*
X0126368Y0185743D01*
X0123809Y0188302D01*
X0120191Y0188302D01*
X0117631Y0185743D01*
X0117631Y0182124D01*
X0120191Y0179565D01*
X0119168Y0180587D02*
X0046457Y0180587D01*
X0046533Y0182186D02*
X0054175Y0182186D01*
X0054175Y0182145D02*
X0054995Y0181324D01*
X0061667Y0181324D01*
X0062487Y0182145D01*
X0062487Y0182493D01*
X0064844Y0182493D01*
X0064844Y0182251D01*
X0065664Y0181431D01*
X0072336Y0181431D01*
X0073156Y0182251D01*
X0073156Y0182796D01*
X0075344Y0182796D01*
X0075344Y0182251D01*
X0076164Y0181431D01*
X0082836Y0181431D01*
X0083656Y0182251D01*
X0083656Y0187741D01*
X0082836Y0188561D01*
X0076164Y0188561D01*
X0075344Y0187741D01*
X0075344Y0187196D01*
X0073156Y0187196D01*
X0073156Y0187741D01*
X0072336Y0188561D01*
X0065664Y0188561D01*
X0064844Y0187741D01*
X0064844Y0186893D01*
X0062487Y0186893D01*
X0062487Y0187241D01*
X0061667Y0188061D01*
X0054995Y0188061D01*
X0054175Y0187241D01*
X0054175Y0182145D01*
X0054175Y0183784D02*
X0048132Y0183784D01*
X0044169Y0182933D02*
X0049669Y0188433D01*
X0045513Y0188580D02*
X0031566Y0188580D01*
X0031566Y0189671D02*
X0031566Y0187089D01*
X0032308Y0187089D01*
X0033128Y0186269D01*
X0033128Y0179597D01*
X0032308Y0178777D01*
X0026818Y0178777D01*
X0025998Y0179597D01*
X0025998Y0186269D01*
X0026818Y0187089D01*
X0027166Y0187089D01*
X0027166Y0189671D01*
X0026424Y0189671D01*
X0025604Y0190491D01*
X0025604Y0196375D01*
X0026424Y0197195D01*
X0032308Y0197195D01*
X0033128Y0196375D01*
X0033128Y0190491D01*
X0032308Y0189671D01*
X0031566Y0189671D01*
X0032816Y0190178D02*
X0033709Y0190178D01*
X0033594Y0190376D02*
X0033831Y0189966D01*
X0034166Y0189630D01*
X0034577Y0189394D01*
X0035035Y0189271D01*
X0037253Y0189271D01*
X0037253Y0193052D01*
X0038015Y0193052D01*
X0038015Y0193814D01*
X0041796Y0193814D01*
X0041796Y0196032D01*
X0041673Y0196490D01*
X0041436Y0196900D01*
X0041101Y0197236D01*
X0040691Y0197473D01*
X0040233Y0197595D01*
X0038015Y0197595D01*
X0038015Y0193814D01*
X0037253Y0193814D01*
X0037253Y0197595D01*
X0035035Y0197595D01*
X0034577Y0197473D01*
X0034166Y0197236D01*
X0033831Y0196900D01*
X0033594Y0196490D01*
X0033472Y0196032D01*
X0033472Y0193814D01*
X0037253Y0193814D01*
X0037253Y0193052D01*
X0033472Y0193052D01*
X0033472Y0190834D01*
X0033594Y0190376D01*
X0033472Y0191777D02*
X0033128Y0191777D01*
X0033128Y0193375D02*
X0037253Y0193375D01*
X0038015Y0193375D02*
X0054175Y0193375D01*
X0054175Y0191777D02*
X0053030Y0191777D01*
X0053825Y0190178D02*
X0054175Y0190178D01*
X0053825Y0188580D02*
X0134242Y0188580D01*
X0133809Y0188302D02*
X0130191Y0188302D01*
X0127631Y0185743D01*
X0127631Y0182124D01*
X0130191Y0179565D01*
X0133809Y0179565D01*
X0136368Y0182124D01*
X0136368Y0185743D01*
X0133809Y0188302D01*
X0135130Y0186981D02*
X0135841Y0186981D01*
X0136368Y0185383D02*
X0137439Y0185383D01*
X0137631Y0185190D02*
X0137631Y0182124D01*
X0140191Y0179565D01*
X0143809Y0179565D01*
X0146368Y0182124D01*
X0146368Y0185743D01*
X0143809Y0188302D01*
X0140743Y0188302D01*
X0133974Y0195070D01*
X0083656Y0195070D01*
X0083656Y0195615D01*
X0082836Y0196435D01*
X0076164Y0196435D01*
X0075344Y0195615D01*
X0075344Y0190125D01*
X0076164Y0189305D01*
X0082836Y0189305D01*
X0083656Y0190125D01*
X0083656Y0190670D01*
X0132152Y0190670D01*
X0137631Y0185190D01*
X0137631Y0183784D02*
X0136368Y0183784D01*
X0136368Y0182186D02*
X0137631Y0182186D01*
X0139168Y0180587D02*
X0134832Y0180587D01*
X0137631Y0175743D02*
X0140191Y0178302D01*
X0143809Y0178302D01*
X0146368Y0175743D01*
X0146368Y0172124D01*
X0143809Y0169565D01*
X0140191Y0169565D01*
X0137631Y0172124D01*
X0137631Y0175743D01*
X0137681Y0175792D02*
X0136319Y0175792D01*
X0136368Y0174193D02*
X0137631Y0174193D01*
X0137631Y0172595D02*
X0136368Y0172595D01*
X0137048Y0170996D02*
X0138759Y0170996D01*
X0138647Y0169398D02*
X0152424Y0169398D01*
X0152257Y0169565D02*
X0158800Y0163022D01*
X0161800Y0160022D01*
X0164536Y0157286D01*
X0164207Y0157286D01*
X0164000Y0157078D01*
X0163792Y0157286D01*
X0157515Y0157286D01*
X0156694Y0156466D01*
X0156694Y0154661D01*
X0153654Y0154661D01*
X0153214Y0155101D01*
X0153200Y0155101D01*
X0153200Y0155987D01*
X0153802Y0156236D01*
X0154697Y0157131D01*
X0155181Y0158300D01*
X0155181Y0159566D01*
X0154697Y0160735D01*
X0153802Y0161630D01*
X0152633Y0162114D01*
X0151367Y0162114D01*
X0150198Y0161630D01*
X0149303Y0160735D01*
X0148819Y0159566D01*
X0148819Y0158863D01*
X0148800Y0158844D01*
X0148800Y0155101D01*
X0148786Y0155101D01*
X0147966Y0154281D01*
X0147966Y0150641D01*
X0148786Y0149820D01*
X0153214Y0149820D01*
X0153654Y0150261D01*
X0156694Y0150261D01*
X0156694Y0149400D01*
X0157515Y0148580D01*
X0163792Y0148580D01*
X0164000Y0148788D01*
X0164207Y0148580D01*
X0165737Y0148580D01*
X0165737Y0147089D01*
X0165192Y0147089D01*
X0164372Y0146269D01*
X0164372Y0139597D01*
X0165192Y0138777D01*
X0170682Y0138777D01*
X0171502Y0139597D01*
X0171502Y0146269D01*
X0170682Y0147089D01*
X0170137Y0147089D01*
X0170137Y0148580D01*
X0170485Y0148580D01*
X0171305Y0149400D01*
X0171305Y0150143D01*
X0205321Y0150143D01*
X0208200Y0153022D01*
X0220848Y0165670D01*
X0226844Y0165670D01*
X0226844Y0165125D01*
X0227664Y0164305D01*
X0234336Y0164305D01*
X0235156Y0165125D01*
X0235156Y0170615D01*
X0234336Y0171435D01*
X0227664Y0171435D01*
X0226844Y0170615D01*
X0226844Y0170070D01*
X0219026Y0170070D01*
X0205089Y0156133D01*
X0203498Y0154543D01*
X0171305Y0154543D01*
X0171305Y0156466D01*
X0170485Y0157286D01*
X0169546Y0157286D01*
X0169546Y0158498D01*
X0164911Y0163133D01*
X0161911Y0166133D01*
X0156145Y0171900D01*
X0156368Y0172124D01*
X0156368Y0175743D01*
X0153809Y0178302D01*
X0150191Y0178302D01*
X0147631Y0175743D01*
X0147631Y0172124D01*
X0150191Y0169565D01*
X0152257Y0169565D01*
X0154023Y0167799D02*
X0140245Y0167799D01*
X0141844Y0166201D02*
X0155621Y0166201D01*
X0157220Y0164602D02*
X0143442Y0164602D01*
X0145041Y0163004D02*
X0158818Y0163004D01*
X0160417Y0161405D02*
X0154027Y0161405D01*
X0155081Y0159807D02*
X0162015Y0159807D01*
X0163614Y0158208D02*
X0155143Y0158208D01*
X0154175Y0156610D02*
X0156838Y0156610D01*
X0156694Y0155011D02*
X0153304Y0155011D01*
X0151000Y0152461D02*
X0151000Y0157933D01*
X0152000Y0158933D01*
X0149973Y0161405D02*
X0146639Y0161405D01*
X0147200Y0159807D02*
X0148919Y0159807D01*
X0148800Y0158208D02*
X0147200Y0158208D01*
X0147200Y0156610D02*
X0148800Y0156610D01*
X0148696Y0155011D02*
X0147200Y0155011D01*
X0147200Y0153412D02*
X0147966Y0153412D01*
X0147966Y0151814D02*
X0147200Y0151814D01*
X0147200Y0150215D02*
X0148391Y0150215D01*
X0147200Y0148617D02*
X0157478Y0148617D01*
X0157318Y0147089D02*
X0156498Y0146269D01*
X0156498Y0145605D01*
X0153654Y0145605D01*
X0153214Y0146046D01*
X0148786Y0146046D01*
X0147966Y0145226D01*
X0147966Y0141585D01*
X0148786Y0140765D01*
X0153214Y0140765D01*
X0153654Y0141206D01*
X0156498Y0141206D01*
X0156498Y0139597D01*
X0157318Y0138777D01*
X0162808Y0138777D01*
X0163628Y0139597D01*
X0163628Y0146269D01*
X0162808Y0147089D01*
X0157318Y0147089D01*
X0157247Y0147018D02*
X0147200Y0147018D01*
X0147200Y0145420D02*
X0148161Y0145420D01*
X0147966Y0143821D02*
X0147200Y0143821D01*
X0147200Y0142223D02*
X0147966Y0142223D01*
X0147200Y0140624D02*
X0156498Y0140624D01*
X0157069Y0139026D02*
X0147200Y0139026D01*
X0147200Y0137427D02*
X0182788Y0137427D01*
X0182031Y0137741D02*
X0184282Y0136809D01*
X0186718Y0136809D01*
X0188969Y0137741D01*
X0190692Y0139464D01*
X0191624Y0141715D01*
X0191624Y0144151D01*
X0190692Y0146402D01*
X0188969Y0148125D01*
X0186718Y0149057D01*
X0184282Y0149057D01*
X0182031Y0148125D01*
X0180308Y0146402D01*
X0179376Y0144151D01*
X0179376Y0141715D01*
X0180308Y0139464D01*
X0182031Y0137741D01*
X0180746Y0139026D02*
X0170931Y0139026D01*
X0171502Y0140624D02*
X0179827Y0140624D01*
X0179376Y0142223D02*
X0171502Y0142223D01*
X0171502Y0143821D02*
X0179376Y0143821D01*
X0179901Y0145420D02*
X0171502Y0145420D01*
X0170753Y0147018D02*
X0180924Y0147018D01*
X0183218Y0148617D02*
X0170522Y0148617D01*
X0165121Y0147018D02*
X0162879Y0147018D01*
X0163628Y0145420D02*
X0164372Y0145420D01*
X0164372Y0143821D02*
X0163628Y0143821D01*
X0163628Y0142223D02*
X0164372Y0142223D01*
X0164372Y0140624D02*
X0163628Y0140624D01*
X0163057Y0139026D02*
X0164943Y0139026D01*
X0167937Y0142933D02*
X0167937Y0152343D01*
X0204409Y0152343D01*
X0206000Y0153933D01*
X0219937Y0167870D01*
X0231000Y0167870D01*
X0235156Y0167799D02*
X0236844Y0167799D01*
X0236844Y0166201D02*
X0235156Y0166201D01*
X0234633Y0164602D02*
X0237367Y0164602D01*
X0237664Y0163561D02*
X0236844Y0162741D01*
X0236844Y0162196D01*
X0235156Y0162196D01*
X0235156Y0162741D01*
X0234336Y0163561D01*
X0227664Y0163561D01*
X0226844Y0162741D01*
X0226844Y0158951D01*
X0218800Y0150907D01*
X0218800Y0148097D01*
X0217964Y0147261D01*
X0217419Y0145945D01*
X0217419Y0144520D01*
X0217964Y0143204D01*
X0218971Y0142196D01*
X0220288Y0141651D01*
X0221712Y0141651D01*
X0223029Y0142196D01*
X0224036Y0143204D01*
X0224581Y0144520D01*
X0224581Y0145945D01*
X0224036Y0147261D01*
X0223200Y0148097D01*
X0223200Y0149085D01*
X0230546Y0156431D01*
X0234336Y0156431D01*
X0235156Y0157251D01*
X0235156Y0157796D01*
X0236844Y0157796D01*
X0236844Y0157251D01*
X0237664Y0156431D01*
X0244336Y0156431D01*
X0245156Y0157251D01*
X0245156Y0162741D01*
X0244336Y0163561D01*
X0237664Y0163561D01*
X0237106Y0163004D02*
X0234894Y0163004D01*
X0231000Y0159996D02*
X0241000Y0159996D01*
X0245156Y0159807D02*
X0246247Y0159807D01*
X0246247Y0161405D02*
X0245156Y0161405D01*
X0244894Y0163004D02*
X0246247Y0163004D01*
X0246647Y0164602D02*
X0244633Y0164602D01*
X0241591Y0167280D02*
X0241000Y0167870D01*
X0241591Y0167280D02*
X0251000Y0167280D01*
X0255346Y0167280D01*
X0261000Y0172933D01*
X0258079Y0174193D02*
X0249371Y0174193D01*
X0248911Y0173733D02*
X0251911Y0176733D01*
X0251911Y0176733D01*
X0253200Y0178022D01*
X0253200Y0189844D01*
X0248200Y0194844D01*
X0246911Y0196133D01*
X0246638Y0196133D01*
X0246336Y0196435D01*
X0239664Y0196435D01*
X0238844Y0195615D01*
X0238844Y0190125D01*
X0239664Y0189305D01*
X0246336Y0189305D01*
X0246926Y0189895D01*
X0248800Y0188022D01*
X0248800Y0179844D01*
X0247089Y0178133D01*
X0233299Y0178133D01*
X0232802Y0178630D01*
X0231633Y0179114D01*
X0230367Y0179114D01*
X0229198Y0178630D01*
X0228303Y0177735D01*
X0227819Y0176566D01*
X0227819Y0175300D01*
X0228303Y0174131D01*
X0229198Y0173236D01*
X0230367Y0172752D01*
X0231633Y0172752D01*
X0232802Y0173236D01*
X0233299Y0173733D01*
X0248911Y0173733D01*
X0248000Y0175933D02*
X0251000Y0178933D01*
X0251000Y0188933D01*
X0246000Y0193933D01*
X0244063Y0193933D01*
X0243000Y0192870D01*
X0238844Y0193375D02*
X0237156Y0193375D01*
X0237156Y0191777D02*
X0238844Y0191777D01*
X0238844Y0190178D02*
X0237156Y0190178D01*
X0236336Y0188561D02*
X0229664Y0188561D01*
X0228844Y0187741D01*
X0228844Y0187393D01*
X0226487Y0187393D01*
X0226487Y0187741D01*
X0225667Y0188561D01*
X0218995Y0188561D01*
X0218175Y0187741D01*
X0218175Y0182645D01*
X0218995Y0181824D01*
X0225667Y0181824D01*
X0226487Y0182645D01*
X0226487Y0182993D01*
X0228844Y0182993D01*
X0228844Y0182251D01*
X0229664Y0181431D01*
X0236336Y0181431D01*
X0237156Y0182251D01*
X0237156Y0182796D01*
X0238844Y0182796D01*
X0238844Y0182251D01*
X0239664Y0181431D01*
X0246336Y0181431D01*
X0247156Y0182251D01*
X0247156Y0187741D01*
X0246336Y0188561D01*
X0239664Y0188561D01*
X0238844Y0187741D01*
X0238844Y0187196D01*
X0237156Y0187196D01*
X0237156Y0187741D01*
X0236336Y0188561D01*
X0232803Y0185193D02*
X0233000Y0184996D01*
X0243000Y0184996D01*
X0247156Y0185383D02*
X0248800Y0185383D01*
X0248800Y0186981D02*
X0247156Y0186981D01*
X0248242Y0188580D02*
X0217825Y0188580D01*
X0217825Y0190178D02*
X0218175Y0190178D01*
X0217825Y0191481D02*
X0217005Y0192302D01*
X0210333Y0192302D01*
X0209513Y0191481D01*
X0209513Y0190558D01*
X0205089Y0186133D01*
X0203502Y0186133D01*
X0203502Y0187269D01*
X0202682Y0188089D01*
X0197192Y0188089D01*
X0196372Y0187269D01*
X0196372Y0180597D01*
X0197192Y0179777D01*
X0202682Y0179777D01*
X0203502Y0180597D01*
X0203502Y0181733D01*
X0205089Y0181733D01*
X0208800Y0178022D01*
X0208800Y0176232D01*
X0208303Y0175735D01*
X0207819Y0174566D01*
X0207819Y0173300D01*
X0208303Y0172131D01*
X0209198Y0171236D01*
X0210367Y0170752D01*
X0211633Y0170752D01*
X0212802Y0171236D01*
X0213697Y0172131D01*
X0214181Y0173300D01*
X0214181Y0174566D01*
X0213697Y0175735D01*
X0213200Y0176232D01*
X0213200Y0179844D01*
X0209111Y0183933D01*
X0210743Y0185565D01*
X0217005Y0185565D01*
X0217825Y0186385D01*
X0217825Y0191481D01*
X0217530Y0191777D02*
X0218175Y0191777D01*
X0218175Y0193375D02*
X0200515Y0193375D01*
X0200515Y0193052D02*
X0200515Y0193814D01*
X0204296Y0193814D01*
X0204296Y0196032D01*
X0204173Y0196490D01*
X0203936Y0196900D01*
X0203601Y0197236D01*
X0203191Y0197473D01*
X0202733Y0197595D01*
X0200515Y0197595D01*
X0200515Y0193814D01*
X0199753Y0193814D01*
X0199753Y0197595D01*
X0197535Y0197595D01*
X0197077Y0197473D01*
X0196666Y0197236D01*
X0196331Y0196900D01*
X0196094Y0196490D01*
X0195972Y0196032D01*
X0195972Y0193814D01*
X0199753Y0193814D01*
X0199753Y0193052D01*
X0200515Y0193052D01*
X0204296Y0193052D01*
X0204296Y0190834D01*
X0204173Y0190376D01*
X0203936Y0189966D01*
X0203601Y0189630D01*
X0203191Y0189394D01*
X0202733Y0189271D01*
X0200515Y0189271D01*
X0200515Y0193052D01*
X0199753Y0193052D02*
X0199753Y0189271D01*
X0197535Y0189271D01*
X0197077Y0189394D01*
X0196666Y0189630D01*
X0196331Y0189966D01*
X0196094Y0190376D01*
X0195972Y0190834D01*
X0195972Y0193052D01*
X0199753Y0193052D01*
X0199753Y0193375D02*
X0195628Y0193375D01*
X0195628Y0191777D02*
X0195972Y0191777D01*
X0195628Y0190491D02*
X0194808Y0189671D01*
X0194263Y0189671D01*
X0194263Y0188089D01*
X0194808Y0188089D01*
X0195628Y0187269D01*
X0195628Y0180597D01*
X0194808Y0179777D01*
X0189318Y0179777D01*
X0188498Y0180597D01*
X0188498Y0187269D01*
X0189318Y0188089D01*
X0189863Y0188089D01*
X0189863Y0189671D01*
X0188924Y0189671D01*
X0188104Y0190491D01*
X0188104Y0196375D01*
X0188924Y0197195D01*
X0194808Y0197195D01*
X0195628Y0196375D01*
X0195628Y0190491D01*
X0195316Y0190178D02*
X0196209Y0190178D01*
X0194263Y0188580D02*
X0207535Y0188580D01*
X0205937Y0186981D02*
X0203502Y0186981D01*
X0204059Y0190178D02*
X0209134Y0190178D01*
X0209809Y0191777D02*
X0204296Y0191777D01*
X0204296Y0194974D02*
X0218175Y0194974D01*
X0220131Y0196572D02*
X0204126Y0196572D01*
X0200515Y0196572D02*
X0199753Y0196572D01*
X0199753Y0194974D02*
X0200515Y0194974D01*
X0200515Y0191777D02*
X0199753Y0191777D01*
X0199753Y0190178D02*
X0200515Y0190178D01*
X0196372Y0186981D02*
X0195628Y0186981D01*
X0195628Y0185383D02*
X0196372Y0185383D01*
X0196372Y0183784D02*
X0195628Y0183784D01*
X0195628Y0182186D02*
X0196372Y0182186D01*
X0196382Y0180587D02*
X0195618Y0180587D01*
X0194808Y0179089D02*
X0189318Y0179089D01*
X0188498Y0178269D01*
X0188498Y0171597D01*
X0188800Y0171295D01*
X0188800Y0166232D01*
X0188303Y0165735D01*
X0187819Y0164566D01*
X0187819Y0163300D01*
X0188303Y0162131D01*
X0189198Y0161236D01*
X0190367Y0160752D01*
X0191633Y0160752D01*
X0192802Y0161236D01*
X0193697Y0162131D01*
X0194181Y0163300D01*
X0194181Y0164566D01*
X0193697Y0165735D01*
X0193200Y0166232D01*
X0193200Y0170777D01*
X0194808Y0170777D01*
X0195628Y0171597D01*
X0195628Y0178269D01*
X0194808Y0179089D01*
X0194909Y0178989D02*
X0196526Y0178989D01*
X0196666Y0179129D02*
X0196331Y0178794D01*
X0196094Y0178384D01*
X0195972Y0177926D01*
X0195972Y0175216D01*
X0199654Y0175216D01*
X0199654Y0174650D01*
X0200220Y0174650D01*
X0200220Y0175216D01*
X0203902Y0175216D01*
X0203902Y0177926D01*
X0203780Y0178384D01*
X0203543Y0178794D01*
X0203208Y0179129D01*
X0202797Y0179366D01*
X0202339Y0179489D01*
X0200220Y0179489D01*
X0200220Y0175216D01*
X0199654Y0175216D01*
X0199654Y0179489D01*
X0197535Y0179489D01*
X0197077Y0179366D01*
X0196666Y0179129D01*
X0195972Y0177390D02*
X0195628Y0177390D01*
X0195628Y0175792D02*
X0195972Y0175792D01*
X0195972Y0174650D02*
X0195972Y0171940D01*
X0196094Y0171482D01*
X0196331Y0171072D01*
X0196666Y0170737D01*
X0197077Y0170500D01*
X0197535Y0170377D01*
X0199654Y0170377D01*
X0199654Y0174650D01*
X0195972Y0174650D01*
X0195972Y0174193D02*
X0195628Y0174193D01*
X0195628Y0172595D02*
X0195972Y0172595D01*
X0196407Y0170996D02*
X0195027Y0170996D01*
X0193200Y0169398D02*
X0218353Y0169398D01*
X0216755Y0167799D02*
X0193200Y0167799D01*
X0193231Y0166201D02*
X0215156Y0166201D01*
X0213558Y0164602D02*
X0194166Y0164602D01*
X0194058Y0163004D02*
X0211959Y0163004D01*
X0210361Y0161405D02*
X0192971Y0161405D01*
X0191000Y0163933D02*
X0191000Y0173870D01*
X0192063Y0174933D01*
X0188498Y0174193D02*
X0156368Y0174193D01*
X0156368Y0172595D02*
X0188498Y0172595D01*
X0188800Y0170996D02*
X0157048Y0170996D01*
X0158647Y0169398D02*
X0188800Y0169398D01*
X0188800Y0167799D02*
X0160245Y0167799D01*
X0161844Y0166201D02*
X0188769Y0166201D01*
X0187834Y0164602D02*
X0163442Y0164602D01*
X0165041Y0163004D02*
X0187942Y0163004D01*
X0189029Y0161405D02*
X0166639Y0161405D01*
X0168238Y0159807D02*
X0208762Y0159807D01*
X0207164Y0158208D02*
X0169546Y0158208D01*
X0171162Y0156610D02*
X0205565Y0156610D01*
X0203967Y0155011D02*
X0171305Y0155011D01*
X0167937Y0152343D02*
X0167346Y0152933D01*
X0167346Y0157587D01*
X0164000Y0160933D01*
X0161000Y0163933D01*
X0152000Y0172933D01*
X0152000Y0173933D01*
X0147631Y0174193D02*
X0146368Y0174193D01*
X0146368Y0172595D02*
X0147631Y0172595D01*
X0148759Y0170996D02*
X0145241Y0170996D01*
X0146319Y0175792D02*
X0147681Y0175792D01*
X0149279Y0177390D02*
X0144721Y0177390D01*
X0139279Y0177390D02*
X0134721Y0177390D01*
X0132000Y0173933D02*
X0132000Y0172933D01*
X0141000Y0163933D01*
X0143000Y0161933D01*
X0145000Y0159933D01*
X0145000Y0117033D01*
X0144700Y0116733D01*
X0145000Y0116433D01*
X0145000Y0112933D01*
X0151000Y0106933D01*
X0151000Y0105280D01*
X0146647Y0105457D02*
X0140480Y0105457D01*
X0139520Y0105457D02*
X0105000Y0105457D01*
X0105000Y0103859D02*
X0135247Y0103859D01*
X0135307Y0102260D02*
X0105000Y0102260D01*
X0105000Y0100662D02*
X0135647Y0100662D01*
X0135647Y0099063D02*
X0105000Y0099063D01*
X0105000Y0097465D02*
X0135647Y0097465D01*
X0135647Y0095866D02*
X0105000Y0095866D01*
X0105000Y0094268D02*
X0178000Y0094268D01*
X0177372Y0095866D02*
X0155353Y0095866D01*
X0157643Y0097465D02*
X0177200Y0097465D01*
X0177200Y0099063D02*
X0159241Y0099063D01*
X0160840Y0100662D02*
X0177646Y0100662D01*
X0178000Y0102260D02*
X0162438Y0102260D01*
X0163200Y0103859D02*
X0178000Y0103859D01*
X0178000Y0105457D02*
X0163200Y0105457D01*
X0163200Y0107056D02*
X0178000Y0107056D01*
X0178000Y0108654D02*
X0163200Y0108654D01*
X0162792Y0110253D02*
X0178000Y0110253D01*
X0178000Y0111851D02*
X0161193Y0111851D01*
X0159595Y0113450D02*
X0178000Y0113450D01*
X0178000Y0115048D02*
X0157996Y0115048D01*
X0156398Y0116647D02*
X0178000Y0116647D01*
X0178000Y0118245D02*
X0154799Y0118245D01*
X0153200Y0116733D02*
X0161000Y0108933D01*
X0161000Y0103933D01*
X0156000Y0098933D01*
X0151346Y0098933D01*
X0151000Y0098587D01*
X0140000Y0098587D01*
X0144353Y0095866D02*
X0146647Y0095866D01*
X0146647Y0102260D02*
X0144693Y0102260D01*
X0144753Y0103859D02*
X0146647Y0103859D01*
X0146647Y0107056D02*
X0144753Y0107056D01*
X0144560Y0108654D02*
X0146168Y0108654D01*
X0144569Y0110253D02*
X0105000Y0110253D01*
X0105000Y0111851D02*
X0142971Y0111851D01*
X0142800Y0113450D02*
X0141526Y0113450D01*
X0139000Y0113450D02*
X0139000Y0113450D01*
X0139000Y0112583D02*
X0139000Y0116633D01*
X0139000Y0116633D01*
X0134950Y0116633D01*
X0134950Y0116234D01*
X0135106Y0115452D01*
X0135411Y0114715D01*
X0135854Y0114051D01*
X0136418Y0113487D01*
X0137082Y0113044D01*
X0137819Y0112739D01*
X0138601Y0112583D01*
X0139000Y0112583D01*
X0139000Y0115048D02*
X0139000Y0115048D01*
X0139000Y0116633D02*
X0139000Y0116633D01*
X0134950Y0116633D01*
X0134950Y0117032D01*
X0135106Y0117814D01*
X0135411Y0118551D01*
X0135854Y0119215D01*
X0136418Y0119779D01*
X0137082Y0120222D01*
X0137819Y0120527D01*
X0138601Y0120683D01*
X0139000Y0120683D01*
X0139000Y0116633D01*
X0139000Y0116633D01*
X0139000Y0116647D02*
X0139000Y0116647D01*
X0139000Y0118245D02*
X0139000Y0118245D01*
X0139000Y0119844D02*
X0139000Y0119844D01*
X0141485Y0119844D02*
X0142672Y0119844D01*
X0142800Y0121442D02*
X0105000Y0121442D01*
X0105000Y0119844D02*
X0136515Y0119844D01*
X0135284Y0118245D02*
X0105000Y0118245D01*
X0105000Y0116647D02*
X0134950Y0116647D01*
X0135273Y0115048D02*
X0105000Y0115048D01*
X0105000Y0113450D02*
X0136474Y0113450D01*
X0136810Y0109639D02*
X0136352Y0109516D01*
X0135942Y0109279D01*
X0135607Y0108944D01*
X0135370Y0108533D01*
X0135247Y0108076D01*
X0135247Y0105759D01*
X0139520Y0105759D01*
X0139520Y0109639D01*
X0136810Y0109639D01*
X0135440Y0108654D02*
X0105000Y0108654D01*
X0105000Y0107056D02*
X0135247Y0107056D01*
X0139520Y0107056D02*
X0140480Y0107056D01*
X0140480Y0108654D02*
X0139520Y0108654D01*
X0150300Y0116733D02*
X0153200Y0116733D01*
X0152328Y0119844D02*
X0178000Y0119844D01*
X0178000Y0121442D02*
X0147200Y0121442D01*
X0147200Y0119844D02*
X0148272Y0119844D01*
X0147200Y0123041D02*
X0178000Y0123041D01*
X0178000Y0124639D02*
X0147200Y0124639D01*
X0147200Y0126238D02*
X0178000Y0126238D01*
X0178000Y0127836D02*
X0147200Y0127836D01*
X0147200Y0129435D02*
X0178000Y0129435D01*
X0178000Y0131033D02*
X0147200Y0131033D01*
X0147200Y0132632D02*
X0178000Y0132632D01*
X0188212Y0137427D02*
X0264000Y0137427D01*
X0264000Y0135829D02*
X0147200Y0135829D01*
X0147200Y0134230D02*
X0264000Y0134230D01*
X0264000Y0139026D02*
X0190254Y0139026D01*
X0191173Y0140624D02*
X0264000Y0140624D01*
X0264000Y0142223D02*
X0243621Y0142223D01*
X0243538Y0142140D02*
X0244092Y0142694D01*
X0244528Y0143347D01*
X0244828Y0144071D01*
X0244981Y0144840D01*
X0244981Y0145232D01*
X0241000Y0145232D01*
X0241000Y0141251D01*
X0241392Y0141251D01*
X0242161Y0141404D01*
X0242886Y0141704D01*
X0243538Y0142140D01*
X0244725Y0143821D02*
X0264000Y0143821D01*
X0264000Y0145420D02*
X0244981Y0145420D01*
X0244981Y0145232D02*
X0244981Y0145624D01*
X0244828Y0146394D01*
X0244528Y0147118D01*
X0244092Y0147770D01*
X0243538Y0148325D01*
X0242886Y0148760D01*
X0242161Y0149060D01*
X0241392Y0149213D01*
X0241000Y0149213D01*
X0240608Y0149213D01*
X0239839Y0149060D01*
X0239114Y0148760D01*
X0238462Y0148325D01*
X0237908Y0147770D01*
X0237472Y0147118D01*
X0237172Y0146394D01*
X0237019Y0145624D01*
X0237019Y0145232D01*
X0237019Y0144840D01*
X0237172Y0144071D01*
X0237472Y0143347D01*
X0237908Y0142694D01*
X0238462Y0142140D01*
X0239114Y0141704D01*
X0239839Y0141404D01*
X0240608Y0141251D01*
X0241000Y0141251D01*
X0241000Y0145232D01*
X0241000Y0145232D01*
X0241000Y0145232D01*
X0237019Y0145232D01*
X0241000Y0145232D01*
X0241000Y0145232D01*
X0244981Y0145232D01*
X0244569Y0147018D02*
X0264000Y0147018D01*
X0264000Y0148617D02*
X0243100Y0148617D01*
X0241000Y0148617D02*
X0241000Y0148617D01*
X0241000Y0149213D02*
X0241000Y0145232D01*
X0241000Y0145232D01*
X0241000Y0149213D01*
X0238900Y0148617D02*
X0232187Y0148617D01*
X0231712Y0148813D02*
X0230288Y0148813D01*
X0228971Y0148268D01*
X0227964Y0147261D01*
X0227419Y0145945D01*
X0227419Y0144520D01*
X0227964Y0143204D01*
X0228971Y0142196D01*
X0230288Y0141651D01*
X0231712Y0141651D01*
X0233029Y0142196D01*
X0234036Y0143204D01*
X0234581Y0144520D01*
X0234581Y0145945D01*
X0234036Y0147261D01*
X0233029Y0148268D01*
X0231712Y0148813D01*
X0229813Y0148617D02*
X0223200Y0148617D01*
X0224136Y0147018D02*
X0227864Y0147018D01*
X0227419Y0145420D02*
X0224581Y0145420D01*
X0224292Y0143821D02*
X0227708Y0143821D01*
X0228945Y0142223D02*
X0223055Y0142223D01*
X0218945Y0142223D02*
X0191624Y0142223D01*
X0191624Y0143821D02*
X0217708Y0143821D01*
X0217419Y0145420D02*
X0191099Y0145420D01*
X0190076Y0147018D02*
X0217864Y0147018D01*
X0218800Y0148617D02*
X0187782Y0148617D01*
X0205394Y0150215D02*
X0218800Y0150215D01*
X0219707Y0151814D02*
X0206992Y0151814D01*
X0208591Y0153412D02*
X0221305Y0153412D01*
X0222904Y0155011D02*
X0210189Y0155011D01*
X0211788Y0156610D02*
X0224502Y0156610D01*
X0226101Y0158208D02*
X0213386Y0158208D01*
X0214985Y0159807D02*
X0226844Y0159807D01*
X0226844Y0161405D02*
X0216583Y0161405D01*
X0218182Y0163004D02*
X0227106Y0163004D01*
X0227367Y0164602D02*
X0219780Y0164602D01*
X0231000Y0159996D02*
X0221000Y0149996D01*
X0221000Y0145232D01*
X0224331Y0150215D02*
X0264000Y0150215D01*
X0264000Y0151814D02*
X0225929Y0151814D01*
X0227528Y0153412D02*
X0264000Y0153412D01*
X0264000Y0155011D02*
X0229126Y0155011D01*
X0234515Y0156610D02*
X0237485Y0156610D01*
X0244515Y0156610D02*
X0246920Y0156610D01*
X0246247Y0158208D02*
X0245156Y0158208D01*
X0250520Y0158208D02*
X0251480Y0158208D01*
X0251480Y0156610D02*
X0250520Y0156610D01*
X0251480Y0156228D02*
X0254190Y0156228D01*
X0254648Y0156350D01*
X0255058Y0156587D01*
X0255393Y0156922D01*
X0255630Y0157333D01*
X0255753Y0157791D01*
X0255753Y0160107D01*
X0251480Y0160107D01*
X0251480Y0156228D01*
X0251480Y0159807D02*
X0250520Y0159807D01*
X0255753Y0159807D02*
X0264000Y0159807D01*
X0264000Y0161405D02*
X0255753Y0161405D01*
X0255753Y0163004D02*
X0264000Y0163004D01*
X0264000Y0164602D02*
X0255353Y0164602D01*
X0257379Y0166201D02*
X0264000Y0166201D01*
X0264000Y0167799D02*
X0258977Y0167799D01*
X0257546Y0166368D02*
X0257546Y0166368D01*
X0260576Y0169398D02*
X0264000Y0169398D01*
X0264000Y0170996D02*
X0263562Y0170996D01*
X0257550Y0172595D02*
X0213889Y0172595D01*
X0214181Y0174193D02*
X0228277Y0174193D01*
X0227819Y0175792D02*
X0213640Y0175792D01*
X0213200Y0177390D02*
X0228160Y0177390D01*
X0230064Y0178989D02*
X0213200Y0178989D01*
X0212457Y0180587D02*
X0248800Y0180587D01*
X0248800Y0182186D02*
X0247091Y0182186D01*
X0247156Y0183784D02*
X0248800Y0183784D01*
X0253200Y0183784D02*
X0264000Y0183784D01*
X0264000Y0182186D02*
X0253200Y0182186D01*
X0253200Y0180587D02*
X0264000Y0180587D01*
X0264000Y0178989D02*
X0253200Y0178989D01*
X0252568Y0177390D02*
X0264000Y0177390D01*
X0264000Y0175792D02*
X0262411Y0175792D01*
X0263921Y0174193D02*
X0264000Y0174193D01*
X0259589Y0175792D02*
X0250970Y0175792D01*
X0248000Y0175933D02*
X0231000Y0175933D01*
X0231936Y0178989D02*
X0247944Y0178989D01*
X0238909Y0182186D02*
X0237091Y0182186D01*
X0232803Y0185193D02*
X0222331Y0185193D01*
X0218175Y0185383D02*
X0210561Y0185383D01*
X0209260Y0183784D02*
X0218175Y0183784D01*
X0218634Y0182186D02*
X0210859Y0182186D01*
X0211000Y0178933D02*
X0206000Y0183933D01*
X0211000Y0188933D01*
X0213669Y0188933D01*
X0217825Y0186981D02*
X0218175Y0186981D01*
X0222331Y0192673D02*
X0232803Y0192673D01*
X0233000Y0192870D01*
X0237156Y0194974D02*
X0238844Y0194974D01*
X0248071Y0194974D02*
X0263294Y0194974D01*
X0263294Y0193375D02*
X0249669Y0193375D01*
X0251268Y0191777D02*
X0263553Y0191777D01*
X0264000Y0190178D02*
X0252866Y0190178D01*
X0253200Y0188580D02*
X0264000Y0188580D01*
X0264000Y0186981D02*
X0253200Y0186981D01*
X0253200Y0185383D02*
X0264000Y0185383D01*
X0263753Y0196572D02*
X0224531Y0196572D01*
X0226487Y0194974D02*
X0228844Y0194974D01*
X0222331Y0192673D02*
X0222331Y0198264D01*
X0224000Y0199933D01*
X0227181Y0199769D02*
X0264000Y0199769D01*
X0264000Y0198171D02*
X0226713Y0198171D01*
X0220725Y0199769D02*
X0072181Y0199769D01*
X0071713Y0198171D02*
X0220131Y0198171D01*
X0226487Y0190178D02*
X0228844Y0190178D01*
X0228909Y0182186D02*
X0226028Y0182186D01*
X0211000Y0178933D02*
X0211000Y0173933D01*
X0208111Y0172595D02*
X0203902Y0172595D01*
X0203902Y0171940D02*
X0203902Y0174650D01*
X0200220Y0174650D01*
X0200220Y0170377D01*
X0202339Y0170377D01*
X0202797Y0170500D01*
X0203208Y0170737D01*
X0203543Y0171072D01*
X0203780Y0171482D01*
X0203902Y0171940D01*
X0203467Y0170996D02*
X0209778Y0170996D01*
X0212222Y0170996D02*
X0227225Y0170996D01*
X0234775Y0170996D02*
X0237225Y0170996D01*
X0236844Y0169398D02*
X0235156Y0169398D01*
X0244775Y0170996D02*
X0247225Y0170996D01*
X0254775Y0170996D02*
X0255952Y0170996D01*
X0255753Y0158208D02*
X0264000Y0158208D01*
X0264000Y0156610D02*
X0255080Y0156610D01*
X0241000Y0147018D02*
X0241000Y0147018D01*
X0241000Y0145420D02*
X0241000Y0145420D01*
X0241000Y0143821D02*
X0241000Y0143821D01*
X0241000Y0142223D02*
X0241000Y0142223D01*
X0238379Y0142223D02*
X0233055Y0142223D01*
X0234292Y0143821D02*
X0237275Y0143821D01*
X0237019Y0145420D02*
X0234581Y0145420D01*
X0234136Y0147018D02*
X0237431Y0147018D01*
X0200220Y0170996D02*
X0199654Y0170996D01*
X0199654Y0172595D02*
X0200220Y0172595D01*
X0200220Y0174193D02*
X0199654Y0174193D01*
X0199654Y0175792D02*
X0200220Y0175792D01*
X0200220Y0177390D02*
X0199654Y0177390D01*
X0199654Y0178989D02*
X0200220Y0178989D01*
X0203348Y0178989D02*
X0207833Y0178989D01*
X0208800Y0177390D02*
X0203902Y0177390D01*
X0203902Y0175792D02*
X0208360Y0175792D01*
X0207819Y0174193D02*
X0203902Y0174193D01*
X0203492Y0180587D02*
X0206235Y0180587D01*
X0206000Y0183933D02*
X0199937Y0183933D01*
X0192063Y0183933D02*
X0192063Y0193433D01*
X0191866Y0193433D01*
X0188104Y0193375D02*
X0135669Y0193375D01*
X0137268Y0191777D02*
X0188104Y0191777D01*
X0188417Y0190178D02*
X0138866Y0190178D01*
X0140465Y0188580D02*
X0189863Y0188580D01*
X0188498Y0186981D02*
X0155130Y0186981D01*
X0156368Y0185743D02*
X0153809Y0188302D01*
X0150191Y0188302D01*
X0147631Y0185743D01*
X0147631Y0182124D01*
X0150191Y0179565D01*
X0153809Y0179565D01*
X0156368Y0182124D01*
X0156368Y0185743D01*
X0156368Y0185383D02*
X0188498Y0185383D01*
X0188498Y0183784D02*
X0156368Y0183784D01*
X0156368Y0182186D02*
X0188498Y0182186D01*
X0188508Y0180587D02*
X0154832Y0180587D01*
X0149168Y0180587D02*
X0144832Y0180587D01*
X0146368Y0182186D02*
X0147631Y0182186D01*
X0147631Y0183784D02*
X0146368Y0183784D01*
X0146368Y0185383D02*
X0147631Y0185383D01*
X0148870Y0186981D02*
X0145130Y0186981D01*
X0142000Y0183933D02*
X0133063Y0192870D01*
X0079500Y0192870D01*
X0075344Y0193375D02*
X0073156Y0193375D01*
X0073156Y0191777D02*
X0075344Y0191777D01*
X0075344Y0190178D02*
X0073156Y0190178D01*
X0069000Y0192870D02*
X0065303Y0192173D01*
X0058331Y0192173D01*
X0062234Y0194974D02*
X0064844Y0194974D01*
X0066800Y0196572D02*
X0041626Y0196572D01*
X0041796Y0194974D02*
X0054427Y0194974D01*
X0046309Y0191777D02*
X0041796Y0191777D01*
X0041796Y0190834D02*
X0041796Y0193052D01*
X0038015Y0193052D01*
X0038015Y0189271D01*
X0040233Y0189271D01*
X0040691Y0189394D01*
X0041101Y0189630D01*
X0041436Y0189966D01*
X0041673Y0190376D01*
X0041796Y0190834D01*
X0041559Y0190178D02*
X0045513Y0190178D01*
X0045106Y0186981D02*
X0040290Y0186981D01*
X0041002Y0185383D02*
X0043508Y0185383D01*
X0044169Y0182933D02*
X0041000Y0182933D01*
X0046000Y0177933D01*
X0046000Y0143933D01*
X0031500Y0129433D01*
X0021000Y0129433D01*
X0011000Y0135829D02*
X0034785Y0135829D01*
X0036383Y0137427D02*
X0011000Y0137427D01*
X0011000Y0139026D02*
X0018050Y0139026D01*
X0017531Y0139241D02*
X0019782Y0138309D01*
X0022218Y0138309D01*
X0024469Y0139241D01*
X0026192Y0140964D01*
X0027124Y0143215D01*
X0027124Y0145651D01*
X0026192Y0147902D01*
X0024469Y0149625D01*
X0023200Y0150151D01*
X0023200Y0162459D01*
X0028518Y0167777D01*
X0032308Y0167777D01*
X0033128Y0168597D01*
X0033128Y0175269D01*
X0032308Y0176089D01*
X0026818Y0176089D01*
X0025998Y0175269D01*
X0025998Y0171479D01*
X0018800Y0164281D01*
X0018800Y0150151D01*
X0017531Y0149625D01*
X0015808Y0147902D01*
X0014876Y0145651D01*
X0014876Y0143215D01*
X0015808Y0140964D01*
X0017531Y0139241D01*
X0016147Y0140624D02*
X0011000Y0140624D01*
X0011000Y0142223D02*
X0015286Y0142223D01*
X0014876Y0143821D02*
X0011000Y0143821D01*
X0011000Y0145420D02*
X0014876Y0145420D01*
X0015442Y0147018D02*
X0011000Y0147018D01*
X0011000Y0148617D02*
X0016523Y0148617D01*
X0018800Y0150215D02*
X0011000Y0150215D01*
X0011000Y0151814D02*
X0018800Y0151814D01*
X0018800Y0153412D02*
X0011000Y0153412D01*
X0011000Y0155011D02*
X0018800Y0155011D01*
X0018800Y0156610D02*
X0011000Y0156610D01*
X0011000Y0158208D02*
X0018800Y0158208D01*
X0018800Y0159807D02*
X0011000Y0159807D01*
X0011000Y0161405D02*
X0018800Y0161405D01*
X0018800Y0163004D02*
X0011000Y0163004D01*
X0011000Y0164602D02*
X0019121Y0164602D01*
X0021000Y0163370D02*
X0029563Y0171933D01*
X0033128Y0172595D02*
X0033472Y0172595D01*
X0033472Y0172216D02*
X0037154Y0172216D01*
X0037154Y0171650D01*
X0037720Y0171650D01*
X0037720Y0172216D01*
X0041402Y0172216D01*
X0041402Y0174926D01*
X0041280Y0175384D01*
X0041043Y0175794D01*
X0040708Y0176129D01*
X0040297Y0176366D01*
X0039839Y0176489D01*
X0037720Y0176489D01*
X0037720Y0172216D01*
X0037154Y0172216D01*
X0037154Y0176489D01*
X0035035Y0176489D01*
X0034577Y0176366D01*
X0034166Y0176129D01*
X0033831Y0175794D01*
X0033594Y0175384D01*
X0033472Y0174926D01*
X0033472Y0172216D01*
X0033472Y0171650D02*
X0033472Y0168940D01*
X0033594Y0168482D01*
X0033831Y0168072D01*
X0034166Y0167737D01*
X0034577Y0167500D01*
X0035035Y0167377D01*
X0037154Y0167377D01*
X0037154Y0171650D01*
X0033472Y0171650D01*
X0033472Y0170996D02*
X0033128Y0170996D01*
X0033128Y0169398D02*
X0033472Y0169398D01*
X0034104Y0167799D02*
X0032330Y0167799D01*
X0037154Y0167799D02*
X0037720Y0167799D01*
X0037720Y0167377D02*
X0039839Y0167377D01*
X0040297Y0167500D01*
X0040708Y0167737D01*
X0041043Y0168072D01*
X0041280Y0168482D01*
X0041402Y0168940D01*
X0041402Y0171650D01*
X0037720Y0171650D01*
X0037720Y0167377D01*
X0037720Y0169398D02*
X0037154Y0169398D01*
X0037154Y0170996D02*
X0037720Y0170996D01*
X0037720Y0172595D02*
X0037154Y0172595D01*
X0037154Y0174193D02*
X0037720Y0174193D01*
X0037720Y0175792D02*
X0037154Y0175792D01*
X0033830Y0175792D02*
X0032606Y0175792D01*
X0033128Y0174193D02*
X0033472Y0174193D01*
X0026520Y0175792D02*
X0011000Y0175792D01*
X0011000Y0177390D02*
X0043432Y0177390D01*
X0043800Y0175792D02*
X0041044Y0175792D01*
X0041402Y0174193D02*
X0043800Y0174193D01*
X0043800Y0172595D02*
X0041402Y0172595D01*
X0041402Y0170996D02*
X0043800Y0170996D01*
X0043800Y0169398D02*
X0041402Y0169398D01*
X0040770Y0167799D02*
X0043800Y0167799D01*
X0043800Y0166201D02*
X0026942Y0166201D01*
X0025343Y0164602D02*
X0043800Y0164602D01*
X0043800Y0163004D02*
X0023745Y0163004D01*
X0023200Y0161405D02*
X0043800Y0161405D01*
X0043800Y0159807D02*
X0023200Y0159807D01*
X0023200Y0158208D02*
X0043800Y0158208D01*
X0043800Y0156610D02*
X0023200Y0156610D01*
X0023200Y0155011D02*
X0043800Y0155011D01*
X0043800Y0153412D02*
X0023200Y0153412D01*
X0023200Y0151814D02*
X0043800Y0151814D01*
X0043800Y0150215D02*
X0023200Y0150215D01*
X0025477Y0148617D02*
X0043800Y0148617D01*
X0043800Y0147018D02*
X0026558Y0147018D01*
X0027124Y0145420D02*
X0043800Y0145420D01*
X0042777Y0143821D02*
X0027124Y0143821D01*
X0026714Y0142223D02*
X0041179Y0142223D01*
X0039580Y0140624D02*
X0025853Y0140624D01*
X0023950Y0139026D02*
X0037982Y0139026D01*
X0041007Y0135829D02*
X0142800Y0135829D01*
X0142800Y0134230D02*
X0105000Y0134230D01*
X0105000Y0132632D02*
X0142800Y0132632D01*
X0142800Y0131033D02*
X0105000Y0131033D01*
X0105000Y0129435D02*
X0142800Y0129435D01*
X0142800Y0127836D02*
X0105000Y0127836D01*
X0105000Y0126238D02*
X0142800Y0126238D01*
X0142800Y0124639D02*
X0105000Y0124639D01*
X0105000Y0123041D02*
X0142800Y0123041D01*
X0124943Y0139026D02*
X0123057Y0139026D01*
X0123628Y0140624D02*
X0124372Y0140624D01*
X0120654Y0143524D02*
X0120063Y0142933D01*
X0120654Y0143524D02*
X0120654Y0152933D01*
X0120654Y0155587D01*
X0126000Y0160933D01*
X0123572Y0163004D02*
X0113694Y0163004D01*
X0112096Y0164602D02*
X0137220Y0164602D01*
X0135621Y0166201D02*
X0110497Y0166201D01*
X0108899Y0167799D02*
X0134023Y0167799D01*
X0132424Y0169398D02*
X0124208Y0169398D01*
X0122184Y0169398D02*
X0121816Y0169398D01*
X0121816Y0169165D02*
X0121816Y0173749D01*
X0117231Y0173749D01*
X0117231Y0171958D01*
X0120025Y0169165D01*
X0121816Y0169165D01*
X0121816Y0170996D02*
X0122184Y0170996D01*
X0122184Y0172595D02*
X0121816Y0172595D01*
X0121816Y0174193D02*
X0122184Y0174193D01*
X0122184Y0175792D02*
X0121816Y0175792D01*
X0121816Y0177390D02*
X0122184Y0177390D01*
X0125287Y0177390D02*
X0129279Y0177390D01*
X0127681Y0175792D02*
X0126768Y0175792D01*
X0126768Y0174193D02*
X0127631Y0174193D01*
X0127631Y0172595D02*
X0126768Y0172595D01*
X0125807Y0170996D02*
X0128759Y0170996D01*
X0119792Y0169398D02*
X0107300Y0169398D01*
X0105702Y0170996D02*
X0118193Y0170996D01*
X0117231Y0172595D02*
X0104103Y0172595D01*
X0102505Y0174193D02*
X0117231Y0174193D01*
X0117231Y0175792D02*
X0100906Y0175792D01*
X0099654Y0173933D02*
X0120654Y0152933D01*
X0116694Y0153412D02*
X0082291Y0153412D01*
X0080693Y0151814D02*
X0116694Y0151814D01*
X0116694Y0150215D02*
X0079094Y0150215D01*
X0079839Y0149060D02*
X0079114Y0148760D01*
X0078462Y0148325D01*
X0077908Y0147770D01*
X0077472Y0147118D01*
X0077172Y0146394D01*
X0077019Y0145624D01*
X0077019Y0145232D01*
X0077019Y0144840D01*
X0077172Y0144071D01*
X0077472Y0143347D01*
X0077908Y0142694D01*
X0078462Y0142140D01*
X0079114Y0141704D01*
X0079839Y0141404D01*
X0080608Y0141251D01*
X0081000Y0141251D01*
X0081392Y0141251D01*
X0082161Y0141404D01*
X0082886Y0141704D01*
X0083538Y0142140D01*
X0084092Y0142694D01*
X0084528Y0143347D01*
X0084828Y0144071D01*
X0084981Y0144840D01*
X0084981Y0145232D01*
X0081000Y0145232D01*
X0081000Y0141251D01*
X0081000Y0145232D01*
X0081000Y0145232D01*
X0081000Y0145232D01*
X0077019Y0145232D01*
X0081000Y0145232D01*
X0081000Y0145232D01*
X0084981Y0145232D01*
X0084981Y0145624D01*
X0084828Y0146394D01*
X0084528Y0147118D01*
X0084092Y0147770D01*
X0083538Y0148325D01*
X0082886Y0148760D01*
X0082161Y0149060D01*
X0081392Y0149213D01*
X0081000Y0149213D01*
X0080608Y0149213D01*
X0079839Y0149060D01*
X0078900Y0148617D02*
X0077496Y0148617D01*
X0077431Y0147018D02*
X0075897Y0147018D01*
X0077019Y0145420D02*
X0074581Y0145420D01*
X0074292Y0143821D02*
X0077275Y0143821D01*
X0078379Y0142223D02*
X0073055Y0142223D01*
X0068945Y0142223D02*
X0063055Y0142223D01*
X0064292Y0143821D02*
X0067708Y0143821D01*
X0067419Y0145420D02*
X0064581Y0145420D01*
X0064136Y0147018D02*
X0067864Y0147018D01*
X0069813Y0148617D02*
X0063200Y0148617D01*
X0063200Y0150215D02*
X0072872Y0150215D01*
X0074470Y0151814D02*
X0063200Y0151814D01*
X0063200Y0153412D02*
X0076069Y0153412D01*
X0077667Y0155011D02*
X0063200Y0155011D01*
X0064515Y0156610D02*
X0069485Y0156610D01*
X0076515Y0156610D02*
X0079266Y0156610D01*
X0080647Y0158208D02*
X0077156Y0158208D01*
X0083890Y0155011D02*
X0115464Y0155011D01*
X0113866Y0156610D02*
X0085488Y0156610D01*
X0085000Y0159232D02*
X0071000Y0145232D01*
X0081000Y0145232D02*
X0081000Y0149213D01*
X0081000Y0145232D01*
X0081000Y0145232D01*
X0081000Y0145420D02*
X0081000Y0145420D01*
X0081000Y0147018D02*
X0081000Y0147018D01*
X0081000Y0148617D02*
X0081000Y0148617D01*
X0083100Y0148617D02*
X0117478Y0148617D01*
X0117247Y0147018D02*
X0084569Y0147018D01*
X0084981Y0145420D02*
X0116498Y0145420D01*
X0116498Y0143821D02*
X0084725Y0143821D01*
X0083621Y0142223D02*
X0116498Y0142223D01*
X0131728Y0150215D02*
X0135391Y0150215D01*
X0151000Y0152461D02*
X0160181Y0152461D01*
X0160654Y0152933D01*
X0156694Y0150215D02*
X0153609Y0150215D01*
X0163829Y0148617D02*
X0164171Y0148617D01*
X0159591Y0143406D02*
X0160063Y0142933D01*
X0159591Y0143406D02*
X0151000Y0143406D01*
X0120164Y0158208D02*
X0118490Y0158208D01*
X0116891Y0159807D02*
X0121762Y0159807D01*
X0122819Y0161405D02*
X0115293Y0161405D01*
X0110669Y0159807D02*
X0089353Y0159807D01*
X0089353Y0161405D02*
X0109070Y0161405D01*
X0107472Y0163004D02*
X0089353Y0163004D01*
X0089753Y0164602D02*
X0105873Y0164602D01*
X0104275Y0166201D02*
X0089753Y0166201D01*
X0089753Y0167799D02*
X0102676Y0167799D01*
X0101078Y0169398D02*
X0089753Y0169398D01*
X0089341Y0170996D02*
X0099479Y0170996D01*
X0099654Y0173933D02*
X0076000Y0173933D01*
X0084520Y0170996D02*
X0085480Y0170996D01*
X0085480Y0169398D02*
X0084520Y0169398D01*
X0084520Y0167799D02*
X0085480Y0167799D01*
X0085000Y0160587D02*
X0085000Y0159232D01*
X0089353Y0158208D02*
X0112267Y0158208D01*
X0081000Y0143821D02*
X0081000Y0143821D01*
X0081000Y0142223D02*
X0081000Y0142223D01*
X0061000Y0145232D02*
X0061000Y0159996D01*
X0025515Y0170996D02*
X0011000Y0170996D01*
X0011000Y0169398D02*
X0023916Y0169398D01*
X0022318Y0167799D02*
X0011000Y0167799D01*
X0011000Y0166201D02*
X0020719Y0166201D01*
X0021000Y0163370D02*
X0021000Y0144433D01*
X0025998Y0172595D02*
X0011000Y0172595D01*
X0011000Y0174193D02*
X0025998Y0174193D01*
X0026606Y0178989D02*
X0011000Y0178989D01*
X0011000Y0180587D02*
X0025998Y0180587D01*
X0025998Y0182186D02*
X0011000Y0182186D01*
X0011000Y0183784D02*
X0025998Y0183784D01*
X0025998Y0185383D02*
X0011000Y0185383D01*
X0011000Y0186981D02*
X0026710Y0186981D01*
X0027166Y0188580D02*
X0015012Y0188580D01*
X0016725Y0190178D02*
X0025917Y0190178D01*
X0025604Y0191777D02*
X0017768Y0191777D01*
X0018430Y0193375D02*
X0025604Y0193375D01*
X0025604Y0194974D02*
X0018548Y0194974D01*
X0018548Y0196572D02*
X0025801Y0196572D01*
X0029366Y0193433D02*
X0029366Y0183130D01*
X0029563Y0182933D01*
X0033128Y0182186D02*
X0033872Y0182186D01*
X0033872Y0183784D02*
X0033128Y0183784D01*
X0033128Y0185383D02*
X0033872Y0185383D01*
X0034584Y0186981D02*
X0032416Y0186981D01*
X0037253Y0190178D02*
X0038015Y0190178D01*
X0038015Y0191777D02*
X0037253Y0191777D01*
X0037253Y0194974D02*
X0038015Y0194974D01*
X0038015Y0196572D02*
X0037253Y0196572D01*
X0033642Y0196572D02*
X0032931Y0196572D01*
X0033128Y0194974D02*
X0033472Y0194974D01*
X0017949Y0198171D02*
X0066287Y0198171D01*
X0065819Y0199769D02*
X0017163Y0199769D01*
X0037437Y0182933D02*
X0041000Y0182933D01*
X0040394Y0178989D02*
X0041833Y0178989D01*
X0048056Y0178989D02*
X0189217Y0178989D01*
X0188498Y0177390D02*
X0154721Y0177390D01*
X0156319Y0175792D02*
X0188498Y0175792D01*
X0188104Y0194974D02*
X0134071Y0194974D01*
X0132644Y0190178D02*
X0083656Y0190178D01*
X0083656Y0186981D02*
X0118870Y0186981D01*
X0117631Y0185383D02*
X0083656Y0185383D01*
X0083656Y0183784D02*
X0117631Y0183784D01*
X0117631Y0182186D02*
X0083591Y0182186D01*
X0079500Y0184996D02*
X0069000Y0184996D01*
X0065697Y0184693D01*
X0058331Y0184693D01*
X0054175Y0185383D02*
X0053323Y0185383D01*
X0053825Y0186981D02*
X0054175Y0186981D01*
X0062487Y0186981D02*
X0064844Y0186981D01*
X0069000Y0192870D02*
X0069000Y0199933D01*
X0071200Y0196572D02*
X0188301Y0196572D01*
X0195431Y0196572D02*
X0196142Y0196572D01*
X0195972Y0194974D02*
X0195628Y0194974D01*
X0128870Y0186981D02*
X0125130Y0186981D01*
X0126368Y0185383D02*
X0127631Y0185383D01*
X0127631Y0183784D02*
X0126368Y0183784D01*
X0126368Y0182186D02*
X0127631Y0182186D01*
X0129168Y0180587D02*
X0124832Y0180587D01*
X0075409Y0182186D02*
X0073091Y0182186D01*
X0064909Y0182186D02*
X0062487Y0182186D01*
X0034480Y0178989D02*
X0032520Y0178989D01*
X0033128Y0180587D02*
X0033872Y0180587D01*
X0073156Y0194974D02*
X0075344Y0194974D01*
D33*
X0069000Y0199933D03*
X0054000Y0174933D03*
X0126000Y0160933D03*
X0137000Y0158933D03*
X0152000Y0158933D03*
X0191000Y0163933D03*
X0211000Y0173933D03*
X0231000Y0175933D03*
X0261000Y0172933D03*
X0224000Y0199933D03*
D34*
X0206000Y0115311D02*
X0206000Y0105311D01*
X0206000Y0095311D01*
X0206000Y0105311D02*
X0192878Y0105311D01*
X0185500Y0097933D01*
X0185500Y0082933D02*
X0187000Y0082933D01*
X0191000Y0078933D01*
X0191000Y0053933D01*
X0191000Y0033933D01*
X0117000Y0033933D01*
X0116000Y0033933D01*
X0109000Y0033933D01*
X0102000Y0040933D01*
X0102000Y0050933D01*
X0086000Y0058575D02*
X0086000Y0083933D01*
X0096000Y0093933D01*
X0096000Y0095311D01*
X0096000Y0105311D01*
X0096000Y0115311D01*
X0046000Y0115311D02*
X0046000Y0105311D01*
X0046000Y0103933D01*
X0025500Y0103933D01*
X0021000Y0099433D01*
X0046000Y0095311D02*
X0046000Y0103933D01*
X0046000Y0105311D01*
X0021000Y0084433D02*
X0049000Y0056433D01*
X0049000Y0053933D01*
X0049000Y0033933D01*
X0066000Y0035421D02*
X0066142Y0040563D01*
X0066142Y0052433D01*
X0083858Y0052433D02*
X0086000Y0058575D01*
X0102000Y0040933D02*
X0096488Y0035421D01*
X0090000Y0035421D01*
X0216000Y0033933D02*
X0216000Y0053933D01*
X0235512Y0053933D01*
X0238512Y0056933D01*
X0256000Y0054791D02*
X0256000Y0095311D01*
X0256000Y0105311D01*
X0256000Y0115311D01*
X0256000Y0037075D02*
X0251858Y0032933D01*
X0238512Y0032933D01*
M02*
