G75*
%MOIN*%
%OFA0B0*%
%FSLAX25Y25*%
%IPPOS*%
%LPD*%
%AMOC8*
5,1,8,0,0,1.08239X$1,22.5*
%
%ADD10C,0.00000*%
%ADD11R,0.05906X0.05118*%
%ADD12C,0.05906*%
%ADD13C,0.09449*%
%ADD14R,0.04331X0.05512*%
%ADD15R,0.05512X0.04331*%
%ADD16R,0.04724X0.04724*%
%ADD17C,0.03900*%
%ADD18R,0.08268X0.06299*%
%ADD19R,0.06299X0.08268*%
%ADD20R,0.05512X0.03937*%
%ADD21C,0.07400*%
%ADD22R,0.04200X0.08600*%
%ADD23R,0.08600X0.04200*%
%ADD24C,0.10000*%
%ADD25OC8,0.10000*%
%ADD26R,0.10000X0.10000*%
%ADD27C,0.05315*%
%ADD28C,0.03762*%
%ADD29R,0.05118X0.05906*%
%ADD30R,0.03268X0.02480*%
%ADD31OC8,0.05906*%
%ADD32C,0.13094*%
%ADD33C,0.01600*%
%ADD34C,0.10000*%
%ADD35C,0.01000*%
D10*
X0001000Y0023933D02*
X0001000Y0213933D01*
X0281000Y0213933D01*
X0281000Y0023933D01*
X0001000Y0023933D01*
X0005094Y0033933D02*
X0005096Y0034086D01*
X0005102Y0034240D01*
X0005112Y0034393D01*
X0005126Y0034545D01*
X0005144Y0034698D01*
X0005166Y0034849D01*
X0005191Y0035000D01*
X0005221Y0035151D01*
X0005255Y0035301D01*
X0005292Y0035449D01*
X0005333Y0035597D01*
X0005378Y0035743D01*
X0005427Y0035889D01*
X0005480Y0036033D01*
X0005536Y0036175D01*
X0005596Y0036316D01*
X0005660Y0036456D01*
X0005727Y0036594D01*
X0005798Y0036730D01*
X0005873Y0036864D01*
X0005950Y0036996D01*
X0006032Y0037126D01*
X0006116Y0037254D01*
X0006204Y0037380D01*
X0006295Y0037503D01*
X0006389Y0037624D01*
X0006487Y0037742D01*
X0006587Y0037858D01*
X0006691Y0037971D01*
X0006797Y0038082D01*
X0006906Y0038190D01*
X0007018Y0038295D01*
X0007132Y0038396D01*
X0007250Y0038495D01*
X0007369Y0038591D01*
X0007491Y0038684D01*
X0007616Y0038773D01*
X0007743Y0038860D01*
X0007872Y0038942D01*
X0008003Y0039022D01*
X0008136Y0039098D01*
X0008271Y0039171D01*
X0008408Y0039240D01*
X0008547Y0039305D01*
X0008687Y0039367D01*
X0008829Y0039425D01*
X0008972Y0039480D01*
X0009117Y0039531D01*
X0009263Y0039578D01*
X0009410Y0039621D01*
X0009558Y0039660D01*
X0009707Y0039696D01*
X0009857Y0039727D01*
X0010008Y0039755D01*
X0010159Y0039779D01*
X0010312Y0039799D01*
X0010464Y0039815D01*
X0010617Y0039827D01*
X0010770Y0039835D01*
X0010923Y0039839D01*
X0011077Y0039839D01*
X0011230Y0039835D01*
X0011383Y0039827D01*
X0011536Y0039815D01*
X0011688Y0039799D01*
X0011841Y0039779D01*
X0011992Y0039755D01*
X0012143Y0039727D01*
X0012293Y0039696D01*
X0012442Y0039660D01*
X0012590Y0039621D01*
X0012737Y0039578D01*
X0012883Y0039531D01*
X0013028Y0039480D01*
X0013171Y0039425D01*
X0013313Y0039367D01*
X0013453Y0039305D01*
X0013592Y0039240D01*
X0013729Y0039171D01*
X0013864Y0039098D01*
X0013997Y0039022D01*
X0014128Y0038942D01*
X0014257Y0038860D01*
X0014384Y0038773D01*
X0014509Y0038684D01*
X0014631Y0038591D01*
X0014750Y0038495D01*
X0014868Y0038396D01*
X0014982Y0038295D01*
X0015094Y0038190D01*
X0015203Y0038082D01*
X0015309Y0037971D01*
X0015413Y0037858D01*
X0015513Y0037742D01*
X0015611Y0037624D01*
X0015705Y0037503D01*
X0015796Y0037380D01*
X0015884Y0037254D01*
X0015968Y0037126D01*
X0016050Y0036996D01*
X0016127Y0036864D01*
X0016202Y0036730D01*
X0016273Y0036594D01*
X0016340Y0036456D01*
X0016404Y0036316D01*
X0016464Y0036175D01*
X0016520Y0036033D01*
X0016573Y0035889D01*
X0016622Y0035743D01*
X0016667Y0035597D01*
X0016708Y0035449D01*
X0016745Y0035301D01*
X0016779Y0035151D01*
X0016809Y0035000D01*
X0016834Y0034849D01*
X0016856Y0034698D01*
X0016874Y0034545D01*
X0016888Y0034393D01*
X0016898Y0034240D01*
X0016904Y0034086D01*
X0016906Y0033933D01*
X0016904Y0033780D01*
X0016898Y0033626D01*
X0016888Y0033473D01*
X0016874Y0033321D01*
X0016856Y0033168D01*
X0016834Y0033017D01*
X0016809Y0032866D01*
X0016779Y0032715D01*
X0016745Y0032565D01*
X0016708Y0032417D01*
X0016667Y0032269D01*
X0016622Y0032123D01*
X0016573Y0031977D01*
X0016520Y0031833D01*
X0016464Y0031691D01*
X0016404Y0031550D01*
X0016340Y0031410D01*
X0016273Y0031272D01*
X0016202Y0031136D01*
X0016127Y0031002D01*
X0016050Y0030870D01*
X0015968Y0030740D01*
X0015884Y0030612D01*
X0015796Y0030486D01*
X0015705Y0030363D01*
X0015611Y0030242D01*
X0015513Y0030124D01*
X0015413Y0030008D01*
X0015309Y0029895D01*
X0015203Y0029784D01*
X0015094Y0029676D01*
X0014982Y0029571D01*
X0014868Y0029470D01*
X0014750Y0029371D01*
X0014631Y0029275D01*
X0014509Y0029182D01*
X0014384Y0029093D01*
X0014257Y0029006D01*
X0014128Y0028924D01*
X0013997Y0028844D01*
X0013864Y0028768D01*
X0013729Y0028695D01*
X0013592Y0028626D01*
X0013453Y0028561D01*
X0013313Y0028499D01*
X0013171Y0028441D01*
X0013028Y0028386D01*
X0012883Y0028335D01*
X0012737Y0028288D01*
X0012590Y0028245D01*
X0012442Y0028206D01*
X0012293Y0028170D01*
X0012143Y0028139D01*
X0011992Y0028111D01*
X0011841Y0028087D01*
X0011688Y0028067D01*
X0011536Y0028051D01*
X0011383Y0028039D01*
X0011230Y0028031D01*
X0011077Y0028027D01*
X0010923Y0028027D01*
X0010770Y0028031D01*
X0010617Y0028039D01*
X0010464Y0028051D01*
X0010312Y0028067D01*
X0010159Y0028087D01*
X0010008Y0028111D01*
X0009857Y0028139D01*
X0009707Y0028170D01*
X0009558Y0028206D01*
X0009410Y0028245D01*
X0009263Y0028288D01*
X0009117Y0028335D01*
X0008972Y0028386D01*
X0008829Y0028441D01*
X0008687Y0028499D01*
X0008547Y0028561D01*
X0008408Y0028626D01*
X0008271Y0028695D01*
X0008136Y0028768D01*
X0008003Y0028844D01*
X0007872Y0028924D01*
X0007743Y0029006D01*
X0007616Y0029093D01*
X0007491Y0029182D01*
X0007369Y0029275D01*
X0007250Y0029371D01*
X0007132Y0029470D01*
X0007018Y0029571D01*
X0006906Y0029676D01*
X0006797Y0029784D01*
X0006691Y0029895D01*
X0006587Y0030008D01*
X0006487Y0030124D01*
X0006389Y0030242D01*
X0006295Y0030363D01*
X0006204Y0030486D01*
X0006116Y0030612D01*
X0006032Y0030740D01*
X0005950Y0030870D01*
X0005873Y0031002D01*
X0005798Y0031136D01*
X0005727Y0031272D01*
X0005660Y0031410D01*
X0005596Y0031550D01*
X0005536Y0031691D01*
X0005480Y0031833D01*
X0005427Y0031977D01*
X0005378Y0032123D01*
X0005333Y0032269D01*
X0005292Y0032417D01*
X0005255Y0032565D01*
X0005221Y0032715D01*
X0005191Y0032866D01*
X0005166Y0033017D01*
X0005144Y0033168D01*
X0005126Y0033321D01*
X0005112Y0033473D01*
X0005102Y0033626D01*
X0005096Y0033780D01*
X0005094Y0033933D01*
X0265094Y0033933D02*
X0265096Y0034086D01*
X0265102Y0034240D01*
X0265112Y0034393D01*
X0265126Y0034545D01*
X0265144Y0034698D01*
X0265166Y0034849D01*
X0265191Y0035000D01*
X0265221Y0035151D01*
X0265255Y0035301D01*
X0265292Y0035449D01*
X0265333Y0035597D01*
X0265378Y0035743D01*
X0265427Y0035889D01*
X0265480Y0036033D01*
X0265536Y0036175D01*
X0265596Y0036316D01*
X0265660Y0036456D01*
X0265727Y0036594D01*
X0265798Y0036730D01*
X0265873Y0036864D01*
X0265950Y0036996D01*
X0266032Y0037126D01*
X0266116Y0037254D01*
X0266204Y0037380D01*
X0266295Y0037503D01*
X0266389Y0037624D01*
X0266487Y0037742D01*
X0266587Y0037858D01*
X0266691Y0037971D01*
X0266797Y0038082D01*
X0266906Y0038190D01*
X0267018Y0038295D01*
X0267132Y0038396D01*
X0267250Y0038495D01*
X0267369Y0038591D01*
X0267491Y0038684D01*
X0267616Y0038773D01*
X0267743Y0038860D01*
X0267872Y0038942D01*
X0268003Y0039022D01*
X0268136Y0039098D01*
X0268271Y0039171D01*
X0268408Y0039240D01*
X0268547Y0039305D01*
X0268687Y0039367D01*
X0268829Y0039425D01*
X0268972Y0039480D01*
X0269117Y0039531D01*
X0269263Y0039578D01*
X0269410Y0039621D01*
X0269558Y0039660D01*
X0269707Y0039696D01*
X0269857Y0039727D01*
X0270008Y0039755D01*
X0270159Y0039779D01*
X0270312Y0039799D01*
X0270464Y0039815D01*
X0270617Y0039827D01*
X0270770Y0039835D01*
X0270923Y0039839D01*
X0271077Y0039839D01*
X0271230Y0039835D01*
X0271383Y0039827D01*
X0271536Y0039815D01*
X0271688Y0039799D01*
X0271841Y0039779D01*
X0271992Y0039755D01*
X0272143Y0039727D01*
X0272293Y0039696D01*
X0272442Y0039660D01*
X0272590Y0039621D01*
X0272737Y0039578D01*
X0272883Y0039531D01*
X0273028Y0039480D01*
X0273171Y0039425D01*
X0273313Y0039367D01*
X0273453Y0039305D01*
X0273592Y0039240D01*
X0273729Y0039171D01*
X0273864Y0039098D01*
X0273997Y0039022D01*
X0274128Y0038942D01*
X0274257Y0038860D01*
X0274384Y0038773D01*
X0274509Y0038684D01*
X0274631Y0038591D01*
X0274750Y0038495D01*
X0274868Y0038396D01*
X0274982Y0038295D01*
X0275094Y0038190D01*
X0275203Y0038082D01*
X0275309Y0037971D01*
X0275413Y0037858D01*
X0275513Y0037742D01*
X0275611Y0037624D01*
X0275705Y0037503D01*
X0275796Y0037380D01*
X0275884Y0037254D01*
X0275968Y0037126D01*
X0276050Y0036996D01*
X0276127Y0036864D01*
X0276202Y0036730D01*
X0276273Y0036594D01*
X0276340Y0036456D01*
X0276404Y0036316D01*
X0276464Y0036175D01*
X0276520Y0036033D01*
X0276573Y0035889D01*
X0276622Y0035743D01*
X0276667Y0035597D01*
X0276708Y0035449D01*
X0276745Y0035301D01*
X0276779Y0035151D01*
X0276809Y0035000D01*
X0276834Y0034849D01*
X0276856Y0034698D01*
X0276874Y0034545D01*
X0276888Y0034393D01*
X0276898Y0034240D01*
X0276904Y0034086D01*
X0276906Y0033933D01*
X0276904Y0033780D01*
X0276898Y0033626D01*
X0276888Y0033473D01*
X0276874Y0033321D01*
X0276856Y0033168D01*
X0276834Y0033017D01*
X0276809Y0032866D01*
X0276779Y0032715D01*
X0276745Y0032565D01*
X0276708Y0032417D01*
X0276667Y0032269D01*
X0276622Y0032123D01*
X0276573Y0031977D01*
X0276520Y0031833D01*
X0276464Y0031691D01*
X0276404Y0031550D01*
X0276340Y0031410D01*
X0276273Y0031272D01*
X0276202Y0031136D01*
X0276127Y0031002D01*
X0276050Y0030870D01*
X0275968Y0030740D01*
X0275884Y0030612D01*
X0275796Y0030486D01*
X0275705Y0030363D01*
X0275611Y0030242D01*
X0275513Y0030124D01*
X0275413Y0030008D01*
X0275309Y0029895D01*
X0275203Y0029784D01*
X0275094Y0029676D01*
X0274982Y0029571D01*
X0274868Y0029470D01*
X0274750Y0029371D01*
X0274631Y0029275D01*
X0274509Y0029182D01*
X0274384Y0029093D01*
X0274257Y0029006D01*
X0274128Y0028924D01*
X0273997Y0028844D01*
X0273864Y0028768D01*
X0273729Y0028695D01*
X0273592Y0028626D01*
X0273453Y0028561D01*
X0273313Y0028499D01*
X0273171Y0028441D01*
X0273028Y0028386D01*
X0272883Y0028335D01*
X0272737Y0028288D01*
X0272590Y0028245D01*
X0272442Y0028206D01*
X0272293Y0028170D01*
X0272143Y0028139D01*
X0271992Y0028111D01*
X0271841Y0028087D01*
X0271688Y0028067D01*
X0271536Y0028051D01*
X0271383Y0028039D01*
X0271230Y0028031D01*
X0271077Y0028027D01*
X0270923Y0028027D01*
X0270770Y0028031D01*
X0270617Y0028039D01*
X0270464Y0028051D01*
X0270312Y0028067D01*
X0270159Y0028087D01*
X0270008Y0028111D01*
X0269857Y0028139D01*
X0269707Y0028170D01*
X0269558Y0028206D01*
X0269410Y0028245D01*
X0269263Y0028288D01*
X0269117Y0028335D01*
X0268972Y0028386D01*
X0268829Y0028441D01*
X0268687Y0028499D01*
X0268547Y0028561D01*
X0268408Y0028626D01*
X0268271Y0028695D01*
X0268136Y0028768D01*
X0268003Y0028844D01*
X0267872Y0028924D01*
X0267743Y0029006D01*
X0267616Y0029093D01*
X0267491Y0029182D01*
X0267369Y0029275D01*
X0267250Y0029371D01*
X0267132Y0029470D01*
X0267018Y0029571D01*
X0266906Y0029676D01*
X0266797Y0029784D01*
X0266691Y0029895D01*
X0266587Y0030008D01*
X0266487Y0030124D01*
X0266389Y0030242D01*
X0266295Y0030363D01*
X0266204Y0030486D01*
X0266116Y0030612D01*
X0266032Y0030740D01*
X0265950Y0030870D01*
X0265873Y0031002D01*
X0265798Y0031136D01*
X0265727Y0031272D01*
X0265660Y0031410D01*
X0265596Y0031550D01*
X0265536Y0031691D01*
X0265480Y0031833D01*
X0265427Y0031977D01*
X0265378Y0032123D01*
X0265333Y0032269D01*
X0265292Y0032417D01*
X0265255Y0032565D01*
X0265221Y0032715D01*
X0265191Y0032866D01*
X0265166Y0033017D01*
X0265144Y0033168D01*
X0265126Y0033321D01*
X0265112Y0033473D01*
X0265102Y0033626D01*
X0265096Y0033780D01*
X0265094Y0033933D01*
X0265094Y0203933D02*
X0265096Y0204086D01*
X0265102Y0204240D01*
X0265112Y0204393D01*
X0265126Y0204545D01*
X0265144Y0204698D01*
X0265166Y0204849D01*
X0265191Y0205000D01*
X0265221Y0205151D01*
X0265255Y0205301D01*
X0265292Y0205449D01*
X0265333Y0205597D01*
X0265378Y0205743D01*
X0265427Y0205889D01*
X0265480Y0206033D01*
X0265536Y0206175D01*
X0265596Y0206316D01*
X0265660Y0206456D01*
X0265727Y0206594D01*
X0265798Y0206730D01*
X0265873Y0206864D01*
X0265950Y0206996D01*
X0266032Y0207126D01*
X0266116Y0207254D01*
X0266204Y0207380D01*
X0266295Y0207503D01*
X0266389Y0207624D01*
X0266487Y0207742D01*
X0266587Y0207858D01*
X0266691Y0207971D01*
X0266797Y0208082D01*
X0266906Y0208190D01*
X0267018Y0208295D01*
X0267132Y0208396D01*
X0267250Y0208495D01*
X0267369Y0208591D01*
X0267491Y0208684D01*
X0267616Y0208773D01*
X0267743Y0208860D01*
X0267872Y0208942D01*
X0268003Y0209022D01*
X0268136Y0209098D01*
X0268271Y0209171D01*
X0268408Y0209240D01*
X0268547Y0209305D01*
X0268687Y0209367D01*
X0268829Y0209425D01*
X0268972Y0209480D01*
X0269117Y0209531D01*
X0269263Y0209578D01*
X0269410Y0209621D01*
X0269558Y0209660D01*
X0269707Y0209696D01*
X0269857Y0209727D01*
X0270008Y0209755D01*
X0270159Y0209779D01*
X0270312Y0209799D01*
X0270464Y0209815D01*
X0270617Y0209827D01*
X0270770Y0209835D01*
X0270923Y0209839D01*
X0271077Y0209839D01*
X0271230Y0209835D01*
X0271383Y0209827D01*
X0271536Y0209815D01*
X0271688Y0209799D01*
X0271841Y0209779D01*
X0271992Y0209755D01*
X0272143Y0209727D01*
X0272293Y0209696D01*
X0272442Y0209660D01*
X0272590Y0209621D01*
X0272737Y0209578D01*
X0272883Y0209531D01*
X0273028Y0209480D01*
X0273171Y0209425D01*
X0273313Y0209367D01*
X0273453Y0209305D01*
X0273592Y0209240D01*
X0273729Y0209171D01*
X0273864Y0209098D01*
X0273997Y0209022D01*
X0274128Y0208942D01*
X0274257Y0208860D01*
X0274384Y0208773D01*
X0274509Y0208684D01*
X0274631Y0208591D01*
X0274750Y0208495D01*
X0274868Y0208396D01*
X0274982Y0208295D01*
X0275094Y0208190D01*
X0275203Y0208082D01*
X0275309Y0207971D01*
X0275413Y0207858D01*
X0275513Y0207742D01*
X0275611Y0207624D01*
X0275705Y0207503D01*
X0275796Y0207380D01*
X0275884Y0207254D01*
X0275968Y0207126D01*
X0276050Y0206996D01*
X0276127Y0206864D01*
X0276202Y0206730D01*
X0276273Y0206594D01*
X0276340Y0206456D01*
X0276404Y0206316D01*
X0276464Y0206175D01*
X0276520Y0206033D01*
X0276573Y0205889D01*
X0276622Y0205743D01*
X0276667Y0205597D01*
X0276708Y0205449D01*
X0276745Y0205301D01*
X0276779Y0205151D01*
X0276809Y0205000D01*
X0276834Y0204849D01*
X0276856Y0204698D01*
X0276874Y0204545D01*
X0276888Y0204393D01*
X0276898Y0204240D01*
X0276904Y0204086D01*
X0276906Y0203933D01*
X0276904Y0203780D01*
X0276898Y0203626D01*
X0276888Y0203473D01*
X0276874Y0203321D01*
X0276856Y0203168D01*
X0276834Y0203017D01*
X0276809Y0202866D01*
X0276779Y0202715D01*
X0276745Y0202565D01*
X0276708Y0202417D01*
X0276667Y0202269D01*
X0276622Y0202123D01*
X0276573Y0201977D01*
X0276520Y0201833D01*
X0276464Y0201691D01*
X0276404Y0201550D01*
X0276340Y0201410D01*
X0276273Y0201272D01*
X0276202Y0201136D01*
X0276127Y0201002D01*
X0276050Y0200870D01*
X0275968Y0200740D01*
X0275884Y0200612D01*
X0275796Y0200486D01*
X0275705Y0200363D01*
X0275611Y0200242D01*
X0275513Y0200124D01*
X0275413Y0200008D01*
X0275309Y0199895D01*
X0275203Y0199784D01*
X0275094Y0199676D01*
X0274982Y0199571D01*
X0274868Y0199470D01*
X0274750Y0199371D01*
X0274631Y0199275D01*
X0274509Y0199182D01*
X0274384Y0199093D01*
X0274257Y0199006D01*
X0274128Y0198924D01*
X0273997Y0198844D01*
X0273864Y0198768D01*
X0273729Y0198695D01*
X0273592Y0198626D01*
X0273453Y0198561D01*
X0273313Y0198499D01*
X0273171Y0198441D01*
X0273028Y0198386D01*
X0272883Y0198335D01*
X0272737Y0198288D01*
X0272590Y0198245D01*
X0272442Y0198206D01*
X0272293Y0198170D01*
X0272143Y0198139D01*
X0271992Y0198111D01*
X0271841Y0198087D01*
X0271688Y0198067D01*
X0271536Y0198051D01*
X0271383Y0198039D01*
X0271230Y0198031D01*
X0271077Y0198027D01*
X0270923Y0198027D01*
X0270770Y0198031D01*
X0270617Y0198039D01*
X0270464Y0198051D01*
X0270312Y0198067D01*
X0270159Y0198087D01*
X0270008Y0198111D01*
X0269857Y0198139D01*
X0269707Y0198170D01*
X0269558Y0198206D01*
X0269410Y0198245D01*
X0269263Y0198288D01*
X0269117Y0198335D01*
X0268972Y0198386D01*
X0268829Y0198441D01*
X0268687Y0198499D01*
X0268547Y0198561D01*
X0268408Y0198626D01*
X0268271Y0198695D01*
X0268136Y0198768D01*
X0268003Y0198844D01*
X0267872Y0198924D01*
X0267743Y0199006D01*
X0267616Y0199093D01*
X0267491Y0199182D01*
X0267369Y0199275D01*
X0267250Y0199371D01*
X0267132Y0199470D01*
X0267018Y0199571D01*
X0266906Y0199676D01*
X0266797Y0199784D01*
X0266691Y0199895D01*
X0266587Y0200008D01*
X0266487Y0200124D01*
X0266389Y0200242D01*
X0266295Y0200363D01*
X0266204Y0200486D01*
X0266116Y0200612D01*
X0266032Y0200740D01*
X0265950Y0200870D01*
X0265873Y0201002D01*
X0265798Y0201136D01*
X0265727Y0201272D01*
X0265660Y0201410D01*
X0265596Y0201550D01*
X0265536Y0201691D01*
X0265480Y0201833D01*
X0265427Y0201977D01*
X0265378Y0202123D01*
X0265333Y0202269D01*
X0265292Y0202417D01*
X0265255Y0202565D01*
X0265221Y0202715D01*
X0265191Y0202866D01*
X0265166Y0203017D01*
X0265144Y0203168D01*
X0265126Y0203321D01*
X0265112Y0203473D01*
X0265102Y0203626D01*
X0265096Y0203780D01*
X0265094Y0203933D01*
X0004937Y0205193D02*
X0004939Y0205346D01*
X0004945Y0205500D01*
X0004955Y0205653D01*
X0004969Y0205805D01*
X0004987Y0205958D01*
X0005009Y0206109D01*
X0005034Y0206260D01*
X0005064Y0206411D01*
X0005098Y0206561D01*
X0005135Y0206709D01*
X0005176Y0206857D01*
X0005221Y0207003D01*
X0005270Y0207149D01*
X0005323Y0207293D01*
X0005379Y0207435D01*
X0005439Y0207576D01*
X0005503Y0207716D01*
X0005570Y0207854D01*
X0005641Y0207990D01*
X0005716Y0208124D01*
X0005793Y0208256D01*
X0005875Y0208386D01*
X0005959Y0208514D01*
X0006047Y0208640D01*
X0006138Y0208763D01*
X0006232Y0208884D01*
X0006330Y0209002D01*
X0006430Y0209118D01*
X0006534Y0209231D01*
X0006640Y0209342D01*
X0006749Y0209450D01*
X0006861Y0209555D01*
X0006975Y0209656D01*
X0007093Y0209755D01*
X0007212Y0209851D01*
X0007334Y0209944D01*
X0007459Y0210033D01*
X0007586Y0210120D01*
X0007715Y0210202D01*
X0007846Y0210282D01*
X0007979Y0210358D01*
X0008114Y0210431D01*
X0008251Y0210500D01*
X0008390Y0210565D01*
X0008530Y0210627D01*
X0008672Y0210685D01*
X0008815Y0210740D01*
X0008960Y0210791D01*
X0009106Y0210838D01*
X0009253Y0210881D01*
X0009401Y0210920D01*
X0009550Y0210956D01*
X0009700Y0210987D01*
X0009851Y0211015D01*
X0010002Y0211039D01*
X0010155Y0211059D01*
X0010307Y0211075D01*
X0010460Y0211087D01*
X0010613Y0211095D01*
X0010766Y0211099D01*
X0010920Y0211099D01*
X0011073Y0211095D01*
X0011226Y0211087D01*
X0011379Y0211075D01*
X0011531Y0211059D01*
X0011684Y0211039D01*
X0011835Y0211015D01*
X0011986Y0210987D01*
X0012136Y0210956D01*
X0012285Y0210920D01*
X0012433Y0210881D01*
X0012580Y0210838D01*
X0012726Y0210791D01*
X0012871Y0210740D01*
X0013014Y0210685D01*
X0013156Y0210627D01*
X0013296Y0210565D01*
X0013435Y0210500D01*
X0013572Y0210431D01*
X0013707Y0210358D01*
X0013840Y0210282D01*
X0013971Y0210202D01*
X0014100Y0210120D01*
X0014227Y0210033D01*
X0014352Y0209944D01*
X0014474Y0209851D01*
X0014593Y0209755D01*
X0014711Y0209656D01*
X0014825Y0209555D01*
X0014937Y0209450D01*
X0015046Y0209342D01*
X0015152Y0209231D01*
X0015256Y0209118D01*
X0015356Y0209002D01*
X0015454Y0208884D01*
X0015548Y0208763D01*
X0015639Y0208640D01*
X0015727Y0208514D01*
X0015811Y0208386D01*
X0015893Y0208256D01*
X0015970Y0208124D01*
X0016045Y0207990D01*
X0016116Y0207854D01*
X0016183Y0207716D01*
X0016247Y0207576D01*
X0016307Y0207435D01*
X0016363Y0207293D01*
X0016416Y0207149D01*
X0016465Y0207003D01*
X0016510Y0206857D01*
X0016551Y0206709D01*
X0016588Y0206561D01*
X0016622Y0206411D01*
X0016652Y0206260D01*
X0016677Y0206109D01*
X0016699Y0205958D01*
X0016717Y0205805D01*
X0016731Y0205653D01*
X0016741Y0205500D01*
X0016747Y0205346D01*
X0016749Y0205193D01*
X0016747Y0205040D01*
X0016741Y0204886D01*
X0016731Y0204733D01*
X0016717Y0204581D01*
X0016699Y0204428D01*
X0016677Y0204277D01*
X0016652Y0204126D01*
X0016622Y0203975D01*
X0016588Y0203825D01*
X0016551Y0203677D01*
X0016510Y0203529D01*
X0016465Y0203383D01*
X0016416Y0203237D01*
X0016363Y0203093D01*
X0016307Y0202951D01*
X0016247Y0202810D01*
X0016183Y0202670D01*
X0016116Y0202532D01*
X0016045Y0202396D01*
X0015970Y0202262D01*
X0015893Y0202130D01*
X0015811Y0202000D01*
X0015727Y0201872D01*
X0015639Y0201746D01*
X0015548Y0201623D01*
X0015454Y0201502D01*
X0015356Y0201384D01*
X0015256Y0201268D01*
X0015152Y0201155D01*
X0015046Y0201044D01*
X0014937Y0200936D01*
X0014825Y0200831D01*
X0014711Y0200730D01*
X0014593Y0200631D01*
X0014474Y0200535D01*
X0014352Y0200442D01*
X0014227Y0200353D01*
X0014100Y0200266D01*
X0013971Y0200184D01*
X0013840Y0200104D01*
X0013707Y0200028D01*
X0013572Y0199955D01*
X0013435Y0199886D01*
X0013296Y0199821D01*
X0013156Y0199759D01*
X0013014Y0199701D01*
X0012871Y0199646D01*
X0012726Y0199595D01*
X0012580Y0199548D01*
X0012433Y0199505D01*
X0012285Y0199466D01*
X0012136Y0199430D01*
X0011986Y0199399D01*
X0011835Y0199371D01*
X0011684Y0199347D01*
X0011531Y0199327D01*
X0011379Y0199311D01*
X0011226Y0199299D01*
X0011073Y0199291D01*
X0010920Y0199287D01*
X0010766Y0199287D01*
X0010613Y0199291D01*
X0010460Y0199299D01*
X0010307Y0199311D01*
X0010155Y0199327D01*
X0010002Y0199347D01*
X0009851Y0199371D01*
X0009700Y0199399D01*
X0009550Y0199430D01*
X0009401Y0199466D01*
X0009253Y0199505D01*
X0009106Y0199548D01*
X0008960Y0199595D01*
X0008815Y0199646D01*
X0008672Y0199701D01*
X0008530Y0199759D01*
X0008390Y0199821D01*
X0008251Y0199886D01*
X0008114Y0199955D01*
X0007979Y0200028D01*
X0007846Y0200104D01*
X0007715Y0200184D01*
X0007586Y0200266D01*
X0007459Y0200353D01*
X0007334Y0200442D01*
X0007212Y0200535D01*
X0007093Y0200631D01*
X0006975Y0200730D01*
X0006861Y0200831D01*
X0006749Y0200936D01*
X0006640Y0201044D01*
X0006534Y0201155D01*
X0006430Y0201268D01*
X0006330Y0201384D01*
X0006232Y0201502D01*
X0006138Y0201623D01*
X0006047Y0201746D01*
X0005959Y0201872D01*
X0005875Y0202000D01*
X0005793Y0202130D01*
X0005716Y0202262D01*
X0005641Y0202396D01*
X0005570Y0202532D01*
X0005503Y0202670D01*
X0005439Y0202810D01*
X0005379Y0202951D01*
X0005323Y0203093D01*
X0005270Y0203237D01*
X0005221Y0203383D01*
X0005176Y0203529D01*
X0005135Y0203677D01*
X0005098Y0203825D01*
X0005064Y0203975D01*
X0005034Y0204126D01*
X0005009Y0204277D01*
X0004987Y0204428D01*
X0004969Y0204581D01*
X0004955Y0204733D01*
X0004945Y0204886D01*
X0004939Y0205040D01*
X0004937Y0205193D01*
D11*
X0085000Y0167280D03*
X0085000Y0160587D03*
X0140000Y0105280D03*
X0151000Y0105280D03*
X0151000Y0098587D03*
X0140000Y0098587D03*
X0251000Y0160587D03*
X0251000Y0167280D03*
D12*
X0159823Y0082012D03*
X0159823Y0071776D03*
X0159823Y0061933D03*
D13*
X0185500Y0082933D03*
X0185500Y0097933D03*
X0185500Y0127933D03*
X0185500Y0142933D03*
X0021000Y0144433D03*
X0021000Y0129433D03*
X0021000Y0099433D03*
X0021000Y0084433D03*
D14*
X0115063Y0136933D03*
X0122937Y0136933D03*
X0155063Y0136933D03*
X0162937Y0136933D03*
X0192063Y0174933D03*
X0199937Y0174933D03*
X0199937Y0183933D03*
X0192063Y0183933D03*
X0037437Y0182933D03*
X0029563Y0182933D03*
X0029563Y0171933D03*
X0037437Y0171933D03*
D15*
X0061000Y0167870D03*
X0073000Y0167870D03*
X0073000Y0159996D03*
X0061000Y0159996D03*
X0069000Y0184996D03*
X0079500Y0184996D03*
X0079500Y0192870D03*
X0069000Y0192870D03*
X0231000Y0167870D03*
X0241000Y0167870D03*
X0241000Y0159996D03*
X0231000Y0159996D03*
X0233000Y0184996D03*
X0243000Y0184996D03*
X0243000Y0192870D03*
X0233000Y0192870D03*
D16*
X0200134Y0193433D03*
X0191866Y0193433D03*
X0037634Y0193433D03*
X0029366Y0193433D03*
D17*
X0139000Y0116633D03*
X0144700Y0116733D03*
X0150300Y0116733D03*
D18*
X0256000Y0054791D03*
X0256000Y0037075D03*
D19*
X0083858Y0052433D03*
X0066142Y0052433D03*
D20*
X0058331Y0184693D03*
X0049669Y0188433D03*
X0058331Y0192173D03*
X0213669Y0188933D03*
X0222331Y0185193D03*
X0222331Y0192673D03*
D21*
X0172000Y0058333D02*
X0172000Y0050933D01*
X0105700Y0050933D02*
X0098300Y0050933D01*
X0098300Y0040933D02*
X0105700Y0040933D01*
D22*
X0090000Y0035421D03*
X0066000Y0035421D03*
D23*
X0238512Y0032933D03*
X0238512Y0056933D03*
D24*
X0191000Y0053933D03*
X0191000Y0033933D03*
X0049000Y0033933D03*
X0049000Y0053933D03*
D25*
X0029000Y0053933D03*
X0029000Y0033933D03*
D26*
X0216000Y0033933D03*
X0216000Y0053933D03*
D27*
X0206000Y0095311D03*
X0206000Y0105311D03*
X0206000Y0115311D03*
X0256000Y0115311D03*
X0256000Y0105311D03*
X0256000Y0095311D03*
X0096000Y0095311D03*
X0096000Y0105311D03*
X0096000Y0115311D03*
X0046000Y0115311D03*
X0046000Y0105311D03*
X0046000Y0095311D03*
D28*
X0061000Y0145232D03*
X0071000Y0145232D03*
X0081000Y0145232D03*
X0132000Y0152933D03*
X0147000Y0152933D03*
X0191000Y0163933D03*
X0211000Y0173933D03*
X0231000Y0175933D03*
X0261000Y0172933D03*
X0241000Y0145232D03*
X0231000Y0145232D03*
X0221000Y0145232D03*
X0224000Y0199933D03*
X0069000Y0199933D03*
X0054000Y0174933D03*
D29*
X0115654Y0146933D03*
X0122346Y0146933D03*
X0155654Y0146933D03*
X0162346Y0146933D03*
D30*
X0146000Y0146461D03*
X0133000Y0146461D03*
X0133000Y0137406D03*
X0146000Y0137406D03*
D31*
X0144543Y0165626D03*
X0135882Y0165626D03*
X0127614Y0165626D03*
X0127614Y0175469D03*
X0135882Y0175469D03*
X0146118Y0175469D03*
X0154386Y0175469D03*
X0154386Y0165626D03*
D32*
X0167575Y0187280D03*
X0141000Y0190429D03*
X0114425Y0187280D03*
D33*
X0121827Y0190178D02*
X0133053Y0190178D01*
X0133053Y0188848D02*
X0134263Y0185927D01*
X0136498Y0183692D01*
X0139419Y0182482D01*
X0142581Y0182482D01*
X0145502Y0183692D01*
X0147737Y0185927D01*
X0148947Y0188848D01*
X0148947Y0192010D01*
X0147737Y0194931D01*
X0145502Y0197166D01*
X0142581Y0198376D01*
X0139419Y0198376D01*
X0136498Y0197166D01*
X0134263Y0194931D01*
X0133053Y0192010D01*
X0133053Y0188848D01*
X0133164Y0188580D02*
X0122372Y0188580D01*
X0122372Y0188860D02*
X0121163Y0191781D01*
X0118927Y0194017D01*
X0116006Y0195227D01*
X0112844Y0195227D01*
X0109923Y0194017D01*
X0107688Y0191781D01*
X0106478Y0188860D01*
X0106478Y0185699D01*
X0107688Y0182778D01*
X0109923Y0180542D01*
X0112844Y0179332D01*
X0116006Y0179332D01*
X0118927Y0180542D01*
X0121163Y0182778D01*
X0122372Y0185699D01*
X0122372Y0188860D01*
X0122372Y0186981D02*
X0133826Y0186981D01*
X0134807Y0185383D02*
X0122242Y0185383D01*
X0121579Y0183784D02*
X0136406Y0183784D01*
X0137685Y0179821D02*
X0134079Y0179821D01*
X0131748Y0177490D01*
X0129417Y0179821D01*
X0125811Y0179821D01*
X0124123Y0178133D01*
X0108911Y0178133D01*
X0091974Y0195070D01*
X0083656Y0195070D01*
X0083656Y0195615D01*
X0082836Y0196435D01*
X0076164Y0196435D01*
X0075344Y0195615D01*
X0075344Y0190125D01*
X0076164Y0189305D01*
X0082836Y0189305D01*
X0083656Y0190125D01*
X0083656Y0190670D01*
X0090152Y0190670D01*
X0105800Y0175022D01*
X0107089Y0173733D01*
X0123261Y0173733D01*
X0123261Y0173666D01*
X0124094Y0172833D01*
X0120213Y0172833D01*
X0119100Y0171720D01*
X0113754Y0166374D01*
X0113754Y0153194D01*
X0097854Y0174659D01*
X0097854Y0174844D01*
X0097324Y0175374D01*
X0096879Y0175975D01*
X0096696Y0176002D01*
X0096565Y0176133D01*
X0095816Y0176133D01*
X0095076Y0176243D01*
X0094927Y0176133D01*
X0075089Y0176133D01*
X0073800Y0174844D01*
X0070800Y0171844D01*
X0070800Y0171435D01*
X0069664Y0171435D01*
X0068844Y0170615D01*
X0068844Y0165125D01*
X0069664Y0164305D01*
X0076336Y0164305D01*
X0077156Y0165125D01*
X0077156Y0170615D01*
X0076475Y0171297D01*
X0076911Y0171733D01*
X0094545Y0171733D01*
X0111694Y0148582D01*
X0111694Y0143400D01*
X0112515Y0142580D01*
X0113454Y0142580D01*
X0113454Y0141089D01*
X0112318Y0141089D01*
X0111498Y0140269D01*
X0111498Y0133597D01*
X0112318Y0132777D01*
X0117808Y0132777D01*
X0118628Y0133597D01*
X0118628Y0140269D01*
X0117854Y0141044D01*
X0117854Y0142580D01*
X0118792Y0142580D01*
X0119000Y0142788D01*
X0119207Y0142580D01*
X0123588Y0142580D01*
X0123616Y0142552D01*
X0125439Y0142552D01*
X0125467Y0142580D01*
X0125485Y0142580D01*
X0126305Y0143400D01*
X0126305Y0143419D01*
X0126728Y0143841D01*
X0126728Y0145549D01*
X0126911Y0145733D01*
X0129966Y0145733D01*
X0129966Y0144641D01*
X0130786Y0143820D01*
X0135214Y0143820D01*
X0136034Y0144641D01*
X0136034Y0148281D01*
X0135214Y0149101D01*
X0135200Y0149101D01*
X0135200Y0152085D01*
X0135281Y0152280D01*
X0135281Y0153586D01*
X0134782Y0154792D01*
X0133859Y0155715D01*
X0133814Y0155733D01*
X0136089Y0155733D01*
X0137800Y0154022D01*
X0137800Y0131022D01*
X0139089Y0129733D01*
X0142500Y0126322D01*
X0142500Y0119271D01*
X0142049Y0118820D01*
X0141913Y0119024D01*
X0141390Y0119546D01*
X0140776Y0119956D01*
X0140094Y0120239D01*
X0139369Y0120383D01*
X0139000Y0120383D01*
X0139000Y0116633D01*
X0139000Y0112883D01*
X0139369Y0112883D01*
X0140094Y0113027D01*
X0140776Y0113310D01*
X0141390Y0113720D01*
X0141913Y0114243D01*
X0142129Y0114566D01*
X0142800Y0113895D01*
X0142800Y0112022D01*
X0144089Y0110733D01*
X0146647Y0108175D01*
X0146647Y0102141D01*
X0146855Y0101933D01*
X0146647Y0101726D01*
X0146647Y0100787D01*
X0144353Y0100787D01*
X0144353Y0101575D01*
X0144393Y0101615D01*
X0144630Y0102026D01*
X0144753Y0102483D01*
X0144753Y0104800D01*
X0140480Y0104800D01*
X0140480Y0105759D01*
X0144753Y0105759D01*
X0144753Y0108076D01*
X0144630Y0108533D01*
X0144393Y0108944D01*
X0144058Y0109279D01*
X0143648Y0109516D01*
X0143190Y0109639D01*
X0140480Y0109639D01*
X0140480Y0105759D01*
X0139520Y0105759D01*
X0139520Y0104800D01*
X0135247Y0104800D01*
X0135247Y0102483D01*
X0135370Y0102026D01*
X0135607Y0101615D01*
X0135647Y0101575D01*
X0135647Y0095448D01*
X0136467Y0094628D01*
X0143533Y0094628D01*
X0144353Y0095448D01*
X0144353Y0096387D01*
X0146647Y0096387D01*
X0146647Y0095448D01*
X0147467Y0094628D01*
X0154533Y0094628D01*
X0155353Y0095448D01*
X0155353Y0096733D01*
X0156911Y0096733D01*
X0158200Y0098022D01*
X0163200Y0103022D01*
X0163200Y0109844D01*
X0161911Y0111133D01*
X0154111Y0118933D01*
X0152838Y0118933D01*
X0152198Y0119573D01*
X0150966Y0120083D01*
X0149634Y0120083D01*
X0148402Y0119573D01*
X0147500Y0118671D01*
X0146900Y0119271D01*
X0146900Y0128144D01*
X0142200Y0132844D01*
X0142200Y0155844D01*
X0139200Y0158844D01*
X0137911Y0160133D01*
X0131911Y0160133D01*
X0130200Y0161844D01*
X0130200Y0162056D01*
X0131748Y0163604D01*
X0134079Y0161273D01*
X0137685Y0161273D01*
X0140213Y0163801D01*
X0142740Y0161273D01*
X0146346Y0161273D01*
X0148896Y0163823D01*
X0148896Y0167429D01*
X0146346Y0169979D01*
X0142740Y0169979D01*
X0140213Y0167451D01*
X0137685Y0169979D01*
X0134216Y0169979D01*
X0131362Y0172833D01*
X0131134Y0172833D01*
X0131748Y0173447D01*
X0134079Y0171116D01*
X0137685Y0171116D01*
X0140235Y0173666D01*
X0140235Y0177271D01*
X0137685Y0179821D01*
X0138517Y0178989D02*
X0143483Y0178989D01*
X0143918Y0179424D02*
X0141765Y0177271D01*
X0141765Y0173666D01*
X0144315Y0171116D01*
X0147921Y0171116D01*
X0150252Y0173447D01*
X0152583Y0171116D01*
X0156189Y0171116D01*
X0158739Y0173666D01*
X0158739Y0177271D01*
X0156189Y0179821D01*
X0152583Y0179821D01*
X0150252Y0177490D01*
X0148960Y0178782D01*
X0151911Y0181733D01*
X0157089Y0181733D01*
X0165800Y0173022D01*
X0165800Y0153498D01*
X0165762Y0153460D01*
X0163588Y0151286D01*
X0159207Y0151286D01*
X0159000Y0151078D01*
X0158792Y0151286D01*
X0152515Y0151286D01*
X0151694Y0150466D01*
X0151694Y0148661D01*
X0148654Y0148661D01*
X0148214Y0149101D01*
X0148200Y0149101D01*
X0148200Y0149879D01*
X0148859Y0150151D01*
X0149782Y0151074D01*
X0150281Y0152280D01*
X0150281Y0153586D01*
X0149782Y0154792D01*
X0148859Y0155715D01*
X0147653Y0156214D01*
X0146347Y0156214D01*
X0145141Y0155715D01*
X0144218Y0154792D01*
X0143719Y0153586D01*
X0143719Y0152280D01*
X0143800Y0152085D01*
X0143800Y0149101D01*
X0143786Y0149101D01*
X0142966Y0148281D01*
X0142966Y0144641D01*
X0143786Y0143820D01*
X0148214Y0143820D01*
X0148654Y0144261D01*
X0151694Y0144261D01*
X0151694Y0143400D01*
X0152515Y0142580D01*
X0158792Y0142580D01*
X0159000Y0142788D01*
X0159207Y0142580D01*
X0160737Y0142580D01*
X0160737Y0141089D01*
X0160192Y0141089D01*
X0159372Y0140269D01*
X0159372Y0133597D01*
X0160192Y0132777D01*
X0165682Y0132777D01*
X0166502Y0133597D01*
X0166502Y0140269D01*
X0165682Y0141089D01*
X0165137Y0141089D01*
X0165137Y0142580D01*
X0165485Y0142580D01*
X0166305Y0143400D01*
X0166305Y0147781D01*
X0168667Y0150143D01*
X0205321Y0150143D01*
X0206609Y0151431D01*
X0208200Y0153022D01*
X0220848Y0165670D01*
X0226844Y0165670D01*
X0226844Y0165125D01*
X0227664Y0164305D01*
X0234336Y0164305D01*
X0235156Y0165125D01*
X0235156Y0170615D01*
X0234336Y0171435D01*
X0227664Y0171435D01*
X0226844Y0170615D01*
X0226844Y0170070D01*
X0219026Y0170070D01*
X0205089Y0156133D01*
X0203498Y0154543D01*
X0170200Y0154543D01*
X0170200Y0174844D01*
X0168911Y0176133D01*
X0165513Y0179532D01*
X0165994Y0179332D01*
X0169156Y0179332D01*
X0172077Y0180542D01*
X0174312Y0182778D01*
X0175522Y0185699D01*
X0175522Y0188860D01*
X0174312Y0191781D01*
X0172077Y0194017D01*
X0169156Y0195227D01*
X0165994Y0195227D01*
X0163073Y0194017D01*
X0160837Y0191781D01*
X0159628Y0188860D01*
X0159628Y0185699D01*
X0159827Y0185217D01*
X0158911Y0186133D01*
X0150089Y0186133D01*
X0143918Y0179962D01*
X0143918Y0179424D01*
X0144543Y0180587D02*
X0118972Y0180587D01*
X0120570Y0182186D02*
X0146141Y0182186D01*
X0145594Y0183784D02*
X0147740Y0183784D01*
X0147193Y0185383D02*
X0149338Y0185383D01*
X0148174Y0186981D02*
X0159628Y0186981D01*
X0159662Y0185383D02*
X0159758Y0185383D01*
X0158000Y0183933D02*
X0168000Y0173933D01*
X0168000Y0152587D01*
X0166673Y0151260D01*
X0162346Y0146933D01*
X0162937Y0146343D01*
X0162937Y0136933D01*
X0159372Y0137427D02*
X0158628Y0137427D01*
X0158628Y0135829D02*
X0159372Y0135829D01*
X0159372Y0134230D02*
X0158628Y0134230D01*
X0158628Y0133597D02*
X0158628Y0140269D01*
X0157808Y0141089D01*
X0152318Y0141089D01*
X0151498Y0140269D01*
X0151498Y0139605D01*
X0148654Y0139605D01*
X0148214Y0140046D01*
X0143786Y0140046D01*
X0142966Y0139226D01*
X0142966Y0135585D01*
X0143786Y0134765D01*
X0148214Y0134765D01*
X0148654Y0135206D01*
X0151498Y0135206D01*
X0151498Y0133597D01*
X0152318Y0132777D01*
X0157808Y0132777D01*
X0158628Y0133597D01*
X0151498Y0134230D02*
X0142200Y0134230D01*
X0142200Y0135829D02*
X0142966Y0135829D01*
X0142966Y0137427D02*
X0142200Y0137427D01*
X0142200Y0139026D02*
X0142966Y0139026D01*
X0142200Y0140624D02*
X0151853Y0140624D01*
X0154591Y0137406D02*
X0155063Y0136933D01*
X0154591Y0137406D02*
X0146000Y0137406D01*
X0137800Y0137427D02*
X0136034Y0137427D01*
X0136034Y0135829D02*
X0137800Y0135829D01*
X0137800Y0134230D02*
X0126502Y0134230D01*
X0126502Y0133597D02*
X0126502Y0135206D01*
X0130346Y0135206D01*
X0130786Y0134765D01*
X0135214Y0134765D01*
X0136034Y0135585D01*
X0136034Y0139226D01*
X0135214Y0140046D01*
X0130786Y0140046D01*
X0130346Y0139605D01*
X0126502Y0139605D01*
X0126502Y0140269D01*
X0125682Y0141089D01*
X0120192Y0141089D01*
X0119372Y0140269D01*
X0119372Y0133597D01*
X0120192Y0132777D01*
X0125682Y0132777D01*
X0126502Y0133597D01*
X0119372Y0134230D02*
X0118628Y0134230D01*
X0118628Y0135829D02*
X0119372Y0135829D01*
X0119372Y0137427D02*
X0118628Y0137427D01*
X0118628Y0139026D02*
X0119372Y0139026D01*
X0119727Y0140624D02*
X0118273Y0140624D01*
X0117854Y0142223D02*
X0137800Y0142223D01*
X0137800Y0143821D02*
X0135215Y0143821D01*
X0136034Y0145420D02*
X0137800Y0145420D01*
X0137800Y0147018D02*
X0136034Y0147018D01*
X0135698Y0148617D02*
X0137800Y0148617D01*
X0137800Y0150215D02*
X0135200Y0150215D01*
X0135200Y0151814D02*
X0137800Y0151814D01*
X0137800Y0153412D02*
X0135281Y0153412D01*
X0134562Y0155011D02*
X0136811Y0155011D01*
X0137000Y0157933D02*
X0140000Y0154933D01*
X0140000Y0131933D01*
X0144700Y0127233D01*
X0144700Y0116733D01*
X0145000Y0116433D01*
X0145000Y0112933D01*
X0151000Y0106933D01*
X0151000Y0105280D01*
X0146647Y0105457D02*
X0140480Y0105457D01*
X0139520Y0105457D02*
X0105000Y0105457D01*
X0105000Y0103859D02*
X0135247Y0103859D01*
X0135307Y0102260D02*
X0105000Y0102260D01*
X0105000Y0100662D02*
X0135647Y0100662D01*
X0135647Y0099063D02*
X0105000Y0099063D01*
X0105000Y0097465D02*
X0135647Y0097465D01*
X0135647Y0095866D02*
X0105000Y0095866D01*
X0105000Y0094268D02*
X0178000Y0094268D01*
X0178000Y0094351D02*
X0178000Y0093933D01*
X0105000Y0093933D01*
X0105000Y0134933D01*
X0040111Y0134933D01*
X0046911Y0141733D01*
X0048200Y0143022D01*
X0048200Y0178844D01*
X0045696Y0181348D01*
X0049412Y0185065D01*
X0053005Y0185065D01*
X0053825Y0185885D01*
X0053825Y0190981D01*
X0053005Y0191802D01*
X0046333Y0191802D01*
X0045513Y0190981D01*
X0045513Y0187388D01*
X0043258Y0185133D01*
X0041002Y0185133D01*
X0041002Y0186269D01*
X0040182Y0187089D01*
X0034692Y0187089D01*
X0033872Y0186269D01*
X0033872Y0179597D01*
X0034692Y0178777D01*
X0040182Y0178777D01*
X0041002Y0179597D01*
X0041002Y0179819D01*
X0043800Y0177022D01*
X0043800Y0144844D01*
X0033889Y0134933D01*
X0023726Y0134933D01*
X0022218Y0135557D01*
X0019782Y0135557D01*
X0018274Y0134933D01*
X0011000Y0134933D01*
X0011000Y0196987D01*
X0012475Y0196987D01*
X0015491Y0198237D01*
X0017799Y0200545D01*
X0019048Y0203561D01*
X0019048Y0206825D01*
X0017799Y0209841D01*
X0016707Y0210933D01*
X0264000Y0210933D01*
X0264000Y0208476D01*
X0262794Y0205565D01*
X0262794Y0202301D01*
X0264000Y0199391D01*
X0264000Y0174264D01*
X0263782Y0174792D01*
X0262859Y0175715D01*
X0261653Y0176214D01*
X0260347Y0176214D01*
X0259141Y0175715D01*
X0258218Y0174792D01*
X0257719Y0173586D01*
X0257719Y0172763D01*
X0255353Y0170397D01*
X0255353Y0170418D01*
X0254533Y0171239D01*
X0247467Y0171239D01*
X0246647Y0170418D01*
X0246647Y0169480D01*
X0245156Y0169480D01*
X0245156Y0170615D01*
X0244336Y0171435D01*
X0237664Y0171435D01*
X0236844Y0170615D01*
X0236844Y0165125D01*
X0237664Y0164305D01*
X0244336Y0164305D01*
X0245111Y0165080D01*
X0246647Y0165080D01*
X0246647Y0164291D01*
X0246607Y0164251D01*
X0246370Y0163840D01*
X0246247Y0163383D01*
X0246247Y0161066D01*
X0250520Y0161066D01*
X0250520Y0160107D01*
X0246247Y0160107D01*
X0246247Y0157791D01*
X0246370Y0157333D01*
X0246607Y0156922D01*
X0246942Y0156587D01*
X0247352Y0156350D01*
X0247810Y0156228D01*
X0250520Y0156228D01*
X0250520Y0160107D01*
X0251480Y0160107D01*
X0251480Y0161066D01*
X0255753Y0161066D01*
X0255753Y0163383D01*
X0255630Y0163840D01*
X0255393Y0164251D01*
X0255353Y0164291D01*
X0255353Y0165080D01*
X0256258Y0165080D01*
X0260830Y0169652D01*
X0261653Y0169652D01*
X0262859Y0170151D01*
X0263782Y0171074D01*
X0264000Y0171602D01*
X0264000Y0132933D01*
X0187279Y0133825D01*
X0186718Y0134057D01*
X0184282Y0134057D01*
X0183818Y0133865D01*
X0178000Y0133933D01*
X0178000Y0101515D01*
X0177200Y0099584D01*
X0177200Y0096282D01*
X0178000Y0094351D01*
X0177372Y0095866D02*
X0155353Y0095866D01*
X0157643Y0097465D02*
X0177200Y0097465D01*
X0177200Y0099063D02*
X0159241Y0099063D01*
X0160840Y0100662D02*
X0177646Y0100662D01*
X0178000Y0102260D02*
X0162438Y0102260D01*
X0163200Y0103859D02*
X0178000Y0103859D01*
X0178000Y0105457D02*
X0163200Y0105457D01*
X0163200Y0107056D02*
X0178000Y0107056D01*
X0178000Y0108654D02*
X0163200Y0108654D01*
X0162792Y0110253D02*
X0178000Y0110253D01*
X0178000Y0111851D02*
X0161193Y0111851D01*
X0159595Y0113450D02*
X0178000Y0113450D01*
X0178000Y0115048D02*
X0157996Y0115048D01*
X0156398Y0116647D02*
X0178000Y0116647D01*
X0178000Y0118245D02*
X0154799Y0118245D01*
X0153200Y0116733D02*
X0161000Y0108933D01*
X0161000Y0103933D01*
X0156000Y0098933D01*
X0151346Y0098933D01*
X0151000Y0098587D01*
X0140000Y0098587D01*
X0144353Y0095866D02*
X0146647Y0095866D01*
X0146647Y0102260D02*
X0144693Y0102260D01*
X0144753Y0103859D02*
X0146647Y0103859D01*
X0146647Y0107056D02*
X0144753Y0107056D01*
X0144560Y0108654D02*
X0146168Y0108654D01*
X0144569Y0110253D02*
X0105000Y0110253D01*
X0105000Y0111851D02*
X0142971Y0111851D01*
X0142800Y0113450D02*
X0140986Y0113450D01*
X0139000Y0113450D02*
X0139000Y0113450D01*
X0139000Y0112883D02*
X0139000Y0116633D01*
X0139000Y0116633D01*
X0135250Y0116633D01*
X0135250Y0116264D01*
X0135394Y0115539D01*
X0135677Y0114857D01*
X0136087Y0114243D01*
X0136610Y0113720D01*
X0137224Y0113310D01*
X0137906Y0113027D01*
X0138631Y0112883D01*
X0139000Y0112883D01*
X0137014Y0113450D02*
X0105000Y0113450D01*
X0105000Y0115048D02*
X0135597Y0115048D01*
X0135250Y0116633D02*
X0139000Y0116633D01*
X0139000Y0116633D01*
X0139000Y0116633D01*
X0139000Y0120383D01*
X0138631Y0120383D01*
X0137906Y0120239D01*
X0137224Y0119956D01*
X0136610Y0119546D01*
X0136087Y0119024D01*
X0135677Y0118409D01*
X0135394Y0117727D01*
X0135250Y0117002D01*
X0135250Y0116633D01*
X0135250Y0116647D02*
X0105000Y0116647D01*
X0105000Y0118245D02*
X0135609Y0118245D01*
X0137055Y0119844D02*
X0105000Y0119844D01*
X0105000Y0121442D02*
X0142500Y0121442D01*
X0142500Y0119844D02*
X0140945Y0119844D01*
X0139000Y0119844D02*
X0139000Y0119844D01*
X0139000Y0118245D02*
X0139000Y0118245D01*
X0139000Y0116647D02*
X0139000Y0116647D01*
X0139000Y0115048D02*
X0139000Y0115048D01*
X0146900Y0119844D02*
X0149056Y0119844D01*
X0151544Y0119844D02*
X0178000Y0119844D01*
X0178000Y0121442D02*
X0146900Y0121442D01*
X0146900Y0123041D02*
X0178000Y0123041D01*
X0178000Y0124639D02*
X0146900Y0124639D01*
X0146900Y0126238D02*
X0178000Y0126238D01*
X0178000Y0127836D02*
X0146900Y0127836D01*
X0145610Y0129435D02*
X0178000Y0129435D01*
X0178000Y0131033D02*
X0144011Y0131033D01*
X0142412Y0132632D02*
X0178000Y0132632D01*
X0182031Y0137741D02*
X0184282Y0136809D01*
X0186718Y0136809D01*
X0188969Y0137741D01*
X0190692Y0139464D01*
X0191624Y0141715D01*
X0191624Y0144151D01*
X0190692Y0146402D01*
X0188969Y0148125D01*
X0186718Y0149057D01*
X0184282Y0149057D01*
X0182031Y0148125D01*
X0180308Y0146402D01*
X0179376Y0144151D01*
X0179376Y0141715D01*
X0180308Y0139464D01*
X0182031Y0137741D01*
X0182788Y0137427D02*
X0166502Y0137427D01*
X0166502Y0135829D02*
X0264000Y0135829D01*
X0264000Y0137427D02*
X0188212Y0137427D01*
X0190254Y0139026D02*
X0264000Y0139026D01*
X0264000Y0140624D02*
X0191173Y0140624D01*
X0191624Y0142223D02*
X0219691Y0142223D01*
X0219141Y0142451D02*
X0220347Y0141951D01*
X0221653Y0141951D01*
X0222859Y0142451D01*
X0223782Y0143374D01*
X0224281Y0144580D01*
X0224281Y0145885D01*
X0223782Y0147091D01*
X0223200Y0147672D01*
X0223200Y0149085D01*
X0230546Y0156431D01*
X0234336Y0156431D01*
X0235156Y0157251D01*
X0235156Y0157796D01*
X0236844Y0157796D01*
X0236844Y0157251D01*
X0237664Y0156431D01*
X0244336Y0156431D01*
X0245156Y0157251D01*
X0245156Y0162741D01*
X0244336Y0163561D01*
X0237664Y0163561D01*
X0236844Y0162741D01*
X0236844Y0162196D01*
X0235156Y0162196D01*
X0235156Y0162741D01*
X0234336Y0163561D01*
X0227664Y0163561D01*
X0226844Y0162741D01*
X0226844Y0158951D01*
X0220089Y0152196D01*
X0220089Y0152196D01*
X0218800Y0150907D01*
X0218800Y0147672D01*
X0218218Y0147091D01*
X0217719Y0145885D01*
X0217719Y0144580D01*
X0218218Y0143374D01*
X0219141Y0142451D01*
X0218033Y0143821D02*
X0191624Y0143821D01*
X0191099Y0145420D02*
X0217719Y0145420D01*
X0218188Y0147018D02*
X0190076Y0147018D01*
X0187782Y0148617D02*
X0218800Y0148617D01*
X0218800Y0150215D02*
X0205394Y0150215D01*
X0206992Y0151814D02*
X0219707Y0151814D01*
X0221000Y0149996D02*
X0231000Y0159996D01*
X0241000Y0159996D01*
X0245156Y0159807D02*
X0246247Y0159807D01*
X0246247Y0161405D02*
X0245156Y0161405D01*
X0244894Y0163004D02*
X0246247Y0163004D01*
X0246647Y0164602D02*
X0244633Y0164602D01*
X0241591Y0167280D02*
X0241000Y0167870D01*
X0241591Y0167280D02*
X0251000Y0167280D01*
X0255346Y0167280D01*
X0261000Y0172933D01*
X0257971Y0174193D02*
X0249371Y0174193D01*
X0248911Y0173733D02*
X0251911Y0176733D01*
X0253200Y0178022D01*
X0253200Y0189844D01*
X0248200Y0194844D01*
X0246911Y0196133D01*
X0246638Y0196133D01*
X0246336Y0196435D01*
X0239664Y0196435D01*
X0238844Y0195615D01*
X0238844Y0190125D01*
X0239664Y0189305D01*
X0246336Y0189305D01*
X0246926Y0189895D01*
X0248800Y0188022D01*
X0248800Y0179844D01*
X0247089Y0178133D01*
X0233440Y0178133D01*
X0232859Y0178715D01*
X0231653Y0179214D01*
X0230347Y0179214D01*
X0229141Y0178715D01*
X0228218Y0177792D01*
X0227719Y0176586D01*
X0227719Y0175280D01*
X0228218Y0174074D01*
X0229141Y0173151D01*
X0230347Y0172652D01*
X0231653Y0172652D01*
X0232859Y0173151D01*
X0233440Y0173733D01*
X0248911Y0173733D01*
X0248000Y0175933D02*
X0251000Y0178933D01*
X0251000Y0188933D01*
X0246000Y0193933D01*
X0244063Y0193933D01*
X0243000Y0192870D01*
X0238844Y0193375D02*
X0237156Y0193375D01*
X0237156Y0191777D02*
X0238844Y0191777D01*
X0238844Y0190178D02*
X0237156Y0190178D01*
X0237156Y0190125D02*
X0237156Y0195615D01*
X0236336Y0196435D01*
X0229664Y0196435D01*
X0228844Y0195615D01*
X0228844Y0194873D01*
X0226487Y0194873D01*
X0226487Y0195222D01*
X0225667Y0196042D01*
X0224531Y0196042D01*
X0224531Y0196652D01*
X0224653Y0196652D01*
X0225859Y0197151D01*
X0226782Y0198074D01*
X0227281Y0199280D01*
X0227281Y0200586D01*
X0226782Y0201792D01*
X0225859Y0202715D01*
X0224653Y0203214D01*
X0223347Y0203214D01*
X0222141Y0202715D01*
X0221218Y0201792D01*
X0220719Y0200586D01*
X0220719Y0199763D01*
X0220131Y0199175D01*
X0220131Y0196042D01*
X0218995Y0196042D01*
X0218175Y0195222D01*
X0218175Y0190125D01*
X0218995Y0189305D01*
X0225667Y0189305D01*
X0226487Y0190125D01*
X0226487Y0190473D01*
X0228844Y0190473D01*
X0228844Y0190125D01*
X0229664Y0189305D01*
X0236336Y0189305D01*
X0237156Y0190125D01*
X0236336Y0188561D02*
X0229664Y0188561D01*
X0228844Y0187741D01*
X0228844Y0187393D01*
X0226487Y0187393D01*
X0226487Y0187741D01*
X0225667Y0188561D01*
X0218995Y0188561D01*
X0218175Y0187741D01*
X0218175Y0182645D01*
X0218995Y0181824D01*
X0225667Y0181824D01*
X0226487Y0182645D01*
X0226487Y0182993D01*
X0228844Y0182993D01*
X0228844Y0182251D01*
X0229664Y0181431D01*
X0236336Y0181431D01*
X0237156Y0182251D01*
X0237156Y0182796D01*
X0238844Y0182796D01*
X0238844Y0182251D01*
X0239664Y0181431D01*
X0246336Y0181431D01*
X0247156Y0182251D01*
X0247156Y0187741D01*
X0246336Y0188561D01*
X0239664Y0188561D01*
X0238844Y0187741D01*
X0238844Y0187196D01*
X0237156Y0187196D01*
X0237156Y0187741D01*
X0236336Y0188561D01*
X0232803Y0185193D02*
X0233000Y0184996D01*
X0243000Y0184996D01*
X0247156Y0185383D02*
X0248800Y0185383D01*
X0248800Y0186981D02*
X0247156Y0186981D01*
X0248242Y0188580D02*
X0217825Y0188580D01*
X0217825Y0190178D02*
X0218175Y0190178D01*
X0217825Y0191481D02*
X0217005Y0192302D01*
X0210333Y0192302D01*
X0209513Y0191481D01*
X0209513Y0190558D01*
X0205089Y0186133D01*
X0203502Y0186133D01*
X0203502Y0187269D01*
X0202682Y0188089D01*
X0197192Y0188089D01*
X0196372Y0187269D01*
X0196372Y0180597D01*
X0197192Y0179777D01*
X0202682Y0179777D01*
X0203502Y0180597D01*
X0203502Y0181733D01*
X0205089Y0181733D01*
X0208800Y0178022D01*
X0208800Y0176373D01*
X0208218Y0175792D01*
X0203902Y0175792D01*
X0203902Y0175216D02*
X0203902Y0177926D01*
X0203780Y0178384D01*
X0203543Y0178794D01*
X0203208Y0179129D01*
X0202797Y0179366D01*
X0202339Y0179489D01*
X0200220Y0179489D01*
X0200220Y0175216D01*
X0203902Y0175216D01*
X0203902Y0174650D02*
X0200220Y0174650D01*
X0200220Y0175216D01*
X0199654Y0175216D01*
X0199654Y0174650D01*
X0200220Y0174650D01*
X0200220Y0170377D01*
X0202339Y0170377D01*
X0202797Y0170500D01*
X0203208Y0170737D01*
X0203543Y0171072D01*
X0203780Y0171482D01*
X0203902Y0171940D01*
X0203902Y0174650D01*
X0203902Y0174193D02*
X0207719Y0174193D01*
X0207719Y0174586D02*
X0207719Y0173280D01*
X0208218Y0172074D01*
X0209141Y0171151D01*
X0210347Y0170652D01*
X0211653Y0170652D01*
X0212859Y0171151D01*
X0213782Y0172074D01*
X0214281Y0173280D01*
X0214281Y0174586D01*
X0213782Y0175792D01*
X0227719Y0175792D01*
X0228052Y0177390D02*
X0213200Y0177390D01*
X0213200Y0176373D02*
X0213200Y0179844D01*
X0209111Y0183933D01*
X0210743Y0185565D01*
X0217005Y0185565D01*
X0217825Y0186385D01*
X0217825Y0191481D01*
X0217530Y0191777D02*
X0218175Y0191777D01*
X0218175Y0193375D02*
X0200515Y0193375D01*
X0200515Y0193052D02*
X0200515Y0193814D01*
X0204296Y0193814D01*
X0204296Y0196032D01*
X0204173Y0196490D01*
X0203936Y0196900D01*
X0203601Y0197236D01*
X0203191Y0197473D01*
X0202733Y0197595D01*
X0200515Y0197595D01*
X0200515Y0193814D01*
X0199753Y0193814D01*
X0199753Y0197595D01*
X0197535Y0197595D01*
X0197077Y0197473D01*
X0196666Y0197236D01*
X0196331Y0196900D01*
X0196094Y0196490D01*
X0195972Y0196032D01*
X0195972Y0193814D01*
X0199753Y0193814D01*
X0199753Y0193052D01*
X0200515Y0193052D01*
X0204296Y0193052D01*
X0204296Y0190834D01*
X0204173Y0190376D01*
X0203936Y0189966D01*
X0203601Y0189630D01*
X0203191Y0189394D01*
X0202733Y0189271D01*
X0200515Y0189271D01*
X0200515Y0193052D01*
X0199753Y0193052D02*
X0199753Y0189271D01*
X0197535Y0189271D01*
X0197077Y0189394D01*
X0196666Y0189630D01*
X0196331Y0189966D01*
X0196094Y0190376D01*
X0195972Y0190834D01*
X0195972Y0193052D01*
X0199753Y0193052D01*
X0199753Y0193375D02*
X0195628Y0193375D01*
X0195628Y0191777D02*
X0195972Y0191777D01*
X0195628Y0190491D02*
X0194808Y0189671D01*
X0194263Y0189671D01*
X0194263Y0188089D01*
X0194808Y0188089D01*
X0195628Y0187269D01*
X0195628Y0180597D01*
X0194808Y0179777D01*
X0189318Y0179777D01*
X0188498Y0180597D01*
X0188498Y0187269D01*
X0189318Y0188089D01*
X0189863Y0188089D01*
X0189863Y0189671D01*
X0188924Y0189671D01*
X0188104Y0190491D01*
X0188104Y0196375D01*
X0188924Y0197195D01*
X0194808Y0197195D01*
X0195628Y0196375D01*
X0195628Y0190491D01*
X0195316Y0190178D02*
X0196209Y0190178D01*
X0194263Y0188580D02*
X0207535Y0188580D01*
X0205937Y0186981D02*
X0203502Y0186981D01*
X0204059Y0190178D02*
X0209134Y0190178D01*
X0209809Y0191777D02*
X0204296Y0191777D01*
X0204296Y0194974D02*
X0218175Y0194974D01*
X0220131Y0196572D02*
X0204126Y0196572D01*
X0200515Y0196572D02*
X0199753Y0196572D01*
X0199753Y0194974D02*
X0200515Y0194974D01*
X0200515Y0191777D02*
X0199753Y0191777D01*
X0199753Y0190178D02*
X0200515Y0190178D01*
X0196372Y0186981D02*
X0195628Y0186981D01*
X0195628Y0185383D02*
X0196372Y0185383D01*
X0196372Y0183784D02*
X0195628Y0183784D01*
X0195628Y0182186D02*
X0196372Y0182186D01*
X0196382Y0180587D02*
X0195618Y0180587D01*
X0194808Y0179089D02*
X0189318Y0179089D01*
X0188498Y0178269D01*
X0188498Y0171597D01*
X0188800Y0171295D01*
X0188800Y0166373D01*
X0188218Y0165792D01*
X0187719Y0164586D01*
X0187719Y0163280D01*
X0188218Y0162074D01*
X0189141Y0161151D01*
X0190347Y0160652D01*
X0191653Y0160652D01*
X0192859Y0161151D01*
X0193782Y0162074D01*
X0194281Y0163280D01*
X0194281Y0164586D01*
X0193782Y0165792D01*
X0193200Y0166373D01*
X0193200Y0170777D01*
X0194808Y0170777D01*
X0195628Y0171597D01*
X0195628Y0178269D01*
X0194808Y0179089D01*
X0194909Y0178989D02*
X0196526Y0178989D01*
X0196666Y0179129D02*
X0196331Y0178794D01*
X0196094Y0178384D01*
X0195972Y0177926D01*
X0195972Y0175216D01*
X0199654Y0175216D01*
X0199654Y0179489D01*
X0197535Y0179489D01*
X0197077Y0179366D01*
X0196666Y0179129D01*
X0195972Y0177390D02*
X0195628Y0177390D01*
X0195628Y0175792D02*
X0195972Y0175792D01*
X0195972Y0174650D02*
X0195972Y0171940D01*
X0196094Y0171482D01*
X0196331Y0171072D01*
X0196666Y0170737D01*
X0197077Y0170500D01*
X0197535Y0170377D01*
X0199654Y0170377D01*
X0199654Y0174650D01*
X0195972Y0174650D01*
X0195972Y0174193D02*
X0195628Y0174193D01*
X0195628Y0172595D02*
X0195972Y0172595D01*
X0196407Y0170996D02*
X0195027Y0170996D01*
X0193200Y0169398D02*
X0218353Y0169398D01*
X0219937Y0167870D02*
X0206000Y0153933D01*
X0204409Y0152343D01*
X0167756Y0152343D01*
X0166673Y0151260D01*
X0165715Y0153412D02*
X0150281Y0153412D01*
X0150088Y0151814D02*
X0164116Y0151814D01*
X0165800Y0155011D02*
X0149562Y0155011D01*
X0147000Y0152933D02*
X0146000Y0151933D01*
X0146000Y0146461D01*
X0155181Y0146461D01*
X0155654Y0146933D01*
X0151694Y0143821D02*
X0148215Y0143821D01*
X0143785Y0143821D02*
X0142200Y0143821D01*
X0142200Y0142223D02*
X0160737Y0142223D01*
X0159727Y0140624D02*
X0158273Y0140624D01*
X0158628Y0139026D02*
X0159372Y0139026D01*
X0165137Y0142223D02*
X0179376Y0142223D01*
X0179376Y0143821D02*
X0166305Y0143821D01*
X0166305Y0145420D02*
X0179901Y0145420D01*
X0180924Y0147018D02*
X0166305Y0147018D01*
X0167142Y0148617D02*
X0183218Y0148617D01*
X0170200Y0155011D02*
X0203967Y0155011D01*
X0205565Y0156610D02*
X0170200Y0156610D01*
X0170200Y0158208D02*
X0207164Y0158208D01*
X0208762Y0159807D02*
X0170200Y0159807D01*
X0170200Y0161405D02*
X0188888Y0161405D01*
X0187834Y0163004D02*
X0170200Y0163004D01*
X0170200Y0164602D02*
X0187726Y0164602D01*
X0188627Y0166201D02*
X0170200Y0166201D01*
X0170200Y0167799D02*
X0188800Y0167799D01*
X0188800Y0169398D02*
X0170200Y0169398D01*
X0170200Y0170996D02*
X0188800Y0170996D01*
X0188498Y0172595D02*
X0170200Y0172595D01*
X0170200Y0174193D02*
X0188498Y0174193D01*
X0188498Y0175792D02*
X0169253Y0175792D01*
X0168911Y0176133D02*
X0168911Y0176133D01*
X0167654Y0177390D02*
X0188498Y0177390D01*
X0189217Y0178989D02*
X0166056Y0178989D01*
X0161432Y0177390D02*
X0158620Y0177390D01*
X0158739Y0175792D02*
X0163030Y0175792D01*
X0164629Y0174193D02*
X0158739Y0174193D01*
X0157668Y0172595D02*
X0165800Y0172595D01*
X0165800Y0170996D02*
X0133199Y0170996D01*
X0132600Y0172595D02*
X0131600Y0172595D01*
X0127614Y0175469D02*
X0127150Y0175933D01*
X0108000Y0175933D01*
X0091063Y0192870D01*
X0079500Y0192870D01*
X0075344Y0193375D02*
X0073156Y0193375D01*
X0073156Y0191777D02*
X0075344Y0191777D01*
X0075344Y0190178D02*
X0073156Y0190178D01*
X0073156Y0190125D02*
X0073156Y0195615D01*
X0072336Y0196435D01*
X0071200Y0196435D01*
X0071200Y0197493D01*
X0071782Y0198074D01*
X0072281Y0199280D01*
X0072281Y0200586D01*
X0071782Y0201792D01*
X0070859Y0202715D01*
X0069653Y0203214D01*
X0068347Y0203214D01*
X0067141Y0202715D01*
X0066218Y0201792D01*
X0065719Y0200586D01*
X0065719Y0199280D01*
X0066218Y0198074D01*
X0066800Y0197493D01*
X0066800Y0196435D01*
X0065664Y0196435D01*
X0064844Y0195615D01*
X0064844Y0194373D01*
X0062487Y0194373D01*
X0062487Y0194722D01*
X0061667Y0195542D01*
X0054995Y0195542D01*
X0054175Y0194722D01*
X0054175Y0189625D01*
X0054995Y0188805D01*
X0061667Y0188805D01*
X0062487Y0189625D01*
X0062487Y0189973D01*
X0064624Y0189973D01*
X0064815Y0189843D01*
X0065077Y0189892D01*
X0065664Y0189305D01*
X0072336Y0189305D01*
X0073156Y0190125D01*
X0072336Y0188561D02*
X0065664Y0188561D01*
X0064844Y0187741D01*
X0064844Y0186893D01*
X0062487Y0186893D01*
X0062487Y0187241D01*
X0061667Y0188061D01*
X0054995Y0188061D01*
X0054175Y0187241D01*
X0054175Y0182145D01*
X0054995Y0181324D01*
X0061667Y0181324D01*
X0062487Y0182145D01*
X0062487Y0182493D01*
X0064844Y0182493D01*
X0064844Y0182251D01*
X0065664Y0181431D01*
X0072336Y0181431D01*
X0073156Y0182251D01*
X0073156Y0182796D01*
X0075344Y0182796D01*
X0075344Y0182251D01*
X0076164Y0181431D01*
X0082836Y0181431D01*
X0083656Y0182251D01*
X0083656Y0187741D01*
X0082836Y0188561D01*
X0076164Y0188561D01*
X0075344Y0187741D01*
X0075344Y0187196D01*
X0073156Y0187196D01*
X0073156Y0187741D01*
X0072336Y0188561D01*
X0069000Y0184996D02*
X0065697Y0184693D01*
X0058331Y0184693D01*
X0054175Y0185383D02*
X0053323Y0185383D01*
X0053825Y0186981D02*
X0054175Y0186981D01*
X0053825Y0188580D02*
X0092242Y0188580D01*
X0090644Y0190178D02*
X0083656Y0190178D01*
X0083656Y0186981D02*
X0093841Y0186981D01*
X0095439Y0185383D02*
X0083656Y0185383D01*
X0083656Y0183784D02*
X0097038Y0183784D01*
X0098636Y0182186D02*
X0083591Y0182186D01*
X0079500Y0184996D02*
X0069000Y0184996D01*
X0064844Y0186981D02*
X0062487Y0186981D01*
X0054175Y0190178D02*
X0053825Y0190178D01*
X0054175Y0191777D02*
X0053030Y0191777D01*
X0054175Y0193375D02*
X0038015Y0193375D01*
X0038015Y0193052D02*
X0038015Y0193814D01*
X0041796Y0193814D01*
X0041796Y0196032D01*
X0041673Y0196490D01*
X0041436Y0196900D01*
X0041101Y0197236D01*
X0040691Y0197473D01*
X0040233Y0197595D01*
X0038015Y0197595D01*
X0038015Y0193814D01*
X0037253Y0193814D01*
X0037253Y0197595D01*
X0035035Y0197595D01*
X0034577Y0197473D01*
X0034166Y0197236D01*
X0033831Y0196900D01*
X0033594Y0196490D01*
X0033472Y0196032D01*
X0033472Y0193814D01*
X0037253Y0193814D01*
X0037253Y0193052D01*
X0038015Y0193052D01*
X0041796Y0193052D01*
X0041796Y0190834D01*
X0041673Y0190376D01*
X0041436Y0189966D01*
X0041101Y0189630D01*
X0040691Y0189394D01*
X0040233Y0189271D01*
X0038015Y0189271D01*
X0038015Y0193052D01*
X0037253Y0193052D02*
X0037253Y0189271D01*
X0035035Y0189271D01*
X0034577Y0189394D01*
X0034166Y0189630D01*
X0033831Y0189966D01*
X0033594Y0190376D01*
X0033472Y0190834D01*
X0033472Y0193052D01*
X0037253Y0193052D01*
X0037253Y0193375D02*
X0033128Y0193375D01*
X0033128Y0191777D02*
X0033472Y0191777D01*
X0033128Y0190491D02*
X0033128Y0196375D01*
X0032308Y0197195D01*
X0026424Y0197195D01*
X0025604Y0196375D01*
X0025604Y0190491D01*
X0026424Y0189671D01*
X0027166Y0189671D01*
X0027166Y0187089D01*
X0026818Y0187089D01*
X0025998Y0186269D01*
X0025998Y0179597D01*
X0026818Y0178777D01*
X0032308Y0178777D01*
X0033128Y0179597D01*
X0033128Y0186269D01*
X0032308Y0187089D01*
X0031566Y0187089D01*
X0031566Y0189671D01*
X0032308Y0189671D01*
X0033128Y0190491D01*
X0032816Y0190178D02*
X0033709Y0190178D01*
X0031566Y0188580D02*
X0045513Y0188580D01*
X0045513Y0190178D02*
X0041559Y0190178D01*
X0041796Y0191777D02*
X0046309Y0191777D01*
X0041796Y0194974D02*
X0054427Y0194974D01*
X0058331Y0192173D02*
X0065303Y0192173D01*
X0069000Y0192870D01*
X0069000Y0199933D01*
X0072281Y0199769D02*
X0220719Y0199769D01*
X0221043Y0201368D02*
X0071957Y0201368D01*
X0070251Y0202966D02*
X0222749Y0202966D01*
X0225251Y0202966D02*
X0262794Y0202966D01*
X0262794Y0204565D02*
X0019048Y0204565D01*
X0019048Y0206163D02*
X0263042Y0206163D01*
X0263704Y0207762D02*
X0018660Y0207762D01*
X0017998Y0209360D02*
X0264000Y0209360D01*
X0263181Y0201368D02*
X0226957Y0201368D01*
X0227281Y0199769D02*
X0263843Y0199769D01*
X0264000Y0198171D02*
X0226821Y0198171D01*
X0224531Y0196572D02*
X0264000Y0196572D01*
X0264000Y0194974D02*
X0248071Y0194974D01*
X0249669Y0193375D02*
X0264000Y0193375D01*
X0264000Y0191777D02*
X0251268Y0191777D01*
X0252866Y0190178D02*
X0264000Y0190178D01*
X0264000Y0188580D02*
X0253200Y0188580D01*
X0253200Y0186981D02*
X0264000Y0186981D01*
X0264000Y0185383D02*
X0253200Y0185383D01*
X0253200Y0183784D02*
X0264000Y0183784D01*
X0264000Y0182186D02*
X0253200Y0182186D01*
X0253200Y0180587D02*
X0264000Y0180587D01*
X0264000Y0178989D02*
X0253200Y0178989D01*
X0252568Y0177390D02*
X0264000Y0177390D01*
X0264000Y0175792D02*
X0262673Y0175792D01*
X0259327Y0175792D02*
X0250970Y0175792D01*
X0248000Y0175933D02*
X0231000Y0175933D01*
X0232197Y0178989D02*
X0247944Y0178989D01*
X0248800Y0180587D02*
X0212457Y0180587D01*
X0213200Y0178989D02*
X0229803Y0178989D01*
X0228909Y0182186D02*
X0226028Y0182186D01*
X0222331Y0185193D02*
X0232803Y0185193D01*
X0237091Y0182186D02*
X0238909Y0182186D01*
X0247091Y0182186D02*
X0248800Y0182186D01*
X0248800Y0183784D02*
X0247156Y0183784D01*
X0233000Y0192870D02*
X0232803Y0192673D01*
X0222331Y0192673D01*
X0222331Y0198264D01*
X0224000Y0199933D01*
X0220131Y0198171D02*
X0143077Y0198171D01*
X0146096Y0196572D02*
X0188301Y0196572D01*
X0188104Y0194974D02*
X0169766Y0194974D01*
X0172718Y0193375D02*
X0188104Y0193375D01*
X0188104Y0191777D02*
X0174314Y0191777D01*
X0174976Y0190178D02*
X0188417Y0190178D01*
X0189863Y0188580D02*
X0175522Y0188580D01*
X0175522Y0186981D02*
X0188498Y0186981D01*
X0188498Y0185383D02*
X0175391Y0185383D01*
X0174729Y0183784D02*
X0188498Y0183784D01*
X0188498Y0182186D02*
X0173720Y0182186D01*
X0172122Y0180587D02*
X0188508Y0180587D01*
X0192063Y0183933D02*
X0192063Y0193433D01*
X0191866Y0193433D01*
X0195628Y0194974D02*
X0195972Y0194974D01*
X0196142Y0196572D02*
X0195431Y0196572D01*
X0206000Y0183933D02*
X0211000Y0188933D01*
X0213669Y0188933D01*
X0217825Y0186981D02*
X0218175Y0186981D01*
X0218175Y0185383D02*
X0210561Y0185383D01*
X0209260Y0183784D02*
X0218175Y0183784D01*
X0218634Y0182186D02*
X0210859Y0182186D01*
X0211000Y0178933D02*
X0206000Y0183933D01*
X0199937Y0183933D01*
X0203492Y0180587D02*
X0206235Y0180587D01*
X0207833Y0178989D02*
X0203348Y0178989D01*
X0203902Y0177390D02*
X0208800Y0177390D01*
X0208218Y0175792D02*
X0207719Y0174586D01*
X0208003Y0172595D02*
X0203902Y0172595D01*
X0203467Y0170996D02*
X0209516Y0170996D01*
X0212483Y0170996D02*
X0227225Y0170996D01*
X0231000Y0167870D02*
X0219937Y0167870D01*
X0216755Y0167799D02*
X0193200Y0167799D01*
X0193373Y0166201D02*
X0215156Y0166201D01*
X0213558Y0164602D02*
X0194274Y0164602D01*
X0194166Y0163004D02*
X0211959Y0163004D01*
X0210361Y0161405D02*
X0193112Y0161405D01*
X0191000Y0163933D02*
X0191000Y0173870D01*
X0192063Y0174933D01*
X0199654Y0174193D02*
X0200220Y0174193D01*
X0200220Y0172595D02*
X0199654Y0172595D01*
X0199654Y0170996D02*
X0200220Y0170996D01*
X0200220Y0175792D02*
X0199654Y0175792D01*
X0199654Y0177390D02*
X0200220Y0177390D01*
X0200220Y0178989D02*
X0199654Y0178989D01*
X0211000Y0178933D02*
X0211000Y0173933D01*
X0213997Y0172595D02*
X0257550Y0172595D01*
X0255952Y0170996D02*
X0254775Y0170996D01*
X0258977Y0167799D02*
X0264000Y0167799D01*
X0264000Y0166201D02*
X0257379Y0166201D01*
X0255353Y0164602D02*
X0264000Y0164602D01*
X0264000Y0163004D02*
X0255753Y0163004D01*
X0255753Y0161405D02*
X0264000Y0161405D01*
X0264000Y0159807D02*
X0255753Y0159807D01*
X0255753Y0160107D02*
X0251480Y0160107D01*
X0251480Y0156228D01*
X0254190Y0156228D01*
X0254648Y0156350D01*
X0255058Y0156587D01*
X0255393Y0156922D01*
X0255630Y0157333D01*
X0255753Y0157791D01*
X0255753Y0160107D01*
X0255753Y0158208D02*
X0264000Y0158208D01*
X0264000Y0156610D02*
X0255080Y0156610D01*
X0251480Y0156610D02*
X0250520Y0156610D01*
X0250520Y0158208D02*
X0251480Y0158208D01*
X0251480Y0159807D02*
X0250520Y0159807D01*
X0246247Y0158208D02*
X0245156Y0158208D01*
X0244515Y0156610D02*
X0246920Y0156610D01*
X0237485Y0156610D02*
X0234515Y0156610D01*
X0229126Y0155011D02*
X0264000Y0155011D01*
X0264000Y0153412D02*
X0227528Y0153412D01*
X0225929Y0151814D02*
X0264000Y0151814D01*
X0264000Y0150215D02*
X0224331Y0150215D01*
X0223200Y0148617D02*
X0239552Y0148617D01*
X0239256Y0148494D02*
X0238653Y0148092D01*
X0238141Y0147579D01*
X0237738Y0146976D01*
X0237460Y0146306D01*
X0237319Y0145595D01*
X0237319Y0145232D01*
X0237319Y0144870D01*
X0237460Y0144159D01*
X0237738Y0143489D01*
X0238141Y0142886D01*
X0238653Y0142373D01*
X0239256Y0141970D01*
X0239926Y0141693D01*
X0240637Y0141551D01*
X0241000Y0141551D01*
X0241363Y0141551D01*
X0242074Y0141693D01*
X0242744Y0141970D01*
X0243347Y0142373D01*
X0243859Y0142886D01*
X0244262Y0143489D01*
X0244540Y0144159D01*
X0244681Y0144870D01*
X0244681Y0145232D01*
X0241000Y0145232D01*
X0241000Y0141551D01*
X0241000Y0145232D01*
X0241000Y0145232D01*
X0241000Y0145232D01*
X0237319Y0145232D01*
X0241000Y0145232D01*
X0241000Y0145232D01*
X0244681Y0145232D01*
X0244681Y0145595D01*
X0244540Y0146306D01*
X0244262Y0146976D01*
X0243859Y0147579D01*
X0243347Y0148092D01*
X0242744Y0148494D01*
X0242074Y0148772D01*
X0241363Y0148913D01*
X0241000Y0148913D01*
X0241000Y0145232D01*
X0241000Y0148913D01*
X0240637Y0148913D01*
X0239926Y0148772D01*
X0239256Y0148494D01*
X0241000Y0148617D02*
X0241000Y0148617D01*
X0242448Y0148617D02*
X0264000Y0148617D01*
X0264000Y0147018D02*
X0244234Y0147018D01*
X0244681Y0145420D02*
X0264000Y0145420D01*
X0264000Y0143821D02*
X0244400Y0143821D01*
X0243122Y0142223D02*
X0264000Y0142223D01*
X0264000Y0134230D02*
X0166502Y0134230D01*
X0166502Y0139026D02*
X0180746Y0139026D01*
X0179827Y0140624D02*
X0166147Y0140624D01*
X0151694Y0150215D02*
X0148923Y0150215D01*
X0143800Y0150215D02*
X0142200Y0150215D01*
X0142200Y0148617D02*
X0143302Y0148617D01*
X0142966Y0147018D02*
X0142200Y0147018D01*
X0142200Y0145420D02*
X0142966Y0145420D01*
X0133000Y0146461D02*
X0133000Y0151933D01*
X0132000Y0152933D01*
X0131528Y0147933D02*
X0126000Y0147933D01*
X0124528Y0146461D01*
X0124528Y0144752D01*
X0122346Y0146933D01*
X0126728Y0145420D02*
X0129966Y0145420D01*
X0130785Y0143821D02*
X0126708Y0143821D01*
X0126147Y0140624D02*
X0137800Y0140624D01*
X0137800Y0139026D02*
X0136034Y0139026D01*
X0133000Y0137406D02*
X0123409Y0137406D01*
X0122937Y0136933D01*
X0115654Y0137524D02*
X0115063Y0136933D01*
X0115654Y0137524D02*
X0115654Y0146933D01*
X0095654Y0173933D01*
X0076000Y0173933D01*
X0073000Y0170933D01*
X0073000Y0167870D01*
X0077156Y0167799D02*
X0080247Y0167799D01*
X0080247Y0167759D02*
X0084520Y0167759D01*
X0084520Y0166800D01*
X0080247Y0166800D01*
X0080247Y0164483D01*
X0080370Y0164026D01*
X0080607Y0163615D01*
X0080647Y0163575D01*
X0080647Y0157991D01*
X0071170Y0148513D01*
X0070347Y0148513D01*
X0069141Y0148014D01*
X0068218Y0147091D01*
X0067719Y0145885D01*
X0067719Y0144580D01*
X0068218Y0143374D01*
X0069141Y0142451D01*
X0070347Y0141951D01*
X0071653Y0141951D01*
X0072859Y0142451D01*
X0073782Y0143374D01*
X0074281Y0144580D01*
X0074281Y0145402D01*
X0085507Y0156628D01*
X0088533Y0156628D01*
X0089353Y0157448D01*
X0089353Y0163575D01*
X0089393Y0163615D01*
X0089630Y0164026D01*
X0089753Y0164483D01*
X0089753Y0166800D01*
X0085480Y0166800D01*
X0085480Y0167759D01*
X0089753Y0167759D01*
X0089753Y0170076D01*
X0089630Y0170533D01*
X0089393Y0170944D01*
X0089058Y0171279D01*
X0088648Y0171516D01*
X0088190Y0171639D01*
X0085480Y0171639D01*
X0085480Y0167759D01*
X0084520Y0167759D01*
X0084520Y0171639D01*
X0081810Y0171639D01*
X0081352Y0171516D01*
X0080942Y0171279D01*
X0080607Y0170944D01*
X0080370Y0170533D01*
X0080247Y0170076D01*
X0080247Y0167759D01*
X0080247Y0166201D02*
X0077156Y0166201D01*
X0076633Y0164602D02*
X0080247Y0164602D01*
X0080647Y0163004D02*
X0076894Y0163004D01*
X0077156Y0162741D02*
X0076336Y0163561D01*
X0069664Y0163561D01*
X0068844Y0162741D01*
X0068844Y0162196D01*
X0065156Y0162196D01*
X0065156Y0162741D01*
X0064336Y0163561D01*
X0057664Y0163561D01*
X0056844Y0162741D01*
X0056844Y0157251D01*
X0057664Y0156431D01*
X0058800Y0156431D01*
X0058800Y0147672D01*
X0058218Y0147091D01*
X0057719Y0145885D01*
X0057719Y0144580D01*
X0058218Y0143374D01*
X0059141Y0142451D01*
X0060347Y0141951D01*
X0061653Y0141951D01*
X0062859Y0142451D01*
X0063782Y0143374D01*
X0064281Y0144580D01*
X0064281Y0145885D01*
X0063782Y0147091D01*
X0063200Y0147672D01*
X0063200Y0156431D01*
X0064336Y0156431D01*
X0065156Y0157251D01*
X0065156Y0157796D01*
X0068844Y0157796D01*
X0068844Y0157251D01*
X0069664Y0156431D01*
X0076336Y0156431D01*
X0077156Y0157251D01*
X0077156Y0162741D01*
X0077156Y0161405D02*
X0080647Y0161405D01*
X0080647Y0159807D02*
X0077156Y0159807D01*
X0077156Y0158208D02*
X0080647Y0158208D01*
X0079266Y0156610D02*
X0076515Y0156610D01*
X0077667Y0155011D02*
X0063200Y0155011D01*
X0063200Y0153412D02*
X0076069Y0153412D01*
X0074470Y0151814D02*
X0063200Y0151814D01*
X0063200Y0150215D02*
X0072872Y0150215D01*
X0071273Y0148617D02*
X0063200Y0148617D01*
X0063812Y0147018D02*
X0068188Y0147018D01*
X0067719Y0145420D02*
X0064281Y0145420D01*
X0063967Y0143821D02*
X0068033Y0143821D01*
X0069691Y0142223D02*
X0062309Y0142223D01*
X0059691Y0142223D02*
X0047401Y0142223D01*
X0048200Y0143821D02*
X0058033Y0143821D01*
X0057719Y0145420D02*
X0048200Y0145420D01*
X0048200Y0147018D02*
X0058188Y0147018D01*
X0058800Y0148617D02*
X0048200Y0148617D01*
X0048200Y0150215D02*
X0058800Y0150215D01*
X0058800Y0151814D02*
X0048200Y0151814D01*
X0048200Y0153412D02*
X0058800Y0153412D01*
X0058800Y0155011D02*
X0048200Y0155011D01*
X0048200Y0156610D02*
X0057485Y0156610D01*
X0056844Y0158208D02*
X0048200Y0158208D01*
X0048200Y0159807D02*
X0056844Y0159807D01*
X0056844Y0161405D02*
X0048200Y0161405D01*
X0048200Y0163004D02*
X0057106Y0163004D01*
X0057664Y0164305D02*
X0064336Y0164305D01*
X0065156Y0165125D01*
X0065156Y0170615D01*
X0064336Y0171435D01*
X0060609Y0171435D01*
X0057281Y0174763D01*
X0057281Y0175586D01*
X0056782Y0176792D01*
X0055859Y0177715D01*
X0054653Y0178214D01*
X0053347Y0178214D01*
X0052141Y0177715D01*
X0051218Y0176792D01*
X0050719Y0175586D01*
X0050719Y0174280D01*
X0051218Y0173074D01*
X0052141Y0172151D01*
X0053347Y0171652D01*
X0054170Y0171652D01*
X0056844Y0168978D01*
X0056844Y0165125D01*
X0057664Y0164305D01*
X0057367Y0164602D02*
X0048200Y0164602D01*
X0048200Y0166201D02*
X0056844Y0166201D01*
X0056844Y0167799D02*
X0048200Y0167799D01*
X0048200Y0169398D02*
X0056424Y0169398D01*
X0054826Y0170996D02*
X0048200Y0170996D01*
X0048200Y0172595D02*
X0051698Y0172595D01*
X0050755Y0174193D02*
X0048200Y0174193D01*
X0048200Y0175792D02*
X0050804Y0175792D01*
X0051817Y0177390D02*
X0048200Y0177390D01*
X0048056Y0178989D02*
X0101833Y0178989D01*
X0100235Y0180587D02*
X0046457Y0180587D01*
X0046533Y0182186D02*
X0054175Y0182186D01*
X0054175Y0183784D02*
X0048132Y0183784D01*
X0044169Y0182933D02*
X0049669Y0188433D01*
X0045106Y0186981D02*
X0040290Y0186981D01*
X0041002Y0185383D02*
X0043508Y0185383D01*
X0044169Y0182933D02*
X0041000Y0182933D01*
X0046000Y0177933D01*
X0046000Y0143933D01*
X0031500Y0129433D01*
X0021000Y0129433D01*
X0011000Y0135829D02*
X0034785Y0135829D01*
X0036383Y0137427D02*
X0011000Y0137427D01*
X0011000Y0139026D02*
X0018050Y0139026D01*
X0017531Y0139241D02*
X0019782Y0138309D01*
X0022218Y0138309D01*
X0024469Y0139241D01*
X0026192Y0140964D01*
X0027124Y0143215D01*
X0027124Y0145651D01*
X0026192Y0147902D01*
X0024469Y0149625D01*
X0023200Y0150151D01*
X0023200Y0162459D01*
X0028518Y0167777D01*
X0032308Y0167777D01*
X0033128Y0168597D01*
X0033128Y0175269D01*
X0032308Y0176089D01*
X0026818Y0176089D01*
X0025998Y0175269D01*
X0025998Y0171479D01*
X0018800Y0164281D01*
X0018800Y0150151D01*
X0017531Y0149625D01*
X0015808Y0147902D01*
X0014876Y0145651D01*
X0014876Y0143215D01*
X0015808Y0140964D01*
X0017531Y0139241D01*
X0016147Y0140624D02*
X0011000Y0140624D01*
X0011000Y0142223D02*
X0015286Y0142223D01*
X0014876Y0143821D02*
X0011000Y0143821D01*
X0011000Y0145420D02*
X0014876Y0145420D01*
X0015442Y0147018D02*
X0011000Y0147018D01*
X0011000Y0148617D02*
X0016523Y0148617D01*
X0018800Y0150215D02*
X0011000Y0150215D01*
X0011000Y0151814D02*
X0018800Y0151814D01*
X0018800Y0153412D02*
X0011000Y0153412D01*
X0011000Y0155011D02*
X0018800Y0155011D01*
X0018800Y0156610D02*
X0011000Y0156610D01*
X0011000Y0158208D02*
X0018800Y0158208D01*
X0018800Y0159807D02*
X0011000Y0159807D01*
X0011000Y0161405D02*
X0018800Y0161405D01*
X0018800Y0163004D02*
X0011000Y0163004D01*
X0011000Y0164602D02*
X0019121Y0164602D01*
X0021000Y0163370D02*
X0029563Y0171933D01*
X0033128Y0172595D02*
X0033472Y0172595D01*
X0033472Y0172216D02*
X0037154Y0172216D01*
X0037154Y0171650D01*
X0037720Y0171650D01*
X0037720Y0172216D01*
X0041402Y0172216D01*
X0041402Y0174926D01*
X0041280Y0175384D01*
X0041043Y0175794D01*
X0040708Y0176129D01*
X0040297Y0176366D01*
X0039839Y0176489D01*
X0037720Y0176489D01*
X0037720Y0172216D01*
X0037154Y0172216D01*
X0037154Y0176489D01*
X0035035Y0176489D01*
X0034577Y0176366D01*
X0034166Y0176129D01*
X0033831Y0175794D01*
X0033594Y0175384D01*
X0033472Y0174926D01*
X0033472Y0172216D01*
X0033472Y0171650D02*
X0033472Y0168940D01*
X0033594Y0168482D01*
X0033831Y0168072D01*
X0034166Y0167737D01*
X0034577Y0167500D01*
X0035035Y0167377D01*
X0037154Y0167377D01*
X0037154Y0171650D01*
X0033472Y0171650D01*
X0033472Y0170996D02*
X0033128Y0170996D01*
X0033128Y0169398D02*
X0033472Y0169398D01*
X0034104Y0167799D02*
X0032330Y0167799D01*
X0037154Y0167799D02*
X0037720Y0167799D01*
X0037720Y0167377D02*
X0039839Y0167377D01*
X0040297Y0167500D01*
X0040708Y0167737D01*
X0041043Y0168072D01*
X0041280Y0168482D01*
X0041402Y0168940D01*
X0041402Y0171650D01*
X0037720Y0171650D01*
X0037720Y0167377D01*
X0037720Y0169398D02*
X0037154Y0169398D01*
X0037154Y0170996D02*
X0037720Y0170996D01*
X0037720Y0172595D02*
X0037154Y0172595D01*
X0037154Y0174193D02*
X0037720Y0174193D01*
X0037720Y0175792D02*
X0037154Y0175792D01*
X0033830Y0175792D02*
X0032606Y0175792D01*
X0033128Y0174193D02*
X0033472Y0174193D01*
X0026520Y0175792D02*
X0011000Y0175792D01*
X0011000Y0177390D02*
X0043432Y0177390D01*
X0043800Y0175792D02*
X0041044Y0175792D01*
X0041402Y0174193D02*
X0043800Y0174193D01*
X0043800Y0172595D02*
X0041402Y0172595D01*
X0041402Y0170996D02*
X0043800Y0170996D01*
X0043800Y0169398D02*
X0041402Y0169398D01*
X0040770Y0167799D02*
X0043800Y0167799D01*
X0043800Y0166201D02*
X0026942Y0166201D01*
X0025343Y0164602D02*
X0043800Y0164602D01*
X0043800Y0163004D02*
X0023745Y0163004D01*
X0023200Y0161405D02*
X0043800Y0161405D01*
X0043800Y0159807D02*
X0023200Y0159807D01*
X0023200Y0158208D02*
X0043800Y0158208D01*
X0043800Y0156610D02*
X0023200Y0156610D01*
X0023200Y0155011D02*
X0043800Y0155011D01*
X0043800Y0153412D02*
X0023200Y0153412D01*
X0023200Y0151814D02*
X0043800Y0151814D01*
X0043800Y0150215D02*
X0023200Y0150215D01*
X0025477Y0148617D02*
X0043800Y0148617D01*
X0043800Y0147018D02*
X0026558Y0147018D01*
X0027124Y0145420D02*
X0043800Y0145420D01*
X0042777Y0143821D02*
X0027124Y0143821D01*
X0026714Y0142223D02*
X0041179Y0142223D01*
X0039580Y0140624D02*
X0025853Y0140624D01*
X0023950Y0139026D02*
X0037982Y0139026D01*
X0042606Y0137427D02*
X0111498Y0137427D01*
X0111498Y0135829D02*
X0041007Y0135829D01*
X0044204Y0139026D02*
X0111498Y0139026D01*
X0111853Y0140624D02*
X0045803Y0140624D01*
X0061000Y0145232D02*
X0061000Y0159996D01*
X0073000Y0159996D01*
X0069485Y0156610D02*
X0064515Y0156610D01*
X0064894Y0163004D02*
X0069106Y0163004D01*
X0069367Y0164602D02*
X0064633Y0164602D01*
X0065156Y0166201D02*
X0068844Y0166201D01*
X0068844Y0167799D02*
X0065156Y0167799D01*
X0065156Y0169398D02*
X0068844Y0169398D01*
X0069225Y0170996D02*
X0064775Y0170996D01*
X0061000Y0167933D02*
X0054000Y0174933D01*
X0056183Y0177390D02*
X0103432Y0177390D01*
X0105030Y0175792D02*
X0097015Y0175792D01*
X0098199Y0174193D02*
X0106629Y0174193D01*
X0099383Y0172595D02*
X0119975Y0172595D01*
X0119100Y0171720D02*
X0119100Y0171720D01*
X0118376Y0170996D02*
X0100567Y0170996D01*
X0101751Y0169398D02*
X0116778Y0169398D01*
X0115179Y0167799D02*
X0102935Y0167799D01*
X0104119Y0166201D02*
X0113754Y0166201D01*
X0113754Y0164602D02*
X0105303Y0164602D01*
X0106487Y0163004D02*
X0113754Y0163004D01*
X0113754Y0161405D02*
X0107671Y0161405D01*
X0108855Y0159807D02*
X0113754Y0159807D01*
X0113754Y0158208D02*
X0110040Y0158208D01*
X0111224Y0156610D02*
X0113754Y0156610D01*
X0113754Y0155011D02*
X0112408Y0155011D01*
X0113592Y0153412D02*
X0113754Y0153412D01*
X0110484Y0150215D02*
X0079094Y0150215D01*
X0079552Y0148617D02*
X0077496Y0148617D01*
X0078141Y0147579D02*
X0077738Y0146976D01*
X0077460Y0146306D01*
X0077319Y0145595D01*
X0077319Y0145232D01*
X0077319Y0144870D01*
X0077460Y0144159D01*
X0077738Y0143489D01*
X0078141Y0142886D01*
X0078653Y0142373D01*
X0079256Y0141970D01*
X0079926Y0141693D01*
X0080637Y0141551D01*
X0081000Y0141551D01*
X0081363Y0141551D01*
X0082074Y0141693D01*
X0082744Y0141970D01*
X0083347Y0142373D01*
X0083859Y0142886D01*
X0084262Y0143489D01*
X0084540Y0144159D01*
X0084681Y0144870D01*
X0084681Y0145232D01*
X0081000Y0145232D01*
X0081000Y0141551D01*
X0081000Y0145232D01*
X0081000Y0145232D01*
X0081000Y0145232D01*
X0077319Y0145232D01*
X0081000Y0145232D01*
X0081000Y0145232D01*
X0084681Y0145232D01*
X0084681Y0145595D01*
X0084540Y0146306D01*
X0084262Y0146976D01*
X0083859Y0147579D01*
X0083347Y0148092D01*
X0082744Y0148494D01*
X0082074Y0148772D01*
X0081363Y0148913D01*
X0081000Y0148913D01*
X0081000Y0145232D01*
X0081000Y0148913D01*
X0080637Y0148913D01*
X0079926Y0148772D01*
X0079256Y0148494D01*
X0078653Y0148092D01*
X0078141Y0147579D01*
X0077766Y0147018D02*
X0075897Y0147018D01*
X0077319Y0145420D02*
X0074299Y0145420D01*
X0073967Y0143821D02*
X0077600Y0143821D01*
X0078878Y0142223D02*
X0072309Y0142223D01*
X0071000Y0145232D02*
X0085000Y0159232D01*
X0085000Y0160587D01*
X0089353Y0159807D02*
X0103380Y0159807D01*
X0102196Y0161405D02*
X0089353Y0161405D01*
X0089353Y0163004D02*
X0101012Y0163004D01*
X0099828Y0164602D02*
X0089753Y0164602D01*
X0089753Y0166201D02*
X0098643Y0166201D01*
X0097459Y0167799D02*
X0089753Y0167799D01*
X0089753Y0169398D02*
X0096275Y0169398D01*
X0095091Y0170996D02*
X0089341Y0170996D01*
X0085480Y0170996D02*
X0084520Y0170996D01*
X0084520Y0169398D02*
X0085480Y0169398D01*
X0085480Y0167799D02*
X0084520Y0167799D01*
X0080247Y0169398D02*
X0077156Y0169398D01*
X0076775Y0170996D02*
X0080659Y0170996D01*
X0074747Y0175792D02*
X0057196Y0175792D01*
X0057851Y0174193D02*
X0073149Y0174193D01*
X0071550Y0172595D02*
X0059450Y0172595D01*
X0061000Y0167933D02*
X0061000Y0167870D01*
X0041833Y0178989D02*
X0040394Y0178989D01*
X0034480Y0178989D02*
X0032520Y0178989D01*
X0033128Y0180587D02*
X0033872Y0180587D01*
X0033872Y0182186D02*
X0033128Y0182186D01*
X0033128Y0183784D02*
X0033872Y0183784D01*
X0033872Y0185383D02*
X0033128Y0185383D01*
X0032416Y0186981D02*
X0034584Y0186981D01*
X0037253Y0190178D02*
X0038015Y0190178D01*
X0038015Y0191777D02*
X0037253Y0191777D01*
X0037253Y0194974D02*
X0038015Y0194974D01*
X0038015Y0196572D02*
X0037253Y0196572D01*
X0033642Y0196572D02*
X0032931Y0196572D01*
X0033128Y0194974D02*
X0033472Y0194974D01*
X0029366Y0193433D02*
X0029366Y0183130D01*
X0029563Y0182933D01*
X0025998Y0182186D02*
X0011000Y0182186D01*
X0011000Y0183784D02*
X0025998Y0183784D01*
X0025998Y0185383D02*
X0011000Y0185383D01*
X0011000Y0186981D02*
X0026710Y0186981D01*
X0027166Y0188580D02*
X0011000Y0188580D01*
X0011000Y0190178D02*
X0025917Y0190178D01*
X0025604Y0191777D02*
X0011000Y0191777D01*
X0011000Y0193375D02*
X0025604Y0193375D01*
X0025604Y0194974D02*
X0011000Y0194974D01*
X0011000Y0196572D02*
X0025801Y0196572D01*
X0018140Y0201368D02*
X0066043Y0201368D01*
X0065719Y0199769D02*
X0017023Y0199769D01*
X0015332Y0198171D02*
X0066179Y0198171D01*
X0066800Y0196572D02*
X0041626Y0196572D01*
X0062234Y0194974D02*
X0064844Y0194974D01*
X0071200Y0196572D02*
X0135904Y0196572D01*
X0134306Y0194974D02*
X0116617Y0194974D01*
X0119569Y0193375D02*
X0133618Y0193375D01*
X0133053Y0191777D02*
X0121164Y0191777D01*
X0112234Y0194974D02*
X0092071Y0194974D01*
X0093669Y0193375D02*
X0109282Y0193375D01*
X0107686Y0191777D02*
X0095268Y0191777D01*
X0096866Y0190178D02*
X0107024Y0190178D01*
X0106478Y0188580D02*
X0098465Y0188580D01*
X0100063Y0186981D02*
X0106478Y0186981D01*
X0106609Y0185383D02*
X0101662Y0185383D01*
X0103260Y0183784D02*
X0107271Y0183784D01*
X0108280Y0182186D02*
X0104859Y0182186D01*
X0106457Y0180587D02*
X0109878Y0180587D01*
X0108056Y0178989D02*
X0124979Y0178989D01*
X0130250Y0178989D02*
X0133246Y0178989D01*
X0140116Y0177390D02*
X0141884Y0177390D01*
X0141765Y0175792D02*
X0140235Y0175792D01*
X0140235Y0174193D02*
X0141765Y0174193D01*
X0142836Y0172595D02*
X0139164Y0172595D01*
X0138266Y0169398D02*
X0142159Y0169398D01*
X0140561Y0167799D02*
X0139864Y0167799D01*
X0139415Y0163004D02*
X0141010Y0163004D01*
X0142609Y0161405D02*
X0137817Y0161405D01*
X0138238Y0159807D02*
X0165800Y0159807D01*
X0165800Y0161405D02*
X0156886Y0161405D01*
X0156354Y0160873D02*
X0159139Y0163657D01*
X0159139Y0165442D01*
X0154570Y0165442D01*
X0154570Y0165810D01*
X0159139Y0165810D01*
X0159139Y0167595D01*
X0156354Y0170379D01*
X0154570Y0170379D01*
X0154570Y0165810D01*
X0154202Y0165810D01*
X0154202Y0170379D01*
X0152417Y0170379D01*
X0149633Y0167595D01*
X0149633Y0165810D01*
X0154201Y0165810D01*
X0154201Y0165442D01*
X0149633Y0165442D01*
X0149633Y0163657D01*
X0152417Y0160873D01*
X0154202Y0160873D01*
X0154202Y0165442D01*
X0154570Y0165442D01*
X0154570Y0160873D01*
X0156354Y0160873D01*
X0154570Y0161405D02*
X0154202Y0161405D01*
X0154202Y0163004D02*
X0154570Y0163004D01*
X0154570Y0164602D02*
X0154202Y0164602D01*
X0154202Y0166201D02*
X0154570Y0166201D01*
X0154570Y0167799D02*
X0154202Y0167799D01*
X0154202Y0169398D02*
X0154570Y0169398D01*
X0157336Y0169398D02*
X0165800Y0169398D01*
X0165800Y0167799D02*
X0158934Y0167799D01*
X0159139Y0166201D02*
X0165800Y0166201D01*
X0165800Y0164602D02*
X0159139Y0164602D01*
X0158485Y0163004D02*
X0165800Y0163004D01*
X0151885Y0161405D02*
X0146478Y0161405D01*
X0148077Y0163004D02*
X0150287Y0163004D01*
X0149633Y0164602D02*
X0148896Y0164602D01*
X0148896Y0166201D02*
X0149633Y0166201D01*
X0149838Y0167799D02*
X0148526Y0167799D01*
X0146927Y0169398D02*
X0151436Y0169398D01*
X0151104Y0172595D02*
X0149400Y0172595D01*
X0146118Y0175469D02*
X0146118Y0179051D01*
X0151000Y0183933D01*
X0158000Y0183933D01*
X0158235Y0180587D02*
X0150765Y0180587D01*
X0151750Y0178989D02*
X0149167Y0178989D01*
X0157021Y0178989D02*
X0159833Y0178989D01*
X0159628Y0188580D02*
X0148836Y0188580D01*
X0148947Y0190178D02*
X0160173Y0190178D01*
X0160836Y0191777D02*
X0148947Y0191777D01*
X0148382Y0193375D02*
X0162431Y0193375D01*
X0165383Y0194974D02*
X0147694Y0194974D01*
X0138923Y0198171D02*
X0071821Y0198171D01*
X0073156Y0194974D02*
X0075344Y0194974D01*
X0067749Y0202966D02*
X0018802Y0202966D01*
X0037437Y0182933D02*
X0041000Y0182933D01*
X0026606Y0178989D02*
X0011000Y0178989D01*
X0011000Y0180587D02*
X0025998Y0180587D01*
X0025998Y0174193D02*
X0011000Y0174193D01*
X0011000Y0172595D02*
X0025998Y0172595D01*
X0025515Y0170996D02*
X0011000Y0170996D01*
X0011000Y0169398D02*
X0023916Y0169398D01*
X0022318Y0167799D02*
X0011000Y0167799D01*
X0011000Y0166201D02*
X0020719Y0166201D01*
X0021000Y0163370D02*
X0021000Y0144433D01*
X0081000Y0143821D02*
X0081000Y0143821D01*
X0081000Y0145232D02*
X0081000Y0145232D01*
X0081000Y0145420D02*
X0081000Y0145420D01*
X0081000Y0147018D02*
X0081000Y0147018D01*
X0081000Y0148617D02*
X0081000Y0148617D01*
X0082448Y0148617D02*
X0111668Y0148617D01*
X0111694Y0147018D02*
X0084234Y0147018D01*
X0084681Y0145420D02*
X0111694Y0145420D01*
X0111694Y0143821D02*
X0084400Y0143821D01*
X0083122Y0142223D02*
X0113454Y0142223D01*
X0111498Y0134230D02*
X0105000Y0134230D01*
X0105000Y0132632D02*
X0137800Y0132632D01*
X0137800Y0131033D02*
X0105000Y0131033D01*
X0105000Y0129435D02*
X0139387Y0129435D01*
X0140985Y0127836D02*
X0105000Y0127836D01*
X0105000Y0126238D02*
X0142500Y0126238D01*
X0142500Y0124639D02*
X0105000Y0124639D01*
X0105000Y0123041D02*
X0142500Y0123041D01*
X0150300Y0116733D02*
X0153200Y0116733D01*
X0140480Y0108654D02*
X0139520Y0108654D01*
X0139520Y0109639D02*
X0136810Y0109639D01*
X0136352Y0109516D01*
X0135942Y0109279D01*
X0135607Y0108944D01*
X0135370Y0108533D01*
X0135247Y0108076D01*
X0135247Y0105759D01*
X0139520Y0105759D01*
X0139520Y0109639D01*
X0139520Y0107056D02*
X0140480Y0107056D01*
X0135247Y0107056D02*
X0105000Y0107056D01*
X0105000Y0108654D02*
X0135440Y0108654D01*
X0081000Y0142223D02*
X0081000Y0142223D01*
X0080693Y0151814D02*
X0109300Y0151814D01*
X0108116Y0153412D02*
X0082291Y0153412D01*
X0083890Y0155011D02*
X0106932Y0155011D01*
X0105748Y0156610D02*
X0085488Y0156610D01*
X0089353Y0158208D02*
X0104564Y0158208D01*
X0128000Y0160933D02*
X0131000Y0157933D01*
X0137000Y0157933D01*
X0139836Y0158208D02*
X0165800Y0158208D01*
X0165800Y0156610D02*
X0141435Y0156610D01*
X0142200Y0155011D02*
X0144438Y0155011D01*
X0143719Y0153412D02*
X0142200Y0153412D01*
X0142200Y0151814D02*
X0143800Y0151814D01*
X0133000Y0146461D02*
X0131528Y0147933D01*
X0128000Y0160933D02*
X0128000Y0165240D01*
X0127614Y0165626D01*
X0131147Y0163004D02*
X0132349Y0163004D01*
X0133947Y0161405D02*
X0130639Y0161405D01*
X0075409Y0182186D02*
X0073091Y0182186D01*
X0064909Y0182186D02*
X0062487Y0182186D01*
X0208591Y0153412D02*
X0221305Y0153412D01*
X0222904Y0155011D02*
X0210189Y0155011D01*
X0211788Y0156610D02*
X0224502Y0156610D01*
X0226101Y0158208D02*
X0213386Y0158208D01*
X0214985Y0159807D02*
X0226844Y0159807D01*
X0226844Y0161405D02*
X0216583Y0161405D01*
X0218182Y0163004D02*
X0227106Y0163004D01*
X0227367Y0164602D02*
X0219780Y0164602D01*
X0234633Y0164602D02*
X0237367Y0164602D01*
X0237106Y0163004D02*
X0234894Y0163004D01*
X0235156Y0166201D02*
X0236844Y0166201D01*
X0236844Y0167799D02*
X0235156Y0167799D01*
X0235156Y0169398D02*
X0236844Y0169398D01*
X0237225Y0170996D02*
X0234775Y0170996D01*
X0228169Y0174193D02*
X0214281Y0174193D01*
X0213782Y0175792D02*
X0213200Y0176373D01*
X0226487Y0190178D02*
X0228844Y0190178D01*
X0228844Y0194974D02*
X0226487Y0194974D01*
X0237156Y0194974D02*
X0238844Y0194974D01*
X0244775Y0170996D02*
X0247225Y0170996D01*
X0260576Y0169398D02*
X0264000Y0169398D01*
X0264000Y0170996D02*
X0263703Y0170996D01*
X0221000Y0149996D02*
X0221000Y0145232D01*
X0223967Y0143821D02*
X0228033Y0143821D01*
X0228218Y0143374D02*
X0229141Y0142451D01*
X0230347Y0141951D01*
X0231653Y0141951D01*
X0232859Y0142451D01*
X0233782Y0143374D01*
X0234281Y0144580D01*
X0234281Y0145885D01*
X0233782Y0147091D01*
X0232859Y0148014D01*
X0231653Y0148513D01*
X0230347Y0148513D01*
X0229141Y0148014D01*
X0228218Y0147091D01*
X0227719Y0145885D01*
X0227719Y0144580D01*
X0228218Y0143374D01*
X0229691Y0142223D02*
X0222309Y0142223D01*
X0224281Y0145420D02*
X0227719Y0145420D01*
X0228188Y0147018D02*
X0223812Y0147018D01*
X0232309Y0142223D02*
X0238878Y0142223D01*
X0237600Y0143821D02*
X0233967Y0143821D01*
X0234281Y0145420D02*
X0237319Y0145420D01*
X0237766Y0147018D02*
X0233812Y0147018D01*
X0241000Y0147018D02*
X0241000Y0147018D01*
X0241000Y0145420D02*
X0241000Y0145420D01*
X0241000Y0145232D02*
X0241000Y0145232D01*
X0241000Y0143821D02*
X0241000Y0143821D01*
X0241000Y0142223D02*
X0241000Y0142223D01*
D34*
X0256000Y0115311D02*
X0256000Y0105311D01*
X0256000Y0095311D01*
X0256000Y0054791D01*
X0238512Y0056933D02*
X0235512Y0053933D01*
X0216000Y0053933D01*
X0216000Y0033933D01*
X0238512Y0032933D02*
X0251858Y0032933D01*
X0256000Y0037075D01*
X0191000Y0033933D02*
X0191000Y0053933D01*
X0191000Y0078933D01*
X0187000Y0082933D01*
X0185500Y0082933D01*
X0206000Y0095311D02*
X0206000Y0105311D01*
X0206000Y0115311D01*
X0206000Y0105311D02*
X0192878Y0105311D01*
X0185500Y0097933D01*
X0096000Y0095311D02*
X0096000Y0093933D01*
X0086000Y0083933D01*
X0086000Y0058575D01*
X0083858Y0052433D01*
X0102000Y0050933D02*
X0102000Y0040933D01*
X0109000Y0033933D01*
X0116000Y0033933D01*
X0117000Y0033933D01*
X0191000Y0033933D01*
X0102000Y0040933D02*
X0096488Y0035421D01*
X0090000Y0035421D01*
X0066000Y0035421D02*
X0066142Y0040563D01*
X0066142Y0052433D01*
X0049000Y0053933D02*
X0049000Y0033933D01*
X0049000Y0053933D02*
X0049000Y0056433D01*
X0021000Y0084433D01*
X0046000Y0095311D02*
X0046000Y0103933D01*
X0046000Y0105311D01*
X0046000Y0103933D01*
X0025500Y0103933D01*
X0021000Y0099433D01*
X0046000Y0105311D02*
X0046000Y0115311D01*
X0096000Y0115311D02*
X0096000Y0105311D01*
X0096000Y0095311D01*
D35*
X0115654Y0146933D02*
X0115654Y0165587D01*
X0121000Y0170933D01*
X0130575Y0170933D01*
X0135882Y0165626D01*
M02*
