%
M48
M72
T01C0.02362
T02C0.02500
T03C0.03543
T04C0.03937
T05C0.04000
T06C0.05906
T07C0.06299
T08C0.11811
%
T01
X61000Y145232
X71000Y145232
X81000Y145232
X126000Y160933
X137000Y158933
X152000Y158933
X191000Y163933
X211000Y173933
X231000Y175933
X261000Y172933
X224000Y199933
X221000Y145232
X231000Y145232
X241000Y145232
X69000Y199933
X54000Y174933
T02
X139000Y116633
X144700Y116733
X150300Y116733
T03
X46000Y95311
X46000Y105311
X46000Y115311
X96000Y115311
X96000Y105311
X96000Y95311
X206000Y95311
X206000Y105311
X206000Y115311
X256000Y115311
X256000Y105311
X256000Y95311
T04
X122000Y183933
X132000Y183933
X142000Y183933
X152000Y183933
X152000Y173933
X142000Y173933
X132000Y173933
X122000Y173933
X159823Y82012
X159823Y71776
X159823Y61933
T05
X102000Y40933
X102000Y50933
X172000Y50933
T06
X216000Y53933
X191000Y53933
X191000Y33933
X216000Y33933
X49000Y33933
X29000Y33933
X29000Y53933
X49000Y53933
T07
X21000Y84433
X21000Y99433
X21000Y129433
X21000Y144433
X185500Y142933
X185500Y127933
X185500Y97933
X185500Y82933
T08
X10843Y195193
X271000Y193933
X271000Y33933
X11000Y33933
M30
