G75*
%MOIN*%
%OFA0B0*%
%FSLAX25Y25*%
%IPPOS*%
%LPD*%
%AMOC8*
5,1,8,0,0,1.08239X$1,22.5*
%
%ADD10C,0.00000*%
%ADD11C,0.12211*%
%ADD12C,0.06337*%
%ADD13C,0.09849*%
%ADD14C,0.04900*%
%ADD15OC8,0.06337*%
%ADD16C,0.07800*%
%ADD17C,0.10400*%
%ADD18OC8,0.10400*%
%ADD19R,0.10400X0.10400*%
%ADD20C,0.05943*%
%ADD21C,0.04762*%
D10*
X0001000Y0023933D02*
X0001000Y0203933D01*
X0281000Y0203933D01*
X0281000Y0023933D01*
X0001000Y0023933D01*
X0005094Y0033933D02*
X0005096Y0034086D01*
X0005102Y0034240D01*
X0005112Y0034393D01*
X0005126Y0034545D01*
X0005144Y0034698D01*
X0005166Y0034849D01*
X0005191Y0035000D01*
X0005221Y0035151D01*
X0005255Y0035301D01*
X0005292Y0035449D01*
X0005333Y0035597D01*
X0005378Y0035743D01*
X0005427Y0035889D01*
X0005480Y0036033D01*
X0005536Y0036175D01*
X0005596Y0036316D01*
X0005660Y0036456D01*
X0005727Y0036594D01*
X0005798Y0036730D01*
X0005873Y0036864D01*
X0005950Y0036996D01*
X0006032Y0037126D01*
X0006116Y0037254D01*
X0006204Y0037380D01*
X0006295Y0037503D01*
X0006389Y0037624D01*
X0006487Y0037742D01*
X0006587Y0037858D01*
X0006691Y0037971D01*
X0006797Y0038082D01*
X0006906Y0038190D01*
X0007018Y0038295D01*
X0007132Y0038396D01*
X0007250Y0038495D01*
X0007369Y0038591D01*
X0007491Y0038684D01*
X0007616Y0038773D01*
X0007743Y0038860D01*
X0007872Y0038942D01*
X0008003Y0039022D01*
X0008136Y0039098D01*
X0008271Y0039171D01*
X0008408Y0039240D01*
X0008547Y0039305D01*
X0008687Y0039367D01*
X0008829Y0039425D01*
X0008972Y0039480D01*
X0009117Y0039531D01*
X0009263Y0039578D01*
X0009410Y0039621D01*
X0009558Y0039660D01*
X0009707Y0039696D01*
X0009857Y0039727D01*
X0010008Y0039755D01*
X0010159Y0039779D01*
X0010312Y0039799D01*
X0010464Y0039815D01*
X0010617Y0039827D01*
X0010770Y0039835D01*
X0010923Y0039839D01*
X0011077Y0039839D01*
X0011230Y0039835D01*
X0011383Y0039827D01*
X0011536Y0039815D01*
X0011688Y0039799D01*
X0011841Y0039779D01*
X0011992Y0039755D01*
X0012143Y0039727D01*
X0012293Y0039696D01*
X0012442Y0039660D01*
X0012590Y0039621D01*
X0012737Y0039578D01*
X0012883Y0039531D01*
X0013028Y0039480D01*
X0013171Y0039425D01*
X0013313Y0039367D01*
X0013453Y0039305D01*
X0013592Y0039240D01*
X0013729Y0039171D01*
X0013864Y0039098D01*
X0013997Y0039022D01*
X0014128Y0038942D01*
X0014257Y0038860D01*
X0014384Y0038773D01*
X0014509Y0038684D01*
X0014631Y0038591D01*
X0014750Y0038495D01*
X0014868Y0038396D01*
X0014982Y0038295D01*
X0015094Y0038190D01*
X0015203Y0038082D01*
X0015309Y0037971D01*
X0015413Y0037858D01*
X0015513Y0037742D01*
X0015611Y0037624D01*
X0015705Y0037503D01*
X0015796Y0037380D01*
X0015884Y0037254D01*
X0015968Y0037126D01*
X0016050Y0036996D01*
X0016127Y0036864D01*
X0016202Y0036730D01*
X0016273Y0036594D01*
X0016340Y0036456D01*
X0016404Y0036316D01*
X0016464Y0036175D01*
X0016520Y0036033D01*
X0016573Y0035889D01*
X0016622Y0035743D01*
X0016667Y0035597D01*
X0016708Y0035449D01*
X0016745Y0035301D01*
X0016779Y0035151D01*
X0016809Y0035000D01*
X0016834Y0034849D01*
X0016856Y0034698D01*
X0016874Y0034545D01*
X0016888Y0034393D01*
X0016898Y0034240D01*
X0016904Y0034086D01*
X0016906Y0033933D01*
X0016904Y0033780D01*
X0016898Y0033626D01*
X0016888Y0033473D01*
X0016874Y0033321D01*
X0016856Y0033168D01*
X0016834Y0033017D01*
X0016809Y0032866D01*
X0016779Y0032715D01*
X0016745Y0032565D01*
X0016708Y0032417D01*
X0016667Y0032269D01*
X0016622Y0032123D01*
X0016573Y0031977D01*
X0016520Y0031833D01*
X0016464Y0031691D01*
X0016404Y0031550D01*
X0016340Y0031410D01*
X0016273Y0031272D01*
X0016202Y0031136D01*
X0016127Y0031002D01*
X0016050Y0030870D01*
X0015968Y0030740D01*
X0015884Y0030612D01*
X0015796Y0030486D01*
X0015705Y0030363D01*
X0015611Y0030242D01*
X0015513Y0030124D01*
X0015413Y0030008D01*
X0015309Y0029895D01*
X0015203Y0029784D01*
X0015094Y0029676D01*
X0014982Y0029571D01*
X0014868Y0029470D01*
X0014750Y0029371D01*
X0014631Y0029275D01*
X0014509Y0029182D01*
X0014384Y0029093D01*
X0014257Y0029006D01*
X0014128Y0028924D01*
X0013997Y0028844D01*
X0013864Y0028768D01*
X0013729Y0028695D01*
X0013592Y0028626D01*
X0013453Y0028561D01*
X0013313Y0028499D01*
X0013171Y0028441D01*
X0013028Y0028386D01*
X0012883Y0028335D01*
X0012737Y0028288D01*
X0012590Y0028245D01*
X0012442Y0028206D01*
X0012293Y0028170D01*
X0012143Y0028139D01*
X0011992Y0028111D01*
X0011841Y0028087D01*
X0011688Y0028067D01*
X0011536Y0028051D01*
X0011383Y0028039D01*
X0011230Y0028031D01*
X0011077Y0028027D01*
X0010923Y0028027D01*
X0010770Y0028031D01*
X0010617Y0028039D01*
X0010464Y0028051D01*
X0010312Y0028067D01*
X0010159Y0028087D01*
X0010008Y0028111D01*
X0009857Y0028139D01*
X0009707Y0028170D01*
X0009558Y0028206D01*
X0009410Y0028245D01*
X0009263Y0028288D01*
X0009117Y0028335D01*
X0008972Y0028386D01*
X0008829Y0028441D01*
X0008687Y0028499D01*
X0008547Y0028561D01*
X0008408Y0028626D01*
X0008271Y0028695D01*
X0008136Y0028768D01*
X0008003Y0028844D01*
X0007872Y0028924D01*
X0007743Y0029006D01*
X0007616Y0029093D01*
X0007491Y0029182D01*
X0007369Y0029275D01*
X0007250Y0029371D01*
X0007132Y0029470D01*
X0007018Y0029571D01*
X0006906Y0029676D01*
X0006797Y0029784D01*
X0006691Y0029895D01*
X0006587Y0030008D01*
X0006487Y0030124D01*
X0006389Y0030242D01*
X0006295Y0030363D01*
X0006204Y0030486D01*
X0006116Y0030612D01*
X0006032Y0030740D01*
X0005950Y0030870D01*
X0005873Y0031002D01*
X0005798Y0031136D01*
X0005727Y0031272D01*
X0005660Y0031410D01*
X0005596Y0031550D01*
X0005536Y0031691D01*
X0005480Y0031833D01*
X0005427Y0031977D01*
X0005378Y0032123D01*
X0005333Y0032269D01*
X0005292Y0032417D01*
X0005255Y0032565D01*
X0005221Y0032715D01*
X0005191Y0032866D01*
X0005166Y0033017D01*
X0005144Y0033168D01*
X0005126Y0033321D01*
X0005112Y0033473D01*
X0005102Y0033626D01*
X0005096Y0033780D01*
X0005094Y0033933D01*
X0265094Y0033933D02*
X0265096Y0034086D01*
X0265102Y0034240D01*
X0265112Y0034393D01*
X0265126Y0034545D01*
X0265144Y0034698D01*
X0265166Y0034849D01*
X0265191Y0035000D01*
X0265221Y0035151D01*
X0265255Y0035301D01*
X0265292Y0035449D01*
X0265333Y0035597D01*
X0265378Y0035743D01*
X0265427Y0035889D01*
X0265480Y0036033D01*
X0265536Y0036175D01*
X0265596Y0036316D01*
X0265660Y0036456D01*
X0265727Y0036594D01*
X0265798Y0036730D01*
X0265873Y0036864D01*
X0265950Y0036996D01*
X0266032Y0037126D01*
X0266116Y0037254D01*
X0266204Y0037380D01*
X0266295Y0037503D01*
X0266389Y0037624D01*
X0266487Y0037742D01*
X0266587Y0037858D01*
X0266691Y0037971D01*
X0266797Y0038082D01*
X0266906Y0038190D01*
X0267018Y0038295D01*
X0267132Y0038396D01*
X0267250Y0038495D01*
X0267369Y0038591D01*
X0267491Y0038684D01*
X0267616Y0038773D01*
X0267743Y0038860D01*
X0267872Y0038942D01*
X0268003Y0039022D01*
X0268136Y0039098D01*
X0268271Y0039171D01*
X0268408Y0039240D01*
X0268547Y0039305D01*
X0268687Y0039367D01*
X0268829Y0039425D01*
X0268972Y0039480D01*
X0269117Y0039531D01*
X0269263Y0039578D01*
X0269410Y0039621D01*
X0269558Y0039660D01*
X0269707Y0039696D01*
X0269857Y0039727D01*
X0270008Y0039755D01*
X0270159Y0039779D01*
X0270312Y0039799D01*
X0270464Y0039815D01*
X0270617Y0039827D01*
X0270770Y0039835D01*
X0270923Y0039839D01*
X0271077Y0039839D01*
X0271230Y0039835D01*
X0271383Y0039827D01*
X0271536Y0039815D01*
X0271688Y0039799D01*
X0271841Y0039779D01*
X0271992Y0039755D01*
X0272143Y0039727D01*
X0272293Y0039696D01*
X0272442Y0039660D01*
X0272590Y0039621D01*
X0272737Y0039578D01*
X0272883Y0039531D01*
X0273028Y0039480D01*
X0273171Y0039425D01*
X0273313Y0039367D01*
X0273453Y0039305D01*
X0273592Y0039240D01*
X0273729Y0039171D01*
X0273864Y0039098D01*
X0273997Y0039022D01*
X0274128Y0038942D01*
X0274257Y0038860D01*
X0274384Y0038773D01*
X0274509Y0038684D01*
X0274631Y0038591D01*
X0274750Y0038495D01*
X0274868Y0038396D01*
X0274982Y0038295D01*
X0275094Y0038190D01*
X0275203Y0038082D01*
X0275309Y0037971D01*
X0275413Y0037858D01*
X0275513Y0037742D01*
X0275611Y0037624D01*
X0275705Y0037503D01*
X0275796Y0037380D01*
X0275884Y0037254D01*
X0275968Y0037126D01*
X0276050Y0036996D01*
X0276127Y0036864D01*
X0276202Y0036730D01*
X0276273Y0036594D01*
X0276340Y0036456D01*
X0276404Y0036316D01*
X0276464Y0036175D01*
X0276520Y0036033D01*
X0276573Y0035889D01*
X0276622Y0035743D01*
X0276667Y0035597D01*
X0276708Y0035449D01*
X0276745Y0035301D01*
X0276779Y0035151D01*
X0276809Y0035000D01*
X0276834Y0034849D01*
X0276856Y0034698D01*
X0276874Y0034545D01*
X0276888Y0034393D01*
X0276898Y0034240D01*
X0276904Y0034086D01*
X0276906Y0033933D01*
X0276904Y0033780D01*
X0276898Y0033626D01*
X0276888Y0033473D01*
X0276874Y0033321D01*
X0276856Y0033168D01*
X0276834Y0033017D01*
X0276809Y0032866D01*
X0276779Y0032715D01*
X0276745Y0032565D01*
X0276708Y0032417D01*
X0276667Y0032269D01*
X0276622Y0032123D01*
X0276573Y0031977D01*
X0276520Y0031833D01*
X0276464Y0031691D01*
X0276404Y0031550D01*
X0276340Y0031410D01*
X0276273Y0031272D01*
X0276202Y0031136D01*
X0276127Y0031002D01*
X0276050Y0030870D01*
X0275968Y0030740D01*
X0275884Y0030612D01*
X0275796Y0030486D01*
X0275705Y0030363D01*
X0275611Y0030242D01*
X0275513Y0030124D01*
X0275413Y0030008D01*
X0275309Y0029895D01*
X0275203Y0029784D01*
X0275094Y0029676D01*
X0274982Y0029571D01*
X0274868Y0029470D01*
X0274750Y0029371D01*
X0274631Y0029275D01*
X0274509Y0029182D01*
X0274384Y0029093D01*
X0274257Y0029006D01*
X0274128Y0028924D01*
X0273997Y0028844D01*
X0273864Y0028768D01*
X0273729Y0028695D01*
X0273592Y0028626D01*
X0273453Y0028561D01*
X0273313Y0028499D01*
X0273171Y0028441D01*
X0273028Y0028386D01*
X0272883Y0028335D01*
X0272737Y0028288D01*
X0272590Y0028245D01*
X0272442Y0028206D01*
X0272293Y0028170D01*
X0272143Y0028139D01*
X0271992Y0028111D01*
X0271841Y0028087D01*
X0271688Y0028067D01*
X0271536Y0028051D01*
X0271383Y0028039D01*
X0271230Y0028031D01*
X0271077Y0028027D01*
X0270923Y0028027D01*
X0270770Y0028031D01*
X0270617Y0028039D01*
X0270464Y0028051D01*
X0270312Y0028067D01*
X0270159Y0028087D01*
X0270008Y0028111D01*
X0269857Y0028139D01*
X0269707Y0028170D01*
X0269558Y0028206D01*
X0269410Y0028245D01*
X0269263Y0028288D01*
X0269117Y0028335D01*
X0268972Y0028386D01*
X0268829Y0028441D01*
X0268687Y0028499D01*
X0268547Y0028561D01*
X0268408Y0028626D01*
X0268271Y0028695D01*
X0268136Y0028768D01*
X0268003Y0028844D01*
X0267872Y0028924D01*
X0267743Y0029006D01*
X0267616Y0029093D01*
X0267491Y0029182D01*
X0267369Y0029275D01*
X0267250Y0029371D01*
X0267132Y0029470D01*
X0267018Y0029571D01*
X0266906Y0029676D01*
X0266797Y0029784D01*
X0266691Y0029895D01*
X0266587Y0030008D01*
X0266487Y0030124D01*
X0266389Y0030242D01*
X0266295Y0030363D01*
X0266204Y0030486D01*
X0266116Y0030612D01*
X0266032Y0030740D01*
X0265950Y0030870D01*
X0265873Y0031002D01*
X0265798Y0031136D01*
X0265727Y0031272D01*
X0265660Y0031410D01*
X0265596Y0031550D01*
X0265536Y0031691D01*
X0265480Y0031833D01*
X0265427Y0031977D01*
X0265378Y0032123D01*
X0265333Y0032269D01*
X0265292Y0032417D01*
X0265255Y0032565D01*
X0265221Y0032715D01*
X0265191Y0032866D01*
X0265166Y0033017D01*
X0265144Y0033168D01*
X0265126Y0033321D01*
X0265112Y0033473D01*
X0265102Y0033626D01*
X0265096Y0033780D01*
X0265094Y0033933D01*
X0265094Y0193933D02*
X0265096Y0194086D01*
X0265102Y0194240D01*
X0265112Y0194393D01*
X0265126Y0194545D01*
X0265144Y0194698D01*
X0265166Y0194849D01*
X0265191Y0195000D01*
X0265221Y0195151D01*
X0265255Y0195301D01*
X0265292Y0195449D01*
X0265333Y0195597D01*
X0265378Y0195743D01*
X0265427Y0195889D01*
X0265480Y0196033D01*
X0265536Y0196175D01*
X0265596Y0196316D01*
X0265660Y0196456D01*
X0265727Y0196594D01*
X0265798Y0196730D01*
X0265873Y0196864D01*
X0265950Y0196996D01*
X0266032Y0197126D01*
X0266116Y0197254D01*
X0266204Y0197380D01*
X0266295Y0197503D01*
X0266389Y0197624D01*
X0266487Y0197742D01*
X0266587Y0197858D01*
X0266691Y0197971D01*
X0266797Y0198082D01*
X0266906Y0198190D01*
X0267018Y0198295D01*
X0267132Y0198396D01*
X0267250Y0198495D01*
X0267369Y0198591D01*
X0267491Y0198684D01*
X0267616Y0198773D01*
X0267743Y0198860D01*
X0267872Y0198942D01*
X0268003Y0199022D01*
X0268136Y0199098D01*
X0268271Y0199171D01*
X0268408Y0199240D01*
X0268547Y0199305D01*
X0268687Y0199367D01*
X0268829Y0199425D01*
X0268972Y0199480D01*
X0269117Y0199531D01*
X0269263Y0199578D01*
X0269410Y0199621D01*
X0269558Y0199660D01*
X0269707Y0199696D01*
X0269857Y0199727D01*
X0270008Y0199755D01*
X0270159Y0199779D01*
X0270312Y0199799D01*
X0270464Y0199815D01*
X0270617Y0199827D01*
X0270770Y0199835D01*
X0270923Y0199839D01*
X0271077Y0199839D01*
X0271230Y0199835D01*
X0271383Y0199827D01*
X0271536Y0199815D01*
X0271688Y0199799D01*
X0271841Y0199779D01*
X0271992Y0199755D01*
X0272143Y0199727D01*
X0272293Y0199696D01*
X0272442Y0199660D01*
X0272590Y0199621D01*
X0272737Y0199578D01*
X0272883Y0199531D01*
X0273028Y0199480D01*
X0273171Y0199425D01*
X0273313Y0199367D01*
X0273453Y0199305D01*
X0273592Y0199240D01*
X0273729Y0199171D01*
X0273864Y0199098D01*
X0273997Y0199022D01*
X0274128Y0198942D01*
X0274257Y0198860D01*
X0274384Y0198773D01*
X0274509Y0198684D01*
X0274631Y0198591D01*
X0274750Y0198495D01*
X0274868Y0198396D01*
X0274982Y0198295D01*
X0275094Y0198190D01*
X0275203Y0198082D01*
X0275309Y0197971D01*
X0275413Y0197858D01*
X0275513Y0197742D01*
X0275611Y0197624D01*
X0275705Y0197503D01*
X0275796Y0197380D01*
X0275884Y0197254D01*
X0275968Y0197126D01*
X0276050Y0196996D01*
X0276127Y0196864D01*
X0276202Y0196730D01*
X0276273Y0196594D01*
X0276340Y0196456D01*
X0276404Y0196316D01*
X0276464Y0196175D01*
X0276520Y0196033D01*
X0276573Y0195889D01*
X0276622Y0195743D01*
X0276667Y0195597D01*
X0276708Y0195449D01*
X0276745Y0195301D01*
X0276779Y0195151D01*
X0276809Y0195000D01*
X0276834Y0194849D01*
X0276856Y0194698D01*
X0276874Y0194545D01*
X0276888Y0194393D01*
X0276898Y0194240D01*
X0276904Y0194086D01*
X0276906Y0193933D01*
X0276904Y0193780D01*
X0276898Y0193626D01*
X0276888Y0193473D01*
X0276874Y0193321D01*
X0276856Y0193168D01*
X0276834Y0193017D01*
X0276809Y0192866D01*
X0276779Y0192715D01*
X0276745Y0192565D01*
X0276708Y0192417D01*
X0276667Y0192269D01*
X0276622Y0192123D01*
X0276573Y0191977D01*
X0276520Y0191833D01*
X0276464Y0191691D01*
X0276404Y0191550D01*
X0276340Y0191410D01*
X0276273Y0191272D01*
X0276202Y0191136D01*
X0276127Y0191002D01*
X0276050Y0190870D01*
X0275968Y0190740D01*
X0275884Y0190612D01*
X0275796Y0190486D01*
X0275705Y0190363D01*
X0275611Y0190242D01*
X0275513Y0190124D01*
X0275413Y0190008D01*
X0275309Y0189895D01*
X0275203Y0189784D01*
X0275094Y0189676D01*
X0274982Y0189571D01*
X0274868Y0189470D01*
X0274750Y0189371D01*
X0274631Y0189275D01*
X0274509Y0189182D01*
X0274384Y0189093D01*
X0274257Y0189006D01*
X0274128Y0188924D01*
X0273997Y0188844D01*
X0273864Y0188768D01*
X0273729Y0188695D01*
X0273592Y0188626D01*
X0273453Y0188561D01*
X0273313Y0188499D01*
X0273171Y0188441D01*
X0273028Y0188386D01*
X0272883Y0188335D01*
X0272737Y0188288D01*
X0272590Y0188245D01*
X0272442Y0188206D01*
X0272293Y0188170D01*
X0272143Y0188139D01*
X0271992Y0188111D01*
X0271841Y0188087D01*
X0271688Y0188067D01*
X0271536Y0188051D01*
X0271383Y0188039D01*
X0271230Y0188031D01*
X0271077Y0188027D01*
X0270923Y0188027D01*
X0270770Y0188031D01*
X0270617Y0188039D01*
X0270464Y0188051D01*
X0270312Y0188067D01*
X0270159Y0188087D01*
X0270008Y0188111D01*
X0269857Y0188139D01*
X0269707Y0188170D01*
X0269558Y0188206D01*
X0269410Y0188245D01*
X0269263Y0188288D01*
X0269117Y0188335D01*
X0268972Y0188386D01*
X0268829Y0188441D01*
X0268687Y0188499D01*
X0268547Y0188561D01*
X0268408Y0188626D01*
X0268271Y0188695D01*
X0268136Y0188768D01*
X0268003Y0188844D01*
X0267872Y0188924D01*
X0267743Y0189006D01*
X0267616Y0189093D01*
X0267491Y0189182D01*
X0267369Y0189275D01*
X0267250Y0189371D01*
X0267132Y0189470D01*
X0267018Y0189571D01*
X0266906Y0189676D01*
X0266797Y0189784D01*
X0266691Y0189895D01*
X0266587Y0190008D01*
X0266487Y0190124D01*
X0266389Y0190242D01*
X0266295Y0190363D01*
X0266204Y0190486D01*
X0266116Y0190612D01*
X0266032Y0190740D01*
X0265950Y0190870D01*
X0265873Y0191002D01*
X0265798Y0191136D01*
X0265727Y0191272D01*
X0265660Y0191410D01*
X0265596Y0191550D01*
X0265536Y0191691D01*
X0265480Y0191833D01*
X0265427Y0191977D01*
X0265378Y0192123D01*
X0265333Y0192269D01*
X0265292Y0192417D01*
X0265255Y0192565D01*
X0265221Y0192715D01*
X0265191Y0192866D01*
X0265166Y0193017D01*
X0265144Y0193168D01*
X0265126Y0193321D01*
X0265112Y0193473D01*
X0265102Y0193626D01*
X0265096Y0193780D01*
X0265094Y0193933D01*
X0004937Y0195193D02*
X0004939Y0195346D01*
X0004945Y0195500D01*
X0004955Y0195653D01*
X0004969Y0195805D01*
X0004987Y0195958D01*
X0005009Y0196109D01*
X0005034Y0196260D01*
X0005064Y0196411D01*
X0005098Y0196561D01*
X0005135Y0196709D01*
X0005176Y0196857D01*
X0005221Y0197003D01*
X0005270Y0197149D01*
X0005323Y0197293D01*
X0005379Y0197435D01*
X0005439Y0197576D01*
X0005503Y0197716D01*
X0005570Y0197854D01*
X0005641Y0197990D01*
X0005716Y0198124D01*
X0005793Y0198256D01*
X0005875Y0198386D01*
X0005959Y0198514D01*
X0006047Y0198640D01*
X0006138Y0198763D01*
X0006232Y0198884D01*
X0006330Y0199002D01*
X0006430Y0199118D01*
X0006534Y0199231D01*
X0006640Y0199342D01*
X0006749Y0199450D01*
X0006861Y0199555D01*
X0006975Y0199656D01*
X0007093Y0199755D01*
X0007212Y0199851D01*
X0007334Y0199944D01*
X0007459Y0200033D01*
X0007586Y0200120D01*
X0007715Y0200202D01*
X0007846Y0200282D01*
X0007979Y0200358D01*
X0008114Y0200431D01*
X0008251Y0200500D01*
X0008390Y0200565D01*
X0008530Y0200627D01*
X0008672Y0200685D01*
X0008815Y0200740D01*
X0008960Y0200791D01*
X0009106Y0200838D01*
X0009253Y0200881D01*
X0009401Y0200920D01*
X0009550Y0200956D01*
X0009700Y0200987D01*
X0009851Y0201015D01*
X0010002Y0201039D01*
X0010155Y0201059D01*
X0010307Y0201075D01*
X0010460Y0201087D01*
X0010613Y0201095D01*
X0010766Y0201099D01*
X0010920Y0201099D01*
X0011073Y0201095D01*
X0011226Y0201087D01*
X0011379Y0201075D01*
X0011531Y0201059D01*
X0011684Y0201039D01*
X0011835Y0201015D01*
X0011986Y0200987D01*
X0012136Y0200956D01*
X0012285Y0200920D01*
X0012433Y0200881D01*
X0012580Y0200838D01*
X0012726Y0200791D01*
X0012871Y0200740D01*
X0013014Y0200685D01*
X0013156Y0200627D01*
X0013296Y0200565D01*
X0013435Y0200500D01*
X0013572Y0200431D01*
X0013707Y0200358D01*
X0013840Y0200282D01*
X0013971Y0200202D01*
X0014100Y0200120D01*
X0014227Y0200033D01*
X0014352Y0199944D01*
X0014474Y0199851D01*
X0014593Y0199755D01*
X0014711Y0199656D01*
X0014825Y0199555D01*
X0014937Y0199450D01*
X0015046Y0199342D01*
X0015152Y0199231D01*
X0015256Y0199118D01*
X0015356Y0199002D01*
X0015454Y0198884D01*
X0015548Y0198763D01*
X0015639Y0198640D01*
X0015727Y0198514D01*
X0015811Y0198386D01*
X0015893Y0198256D01*
X0015970Y0198124D01*
X0016045Y0197990D01*
X0016116Y0197854D01*
X0016183Y0197716D01*
X0016247Y0197576D01*
X0016307Y0197435D01*
X0016363Y0197293D01*
X0016416Y0197149D01*
X0016465Y0197003D01*
X0016510Y0196857D01*
X0016551Y0196709D01*
X0016588Y0196561D01*
X0016622Y0196411D01*
X0016652Y0196260D01*
X0016677Y0196109D01*
X0016699Y0195958D01*
X0016717Y0195805D01*
X0016731Y0195653D01*
X0016741Y0195500D01*
X0016747Y0195346D01*
X0016749Y0195193D01*
X0016747Y0195040D01*
X0016741Y0194886D01*
X0016731Y0194733D01*
X0016717Y0194581D01*
X0016699Y0194428D01*
X0016677Y0194277D01*
X0016652Y0194126D01*
X0016622Y0193975D01*
X0016588Y0193825D01*
X0016551Y0193677D01*
X0016510Y0193529D01*
X0016465Y0193383D01*
X0016416Y0193237D01*
X0016363Y0193093D01*
X0016307Y0192951D01*
X0016247Y0192810D01*
X0016183Y0192670D01*
X0016116Y0192532D01*
X0016045Y0192396D01*
X0015970Y0192262D01*
X0015893Y0192130D01*
X0015811Y0192000D01*
X0015727Y0191872D01*
X0015639Y0191746D01*
X0015548Y0191623D01*
X0015454Y0191502D01*
X0015356Y0191384D01*
X0015256Y0191268D01*
X0015152Y0191155D01*
X0015046Y0191044D01*
X0014937Y0190936D01*
X0014825Y0190831D01*
X0014711Y0190730D01*
X0014593Y0190631D01*
X0014474Y0190535D01*
X0014352Y0190442D01*
X0014227Y0190353D01*
X0014100Y0190266D01*
X0013971Y0190184D01*
X0013840Y0190104D01*
X0013707Y0190028D01*
X0013572Y0189955D01*
X0013435Y0189886D01*
X0013296Y0189821D01*
X0013156Y0189759D01*
X0013014Y0189701D01*
X0012871Y0189646D01*
X0012726Y0189595D01*
X0012580Y0189548D01*
X0012433Y0189505D01*
X0012285Y0189466D01*
X0012136Y0189430D01*
X0011986Y0189399D01*
X0011835Y0189371D01*
X0011684Y0189347D01*
X0011531Y0189327D01*
X0011379Y0189311D01*
X0011226Y0189299D01*
X0011073Y0189291D01*
X0010920Y0189287D01*
X0010766Y0189287D01*
X0010613Y0189291D01*
X0010460Y0189299D01*
X0010307Y0189311D01*
X0010155Y0189327D01*
X0010002Y0189347D01*
X0009851Y0189371D01*
X0009700Y0189399D01*
X0009550Y0189430D01*
X0009401Y0189466D01*
X0009253Y0189505D01*
X0009106Y0189548D01*
X0008960Y0189595D01*
X0008815Y0189646D01*
X0008672Y0189701D01*
X0008530Y0189759D01*
X0008390Y0189821D01*
X0008251Y0189886D01*
X0008114Y0189955D01*
X0007979Y0190028D01*
X0007846Y0190104D01*
X0007715Y0190184D01*
X0007586Y0190266D01*
X0007459Y0190353D01*
X0007334Y0190442D01*
X0007212Y0190535D01*
X0007093Y0190631D01*
X0006975Y0190730D01*
X0006861Y0190831D01*
X0006749Y0190936D01*
X0006640Y0191044D01*
X0006534Y0191155D01*
X0006430Y0191268D01*
X0006330Y0191384D01*
X0006232Y0191502D01*
X0006138Y0191623D01*
X0006047Y0191746D01*
X0005959Y0191872D01*
X0005875Y0192000D01*
X0005793Y0192130D01*
X0005716Y0192262D01*
X0005641Y0192396D01*
X0005570Y0192532D01*
X0005503Y0192670D01*
X0005439Y0192810D01*
X0005379Y0192951D01*
X0005323Y0193093D01*
X0005270Y0193237D01*
X0005221Y0193383D01*
X0005176Y0193529D01*
X0005135Y0193677D01*
X0005098Y0193825D01*
X0005064Y0193975D01*
X0005034Y0194126D01*
X0005009Y0194277D01*
X0004987Y0194428D01*
X0004969Y0194581D01*
X0004955Y0194733D01*
X0004945Y0194886D01*
X0004939Y0195040D01*
X0004937Y0195193D01*
D11*
X0010843Y0195193D03*
X0271000Y0193933D03*
X0271000Y0033933D03*
X0011000Y0033933D03*
D12*
X0159823Y0061933D03*
X0159823Y0071776D03*
X0159823Y0082012D03*
D13*
X0185500Y0082933D03*
X0185500Y0097933D03*
X0185500Y0127933D03*
X0185500Y0142933D03*
X0021000Y0144433D03*
X0021000Y0129433D03*
X0021000Y0099433D03*
X0021000Y0084433D03*
D14*
X0139000Y0116633D03*
X0144700Y0116733D03*
X0150300Y0116733D03*
D15*
X0152000Y0173933D03*
X0142000Y0173933D03*
X0132000Y0173933D03*
X0122000Y0173933D03*
X0122000Y0183933D03*
X0132000Y0183933D03*
X0142000Y0183933D03*
X0152000Y0183933D03*
D16*
X0172000Y0058333D02*
X0172000Y0050933D01*
X0105700Y0050933D02*
X0098300Y0050933D01*
X0098300Y0040933D02*
X0105700Y0040933D01*
D17*
X0049000Y0033933D03*
X0049000Y0053933D03*
X0191000Y0053933D03*
X0191000Y0033933D03*
D18*
X0029000Y0033933D03*
X0029000Y0053933D03*
D19*
X0216000Y0053933D03*
X0216000Y0033933D03*
D20*
X0206000Y0095311D03*
X0206000Y0105311D03*
X0206000Y0115311D03*
X0256000Y0115311D03*
X0256000Y0105311D03*
X0256000Y0095311D03*
X0096000Y0095311D03*
X0096000Y0105311D03*
X0096000Y0115311D03*
X0046000Y0115311D03*
X0046000Y0105311D03*
X0046000Y0095311D03*
D21*
X0061000Y0145232D03*
X0071000Y0145232D03*
X0081000Y0145232D03*
X0221000Y0145232D03*
X0231000Y0145232D03*
X0241000Y0145232D03*
M02*
