G75*
%MOIN*%
%OFA0B0*%
%FSLAX25Y25*%
%IPPOS*%
%LPD*%
%AMOC8*
5,1,8,0,0,1.08239X$1,22.5*
%
%ADD10C,0.00000*%
%ADD11C,0.05937*%
%ADD12C,0.09449*%
%ADD13C,0.04500*%
%ADD14OC8,0.05937*%
%ADD15C,0.07400*%
%ADD16C,0.10000*%
%ADD17OC8,0.10000*%
%ADD18R,0.10000X0.10000*%
%ADD19C,0.05543*%
%ADD20C,0.04362*%
%ADD21C,0.01600*%
%ADD22C,0.03562*%
%ADD23C,0.10000*%
D10*
X0001000Y0023933D02*
X0001000Y0203933D01*
X0281000Y0203933D01*
X0281000Y0023933D01*
X0001000Y0023933D01*
X0005094Y0033933D02*
X0005096Y0034086D01*
X0005102Y0034240D01*
X0005112Y0034393D01*
X0005126Y0034545D01*
X0005144Y0034698D01*
X0005166Y0034849D01*
X0005191Y0035000D01*
X0005221Y0035151D01*
X0005255Y0035301D01*
X0005292Y0035449D01*
X0005333Y0035597D01*
X0005378Y0035743D01*
X0005427Y0035889D01*
X0005480Y0036033D01*
X0005536Y0036175D01*
X0005596Y0036316D01*
X0005660Y0036456D01*
X0005727Y0036594D01*
X0005798Y0036730D01*
X0005873Y0036864D01*
X0005950Y0036996D01*
X0006032Y0037126D01*
X0006116Y0037254D01*
X0006204Y0037380D01*
X0006295Y0037503D01*
X0006389Y0037624D01*
X0006487Y0037742D01*
X0006587Y0037858D01*
X0006691Y0037971D01*
X0006797Y0038082D01*
X0006906Y0038190D01*
X0007018Y0038295D01*
X0007132Y0038396D01*
X0007250Y0038495D01*
X0007369Y0038591D01*
X0007491Y0038684D01*
X0007616Y0038773D01*
X0007743Y0038860D01*
X0007872Y0038942D01*
X0008003Y0039022D01*
X0008136Y0039098D01*
X0008271Y0039171D01*
X0008408Y0039240D01*
X0008547Y0039305D01*
X0008687Y0039367D01*
X0008829Y0039425D01*
X0008972Y0039480D01*
X0009117Y0039531D01*
X0009263Y0039578D01*
X0009410Y0039621D01*
X0009558Y0039660D01*
X0009707Y0039696D01*
X0009857Y0039727D01*
X0010008Y0039755D01*
X0010159Y0039779D01*
X0010312Y0039799D01*
X0010464Y0039815D01*
X0010617Y0039827D01*
X0010770Y0039835D01*
X0010923Y0039839D01*
X0011077Y0039839D01*
X0011230Y0039835D01*
X0011383Y0039827D01*
X0011536Y0039815D01*
X0011688Y0039799D01*
X0011841Y0039779D01*
X0011992Y0039755D01*
X0012143Y0039727D01*
X0012293Y0039696D01*
X0012442Y0039660D01*
X0012590Y0039621D01*
X0012737Y0039578D01*
X0012883Y0039531D01*
X0013028Y0039480D01*
X0013171Y0039425D01*
X0013313Y0039367D01*
X0013453Y0039305D01*
X0013592Y0039240D01*
X0013729Y0039171D01*
X0013864Y0039098D01*
X0013997Y0039022D01*
X0014128Y0038942D01*
X0014257Y0038860D01*
X0014384Y0038773D01*
X0014509Y0038684D01*
X0014631Y0038591D01*
X0014750Y0038495D01*
X0014868Y0038396D01*
X0014982Y0038295D01*
X0015094Y0038190D01*
X0015203Y0038082D01*
X0015309Y0037971D01*
X0015413Y0037858D01*
X0015513Y0037742D01*
X0015611Y0037624D01*
X0015705Y0037503D01*
X0015796Y0037380D01*
X0015884Y0037254D01*
X0015968Y0037126D01*
X0016050Y0036996D01*
X0016127Y0036864D01*
X0016202Y0036730D01*
X0016273Y0036594D01*
X0016340Y0036456D01*
X0016404Y0036316D01*
X0016464Y0036175D01*
X0016520Y0036033D01*
X0016573Y0035889D01*
X0016622Y0035743D01*
X0016667Y0035597D01*
X0016708Y0035449D01*
X0016745Y0035301D01*
X0016779Y0035151D01*
X0016809Y0035000D01*
X0016834Y0034849D01*
X0016856Y0034698D01*
X0016874Y0034545D01*
X0016888Y0034393D01*
X0016898Y0034240D01*
X0016904Y0034086D01*
X0016906Y0033933D01*
X0016904Y0033780D01*
X0016898Y0033626D01*
X0016888Y0033473D01*
X0016874Y0033321D01*
X0016856Y0033168D01*
X0016834Y0033017D01*
X0016809Y0032866D01*
X0016779Y0032715D01*
X0016745Y0032565D01*
X0016708Y0032417D01*
X0016667Y0032269D01*
X0016622Y0032123D01*
X0016573Y0031977D01*
X0016520Y0031833D01*
X0016464Y0031691D01*
X0016404Y0031550D01*
X0016340Y0031410D01*
X0016273Y0031272D01*
X0016202Y0031136D01*
X0016127Y0031002D01*
X0016050Y0030870D01*
X0015968Y0030740D01*
X0015884Y0030612D01*
X0015796Y0030486D01*
X0015705Y0030363D01*
X0015611Y0030242D01*
X0015513Y0030124D01*
X0015413Y0030008D01*
X0015309Y0029895D01*
X0015203Y0029784D01*
X0015094Y0029676D01*
X0014982Y0029571D01*
X0014868Y0029470D01*
X0014750Y0029371D01*
X0014631Y0029275D01*
X0014509Y0029182D01*
X0014384Y0029093D01*
X0014257Y0029006D01*
X0014128Y0028924D01*
X0013997Y0028844D01*
X0013864Y0028768D01*
X0013729Y0028695D01*
X0013592Y0028626D01*
X0013453Y0028561D01*
X0013313Y0028499D01*
X0013171Y0028441D01*
X0013028Y0028386D01*
X0012883Y0028335D01*
X0012737Y0028288D01*
X0012590Y0028245D01*
X0012442Y0028206D01*
X0012293Y0028170D01*
X0012143Y0028139D01*
X0011992Y0028111D01*
X0011841Y0028087D01*
X0011688Y0028067D01*
X0011536Y0028051D01*
X0011383Y0028039D01*
X0011230Y0028031D01*
X0011077Y0028027D01*
X0010923Y0028027D01*
X0010770Y0028031D01*
X0010617Y0028039D01*
X0010464Y0028051D01*
X0010312Y0028067D01*
X0010159Y0028087D01*
X0010008Y0028111D01*
X0009857Y0028139D01*
X0009707Y0028170D01*
X0009558Y0028206D01*
X0009410Y0028245D01*
X0009263Y0028288D01*
X0009117Y0028335D01*
X0008972Y0028386D01*
X0008829Y0028441D01*
X0008687Y0028499D01*
X0008547Y0028561D01*
X0008408Y0028626D01*
X0008271Y0028695D01*
X0008136Y0028768D01*
X0008003Y0028844D01*
X0007872Y0028924D01*
X0007743Y0029006D01*
X0007616Y0029093D01*
X0007491Y0029182D01*
X0007369Y0029275D01*
X0007250Y0029371D01*
X0007132Y0029470D01*
X0007018Y0029571D01*
X0006906Y0029676D01*
X0006797Y0029784D01*
X0006691Y0029895D01*
X0006587Y0030008D01*
X0006487Y0030124D01*
X0006389Y0030242D01*
X0006295Y0030363D01*
X0006204Y0030486D01*
X0006116Y0030612D01*
X0006032Y0030740D01*
X0005950Y0030870D01*
X0005873Y0031002D01*
X0005798Y0031136D01*
X0005727Y0031272D01*
X0005660Y0031410D01*
X0005596Y0031550D01*
X0005536Y0031691D01*
X0005480Y0031833D01*
X0005427Y0031977D01*
X0005378Y0032123D01*
X0005333Y0032269D01*
X0005292Y0032417D01*
X0005255Y0032565D01*
X0005221Y0032715D01*
X0005191Y0032866D01*
X0005166Y0033017D01*
X0005144Y0033168D01*
X0005126Y0033321D01*
X0005112Y0033473D01*
X0005102Y0033626D01*
X0005096Y0033780D01*
X0005094Y0033933D01*
X0265094Y0033933D02*
X0265096Y0034086D01*
X0265102Y0034240D01*
X0265112Y0034393D01*
X0265126Y0034545D01*
X0265144Y0034698D01*
X0265166Y0034849D01*
X0265191Y0035000D01*
X0265221Y0035151D01*
X0265255Y0035301D01*
X0265292Y0035449D01*
X0265333Y0035597D01*
X0265378Y0035743D01*
X0265427Y0035889D01*
X0265480Y0036033D01*
X0265536Y0036175D01*
X0265596Y0036316D01*
X0265660Y0036456D01*
X0265727Y0036594D01*
X0265798Y0036730D01*
X0265873Y0036864D01*
X0265950Y0036996D01*
X0266032Y0037126D01*
X0266116Y0037254D01*
X0266204Y0037380D01*
X0266295Y0037503D01*
X0266389Y0037624D01*
X0266487Y0037742D01*
X0266587Y0037858D01*
X0266691Y0037971D01*
X0266797Y0038082D01*
X0266906Y0038190D01*
X0267018Y0038295D01*
X0267132Y0038396D01*
X0267250Y0038495D01*
X0267369Y0038591D01*
X0267491Y0038684D01*
X0267616Y0038773D01*
X0267743Y0038860D01*
X0267872Y0038942D01*
X0268003Y0039022D01*
X0268136Y0039098D01*
X0268271Y0039171D01*
X0268408Y0039240D01*
X0268547Y0039305D01*
X0268687Y0039367D01*
X0268829Y0039425D01*
X0268972Y0039480D01*
X0269117Y0039531D01*
X0269263Y0039578D01*
X0269410Y0039621D01*
X0269558Y0039660D01*
X0269707Y0039696D01*
X0269857Y0039727D01*
X0270008Y0039755D01*
X0270159Y0039779D01*
X0270312Y0039799D01*
X0270464Y0039815D01*
X0270617Y0039827D01*
X0270770Y0039835D01*
X0270923Y0039839D01*
X0271077Y0039839D01*
X0271230Y0039835D01*
X0271383Y0039827D01*
X0271536Y0039815D01*
X0271688Y0039799D01*
X0271841Y0039779D01*
X0271992Y0039755D01*
X0272143Y0039727D01*
X0272293Y0039696D01*
X0272442Y0039660D01*
X0272590Y0039621D01*
X0272737Y0039578D01*
X0272883Y0039531D01*
X0273028Y0039480D01*
X0273171Y0039425D01*
X0273313Y0039367D01*
X0273453Y0039305D01*
X0273592Y0039240D01*
X0273729Y0039171D01*
X0273864Y0039098D01*
X0273997Y0039022D01*
X0274128Y0038942D01*
X0274257Y0038860D01*
X0274384Y0038773D01*
X0274509Y0038684D01*
X0274631Y0038591D01*
X0274750Y0038495D01*
X0274868Y0038396D01*
X0274982Y0038295D01*
X0275094Y0038190D01*
X0275203Y0038082D01*
X0275309Y0037971D01*
X0275413Y0037858D01*
X0275513Y0037742D01*
X0275611Y0037624D01*
X0275705Y0037503D01*
X0275796Y0037380D01*
X0275884Y0037254D01*
X0275968Y0037126D01*
X0276050Y0036996D01*
X0276127Y0036864D01*
X0276202Y0036730D01*
X0276273Y0036594D01*
X0276340Y0036456D01*
X0276404Y0036316D01*
X0276464Y0036175D01*
X0276520Y0036033D01*
X0276573Y0035889D01*
X0276622Y0035743D01*
X0276667Y0035597D01*
X0276708Y0035449D01*
X0276745Y0035301D01*
X0276779Y0035151D01*
X0276809Y0035000D01*
X0276834Y0034849D01*
X0276856Y0034698D01*
X0276874Y0034545D01*
X0276888Y0034393D01*
X0276898Y0034240D01*
X0276904Y0034086D01*
X0276906Y0033933D01*
X0276904Y0033780D01*
X0276898Y0033626D01*
X0276888Y0033473D01*
X0276874Y0033321D01*
X0276856Y0033168D01*
X0276834Y0033017D01*
X0276809Y0032866D01*
X0276779Y0032715D01*
X0276745Y0032565D01*
X0276708Y0032417D01*
X0276667Y0032269D01*
X0276622Y0032123D01*
X0276573Y0031977D01*
X0276520Y0031833D01*
X0276464Y0031691D01*
X0276404Y0031550D01*
X0276340Y0031410D01*
X0276273Y0031272D01*
X0276202Y0031136D01*
X0276127Y0031002D01*
X0276050Y0030870D01*
X0275968Y0030740D01*
X0275884Y0030612D01*
X0275796Y0030486D01*
X0275705Y0030363D01*
X0275611Y0030242D01*
X0275513Y0030124D01*
X0275413Y0030008D01*
X0275309Y0029895D01*
X0275203Y0029784D01*
X0275094Y0029676D01*
X0274982Y0029571D01*
X0274868Y0029470D01*
X0274750Y0029371D01*
X0274631Y0029275D01*
X0274509Y0029182D01*
X0274384Y0029093D01*
X0274257Y0029006D01*
X0274128Y0028924D01*
X0273997Y0028844D01*
X0273864Y0028768D01*
X0273729Y0028695D01*
X0273592Y0028626D01*
X0273453Y0028561D01*
X0273313Y0028499D01*
X0273171Y0028441D01*
X0273028Y0028386D01*
X0272883Y0028335D01*
X0272737Y0028288D01*
X0272590Y0028245D01*
X0272442Y0028206D01*
X0272293Y0028170D01*
X0272143Y0028139D01*
X0271992Y0028111D01*
X0271841Y0028087D01*
X0271688Y0028067D01*
X0271536Y0028051D01*
X0271383Y0028039D01*
X0271230Y0028031D01*
X0271077Y0028027D01*
X0270923Y0028027D01*
X0270770Y0028031D01*
X0270617Y0028039D01*
X0270464Y0028051D01*
X0270312Y0028067D01*
X0270159Y0028087D01*
X0270008Y0028111D01*
X0269857Y0028139D01*
X0269707Y0028170D01*
X0269558Y0028206D01*
X0269410Y0028245D01*
X0269263Y0028288D01*
X0269117Y0028335D01*
X0268972Y0028386D01*
X0268829Y0028441D01*
X0268687Y0028499D01*
X0268547Y0028561D01*
X0268408Y0028626D01*
X0268271Y0028695D01*
X0268136Y0028768D01*
X0268003Y0028844D01*
X0267872Y0028924D01*
X0267743Y0029006D01*
X0267616Y0029093D01*
X0267491Y0029182D01*
X0267369Y0029275D01*
X0267250Y0029371D01*
X0267132Y0029470D01*
X0267018Y0029571D01*
X0266906Y0029676D01*
X0266797Y0029784D01*
X0266691Y0029895D01*
X0266587Y0030008D01*
X0266487Y0030124D01*
X0266389Y0030242D01*
X0266295Y0030363D01*
X0266204Y0030486D01*
X0266116Y0030612D01*
X0266032Y0030740D01*
X0265950Y0030870D01*
X0265873Y0031002D01*
X0265798Y0031136D01*
X0265727Y0031272D01*
X0265660Y0031410D01*
X0265596Y0031550D01*
X0265536Y0031691D01*
X0265480Y0031833D01*
X0265427Y0031977D01*
X0265378Y0032123D01*
X0265333Y0032269D01*
X0265292Y0032417D01*
X0265255Y0032565D01*
X0265221Y0032715D01*
X0265191Y0032866D01*
X0265166Y0033017D01*
X0265144Y0033168D01*
X0265126Y0033321D01*
X0265112Y0033473D01*
X0265102Y0033626D01*
X0265096Y0033780D01*
X0265094Y0033933D01*
X0265094Y0193933D02*
X0265096Y0194086D01*
X0265102Y0194240D01*
X0265112Y0194393D01*
X0265126Y0194545D01*
X0265144Y0194698D01*
X0265166Y0194849D01*
X0265191Y0195000D01*
X0265221Y0195151D01*
X0265255Y0195301D01*
X0265292Y0195449D01*
X0265333Y0195597D01*
X0265378Y0195743D01*
X0265427Y0195889D01*
X0265480Y0196033D01*
X0265536Y0196175D01*
X0265596Y0196316D01*
X0265660Y0196456D01*
X0265727Y0196594D01*
X0265798Y0196730D01*
X0265873Y0196864D01*
X0265950Y0196996D01*
X0266032Y0197126D01*
X0266116Y0197254D01*
X0266204Y0197380D01*
X0266295Y0197503D01*
X0266389Y0197624D01*
X0266487Y0197742D01*
X0266587Y0197858D01*
X0266691Y0197971D01*
X0266797Y0198082D01*
X0266906Y0198190D01*
X0267018Y0198295D01*
X0267132Y0198396D01*
X0267250Y0198495D01*
X0267369Y0198591D01*
X0267491Y0198684D01*
X0267616Y0198773D01*
X0267743Y0198860D01*
X0267872Y0198942D01*
X0268003Y0199022D01*
X0268136Y0199098D01*
X0268271Y0199171D01*
X0268408Y0199240D01*
X0268547Y0199305D01*
X0268687Y0199367D01*
X0268829Y0199425D01*
X0268972Y0199480D01*
X0269117Y0199531D01*
X0269263Y0199578D01*
X0269410Y0199621D01*
X0269558Y0199660D01*
X0269707Y0199696D01*
X0269857Y0199727D01*
X0270008Y0199755D01*
X0270159Y0199779D01*
X0270312Y0199799D01*
X0270464Y0199815D01*
X0270617Y0199827D01*
X0270770Y0199835D01*
X0270923Y0199839D01*
X0271077Y0199839D01*
X0271230Y0199835D01*
X0271383Y0199827D01*
X0271536Y0199815D01*
X0271688Y0199799D01*
X0271841Y0199779D01*
X0271992Y0199755D01*
X0272143Y0199727D01*
X0272293Y0199696D01*
X0272442Y0199660D01*
X0272590Y0199621D01*
X0272737Y0199578D01*
X0272883Y0199531D01*
X0273028Y0199480D01*
X0273171Y0199425D01*
X0273313Y0199367D01*
X0273453Y0199305D01*
X0273592Y0199240D01*
X0273729Y0199171D01*
X0273864Y0199098D01*
X0273997Y0199022D01*
X0274128Y0198942D01*
X0274257Y0198860D01*
X0274384Y0198773D01*
X0274509Y0198684D01*
X0274631Y0198591D01*
X0274750Y0198495D01*
X0274868Y0198396D01*
X0274982Y0198295D01*
X0275094Y0198190D01*
X0275203Y0198082D01*
X0275309Y0197971D01*
X0275413Y0197858D01*
X0275513Y0197742D01*
X0275611Y0197624D01*
X0275705Y0197503D01*
X0275796Y0197380D01*
X0275884Y0197254D01*
X0275968Y0197126D01*
X0276050Y0196996D01*
X0276127Y0196864D01*
X0276202Y0196730D01*
X0276273Y0196594D01*
X0276340Y0196456D01*
X0276404Y0196316D01*
X0276464Y0196175D01*
X0276520Y0196033D01*
X0276573Y0195889D01*
X0276622Y0195743D01*
X0276667Y0195597D01*
X0276708Y0195449D01*
X0276745Y0195301D01*
X0276779Y0195151D01*
X0276809Y0195000D01*
X0276834Y0194849D01*
X0276856Y0194698D01*
X0276874Y0194545D01*
X0276888Y0194393D01*
X0276898Y0194240D01*
X0276904Y0194086D01*
X0276906Y0193933D01*
X0276904Y0193780D01*
X0276898Y0193626D01*
X0276888Y0193473D01*
X0276874Y0193321D01*
X0276856Y0193168D01*
X0276834Y0193017D01*
X0276809Y0192866D01*
X0276779Y0192715D01*
X0276745Y0192565D01*
X0276708Y0192417D01*
X0276667Y0192269D01*
X0276622Y0192123D01*
X0276573Y0191977D01*
X0276520Y0191833D01*
X0276464Y0191691D01*
X0276404Y0191550D01*
X0276340Y0191410D01*
X0276273Y0191272D01*
X0276202Y0191136D01*
X0276127Y0191002D01*
X0276050Y0190870D01*
X0275968Y0190740D01*
X0275884Y0190612D01*
X0275796Y0190486D01*
X0275705Y0190363D01*
X0275611Y0190242D01*
X0275513Y0190124D01*
X0275413Y0190008D01*
X0275309Y0189895D01*
X0275203Y0189784D01*
X0275094Y0189676D01*
X0274982Y0189571D01*
X0274868Y0189470D01*
X0274750Y0189371D01*
X0274631Y0189275D01*
X0274509Y0189182D01*
X0274384Y0189093D01*
X0274257Y0189006D01*
X0274128Y0188924D01*
X0273997Y0188844D01*
X0273864Y0188768D01*
X0273729Y0188695D01*
X0273592Y0188626D01*
X0273453Y0188561D01*
X0273313Y0188499D01*
X0273171Y0188441D01*
X0273028Y0188386D01*
X0272883Y0188335D01*
X0272737Y0188288D01*
X0272590Y0188245D01*
X0272442Y0188206D01*
X0272293Y0188170D01*
X0272143Y0188139D01*
X0271992Y0188111D01*
X0271841Y0188087D01*
X0271688Y0188067D01*
X0271536Y0188051D01*
X0271383Y0188039D01*
X0271230Y0188031D01*
X0271077Y0188027D01*
X0270923Y0188027D01*
X0270770Y0188031D01*
X0270617Y0188039D01*
X0270464Y0188051D01*
X0270312Y0188067D01*
X0270159Y0188087D01*
X0270008Y0188111D01*
X0269857Y0188139D01*
X0269707Y0188170D01*
X0269558Y0188206D01*
X0269410Y0188245D01*
X0269263Y0188288D01*
X0269117Y0188335D01*
X0268972Y0188386D01*
X0268829Y0188441D01*
X0268687Y0188499D01*
X0268547Y0188561D01*
X0268408Y0188626D01*
X0268271Y0188695D01*
X0268136Y0188768D01*
X0268003Y0188844D01*
X0267872Y0188924D01*
X0267743Y0189006D01*
X0267616Y0189093D01*
X0267491Y0189182D01*
X0267369Y0189275D01*
X0267250Y0189371D01*
X0267132Y0189470D01*
X0267018Y0189571D01*
X0266906Y0189676D01*
X0266797Y0189784D01*
X0266691Y0189895D01*
X0266587Y0190008D01*
X0266487Y0190124D01*
X0266389Y0190242D01*
X0266295Y0190363D01*
X0266204Y0190486D01*
X0266116Y0190612D01*
X0266032Y0190740D01*
X0265950Y0190870D01*
X0265873Y0191002D01*
X0265798Y0191136D01*
X0265727Y0191272D01*
X0265660Y0191410D01*
X0265596Y0191550D01*
X0265536Y0191691D01*
X0265480Y0191833D01*
X0265427Y0191977D01*
X0265378Y0192123D01*
X0265333Y0192269D01*
X0265292Y0192417D01*
X0265255Y0192565D01*
X0265221Y0192715D01*
X0265191Y0192866D01*
X0265166Y0193017D01*
X0265144Y0193168D01*
X0265126Y0193321D01*
X0265112Y0193473D01*
X0265102Y0193626D01*
X0265096Y0193780D01*
X0265094Y0193933D01*
X0004937Y0195193D02*
X0004939Y0195346D01*
X0004945Y0195500D01*
X0004955Y0195653D01*
X0004969Y0195805D01*
X0004987Y0195958D01*
X0005009Y0196109D01*
X0005034Y0196260D01*
X0005064Y0196411D01*
X0005098Y0196561D01*
X0005135Y0196709D01*
X0005176Y0196857D01*
X0005221Y0197003D01*
X0005270Y0197149D01*
X0005323Y0197293D01*
X0005379Y0197435D01*
X0005439Y0197576D01*
X0005503Y0197716D01*
X0005570Y0197854D01*
X0005641Y0197990D01*
X0005716Y0198124D01*
X0005793Y0198256D01*
X0005875Y0198386D01*
X0005959Y0198514D01*
X0006047Y0198640D01*
X0006138Y0198763D01*
X0006232Y0198884D01*
X0006330Y0199002D01*
X0006430Y0199118D01*
X0006534Y0199231D01*
X0006640Y0199342D01*
X0006749Y0199450D01*
X0006861Y0199555D01*
X0006975Y0199656D01*
X0007093Y0199755D01*
X0007212Y0199851D01*
X0007334Y0199944D01*
X0007459Y0200033D01*
X0007586Y0200120D01*
X0007715Y0200202D01*
X0007846Y0200282D01*
X0007979Y0200358D01*
X0008114Y0200431D01*
X0008251Y0200500D01*
X0008390Y0200565D01*
X0008530Y0200627D01*
X0008672Y0200685D01*
X0008815Y0200740D01*
X0008960Y0200791D01*
X0009106Y0200838D01*
X0009253Y0200881D01*
X0009401Y0200920D01*
X0009550Y0200956D01*
X0009700Y0200987D01*
X0009851Y0201015D01*
X0010002Y0201039D01*
X0010155Y0201059D01*
X0010307Y0201075D01*
X0010460Y0201087D01*
X0010613Y0201095D01*
X0010766Y0201099D01*
X0010920Y0201099D01*
X0011073Y0201095D01*
X0011226Y0201087D01*
X0011379Y0201075D01*
X0011531Y0201059D01*
X0011684Y0201039D01*
X0011835Y0201015D01*
X0011986Y0200987D01*
X0012136Y0200956D01*
X0012285Y0200920D01*
X0012433Y0200881D01*
X0012580Y0200838D01*
X0012726Y0200791D01*
X0012871Y0200740D01*
X0013014Y0200685D01*
X0013156Y0200627D01*
X0013296Y0200565D01*
X0013435Y0200500D01*
X0013572Y0200431D01*
X0013707Y0200358D01*
X0013840Y0200282D01*
X0013971Y0200202D01*
X0014100Y0200120D01*
X0014227Y0200033D01*
X0014352Y0199944D01*
X0014474Y0199851D01*
X0014593Y0199755D01*
X0014711Y0199656D01*
X0014825Y0199555D01*
X0014937Y0199450D01*
X0015046Y0199342D01*
X0015152Y0199231D01*
X0015256Y0199118D01*
X0015356Y0199002D01*
X0015454Y0198884D01*
X0015548Y0198763D01*
X0015639Y0198640D01*
X0015727Y0198514D01*
X0015811Y0198386D01*
X0015893Y0198256D01*
X0015970Y0198124D01*
X0016045Y0197990D01*
X0016116Y0197854D01*
X0016183Y0197716D01*
X0016247Y0197576D01*
X0016307Y0197435D01*
X0016363Y0197293D01*
X0016416Y0197149D01*
X0016465Y0197003D01*
X0016510Y0196857D01*
X0016551Y0196709D01*
X0016588Y0196561D01*
X0016622Y0196411D01*
X0016652Y0196260D01*
X0016677Y0196109D01*
X0016699Y0195958D01*
X0016717Y0195805D01*
X0016731Y0195653D01*
X0016741Y0195500D01*
X0016747Y0195346D01*
X0016749Y0195193D01*
X0016747Y0195040D01*
X0016741Y0194886D01*
X0016731Y0194733D01*
X0016717Y0194581D01*
X0016699Y0194428D01*
X0016677Y0194277D01*
X0016652Y0194126D01*
X0016622Y0193975D01*
X0016588Y0193825D01*
X0016551Y0193677D01*
X0016510Y0193529D01*
X0016465Y0193383D01*
X0016416Y0193237D01*
X0016363Y0193093D01*
X0016307Y0192951D01*
X0016247Y0192810D01*
X0016183Y0192670D01*
X0016116Y0192532D01*
X0016045Y0192396D01*
X0015970Y0192262D01*
X0015893Y0192130D01*
X0015811Y0192000D01*
X0015727Y0191872D01*
X0015639Y0191746D01*
X0015548Y0191623D01*
X0015454Y0191502D01*
X0015356Y0191384D01*
X0015256Y0191268D01*
X0015152Y0191155D01*
X0015046Y0191044D01*
X0014937Y0190936D01*
X0014825Y0190831D01*
X0014711Y0190730D01*
X0014593Y0190631D01*
X0014474Y0190535D01*
X0014352Y0190442D01*
X0014227Y0190353D01*
X0014100Y0190266D01*
X0013971Y0190184D01*
X0013840Y0190104D01*
X0013707Y0190028D01*
X0013572Y0189955D01*
X0013435Y0189886D01*
X0013296Y0189821D01*
X0013156Y0189759D01*
X0013014Y0189701D01*
X0012871Y0189646D01*
X0012726Y0189595D01*
X0012580Y0189548D01*
X0012433Y0189505D01*
X0012285Y0189466D01*
X0012136Y0189430D01*
X0011986Y0189399D01*
X0011835Y0189371D01*
X0011684Y0189347D01*
X0011531Y0189327D01*
X0011379Y0189311D01*
X0011226Y0189299D01*
X0011073Y0189291D01*
X0010920Y0189287D01*
X0010766Y0189287D01*
X0010613Y0189291D01*
X0010460Y0189299D01*
X0010307Y0189311D01*
X0010155Y0189327D01*
X0010002Y0189347D01*
X0009851Y0189371D01*
X0009700Y0189399D01*
X0009550Y0189430D01*
X0009401Y0189466D01*
X0009253Y0189505D01*
X0009106Y0189548D01*
X0008960Y0189595D01*
X0008815Y0189646D01*
X0008672Y0189701D01*
X0008530Y0189759D01*
X0008390Y0189821D01*
X0008251Y0189886D01*
X0008114Y0189955D01*
X0007979Y0190028D01*
X0007846Y0190104D01*
X0007715Y0190184D01*
X0007586Y0190266D01*
X0007459Y0190353D01*
X0007334Y0190442D01*
X0007212Y0190535D01*
X0007093Y0190631D01*
X0006975Y0190730D01*
X0006861Y0190831D01*
X0006749Y0190936D01*
X0006640Y0191044D01*
X0006534Y0191155D01*
X0006430Y0191268D01*
X0006330Y0191384D01*
X0006232Y0191502D01*
X0006138Y0191623D01*
X0006047Y0191746D01*
X0005959Y0191872D01*
X0005875Y0192000D01*
X0005793Y0192130D01*
X0005716Y0192262D01*
X0005641Y0192396D01*
X0005570Y0192532D01*
X0005503Y0192670D01*
X0005439Y0192810D01*
X0005379Y0192951D01*
X0005323Y0193093D01*
X0005270Y0193237D01*
X0005221Y0193383D01*
X0005176Y0193529D01*
X0005135Y0193677D01*
X0005098Y0193825D01*
X0005064Y0193975D01*
X0005034Y0194126D01*
X0005009Y0194277D01*
X0004987Y0194428D01*
X0004969Y0194581D01*
X0004955Y0194733D01*
X0004945Y0194886D01*
X0004939Y0195040D01*
X0004937Y0195193D01*
D11*
X0159823Y0082012D03*
X0159823Y0071776D03*
X0159823Y0061933D03*
D12*
X0185500Y0082933D03*
X0185500Y0097933D03*
X0185500Y0127933D03*
X0185500Y0142933D03*
X0021000Y0144433D03*
X0021000Y0129433D03*
X0021000Y0099433D03*
X0021000Y0084433D03*
D13*
X0139000Y0116633D03*
X0144700Y0116733D03*
X0150300Y0116733D03*
D14*
X0152000Y0173933D03*
X0142000Y0173933D03*
X0132000Y0173933D03*
X0122000Y0173933D03*
X0122000Y0183933D03*
X0132000Y0183933D03*
X0142000Y0183933D03*
X0152000Y0183933D03*
D15*
X0172000Y0058333D02*
X0172000Y0050933D01*
X0105700Y0050933D02*
X0098300Y0050933D01*
X0098300Y0040933D02*
X0105700Y0040933D01*
D16*
X0049000Y0033933D03*
X0049000Y0053933D03*
X0191000Y0053933D03*
X0191000Y0033933D03*
D17*
X0029000Y0033933D03*
X0029000Y0053933D03*
D18*
X0216000Y0053933D03*
X0216000Y0033933D03*
D19*
X0206000Y0095311D03*
X0206000Y0105311D03*
X0206000Y0115311D03*
X0256000Y0115311D03*
X0256000Y0105311D03*
X0256000Y0095311D03*
X0096000Y0095311D03*
X0096000Y0105311D03*
X0096000Y0115311D03*
X0046000Y0115311D03*
X0046000Y0105311D03*
X0046000Y0095311D03*
D20*
X0061000Y0145232D03*
X0071000Y0145232D03*
X0081000Y0145232D03*
X0221000Y0145232D03*
X0231000Y0145232D03*
X0241000Y0145232D03*
D21*
X0244292Y0143821D02*
X0264000Y0143821D01*
X0264000Y0142223D02*
X0243055Y0142223D01*
X0243029Y0142196D02*
X0244036Y0143204D01*
X0244581Y0144520D01*
X0244581Y0145945D01*
X0244036Y0147261D01*
X0243029Y0148268D01*
X0241712Y0148813D01*
X0240288Y0148813D01*
X0238971Y0148268D01*
X0237964Y0147261D01*
X0237419Y0145945D01*
X0237419Y0144520D01*
X0237964Y0143204D01*
X0238971Y0142196D01*
X0240288Y0141651D01*
X0241712Y0141651D01*
X0243029Y0142196D01*
X0238945Y0142223D02*
X0233621Y0142223D01*
X0233538Y0142140D02*
X0234092Y0142694D01*
X0234528Y0143347D01*
X0234828Y0144071D01*
X0234981Y0144840D01*
X0234981Y0145232D01*
X0231000Y0145232D01*
X0231000Y0141251D01*
X0231392Y0141251D01*
X0232161Y0141404D01*
X0232886Y0141704D01*
X0233538Y0142140D01*
X0234725Y0143821D02*
X0237708Y0143821D01*
X0237419Y0145420D02*
X0234981Y0145420D01*
X0234981Y0145232D02*
X0234981Y0145624D01*
X0234828Y0146394D01*
X0234528Y0147118D01*
X0234092Y0147770D01*
X0233538Y0148325D01*
X0232886Y0148760D01*
X0232161Y0149060D01*
X0231392Y0149213D01*
X0231000Y0149213D01*
X0230608Y0149213D01*
X0229839Y0149060D01*
X0229114Y0148760D01*
X0228462Y0148325D01*
X0227908Y0147770D01*
X0227472Y0147118D01*
X0227172Y0146394D01*
X0227019Y0145624D01*
X0227019Y0145232D01*
X0227019Y0144840D01*
X0227172Y0144071D01*
X0227472Y0143347D01*
X0227908Y0142694D01*
X0228462Y0142140D01*
X0229114Y0141704D01*
X0229839Y0141404D01*
X0230608Y0141251D01*
X0231000Y0141251D01*
X0231000Y0145232D01*
X0231000Y0145232D01*
X0231000Y0145232D01*
X0227019Y0145232D01*
X0231000Y0145232D01*
X0231000Y0145232D01*
X0234981Y0145232D01*
X0234569Y0147018D02*
X0237864Y0147018D01*
X0239813Y0148617D02*
X0233100Y0148617D01*
X0231000Y0148617D02*
X0231000Y0148617D01*
X0231000Y0149213D02*
X0231000Y0145232D01*
X0231000Y0145232D01*
X0231000Y0149213D01*
X0228900Y0148617D02*
X0222187Y0148617D01*
X0221712Y0148813D02*
X0220288Y0148813D01*
X0218971Y0148268D01*
X0217964Y0147261D01*
X0217419Y0145945D01*
X0217419Y0144520D01*
X0217964Y0143204D01*
X0218971Y0142196D01*
X0220288Y0141651D01*
X0221712Y0141651D01*
X0223029Y0142196D01*
X0224036Y0143204D01*
X0224581Y0144520D01*
X0224581Y0145945D01*
X0224036Y0147261D01*
X0223029Y0148268D01*
X0221712Y0148813D01*
X0219813Y0148617D02*
X0208200Y0148617D01*
X0208200Y0150215D02*
X0264000Y0150215D01*
X0264000Y0148617D02*
X0242187Y0148617D01*
X0244136Y0147018D02*
X0264000Y0147018D01*
X0264000Y0145420D02*
X0244581Y0145420D01*
X0231000Y0145420D02*
X0231000Y0145420D01*
X0231000Y0147018D02*
X0231000Y0147018D01*
X0231000Y0143821D02*
X0231000Y0143821D01*
X0231000Y0142223D02*
X0231000Y0142223D01*
X0228379Y0142223D02*
X0223055Y0142223D01*
X0224292Y0143821D02*
X0227275Y0143821D01*
X0227019Y0145420D02*
X0224581Y0145420D01*
X0224136Y0147018D02*
X0227431Y0147018D01*
X0217864Y0147018D02*
X0208200Y0147018D01*
X0208200Y0145420D02*
X0217419Y0145420D01*
X0217708Y0143821D02*
X0208200Y0143821D01*
X0208200Y0143022D02*
X0208200Y0168022D01*
X0210930Y0170752D01*
X0211633Y0170752D01*
X0212802Y0171236D01*
X0213697Y0172131D01*
X0214181Y0173300D01*
X0214181Y0174566D01*
X0213697Y0175735D01*
X0212802Y0176630D01*
X0211633Y0177114D01*
X0210367Y0177114D01*
X0209198Y0176630D01*
X0208303Y0175735D01*
X0207819Y0174566D01*
X0207819Y0173863D01*
X0203800Y0169844D01*
X0203800Y0144844D01*
X0190525Y0131569D01*
X0188969Y0133125D01*
X0186718Y0134057D01*
X0184282Y0134057D01*
X0182031Y0133125D01*
X0180308Y0131402D01*
X0179376Y0129151D01*
X0179376Y0126715D01*
X0180308Y0124464D01*
X0182031Y0122741D01*
X0184282Y0121809D01*
X0186718Y0121809D01*
X0188969Y0122741D01*
X0190692Y0124464D01*
X0191434Y0126256D01*
X0206911Y0141733D01*
X0208200Y0143022D01*
X0207401Y0142223D02*
X0218945Y0142223D01*
X0206000Y0143933D02*
X0206000Y0168933D01*
X0211000Y0173933D01*
X0213889Y0172595D02*
X0264000Y0172595D01*
X0264000Y0174193D02*
X0233722Y0174193D01*
X0233697Y0174131D02*
X0234181Y0175300D01*
X0234181Y0176566D01*
X0233697Y0177735D01*
X0232802Y0178630D01*
X0231633Y0179114D01*
X0230930Y0179114D01*
X0213911Y0196133D01*
X0140089Y0196133D01*
X0138800Y0194844D01*
X0132257Y0188302D01*
X0130191Y0188302D01*
X0127631Y0185743D01*
X0127631Y0182124D01*
X0130191Y0179565D01*
X0133809Y0179565D01*
X0136368Y0182124D01*
X0136368Y0185743D01*
X0136145Y0185966D01*
X0141911Y0191733D01*
X0212089Y0191733D01*
X0227819Y0176003D01*
X0227819Y0175300D01*
X0228303Y0174131D01*
X0229198Y0173236D01*
X0230367Y0172752D01*
X0231633Y0172752D01*
X0232802Y0173236D01*
X0233697Y0174131D01*
X0234181Y0175792D02*
X0264000Y0175792D01*
X0264000Y0177390D02*
X0233840Y0177390D01*
X0231936Y0178989D02*
X0264000Y0178989D01*
X0264000Y0180587D02*
X0229457Y0180587D01*
X0227859Y0182186D02*
X0264000Y0182186D01*
X0264000Y0183784D02*
X0226260Y0183784D01*
X0224662Y0185383D02*
X0264000Y0185383D01*
X0264000Y0186981D02*
X0223063Y0186981D01*
X0221465Y0188580D02*
X0264000Y0188580D01*
X0264000Y0190178D02*
X0219866Y0190178D01*
X0218268Y0191777D02*
X0263553Y0191777D01*
X0263294Y0192400D02*
X0264000Y0190697D01*
X0264000Y0037169D01*
X0263294Y0035466D01*
X0263294Y0032400D01*
X0264000Y0030697D01*
X0264000Y0028933D01*
X0224300Y0028933D01*
X0224300Y0039589D01*
X0223798Y0040802D01*
X0222869Y0041731D01*
X0221656Y0042233D01*
X0210344Y0042233D01*
X0209131Y0041731D01*
X0208202Y0040802D01*
X0207700Y0039589D01*
X0207700Y0028933D01*
X0197738Y0028933D01*
X0198036Y0029231D01*
X0199300Y0032282D01*
X0199300Y0035584D01*
X0198036Y0038635D01*
X0195702Y0040969D01*
X0192651Y0042233D01*
X0189349Y0042233D01*
X0186298Y0040969D01*
X0183964Y0038635D01*
X0182700Y0035584D01*
X0182700Y0032282D01*
X0183964Y0029231D01*
X0184262Y0028933D01*
X0055738Y0028933D01*
X0056036Y0029231D01*
X0057300Y0032282D01*
X0057300Y0035584D01*
X0056036Y0038635D01*
X0053702Y0040969D01*
X0050651Y0042233D01*
X0047349Y0042233D01*
X0044298Y0040969D01*
X0041964Y0038635D01*
X0040700Y0035584D01*
X0040700Y0032282D01*
X0041964Y0029231D01*
X0042262Y0028933D01*
X0035738Y0028933D01*
X0036036Y0029231D01*
X0036036Y0029232D01*
X0037300Y0030495D01*
X0037300Y0053495D01*
X0041627Y0057822D01*
X0040700Y0055584D01*
X0040700Y0052282D01*
X0041964Y0049231D01*
X0044298Y0046897D01*
X0047349Y0045633D01*
X0050651Y0045633D01*
X0053702Y0046897D01*
X0056036Y0049231D01*
X0057300Y0052282D01*
X0057300Y0055584D01*
X0056036Y0058635D01*
X0053702Y0060969D01*
X0050651Y0062233D01*
X0047349Y0062233D01*
X0045111Y0061306D01*
X0049438Y0065633D01*
X0112562Y0065633D01*
X0138964Y0039231D01*
X0141298Y0036897D01*
X0144349Y0035633D01*
X0166651Y0035633D01*
X0169702Y0036897D01*
X0172036Y0039231D01*
X0172036Y0039232D01*
X0179036Y0046231D01*
X0180300Y0049282D01*
X0180300Y0052584D01*
X0179036Y0055635D01*
X0179000Y0055671D01*
X0179000Y0059725D01*
X0177934Y0062298D01*
X0175965Y0064267D01*
X0173392Y0065333D01*
X0170608Y0065333D01*
X0168035Y0064267D01*
X0166066Y0062298D01*
X0165000Y0059725D01*
X0165000Y0055671D01*
X0161562Y0052233D01*
X0149438Y0052233D01*
X0120702Y0080969D01*
X0117651Y0082233D01*
X0044349Y0082233D01*
X0041298Y0080969D01*
X0038964Y0078635D01*
X0021964Y0061635D01*
X0020700Y0058584D01*
X0020700Y0052282D01*
X0020700Y0032282D01*
X0020700Y0030495D01*
X0021964Y0029232D01*
X0021964Y0029231D01*
X0022262Y0028933D01*
X0016897Y0028933D01*
X0017532Y0029568D01*
X0018705Y0032400D01*
X0018705Y0035466D01*
X0017532Y0038298D01*
X0015365Y0040465D01*
X0012533Y0041639D01*
X0011000Y0041639D01*
X0011000Y0187487D01*
X0012375Y0187487D01*
X0015207Y0188660D01*
X0017375Y0190828D01*
X0018548Y0193660D01*
X0018548Y0196726D01*
X0017375Y0199558D01*
X0016000Y0200933D01*
X0264000Y0200933D01*
X0264000Y0197169D01*
X0263294Y0195466D01*
X0263294Y0192400D01*
X0263294Y0193375D02*
X0216669Y0193375D01*
X0215071Y0194974D02*
X0263294Y0194974D01*
X0263753Y0196572D02*
X0018548Y0196572D01*
X0018548Y0194974D02*
X0138929Y0194974D01*
X0137331Y0193375D02*
X0018430Y0193375D01*
X0017768Y0191777D02*
X0135732Y0191777D01*
X0134134Y0190178D02*
X0016725Y0190178D01*
X0015012Y0188580D02*
X0132535Y0188580D01*
X0132000Y0184933D02*
X0141000Y0193933D01*
X0213000Y0193933D01*
X0231000Y0175933D01*
X0227819Y0175792D02*
X0213640Y0175792D01*
X0214181Y0174193D02*
X0228277Y0174193D01*
X0226432Y0177390D02*
X0154721Y0177390D01*
X0153809Y0178302D02*
X0150191Y0178302D01*
X0147631Y0175743D01*
X0147631Y0172124D01*
X0150191Y0169565D01*
X0153809Y0169565D01*
X0156368Y0172124D01*
X0156368Y0175743D01*
X0153809Y0178302D01*
X0153975Y0179165D02*
X0156768Y0181958D01*
X0156768Y0183749D01*
X0152184Y0183749D01*
X0152184Y0179165D01*
X0153975Y0179165D01*
X0155398Y0180587D02*
X0223235Y0180587D01*
X0224833Y0178989D02*
X0119167Y0178989D01*
X0119967Y0179788D02*
X0120191Y0179565D01*
X0123809Y0179565D01*
X0126368Y0182124D01*
X0126368Y0185743D01*
X0123809Y0188302D01*
X0120191Y0188302D01*
X0117631Y0185743D01*
X0117631Y0183676D01*
X0103800Y0169844D01*
X0103800Y0103022D01*
X0105089Y0101733D01*
X0110089Y0096733D01*
X0137246Y0069576D01*
X0156006Y0069576D01*
X0156119Y0069301D01*
X0157348Y0068072D01*
X0158954Y0067407D01*
X0160692Y0067407D01*
X0162297Y0068072D01*
X0163526Y0069301D01*
X0164191Y0070907D01*
X0164191Y0072645D01*
X0163526Y0074250D01*
X0162297Y0075479D01*
X0160692Y0076144D01*
X0158954Y0076144D01*
X0157348Y0075479D01*
X0156119Y0074250D01*
X0156006Y0073976D01*
X0139069Y0073976D01*
X0113200Y0099844D01*
X0108200Y0104844D01*
X0108200Y0168022D01*
X0119967Y0179788D01*
X0120191Y0178302D02*
X0117631Y0175743D01*
X0117631Y0172124D01*
X0120191Y0169565D01*
X0123809Y0169565D01*
X0126368Y0172124D01*
X0126368Y0175743D01*
X0123809Y0178302D01*
X0120191Y0178302D01*
X0119279Y0177390D02*
X0117568Y0177390D01*
X0117681Y0175792D02*
X0115970Y0175792D01*
X0114371Y0174193D02*
X0117631Y0174193D01*
X0117631Y0172595D02*
X0112773Y0172595D01*
X0111174Y0170996D02*
X0118759Y0170996D01*
X0125241Y0170996D02*
X0128759Y0170996D01*
X0127631Y0172124D02*
X0130191Y0169565D01*
X0133809Y0169565D01*
X0136368Y0172124D01*
X0136368Y0175743D01*
X0133809Y0178302D01*
X0130191Y0178302D01*
X0127631Y0175743D01*
X0127631Y0172124D01*
X0127631Y0172595D02*
X0126368Y0172595D01*
X0126368Y0174193D02*
X0127631Y0174193D01*
X0127681Y0175792D02*
X0126319Y0175792D01*
X0124721Y0177390D02*
X0129279Y0177390D01*
X0134721Y0177390D02*
X0139279Y0177390D01*
X0140191Y0178302D02*
X0137631Y0175743D01*
X0137631Y0172676D01*
X0128194Y0163238D01*
X0127802Y0163630D01*
X0126633Y0164114D01*
X0125367Y0164114D01*
X0124198Y0163630D01*
X0123303Y0162735D01*
X0122819Y0161566D01*
X0122819Y0160300D01*
X0123303Y0159131D01*
X0124198Y0158236D01*
X0125367Y0157752D01*
X0126633Y0157752D01*
X0127802Y0158236D01*
X0128299Y0158733D01*
X0129911Y0158733D01*
X0140743Y0169565D01*
X0143809Y0169565D01*
X0146368Y0172124D01*
X0146368Y0175743D01*
X0143809Y0178302D01*
X0140191Y0178302D01*
X0140191Y0179565D02*
X0143809Y0179565D01*
X0146368Y0182124D01*
X0146368Y0185743D01*
X0143809Y0188302D01*
X0140191Y0188302D01*
X0137631Y0185743D01*
X0137631Y0182124D01*
X0140191Y0179565D01*
X0139168Y0180587D02*
X0134832Y0180587D01*
X0136368Y0182186D02*
X0137631Y0182186D01*
X0137631Y0183784D02*
X0136368Y0183784D01*
X0136368Y0185383D02*
X0137631Y0185383D01*
X0137159Y0186981D02*
X0138870Y0186981D01*
X0138758Y0188580D02*
X0149903Y0188580D01*
X0150025Y0188702D02*
X0147231Y0185908D01*
X0147231Y0184117D01*
X0151816Y0184117D01*
X0151816Y0183749D01*
X0152184Y0183749D01*
X0152184Y0184117D01*
X0156768Y0184117D01*
X0156768Y0185908D01*
X0153975Y0188702D01*
X0152184Y0188702D01*
X0152184Y0184117D01*
X0151816Y0184117D01*
X0151816Y0188702D01*
X0150025Y0188702D01*
X0151816Y0188580D02*
X0152184Y0188580D01*
X0152184Y0186981D02*
X0151816Y0186981D01*
X0151816Y0185383D02*
X0152184Y0185383D01*
X0152184Y0183784D02*
X0220038Y0183784D01*
X0221636Y0182186D02*
X0156768Y0182186D01*
X0152184Y0182186D02*
X0151816Y0182186D01*
X0151816Y0183749D02*
X0151816Y0179165D01*
X0150025Y0179165D01*
X0147231Y0181958D01*
X0147231Y0183749D01*
X0151816Y0183749D01*
X0151816Y0183784D02*
X0146368Y0183784D01*
X0146368Y0182186D02*
X0147231Y0182186D01*
X0148602Y0180587D02*
X0144832Y0180587D01*
X0144721Y0177390D02*
X0149279Y0177390D01*
X0147681Y0175792D02*
X0146319Y0175792D01*
X0146368Y0174193D02*
X0147631Y0174193D01*
X0147631Y0172595D02*
X0146368Y0172595D01*
X0145241Y0170996D02*
X0148759Y0170996D01*
X0155241Y0170996D02*
X0204952Y0170996D01*
X0203800Y0169398D02*
X0140576Y0169398D01*
X0138977Y0167799D02*
X0203800Y0167799D01*
X0203800Y0166201D02*
X0193231Y0166201D01*
X0192802Y0166630D02*
X0191633Y0167114D01*
X0190367Y0167114D01*
X0189198Y0166630D01*
X0188303Y0165735D01*
X0187819Y0164566D01*
X0187819Y0163300D01*
X0188303Y0162131D01*
X0188800Y0161634D01*
X0188800Y0149844D01*
X0187634Y0148678D01*
X0186718Y0149057D01*
X0184282Y0149057D01*
X0182031Y0148125D01*
X0180308Y0146402D01*
X0179376Y0144151D01*
X0179376Y0141715D01*
X0180308Y0139464D01*
X0182031Y0137741D01*
X0184282Y0136809D01*
X0186718Y0136809D01*
X0188969Y0137741D01*
X0190692Y0139464D01*
X0191624Y0141715D01*
X0191624Y0144151D01*
X0190952Y0145774D01*
X0191911Y0146733D01*
X0193200Y0148022D01*
X0193200Y0161634D01*
X0193697Y0162131D01*
X0194181Y0163300D01*
X0194181Y0164566D01*
X0193697Y0165735D01*
X0192802Y0166630D01*
X0194166Y0164602D02*
X0203800Y0164602D01*
X0203800Y0163004D02*
X0194058Y0163004D01*
X0193200Y0161405D02*
X0203800Y0161405D01*
X0203800Y0159807D02*
X0193200Y0159807D01*
X0193200Y0158208D02*
X0203800Y0158208D01*
X0203800Y0156610D02*
X0193200Y0156610D01*
X0193200Y0155011D02*
X0203800Y0155011D01*
X0203800Y0153412D02*
X0193200Y0153412D01*
X0193200Y0151814D02*
X0203800Y0151814D01*
X0203800Y0150215D02*
X0193200Y0150215D01*
X0193200Y0148617D02*
X0203800Y0148617D01*
X0203800Y0147018D02*
X0192197Y0147018D01*
X0191099Y0145420D02*
X0203800Y0145420D01*
X0202777Y0143821D02*
X0191624Y0143821D01*
X0191624Y0142223D02*
X0201179Y0142223D01*
X0199580Y0140624D02*
X0191173Y0140624D01*
X0190254Y0139026D02*
X0197982Y0139026D01*
X0196383Y0137427D02*
X0188212Y0137427D01*
X0182788Y0137427D02*
X0108200Y0137427D01*
X0108200Y0135829D02*
X0194785Y0135829D01*
X0193186Y0134230D02*
X0108200Y0134230D01*
X0108200Y0132632D02*
X0181538Y0132632D01*
X0180155Y0131033D02*
X0108200Y0131033D01*
X0108200Y0129435D02*
X0179493Y0129435D01*
X0179376Y0127836D02*
X0108200Y0127836D01*
X0108200Y0126238D02*
X0179573Y0126238D01*
X0180235Y0124639D02*
X0108200Y0124639D01*
X0108200Y0123041D02*
X0181731Y0123041D01*
X0189269Y0123041D02*
X0264000Y0123041D01*
X0264000Y0124639D02*
X0190765Y0124639D01*
X0191427Y0126238D02*
X0264000Y0126238D01*
X0264000Y0127836D02*
X0193014Y0127836D01*
X0194613Y0129435D02*
X0264000Y0129435D01*
X0264000Y0131033D02*
X0196212Y0131033D01*
X0197810Y0132632D02*
X0264000Y0132632D01*
X0264000Y0134230D02*
X0199409Y0134230D01*
X0201007Y0135829D02*
X0264000Y0135829D01*
X0264000Y0137427D02*
X0202606Y0137427D01*
X0204204Y0139026D02*
X0264000Y0139026D01*
X0264000Y0140624D02*
X0205803Y0140624D01*
X0206000Y0143933D02*
X0190000Y0127933D01*
X0185500Y0127933D01*
X0189462Y0132632D02*
X0191588Y0132632D01*
X0180746Y0139026D02*
X0108200Y0139026D01*
X0108200Y0140624D02*
X0179827Y0140624D01*
X0179376Y0142223D02*
X0108200Y0142223D01*
X0108200Y0143821D02*
X0179376Y0143821D01*
X0179901Y0145420D02*
X0108200Y0145420D01*
X0108200Y0147018D02*
X0180924Y0147018D01*
X0183218Y0148617D02*
X0108200Y0148617D01*
X0108200Y0150215D02*
X0188800Y0150215D01*
X0188800Y0151814D02*
X0108200Y0151814D01*
X0108200Y0153412D02*
X0188800Y0153412D01*
X0188800Y0155011D02*
X0108200Y0155011D01*
X0108200Y0156610D02*
X0188800Y0156610D01*
X0188800Y0158208D02*
X0127734Y0158208D01*
X0124266Y0158208D02*
X0108200Y0158208D01*
X0108200Y0159807D02*
X0123023Y0159807D01*
X0122819Y0161405D02*
X0108200Y0161405D01*
X0108200Y0163004D02*
X0123572Y0163004D01*
X0126000Y0160933D02*
X0129000Y0160933D01*
X0142000Y0173933D01*
X0137631Y0174193D02*
X0136368Y0174193D01*
X0136368Y0172595D02*
X0137550Y0172595D01*
X0135952Y0170996D02*
X0135241Y0170996D01*
X0134353Y0169398D02*
X0109576Y0169398D01*
X0108200Y0167799D02*
X0132755Y0167799D01*
X0131156Y0166201D02*
X0108200Y0166201D01*
X0108200Y0164602D02*
X0129558Y0164602D01*
X0132583Y0161405D02*
X0188800Y0161405D01*
X0188800Y0159807D02*
X0130985Y0159807D01*
X0134182Y0163004D02*
X0187942Y0163004D01*
X0187834Y0164602D02*
X0135780Y0164602D01*
X0137379Y0166201D02*
X0188769Y0166201D01*
X0191000Y0163933D02*
X0191000Y0148933D01*
X0185500Y0143433D01*
X0185500Y0142933D01*
X0208200Y0151814D02*
X0264000Y0151814D01*
X0264000Y0153412D02*
X0208200Y0153412D01*
X0208200Y0155011D02*
X0264000Y0155011D01*
X0264000Y0156610D02*
X0208200Y0156610D01*
X0208200Y0158208D02*
X0264000Y0158208D01*
X0264000Y0159807D02*
X0208200Y0159807D01*
X0208200Y0161405D02*
X0264000Y0161405D01*
X0264000Y0163004D02*
X0208200Y0163004D01*
X0208200Y0164602D02*
X0264000Y0164602D01*
X0264000Y0166201D02*
X0208200Y0166201D01*
X0208200Y0167799D02*
X0264000Y0167799D01*
X0264000Y0169398D02*
X0209576Y0169398D01*
X0212222Y0170996D02*
X0264000Y0170996D01*
X0218439Y0185383D02*
X0156768Y0185383D01*
X0155696Y0186981D02*
X0216841Y0186981D01*
X0215242Y0188580D02*
X0154097Y0188580D01*
X0148304Y0186981D02*
X0145130Y0186981D01*
X0146368Y0185383D02*
X0147231Y0185383D01*
X0151816Y0180587D02*
X0152184Y0180587D01*
X0156319Y0175792D02*
X0208360Y0175792D01*
X0207819Y0174193D02*
X0156368Y0174193D01*
X0156368Y0172595D02*
X0206550Y0172595D01*
X0213644Y0190178D02*
X0140356Y0190178D01*
X0132000Y0184933D02*
X0132000Y0183933D01*
X0127631Y0183784D02*
X0126368Y0183784D01*
X0126368Y0182186D02*
X0127631Y0182186D01*
X0129168Y0180587D02*
X0124832Y0180587D01*
X0122000Y0183933D02*
X0121000Y0183933D01*
X0106000Y0168933D01*
X0106000Y0103933D01*
X0111000Y0098933D01*
X0138157Y0071776D01*
X0148157Y0071776D01*
X0159823Y0071776D01*
X0163842Y0073487D02*
X0264000Y0073487D01*
X0264000Y0075085D02*
X0187523Y0075085D01*
X0187096Y0074909D02*
X0190045Y0076130D01*
X0192303Y0078388D01*
X0193524Y0081337D01*
X0193524Y0084529D01*
X0192303Y0087479D01*
X0190045Y0089736D01*
X0188362Y0090433D01*
X0190045Y0091130D01*
X0192303Y0093388D01*
X0193524Y0096337D01*
X0193524Y0099529D01*
X0192303Y0102479D01*
X0190045Y0104736D01*
X0187096Y0105957D01*
X0183904Y0105957D01*
X0180955Y0104736D01*
X0178697Y0102479D01*
X0177476Y0099529D01*
X0177476Y0096337D01*
X0178697Y0093388D01*
X0180955Y0091130D01*
X0182638Y0090433D01*
X0180955Y0089736D01*
X0178697Y0087479D01*
X0177476Y0084529D01*
X0177476Y0081337D01*
X0178697Y0078388D01*
X0180955Y0076130D01*
X0183904Y0074909D01*
X0187096Y0074909D01*
X0183477Y0075085D02*
X0162691Y0075085D01*
X0161653Y0077593D02*
X0160939Y0077361D01*
X0160198Y0077243D01*
X0160007Y0077243D01*
X0160007Y0081827D01*
X0159639Y0081827D01*
X0159639Y0077243D01*
X0159448Y0077243D01*
X0158706Y0077361D01*
X0157992Y0077593D01*
X0157324Y0077933D01*
X0156716Y0078375D01*
X0156186Y0078905D01*
X0155744Y0079513D01*
X0155404Y0080181D01*
X0155172Y0080895D01*
X0155054Y0081637D01*
X0155054Y0081828D01*
X0159638Y0081828D01*
X0159638Y0082196D01*
X0155054Y0082196D01*
X0155054Y0082387D01*
X0155172Y0083128D01*
X0155404Y0083842D01*
X0155744Y0084511D01*
X0156186Y0085118D01*
X0156716Y0085649D01*
X0157324Y0086090D01*
X0157992Y0086431D01*
X0158706Y0086663D01*
X0159448Y0086780D01*
X0159639Y0086780D01*
X0159639Y0082196D01*
X0160007Y0082196D01*
X0164591Y0082196D01*
X0164591Y0082387D01*
X0164474Y0083128D01*
X0164242Y0083842D01*
X0163901Y0084511D01*
X0163460Y0085118D01*
X0162929Y0085649D01*
X0162322Y0086090D01*
X0161653Y0086431D01*
X0160939Y0086663D01*
X0160198Y0086780D01*
X0160007Y0086780D01*
X0160007Y0082196D01*
X0160007Y0081828D01*
X0164591Y0081828D01*
X0164591Y0081637D01*
X0164474Y0080895D01*
X0164242Y0080181D01*
X0163901Y0079513D01*
X0163460Y0078905D01*
X0162929Y0078375D01*
X0162322Y0077933D01*
X0161653Y0077593D01*
X0162802Y0078282D02*
X0178802Y0078282D01*
X0178079Y0079881D02*
X0164089Y0079881D01*
X0164566Y0081479D02*
X0177476Y0081479D01*
X0177476Y0083078D02*
X0164482Y0083078D01*
X0163781Y0084677D02*
X0177537Y0084677D01*
X0178199Y0086275D02*
X0161959Y0086275D01*
X0160007Y0086275D02*
X0159639Y0086275D01*
X0159639Y0084677D02*
X0160007Y0084677D01*
X0160007Y0083078D02*
X0159639Y0083078D01*
X0159639Y0081479D02*
X0160007Y0081479D01*
X0160007Y0079881D02*
X0159639Y0079881D01*
X0159639Y0078282D02*
X0160007Y0078282D01*
X0156843Y0078282D02*
X0134762Y0078282D01*
X0136360Y0076684D02*
X0180401Y0076684D01*
X0190599Y0076684D02*
X0264000Y0076684D01*
X0264000Y0078282D02*
X0192198Y0078282D01*
X0192921Y0079881D02*
X0264000Y0079881D01*
X0264000Y0081479D02*
X0193524Y0081479D01*
X0193524Y0083078D02*
X0264000Y0083078D01*
X0264000Y0084677D02*
X0193463Y0084677D01*
X0192801Y0086275D02*
X0264000Y0086275D01*
X0264000Y0087874D02*
X0191908Y0087874D01*
X0190309Y0089472D02*
X0204231Y0089472D01*
X0204792Y0089239D02*
X0207208Y0089239D01*
X0209439Y0090164D01*
X0211147Y0091872D01*
X0212072Y0094103D01*
X0212072Y0096519D01*
X0211147Y0098750D01*
X0209587Y0100311D01*
X0211147Y0101872D01*
X0212072Y0104103D01*
X0212072Y0106519D01*
X0211147Y0108750D01*
X0209587Y0110311D01*
X0211147Y0111872D01*
X0212072Y0114103D01*
X0212072Y0116519D01*
X0211147Y0118750D01*
X0209439Y0120458D01*
X0207208Y0121383D01*
X0204792Y0121383D01*
X0202561Y0120458D01*
X0200853Y0118750D01*
X0199928Y0116519D01*
X0199928Y0114103D01*
X0200853Y0111872D01*
X0202413Y0110311D01*
X0200853Y0108750D01*
X0199928Y0106519D01*
X0199928Y0104103D01*
X0200853Y0101872D01*
X0202413Y0100311D01*
X0200853Y0098750D01*
X0199928Y0096519D01*
X0199928Y0094103D01*
X0200853Y0091872D01*
X0202561Y0090164D01*
X0204792Y0089239D01*
X0207769Y0089472D02*
X0264000Y0089472D01*
X0264000Y0091071D02*
X0210346Y0091071D01*
X0211478Y0092669D02*
X0252742Y0092669D01*
X0252463Y0092948D02*
X0253637Y0091774D01*
X0255170Y0091139D01*
X0256830Y0091139D01*
X0258363Y0091774D01*
X0259537Y0092948D01*
X0260172Y0094481D01*
X0260172Y0096141D01*
X0259537Y0097674D01*
X0258363Y0098848D01*
X0256830Y0099483D01*
X0255170Y0099483D01*
X0253637Y0098848D01*
X0252463Y0097674D01*
X0251828Y0096141D01*
X0251828Y0094481D01*
X0252463Y0092948D01*
X0251917Y0094268D02*
X0212072Y0094268D01*
X0212072Y0095866D02*
X0251828Y0095866D01*
X0252377Y0097465D02*
X0211680Y0097465D01*
X0210835Y0099063D02*
X0254157Y0099063D01*
X0255170Y0101139D02*
X0253637Y0101774D01*
X0252463Y0102948D01*
X0251828Y0104481D01*
X0251828Y0106141D01*
X0252463Y0107674D01*
X0253637Y0108848D01*
X0255170Y0109483D01*
X0256830Y0109483D01*
X0258363Y0108848D01*
X0259537Y0107674D01*
X0260172Y0106141D01*
X0260172Y0104481D01*
X0259537Y0102948D01*
X0258363Y0101774D01*
X0256830Y0101139D01*
X0255170Y0101139D01*
X0253151Y0102260D02*
X0211308Y0102260D01*
X0211970Y0103859D02*
X0252086Y0103859D01*
X0251828Y0105457D02*
X0212072Y0105457D01*
X0211849Y0107056D02*
X0252207Y0107056D01*
X0253444Y0108654D02*
X0211187Y0108654D01*
X0209645Y0110253D02*
X0264000Y0110253D01*
X0264000Y0111851D02*
X0258440Y0111851D01*
X0258363Y0111774D02*
X0259537Y0112948D01*
X0260172Y0114481D01*
X0260172Y0116141D01*
X0259537Y0117674D01*
X0258363Y0118848D01*
X0256830Y0119483D01*
X0255170Y0119483D01*
X0253637Y0118848D01*
X0252463Y0117674D01*
X0251828Y0116141D01*
X0251828Y0114481D01*
X0252463Y0112948D01*
X0253637Y0111774D01*
X0255170Y0111139D01*
X0256830Y0111139D01*
X0258363Y0111774D01*
X0259744Y0113450D02*
X0264000Y0113450D01*
X0264000Y0115048D02*
X0260172Y0115048D01*
X0259962Y0116647D02*
X0264000Y0116647D01*
X0264000Y0118245D02*
X0258965Y0118245D01*
X0264000Y0119844D02*
X0210054Y0119844D01*
X0211357Y0118245D02*
X0253035Y0118245D01*
X0252038Y0116647D02*
X0212019Y0116647D01*
X0212072Y0115048D02*
X0251828Y0115048D01*
X0252256Y0113450D02*
X0211801Y0113450D01*
X0211127Y0111851D02*
X0253560Y0111851D01*
X0258556Y0108654D02*
X0264000Y0108654D01*
X0264000Y0107056D02*
X0259793Y0107056D01*
X0260172Y0105457D02*
X0264000Y0105457D01*
X0264000Y0103859D02*
X0259914Y0103859D01*
X0258849Y0102260D02*
X0264000Y0102260D01*
X0264000Y0100662D02*
X0209937Y0100662D01*
X0202063Y0100662D02*
X0193055Y0100662D01*
X0193524Y0099063D02*
X0201165Y0099063D01*
X0200320Y0097465D02*
X0193524Y0097465D01*
X0193329Y0095866D02*
X0199928Y0095866D01*
X0199928Y0094268D02*
X0192667Y0094268D01*
X0191584Y0092669D02*
X0200522Y0092669D01*
X0201654Y0091071D02*
X0189901Y0091071D01*
X0181099Y0091071D02*
X0121974Y0091071D01*
X0120375Y0092669D02*
X0179416Y0092669D01*
X0178333Y0094268D02*
X0118777Y0094268D01*
X0117178Y0095866D02*
X0177671Y0095866D01*
X0177476Y0097465D02*
X0115580Y0097465D01*
X0113981Y0099063D02*
X0177476Y0099063D01*
X0177945Y0100662D02*
X0112383Y0100662D01*
X0110784Y0102260D02*
X0178607Y0102260D01*
X0180077Y0103859D02*
X0109186Y0103859D01*
X0108200Y0105457D02*
X0182696Y0105457D01*
X0188304Y0105457D02*
X0199928Y0105457D01*
X0200030Y0103859D02*
X0190923Y0103859D01*
X0192393Y0102260D02*
X0200692Y0102260D01*
X0200151Y0107056D02*
X0108200Y0107056D01*
X0108200Y0108654D02*
X0200813Y0108654D01*
X0202355Y0110253D02*
X0108200Y0110253D01*
X0108200Y0111851D02*
X0200873Y0111851D01*
X0200199Y0113450D02*
X0152676Y0113450D01*
X0152882Y0113587D02*
X0153446Y0114151D01*
X0153889Y0114815D01*
X0154194Y0115552D01*
X0154350Y0116334D01*
X0154350Y0116733D01*
X0150300Y0116733D01*
X0150300Y0112683D01*
X0150699Y0112683D01*
X0151481Y0112839D01*
X0152218Y0113144D01*
X0152882Y0113587D01*
X0153986Y0115048D02*
X0199928Y0115048D01*
X0199981Y0116647D02*
X0154350Y0116647D01*
X0154350Y0116733D02*
X0154350Y0117132D01*
X0154194Y0117914D01*
X0153889Y0118651D01*
X0153446Y0119315D01*
X0152882Y0119879D01*
X0152218Y0120322D01*
X0151481Y0120627D01*
X0150699Y0120783D01*
X0150300Y0120783D01*
X0150300Y0116733D01*
X0150300Y0116733D01*
X0150300Y0112683D01*
X0149901Y0112683D01*
X0149119Y0112839D01*
X0148382Y0113144D01*
X0147718Y0113587D01*
X0147217Y0114088D01*
X0146768Y0113639D01*
X0145426Y0113083D01*
X0143974Y0113083D01*
X0142632Y0113639D01*
X0141900Y0114371D01*
X0141068Y0113539D01*
X0139726Y0112983D01*
X0138274Y0112983D01*
X0136932Y0113539D01*
X0135906Y0114566D01*
X0135350Y0115907D01*
X0135350Y0117359D01*
X0135906Y0118701D01*
X0136932Y0119727D01*
X0138274Y0120283D01*
X0139726Y0120283D01*
X0141068Y0119727D01*
X0141800Y0118995D01*
X0142632Y0119827D01*
X0143974Y0120383D01*
X0145426Y0120383D01*
X0146768Y0119827D01*
X0147217Y0119378D01*
X0147718Y0119879D01*
X0148382Y0120322D01*
X0149119Y0120627D01*
X0149901Y0120783D01*
X0150300Y0120783D01*
X0150300Y0116733D01*
X0150300Y0116733D01*
X0154350Y0116733D01*
X0154057Y0118245D02*
X0200643Y0118245D01*
X0201946Y0119844D02*
X0152917Y0119844D01*
X0150300Y0119844D02*
X0150300Y0119844D01*
X0150300Y0118245D02*
X0150300Y0118245D01*
X0150300Y0116733D02*
X0150300Y0116733D01*
X0150300Y0116647D02*
X0150300Y0116647D01*
X0150300Y0115048D02*
X0150300Y0115048D01*
X0150300Y0113450D02*
X0150300Y0113450D01*
X0147924Y0113450D02*
X0146311Y0113450D01*
X0143089Y0113450D02*
X0140853Y0113450D01*
X0137147Y0113450D02*
X0108200Y0113450D01*
X0108200Y0115048D02*
X0135706Y0115048D01*
X0135350Y0116647D02*
X0108200Y0116647D01*
X0108200Y0118245D02*
X0135717Y0118245D01*
X0137213Y0119844D02*
X0108200Y0119844D01*
X0108200Y0121442D02*
X0264000Y0121442D01*
X0264000Y0099063D02*
X0257843Y0099063D01*
X0259623Y0097465D02*
X0264000Y0097465D01*
X0264000Y0095866D02*
X0260172Y0095866D01*
X0260083Y0094268D02*
X0264000Y0094268D01*
X0264000Y0092669D02*
X0259258Y0092669D01*
X0264000Y0071888D02*
X0164191Y0071888D01*
X0163936Y0070290D02*
X0264000Y0070290D01*
X0264000Y0068691D02*
X0162917Y0068691D01*
X0162297Y0065637D02*
X0160692Y0066302D01*
X0158954Y0066302D01*
X0157348Y0065637D01*
X0156119Y0064408D01*
X0155454Y0062802D01*
X0155454Y0061064D01*
X0156119Y0059459D01*
X0157348Y0058230D01*
X0158954Y0057565D01*
X0160692Y0057565D01*
X0162297Y0058230D01*
X0163526Y0059459D01*
X0164191Y0061064D01*
X0164191Y0062802D01*
X0163526Y0064408D01*
X0162297Y0065637D01*
X0162440Y0065494D02*
X0264000Y0065494D01*
X0264000Y0063896D02*
X0176337Y0063896D01*
X0177935Y0062297D02*
X0264000Y0062297D01*
X0264000Y0060699D02*
X0223840Y0060699D01*
X0223798Y0060802D02*
X0222869Y0061731D01*
X0221656Y0062233D01*
X0210344Y0062233D01*
X0209131Y0061731D01*
X0208202Y0060802D01*
X0207700Y0059589D01*
X0207700Y0048277D01*
X0208202Y0047064D01*
X0209131Y0046135D01*
X0210344Y0045633D01*
X0221656Y0045633D01*
X0222869Y0046135D01*
X0223798Y0047064D01*
X0224300Y0048277D01*
X0224300Y0059589D01*
X0223798Y0060802D01*
X0224300Y0059100D02*
X0264000Y0059100D01*
X0264000Y0057502D02*
X0224300Y0057502D01*
X0224300Y0055903D02*
X0264000Y0055903D01*
X0264000Y0054305D02*
X0224300Y0054305D01*
X0224300Y0052706D02*
X0264000Y0052706D01*
X0264000Y0051108D02*
X0224300Y0051108D01*
X0224300Y0049509D02*
X0264000Y0049509D01*
X0264000Y0047911D02*
X0224148Y0047911D01*
X0223046Y0046312D02*
X0264000Y0046312D01*
X0264000Y0044714D02*
X0177519Y0044714D01*
X0179070Y0046312D02*
X0187709Y0046312D01*
X0186298Y0046897D02*
X0189349Y0045633D01*
X0192651Y0045633D01*
X0195702Y0046897D01*
X0198036Y0049231D01*
X0199300Y0052282D01*
X0199300Y0055584D01*
X0198036Y0058635D01*
X0195702Y0060969D01*
X0192651Y0062233D01*
X0189349Y0062233D01*
X0186298Y0060969D01*
X0183964Y0058635D01*
X0182700Y0055584D01*
X0182700Y0052282D01*
X0183964Y0049231D01*
X0186298Y0046897D01*
X0185284Y0047911D02*
X0179732Y0047911D01*
X0180300Y0049509D02*
X0183849Y0049509D01*
X0183186Y0051108D02*
X0180300Y0051108D01*
X0180249Y0052706D02*
X0182700Y0052706D01*
X0182700Y0054305D02*
X0179587Y0054305D01*
X0179000Y0055903D02*
X0182832Y0055903D01*
X0183494Y0057502D02*
X0179000Y0057502D01*
X0179000Y0059100D02*
X0184429Y0059100D01*
X0186028Y0060699D02*
X0178597Y0060699D01*
X0167663Y0063896D02*
X0163738Y0063896D01*
X0164191Y0062297D02*
X0166065Y0062297D01*
X0165403Y0060699D02*
X0164040Y0060699D01*
X0163168Y0059100D02*
X0165000Y0059100D01*
X0165000Y0057502D02*
X0144169Y0057502D01*
X0142571Y0059100D02*
X0156478Y0059100D01*
X0155606Y0060699D02*
X0140972Y0060699D01*
X0139374Y0062297D02*
X0155454Y0062297D01*
X0155907Y0063896D02*
X0137775Y0063896D01*
X0136177Y0065494D02*
X0157206Y0065494D01*
X0156729Y0068691D02*
X0132980Y0068691D01*
X0134578Y0067093D02*
X0264000Y0067093D01*
X0264000Y0043115D02*
X0175920Y0043115D01*
X0174322Y0041517D02*
X0187620Y0041517D01*
X0185247Y0039918D02*
X0172723Y0039918D01*
X0171125Y0038320D02*
X0183833Y0038320D01*
X0183171Y0036721D02*
X0169278Y0036721D01*
X0182700Y0035123D02*
X0109789Y0035123D01*
X0109665Y0034999D02*
X0111634Y0036968D01*
X0112700Y0039541D01*
X0112700Y0042325D01*
X0111634Y0044898D01*
X0110599Y0045933D01*
X0111634Y0046968D01*
X0112700Y0049541D01*
X0112700Y0052325D01*
X0111634Y0054898D01*
X0109665Y0056867D01*
X0107092Y0057933D01*
X0096908Y0057933D01*
X0094335Y0056867D01*
X0092366Y0054898D01*
X0091300Y0052325D01*
X0091300Y0049541D01*
X0092366Y0046968D01*
X0093401Y0045933D01*
X0092366Y0044898D01*
X0091300Y0042325D01*
X0091300Y0039541D01*
X0092366Y0036968D01*
X0094335Y0034999D01*
X0096908Y0033933D01*
X0107092Y0033933D01*
X0109665Y0034999D01*
X0111388Y0036721D02*
X0141722Y0036721D01*
X0139875Y0038320D02*
X0112194Y0038320D01*
X0112700Y0039918D02*
X0138277Y0039918D01*
X0136678Y0041517D02*
X0112700Y0041517D01*
X0112373Y0043115D02*
X0135080Y0043115D01*
X0133481Y0044714D02*
X0111711Y0044714D01*
X0110979Y0046312D02*
X0131883Y0046312D01*
X0130284Y0047911D02*
X0112025Y0047911D01*
X0112687Y0049509D02*
X0128686Y0049509D01*
X0127087Y0051108D02*
X0112700Y0051108D01*
X0112542Y0052706D02*
X0125489Y0052706D01*
X0123890Y0054305D02*
X0111880Y0054305D01*
X0110629Y0055903D02*
X0122292Y0055903D01*
X0120693Y0057502D02*
X0108134Y0057502D01*
X0115898Y0062297D02*
X0046102Y0062297D01*
X0047701Y0063896D02*
X0114299Y0063896D01*
X0112701Y0065494D02*
X0049299Y0065494D01*
X0053972Y0060699D02*
X0117496Y0060699D01*
X0119095Y0059100D02*
X0055571Y0059100D01*
X0056506Y0057502D02*
X0095866Y0057502D01*
X0093371Y0055903D02*
X0057168Y0055903D01*
X0057300Y0054305D02*
X0092120Y0054305D01*
X0091458Y0052706D02*
X0057300Y0052706D01*
X0056814Y0051108D02*
X0091300Y0051108D01*
X0091313Y0049509D02*
X0056151Y0049509D01*
X0054716Y0047911D02*
X0091975Y0047911D01*
X0093021Y0046312D02*
X0052291Y0046312D01*
X0045709Y0046312D02*
X0037300Y0046312D01*
X0037300Y0044714D02*
X0092289Y0044714D01*
X0091627Y0043115D02*
X0037300Y0043115D01*
X0037300Y0041517D02*
X0045620Y0041517D01*
X0043247Y0039918D02*
X0037300Y0039918D01*
X0037300Y0038320D02*
X0041833Y0038320D01*
X0041171Y0036721D02*
X0037300Y0036721D01*
X0037300Y0035123D02*
X0040700Y0035123D01*
X0040700Y0033524D02*
X0037300Y0033524D01*
X0037300Y0031926D02*
X0040848Y0031926D01*
X0041510Y0030327D02*
X0037132Y0030327D01*
X0020868Y0030327D02*
X0017847Y0030327D01*
X0018509Y0031926D02*
X0020700Y0031926D01*
X0020700Y0033524D02*
X0018705Y0033524D01*
X0018705Y0035123D02*
X0020700Y0035123D01*
X0020700Y0036721D02*
X0018186Y0036721D01*
X0017511Y0038320D02*
X0020700Y0038320D01*
X0020700Y0039918D02*
X0015912Y0039918D01*
X0012827Y0041517D02*
X0020700Y0041517D01*
X0020700Y0043115D02*
X0011000Y0043115D01*
X0011000Y0044714D02*
X0020700Y0044714D01*
X0020700Y0046312D02*
X0011000Y0046312D01*
X0011000Y0047911D02*
X0020700Y0047911D01*
X0020700Y0049509D02*
X0011000Y0049509D01*
X0011000Y0051108D02*
X0020700Y0051108D01*
X0020700Y0052706D02*
X0011000Y0052706D01*
X0011000Y0054305D02*
X0020700Y0054305D01*
X0020700Y0055903D02*
X0011000Y0055903D01*
X0011000Y0057502D02*
X0020700Y0057502D01*
X0020914Y0059100D02*
X0011000Y0059100D01*
X0011000Y0060699D02*
X0021576Y0060699D01*
X0022626Y0062297D02*
X0011000Y0062297D01*
X0011000Y0063896D02*
X0024225Y0063896D01*
X0025823Y0065494D02*
X0011000Y0065494D01*
X0011000Y0067093D02*
X0027422Y0067093D01*
X0029020Y0068691D02*
X0011000Y0068691D01*
X0011000Y0070290D02*
X0030619Y0070290D01*
X0032217Y0071888D02*
X0011000Y0071888D01*
X0011000Y0073487D02*
X0033816Y0073487D01*
X0035414Y0075085D02*
X0011000Y0075085D01*
X0011000Y0076684D02*
X0018739Y0076684D01*
X0019404Y0076409D02*
X0022596Y0076409D01*
X0025545Y0077630D01*
X0027803Y0079888D01*
X0029024Y0082837D01*
X0029024Y0086029D01*
X0027803Y0088979D01*
X0025545Y0091236D01*
X0023862Y0091933D01*
X0025545Y0092630D01*
X0027803Y0094888D01*
X0029024Y0097837D01*
X0029024Y0101029D01*
X0027803Y0103979D01*
X0025545Y0106236D01*
X0022596Y0107457D01*
X0019404Y0107457D01*
X0016455Y0106236D01*
X0014197Y0103979D01*
X0012976Y0101029D01*
X0012976Y0097837D01*
X0014197Y0094888D01*
X0016455Y0092630D01*
X0018138Y0091933D01*
X0016455Y0091236D01*
X0014197Y0088979D01*
X0012976Y0086029D01*
X0012976Y0082837D01*
X0014197Y0079888D01*
X0016455Y0077630D01*
X0019404Y0076409D01*
X0023261Y0076684D02*
X0037013Y0076684D01*
X0038611Y0078282D02*
X0026198Y0078282D01*
X0027796Y0079881D02*
X0040210Y0079881D01*
X0042530Y0081479D02*
X0028462Y0081479D01*
X0029024Y0083078D02*
X0123744Y0083078D01*
X0125342Y0081479D02*
X0119470Y0081479D01*
X0121790Y0079881D02*
X0126941Y0079881D01*
X0128539Y0078282D02*
X0123389Y0078282D01*
X0124987Y0076684D02*
X0130138Y0076684D01*
X0131736Y0075085D02*
X0126586Y0075085D01*
X0128184Y0073487D02*
X0133335Y0073487D01*
X0134933Y0071888D02*
X0129783Y0071888D01*
X0131381Y0070290D02*
X0136532Y0070290D01*
X0137959Y0075085D02*
X0156955Y0075085D01*
X0155557Y0079881D02*
X0133163Y0079881D01*
X0131565Y0081479D02*
X0155079Y0081479D01*
X0155164Y0083078D02*
X0129966Y0083078D01*
X0128368Y0084677D02*
X0155865Y0084677D01*
X0157686Y0086275D02*
X0126769Y0086275D01*
X0125171Y0087874D02*
X0179092Y0087874D01*
X0180691Y0089472D02*
X0123572Y0089472D01*
X0120547Y0086275D02*
X0028923Y0086275D01*
X0029024Y0084677D02*
X0122145Y0084677D01*
X0118948Y0087874D02*
X0028260Y0087874D01*
X0027309Y0089472D02*
X0044231Y0089472D01*
X0044792Y0089239D02*
X0047208Y0089239D01*
X0049439Y0090164D01*
X0051147Y0091872D01*
X0052072Y0094103D01*
X0052072Y0096519D01*
X0051147Y0098750D01*
X0049587Y0100311D01*
X0051147Y0101872D01*
X0052072Y0104103D01*
X0052072Y0106519D01*
X0051147Y0108750D01*
X0049587Y0110311D01*
X0051147Y0111872D01*
X0052072Y0114103D01*
X0052072Y0116519D01*
X0051147Y0118750D01*
X0049439Y0120458D01*
X0047208Y0121383D01*
X0044792Y0121383D01*
X0042561Y0120458D01*
X0040853Y0118750D01*
X0039928Y0116519D01*
X0039928Y0114103D01*
X0040853Y0111872D01*
X0042413Y0110311D01*
X0040853Y0108750D01*
X0039928Y0106519D01*
X0039928Y0104103D01*
X0040853Y0101872D01*
X0042413Y0100311D01*
X0040853Y0098750D01*
X0039928Y0096519D01*
X0039928Y0094103D01*
X0040853Y0091872D01*
X0042561Y0090164D01*
X0044792Y0089239D01*
X0047769Y0089472D02*
X0094231Y0089472D01*
X0094792Y0089239D02*
X0097208Y0089239D01*
X0099439Y0090164D01*
X0101147Y0091872D01*
X0102072Y0094103D01*
X0102072Y0096519D01*
X0101147Y0098750D01*
X0099587Y0100311D01*
X0101147Y0101872D01*
X0102072Y0104103D01*
X0102072Y0106519D01*
X0101147Y0108750D01*
X0099587Y0110311D01*
X0101147Y0111872D01*
X0102072Y0114103D01*
X0102072Y0116519D01*
X0101147Y0118750D01*
X0099439Y0120458D01*
X0097208Y0121383D01*
X0094792Y0121383D01*
X0092561Y0120458D01*
X0090853Y0118750D01*
X0089928Y0116519D01*
X0089928Y0114103D01*
X0090853Y0111872D01*
X0092413Y0110311D01*
X0090853Y0108750D01*
X0089928Y0106519D01*
X0089928Y0104103D01*
X0090853Y0101872D01*
X0092413Y0100311D01*
X0090853Y0098750D01*
X0089928Y0096519D01*
X0089928Y0094103D01*
X0090853Y0091872D01*
X0092561Y0090164D01*
X0094792Y0089239D01*
X0097769Y0089472D02*
X0117350Y0089472D01*
X0115751Y0091071D02*
X0100346Y0091071D01*
X0101478Y0092669D02*
X0114153Y0092669D01*
X0112554Y0094268D02*
X0102072Y0094268D01*
X0102072Y0095866D02*
X0110956Y0095866D01*
X0109357Y0097465D02*
X0101680Y0097465D01*
X0100835Y0099063D02*
X0107759Y0099063D01*
X0106160Y0100662D02*
X0099937Y0100662D01*
X0101308Y0102260D02*
X0104562Y0102260D01*
X0103800Y0103859D02*
X0101970Y0103859D01*
X0102072Y0105457D02*
X0103800Y0105457D01*
X0103800Y0107056D02*
X0101849Y0107056D01*
X0101187Y0108654D02*
X0103800Y0108654D01*
X0103800Y0110253D02*
X0099645Y0110253D01*
X0101127Y0111851D02*
X0103800Y0111851D01*
X0103800Y0113450D02*
X0101801Y0113450D01*
X0102072Y0115048D02*
X0103800Y0115048D01*
X0103800Y0116647D02*
X0102019Y0116647D01*
X0101357Y0118245D02*
X0103800Y0118245D01*
X0103800Y0119844D02*
X0100054Y0119844D01*
X0103800Y0121442D02*
X0011000Y0121442D01*
X0011000Y0119844D02*
X0041946Y0119844D01*
X0040643Y0118245D02*
X0011000Y0118245D01*
X0011000Y0116647D02*
X0039981Y0116647D01*
X0039928Y0115048D02*
X0011000Y0115048D01*
X0011000Y0113450D02*
X0040199Y0113450D01*
X0040873Y0111851D02*
X0011000Y0111851D01*
X0011000Y0110253D02*
X0042355Y0110253D01*
X0040813Y0108654D02*
X0011000Y0108654D01*
X0011000Y0107056D02*
X0018434Y0107056D01*
X0015676Y0105457D02*
X0011000Y0105457D01*
X0011000Y0103859D02*
X0014148Y0103859D01*
X0013485Y0102260D02*
X0011000Y0102260D01*
X0011000Y0100662D02*
X0012976Y0100662D01*
X0012976Y0099063D02*
X0011000Y0099063D01*
X0011000Y0097465D02*
X0013130Y0097465D01*
X0013792Y0095866D02*
X0011000Y0095866D01*
X0011000Y0094268D02*
X0014817Y0094268D01*
X0016416Y0092669D02*
X0011000Y0092669D01*
X0011000Y0091071D02*
X0016289Y0091071D01*
X0014691Y0089472D02*
X0011000Y0089472D01*
X0011000Y0087874D02*
X0013740Y0087874D01*
X0013077Y0086275D02*
X0011000Y0086275D01*
X0011000Y0084677D02*
X0012976Y0084677D01*
X0012976Y0083078D02*
X0011000Y0083078D01*
X0011000Y0081479D02*
X0013538Y0081479D01*
X0014204Y0079881D02*
X0011000Y0079881D01*
X0011000Y0078282D02*
X0015802Y0078282D01*
X0025711Y0091071D02*
X0041654Y0091071D01*
X0040522Y0092669D02*
X0025584Y0092669D01*
X0027183Y0094268D02*
X0039928Y0094268D01*
X0039928Y0095866D02*
X0028208Y0095866D01*
X0028870Y0097465D02*
X0040320Y0097465D01*
X0041165Y0099063D02*
X0029024Y0099063D01*
X0029024Y0100662D02*
X0042063Y0100662D01*
X0040692Y0102260D02*
X0028515Y0102260D01*
X0027852Y0103859D02*
X0040030Y0103859D01*
X0039928Y0105457D02*
X0026324Y0105457D01*
X0023566Y0107056D02*
X0040151Y0107056D01*
X0049645Y0110253D02*
X0092355Y0110253D01*
X0090873Y0111851D02*
X0051127Y0111851D01*
X0051801Y0113450D02*
X0090199Y0113450D01*
X0089928Y0115048D02*
X0052072Y0115048D01*
X0052019Y0116647D02*
X0089981Y0116647D01*
X0090643Y0118245D02*
X0051357Y0118245D01*
X0050054Y0119844D02*
X0091946Y0119844D01*
X0103800Y0123041D02*
X0011000Y0123041D01*
X0011000Y0124639D02*
X0017133Y0124639D01*
X0017531Y0124241D02*
X0019782Y0123309D01*
X0022218Y0123309D01*
X0024469Y0124241D01*
X0026192Y0125964D01*
X0027124Y0128215D01*
X0027124Y0130651D01*
X0026192Y0132902D01*
X0024469Y0134625D01*
X0022218Y0135557D01*
X0019782Y0135557D01*
X0017531Y0134625D01*
X0015808Y0132902D01*
X0014876Y0130651D01*
X0014876Y0128215D01*
X0015808Y0125964D01*
X0017531Y0124241D01*
X0015695Y0126238D02*
X0011000Y0126238D01*
X0011000Y0127836D02*
X0015032Y0127836D01*
X0014876Y0129435D02*
X0011000Y0129435D01*
X0011000Y0131033D02*
X0015034Y0131033D01*
X0015696Y0132632D02*
X0011000Y0132632D01*
X0011000Y0134230D02*
X0017136Y0134230D01*
X0019782Y0138309D02*
X0022218Y0138309D01*
X0024469Y0139241D01*
X0026192Y0140964D01*
X0027124Y0143215D01*
X0027124Y0145651D01*
X0026192Y0147902D01*
X0024469Y0149625D01*
X0022218Y0150557D01*
X0019782Y0150557D01*
X0017531Y0149625D01*
X0015808Y0147902D01*
X0014876Y0145651D01*
X0014876Y0143215D01*
X0015808Y0140964D01*
X0017531Y0139241D01*
X0019782Y0138309D01*
X0018050Y0139026D02*
X0011000Y0139026D01*
X0011000Y0140624D02*
X0016147Y0140624D01*
X0015286Y0142223D02*
X0011000Y0142223D01*
X0011000Y0143821D02*
X0014876Y0143821D01*
X0014876Y0145420D02*
X0011000Y0145420D01*
X0011000Y0147018D02*
X0015442Y0147018D01*
X0016523Y0148617D02*
X0011000Y0148617D01*
X0011000Y0150215D02*
X0018956Y0150215D01*
X0023044Y0150215D02*
X0103800Y0150215D01*
X0103800Y0148617D02*
X0082187Y0148617D01*
X0081712Y0148813D02*
X0080288Y0148813D01*
X0078971Y0148268D01*
X0077964Y0147261D01*
X0077419Y0145945D01*
X0077419Y0144520D01*
X0077964Y0143204D01*
X0078971Y0142196D01*
X0080288Y0141651D01*
X0081712Y0141651D01*
X0083029Y0142196D01*
X0084036Y0143204D01*
X0084581Y0144520D01*
X0084581Y0145945D01*
X0084036Y0147261D01*
X0083029Y0148268D01*
X0081712Y0148813D01*
X0079813Y0148617D02*
X0073100Y0148617D01*
X0072886Y0148760D02*
X0072161Y0149060D01*
X0071392Y0149213D01*
X0071000Y0149213D01*
X0070608Y0149213D01*
X0069839Y0149060D01*
X0069114Y0148760D01*
X0068462Y0148325D01*
X0067908Y0147770D01*
X0067472Y0147118D01*
X0067172Y0146394D01*
X0067019Y0145624D01*
X0067019Y0145232D01*
X0067019Y0144840D01*
X0067172Y0144071D01*
X0067472Y0143347D01*
X0067908Y0142694D01*
X0068462Y0142140D01*
X0069114Y0141704D01*
X0069839Y0141404D01*
X0070608Y0141251D01*
X0071000Y0141251D01*
X0071392Y0141251D01*
X0072161Y0141404D01*
X0072886Y0141704D01*
X0073538Y0142140D01*
X0074092Y0142694D01*
X0074528Y0143347D01*
X0074828Y0144071D01*
X0074981Y0144840D01*
X0074981Y0145232D01*
X0071000Y0145232D01*
X0071000Y0141251D01*
X0071000Y0145232D01*
X0071000Y0145232D01*
X0071000Y0145232D01*
X0067019Y0145232D01*
X0071000Y0145232D01*
X0071000Y0145232D01*
X0074981Y0145232D01*
X0074981Y0145624D01*
X0074828Y0146394D01*
X0074528Y0147118D01*
X0074092Y0147770D01*
X0073538Y0148325D01*
X0072886Y0148760D01*
X0071000Y0148617D02*
X0071000Y0148617D01*
X0071000Y0149213D02*
X0071000Y0145232D01*
X0071000Y0145232D01*
X0071000Y0149213D01*
X0068900Y0148617D02*
X0062187Y0148617D01*
X0061712Y0148813D02*
X0060288Y0148813D01*
X0058971Y0148268D01*
X0057964Y0147261D01*
X0057419Y0145945D01*
X0057419Y0144520D01*
X0057964Y0143204D01*
X0058971Y0142196D01*
X0060288Y0141651D01*
X0061712Y0141651D01*
X0063029Y0142196D01*
X0064036Y0143204D01*
X0064581Y0144520D01*
X0064581Y0145945D01*
X0064036Y0147261D01*
X0063029Y0148268D01*
X0061712Y0148813D01*
X0059813Y0148617D02*
X0025477Y0148617D01*
X0026558Y0147018D02*
X0057864Y0147018D01*
X0057419Y0145420D02*
X0027124Y0145420D01*
X0027124Y0143821D02*
X0057708Y0143821D01*
X0058945Y0142223D02*
X0026714Y0142223D01*
X0025853Y0140624D02*
X0103800Y0140624D01*
X0103800Y0139026D02*
X0023950Y0139026D01*
X0024864Y0134230D02*
X0103800Y0134230D01*
X0103800Y0132632D02*
X0026304Y0132632D01*
X0026966Y0131033D02*
X0103800Y0131033D01*
X0103800Y0129435D02*
X0027124Y0129435D01*
X0026968Y0127836D02*
X0103800Y0127836D01*
X0103800Y0126238D02*
X0026305Y0126238D01*
X0024867Y0124639D02*
X0103800Y0124639D01*
X0103800Y0135829D02*
X0011000Y0135829D01*
X0011000Y0137427D02*
X0103800Y0137427D01*
X0103800Y0142223D02*
X0083055Y0142223D01*
X0084292Y0143821D02*
X0103800Y0143821D01*
X0103800Y0145420D02*
X0084581Y0145420D01*
X0084136Y0147018D02*
X0103800Y0147018D01*
X0103800Y0151814D02*
X0011000Y0151814D01*
X0011000Y0153412D02*
X0103800Y0153412D01*
X0103800Y0155011D02*
X0011000Y0155011D01*
X0011000Y0156610D02*
X0103800Y0156610D01*
X0103800Y0158208D02*
X0011000Y0158208D01*
X0011000Y0159807D02*
X0103800Y0159807D01*
X0103800Y0161405D02*
X0011000Y0161405D01*
X0011000Y0163004D02*
X0103800Y0163004D01*
X0103800Y0164602D02*
X0011000Y0164602D01*
X0011000Y0166201D02*
X0103800Y0166201D01*
X0103800Y0167799D02*
X0011000Y0167799D01*
X0011000Y0169398D02*
X0103800Y0169398D01*
X0104952Y0170996D02*
X0011000Y0170996D01*
X0011000Y0172595D02*
X0106550Y0172595D01*
X0108149Y0174193D02*
X0011000Y0174193D01*
X0011000Y0175792D02*
X0109747Y0175792D01*
X0111346Y0177390D02*
X0011000Y0177390D01*
X0011000Y0178989D02*
X0112944Y0178989D01*
X0114543Y0180587D02*
X0011000Y0180587D01*
X0011000Y0182186D02*
X0116141Y0182186D01*
X0117631Y0183784D02*
X0011000Y0183784D01*
X0011000Y0185383D02*
X0117631Y0185383D01*
X0118870Y0186981D02*
X0011000Y0186981D01*
X0017949Y0198171D02*
X0264000Y0198171D01*
X0264000Y0199769D02*
X0017163Y0199769D01*
X0125130Y0186981D02*
X0128870Y0186981D01*
X0127631Y0185383D02*
X0126368Y0185383D01*
X0136319Y0175792D02*
X0137681Y0175792D01*
X0077864Y0147018D02*
X0074569Y0147018D01*
X0074981Y0145420D02*
X0077419Y0145420D01*
X0077708Y0143821D02*
X0074725Y0143821D01*
X0073621Y0142223D02*
X0078945Y0142223D01*
X0071000Y0142223D02*
X0071000Y0142223D01*
X0071000Y0143821D02*
X0071000Y0143821D01*
X0071000Y0145420D02*
X0071000Y0145420D01*
X0071000Y0147018D02*
X0071000Y0147018D01*
X0067431Y0147018D02*
X0064136Y0147018D01*
X0064581Y0145420D02*
X0067019Y0145420D01*
X0067275Y0143821D02*
X0064292Y0143821D01*
X0063055Y0142223D02*
X0068379Y0142223D01*
X0140787Y0119844D02*
X0142672Y0119844D01*
X0146728Y0119844D02*
X0147683Y0119844D01*
X0090813Y0108654D02*
X0051187Y0108654D01*
X0051849Y0107056D02*
X0090151Y0107056D01*
X0089928Y0105457D02*
X0052072Y0105457D01*
X0051970Y0103859D02*
X0090030Y0103859D01*
X0090692Y0102260D02*
X0051308Y0102260D01*
X0049937Y0100662D02*
X0092063Y0100662D01*
X0091165Y0099063D02*
X0050835Y0099063D01*
X0051680Y0097465D02*
X0090320Y0097465D01*
X0089928Y0095866D02*
X0052072Y0095866D01*
X0052072Y0094268D02*
X0089928Y0094268D01*
X0090522Y0092669D02*
X0051478Y0092669D01*
X0050346Y0091071D02*
X0091654Y0091071D01*
X0041494Y0057502D02*
X0041307Y0057502D01*
X0040832Y0055903D02*
X0039708Y0055903D01*
X0040700Y0054305D02*
X0038110Y0054305D01*
X0037300Y0052706D02*
X0040700Y0052706D01*
X0041186Y0051108D02*
X0037300Y0051108D01*
X0037300Y0049509D02*
X0041849Y0049509D01*
X0043284Y0047911D02*
X0037300Y0047911D01*
X0052380Y0041517D02*
X0091300Y0041517D01*
X0091300Y0039918D02*
X0054753Y0039918D01*
X0056167Y0038320D02*
X0091806Y0038320D01*
X0092612Y0036721D02*
X0056829Y0036721D01*
X0057300Y0035123D02*
X0094211Y0035123D01*
X0057300Y0033524D02*
X0182700Y0033524D01*
X0182848Y0031926D02*
X0057152Y0031926D01*
X0056490Y0030327D02*
X0183510Y0030327D01*
X0198490Y0030327D02*
X0207700Y0030327D01*
X0207700Y0031926D02*
X0199152Y0031926D01*
X0199300Y0033524D02*
X0207700Y0033524D01*
X0207700Y0035123D02*
X0199300Y0035123D01*
X0198829Y0036721D02*
X0207700Y0036721D01*
X0207700Y0038320D02*
X0198167Y0038320D01*
X0196753Y0039918D02*
X0207836Y0039918D01*
X0208917Y0041517D02*
X0194380Y0041517D01*
X0194291Y0046312D02*
X0208954Y0046312D01*
X0207852Y0047911D02*
X0196716Y0047911D01*
X0198151Y0049509D02*
X0207700Y0049509D01*
X0207700Y0051108D02*
X0198814Y0051108D01*
X0199300Y0052706D02*
X0207700Y0052706D01*
X0207700Y0054305D02*
X0199300Y0054305D01*
X0199168Y0055903D02*
X0207700Y0055903D01*
X0207700Y0057502D02*
X0198506Y0057502D01*
X0197571Y0059100D02*
X0207700Y0059100D01*
X0208160Y0060699D02*
X0195972Y0060699D01*
X0165000Y0055903D02*
X0145768Y0055903D01*
X0147366Y0054305D02*
X0163634Y0054305D01*
X0162035Y0052706D02*
X0148965Y0052706D01*
X0223083Y0041517D02*
X0264000Y0041517D01*
X0264000Y0039918D02*
X0224164Y0039918D01*
X0224300Y0038320D02*
X0264000Y0038320D01*
X0263814Y0036721D02*
X0224300Y0036721D01*
X0224300Y0035123D02*
X0263294Y0035123D01*
X0263294Y0033524D02*
X0224300Y0033524D01*
X0224300Y0031926D02*
X0263491Y0031926D01*
X0264000Y0030327D02*
X0224300Y0030327D01*
D22*
X0152000Y0158933D03*
X0137000Y0158933D03*
X0126000Y0160933D03*
X0191000Y0163933D03*
X0211000Y0173933D03*
X0231000Y0175933D03*
X0261000Y0172933D03*
X0224000Y0199933D03*
X0069000Y0199933D03*
X0054000Y0174933D03*
D23*
X0046000Y0073933D02*
X0116000Y0073933D01*
X0146000Y0043933D01*
X0165000Y0043933D01*
X0172000Y0050933D01*
X0046000Y0073933D02*
X0029000Y0056933D01*
X0029000Y0053933D01*
X0029000Y0033933D01*
M02*
