G75*
%MOIN*%
%OFA0B0*%
%FSLAX25Y25*%
%IPPOS*%
%LPD*%
%AMOC8*
5,1,8,0,0,1.08239X$1,22.5*
%
%ADD10C,0.00100*%
%ADD11C,0.00600*%
%ADD12C,0.00500*%
%ADD13C,0.00800*%
%ADD14C,0.00400*%
%ADD15R,0.02400X0.06200*%
%ADD16R,0.02000X0.02000*%
%ADD17C,0.00300*%
%ADD18C,0.00200*%
%ADD19C,0.01000*%
D10*
X0122145Y0072450D02*
X0123146Y0072450D01*
X0123618Y0072450D02*
X0124619Y0072450D01*
X0125092Y0072450D02*
X0125842Y0072450D01*
X0126092Y0072700D01*
X0126092Y0073701D01*
X0125842Y0073951D01*
X0125092Y0073951D01*
X0125092Y0072450D01*
X0124119Y0073201D02*
X0123618Y0073201D01*
X0123618Y0073951D02*
X0123618Y0072450D01*
X0122145Y0072450D02*
X0122145Y0073951D01*
X0123618Y0073951D02*
X0124619Y0073951D01*
X0126565Y0073201D02*
X0127316Y0073951D01*
X0127316Y0072450D01*
X0127566Y0073201D02*
X0126565Y0073201D01*
X0126699Y0073600D02*
X0126699Y0075101D01*
X0127699Y0075101D01*
X0128172Y0074851D02*
X0128422Y0075101D01*
X0128923Y0075101D01*
X0129173Y0074851D01*
X0129173Y0074601D01*
X0128172Y0073600D01*
X0129173Y0073600D01*
X0127199Y0074351D02*
X0126699Y0074351D01*
X0129857Y0091700D02*
X0130858Y0091700D01*
X0131108Y0091950D01*
X0131108Y0092451D01*
X0130858Y0092701D01*
X0130858Y0093173D02*
X0130608Y0093173D01*
X0130357Y0093423D01*
X0130357Y0093924D01*
X0130608Y0094174D01*
X0130858Y0094174D01*
X0131108Y0093924D01*
X0131108Y0093423D01*
X0130858Y0093173D01*
X0130357Y0093423D02*
X0130107Y0093173D01*
X0129857Y0093173D01*
X0129607Y0093423D01*
X0129607Y0093924D01*
X0129857Y0094174D01*
X0130107Y0094174D01*
X0130357Y0093924D01*
X0129857Y0092701D02*
X0129607Y0092451D01*
X0129607Y0091950D01*
X0129857Y0091700D01*
X0142607Y0091950D02*
X0142857Y0091700D01*
X0143858Y0091700D01*
X0144108Y0091950D01*
X0144108Y0092451D01*
X0143858Y0092701D01*
X0143858Y0093173D02*
X0144108Y0093173D01*
X0143858Y0093173D02*
X0142857Y0094174D01*
X0142607Y0094174D01*
X0142607Y0093173D01*
X0142857Y0092701D02*
X0142607Y0092451D01*
X0142607Y0091950D01*
X0159607Y0091950D02*
X0159857Y0091700D01*
X0160858Y0091700D01*
X0161108Y0091950D01*
X0161108Y0092451D01*
X0160858Y0092701D01*
X0160858Y0093173D02*
X0161108Y0093423D01*
X0161108Y0093924D01*
X0160858Y0094174D01*
X0160608Y0094174D01*
X0160357Y0093924D01*
X0160357Y0093173D01*
X0160858Y0093173D01*
X0160357Y0093173D02*
X0159857Y0093674D01*
X0159607Y0094174D01*
X0159857Y0092701D02*
X0159607Y0092451D01*
X0159607Y0091950D01*
X0172607Y0091950D02*
X0172857Y0091700D01*
X0173858Y0091700D01*
X0174108Y0091950D01*
X0174108Y0092451D01*
X0173858Y0092701D01*
X0174108Y0093173D02*
X0174108Y0094174D01*
X0174108Y0093674D02*
X0172607Y0093674D01*
X0173107Y0093173D01*
X0172857Y0092701D02*
X0172607Y0092451D01*
X0172607Y0091950D01*
X0172857Y0094647D02*
X0172607Y0094897D01*
X0172607Y0095397D01*
X0172857Y0095647D01*
X0173858Y0094647D01*
X0174108Y0094897D01*
X0174108Y0095397D01*
X0173858Y0095647D01*
X0172857Y0095647D01*
X0172857Y0094647D02*
X0173858Y0094647D01*
X0128172Y0053601D02*
X0128172Y0052100D01*
X0127672Y0052100D02*
X0128673Y0052100D01*
X0127672Y0053101D02*
X0128172Y0053601D01*
X0127199Y0053601D02*
X0126199Y0053601D01*
X0126199Y0052100D01*
X0126199Y0052851D02*
X0126699Y0052851D01*
X0230645Y0017117D02*
X0230645Y0016383D01*
X0230829Y0016200D01*
X0231196Y0016200D01*
X0231379Y0016383D01*
X0231750Y0016383D02*
X0231934Y0016200D01*
X0232484Y0016200D01*
X0232855Y0016200D02*
X0232855Y0016934D01*
X0233222Y0017301D01*
X0233589Y0016934D01*
X0233589Y0016200D01*
X0233589Y0016750D02*
X0232855Y0016750D01*
X0232484Y0016934D02*
X0231934Y0016934D01*
X0231750Y0016750D01*
X0231750Y0016383D01*
X0231379Y0017117D02*
X0231196Y0017301D01*
X0230829Y0017301D01*
X0230645Y0017117D01*
X0269645Y0104700D02*
X0269645Y0105701D01*
X0270146Y0106201D01*
X0270646Y0105701D01*
X0270646Y0104700D01*
X0271118Y0104700D02*
X0271118Y0106201D01*
X0272119Y0104700D01*
X0272119Y0106201D01*
X0272592Y0105701D02*
X0273092Y0106201D01*
X0273592Y0105701D01*
X0273592Y0104700D01*
X0274065Y0104700D02*
X0274065Y0106201D01*
X0273592Y0105451D02*
X0272592Y0105451D01*
X0272592Y0105701D02*
X0272592Y0104700D01*
X0274065Y0104700D02*
X0275066Y0104700D01*
X0275538Y0104950D02*
X0275788Y0104700D01*
X0276289Y0104700D01*
X0276539Y0104950D01*
X0276539Y0105951D01*
X0276289Y0106201D01*
X0275788Y0106201D01*
X0275538Y0105951D01*
X0275538Y0104950D01*
X0277011Y0104950D02*
X0277262Y0104700D01*
X0277762Y0104700D01*
X0278012Y0104950D01*
X0278012Y0105451D01*
X0277512Y0105451D01*
X0278012Y0105951D02*
X0277762Y0106201D01*
X0277262Y0106201D01*
X0277011Y0105951D01*
X0277011Y0104950D01*
X0278485Y0104450D02*
X0279486Y0104450D01*
X0279958Y0104700D02*
X0279958Y0106201D01*
X0280458Y0105701D01*
X0280959Y0106201D01*
X0280959Y0104700D01*
X0281431Y0104950D02*
X0281681Y0104700D01*
X0282182Y0104700D01*
X0282432Y0104950D01*
X0282432Y0106201D01*
X0282904Y0106201D02*
X0283905Y0104700D01*
X0282904Y0104700D02*
X0283905Y0106201D01*
X0281431Y0106201D02*
X0281431Y0104950D01*
X0270646Y0105451D02*
X0269645Y0105451D01*
X0394252Y0028851D02*
X0394252Y0027350D01*
X0395253Y0027350D01*
X0395725Y0027350D02*
X0396726Y0027350D01*
X0397199Y0027350D02*
X0397949Y0027350D01*
X0398199Y0027600D01*
X0398199Y0028601D01*
X0397949Y0028851D01*
X0397199Y0028851D01*
X0397199Y0027350D01*
X0396226Y0028101D02*
X0395725Y0028101D01*
X0395725Y0028851D02*
X0395725Y0027350D01*
X0395725Y0028851D02*
X0396726Y0028851D01*
X0398672Y0028601D02*
X0398922Y0028851D01*
X0399423Y0028851D01*
X0399673Y0028601D01*
X0399673Y0028351D01*
X0398672Y0027350D01*
X0399673Y0027350D01*
X0408145Y0034450D02*
X0409146Y0034450D01*
X0409618Y0034450D02*
X0410619Y0034450D01*
X0411092Y0034450D02*
X0411842Y0034450D01*
X0412092Y0034700D01*
X0412092Y0035701D01*
X0411842Y0035951D01*
X0411092Y0035951D01*
X0411092Y0034450D01*
X0410119Y0035201D02*
X0409618Y0035201D01*
X0409618Y0035951D02*
X0409618Y0034450D01*
X0408145Y0034450D02*
X0408145Y0035951D01*
X0409618Y0035951D02*
X0410619Y0035951D01*
X0412565Y0035451D02*
X0413065Y0035951D01*
X0413065Y0034450D01*
X0412565Y0034450D02*
X0413566Y0034450D01*
D11*
X0366795Y0098850D02*
X0362395Y0098850D01*
X0362312Y0098852D01*
X0362229Y0098858D01*
X0362146Y0098867D01*
X0362064Y0098881D01*
X0361983Y0098898D01*
X0361902Y0098919D01*
X0361823Y0098943D01*
X0361745Y0098972D01*
X0361668Y0099003D01*
X0361593Y0099039D01*
X0361519Y0099077D01*
X0361447Y0099120D01*
X0361378Y0099165D01*
X0361310Y0099214D01*
X0361245Y0099265D01*
X0361182Y0099320D01*
X0361122Y0099377D01*
X0361065Y0099437D01*
X0361010Y0099500D01*
X0360959Y0099565D01*
X0360910Y0099633D01*
X0360865Y0099702D01*
X0360822Y0099774D01*
X0360784Y0099848D01*
X0360748Y0099923D01*
X0360717Y0100000D01*
X0360688Y0100078D01*
X0360664Y0100157D01*
X0360643Y0100238D01*
X0360626Y0100319D01*
X0360612Y0100401D01*
X0360603Y0100484D01*
X0360597Y0100567D01*
X0360595Y0100650D01*
X0360595Y0106650D01*
X0360597Y0106733D01*
X0360603Y0106816D01*
X0360612Y0106899D01*
X0360626Y0106981D01*
X0360643Y0107062D01*
X0360664Y0107143D01*
X0360688Y0107222D01*
X0360717Y0107300D01*
X0360748Y0107377D01*
X0360784Y0107452D01*
X0360822Y0107526D01*
X0360865Y0107598D01*
X0360910Y0107667D01*
X0360959Y0107735D01*
X0361010Y0107800D01*
X0361065Y0107863D01*
X0361122Y0107923D01*
X0361182Y0107980D01*
X0361245Y0108035D01*
X0361310Y0108086D01*
X0361378Y0108135D01*
X0361447Y0108180D01*
X0361519Y0108223D01*
X0361593Y0108261D01*
X0361668Y0108297D01*
X0361745Y0108328D01*
X0361823Y0108357D01*
X0361902Y0108381D01*
X0361983Y0108402D01*
X0362064Y0108419D01*
X0362146Y0108433D01*
X0362229Y0108442D01*
X0362312Y0108448D01*
X0362395Y0108450D01*
X0366795Y0108450D01*
X0366878Y0108448D01*
X0366961Y0108442D01*
X0367044Y0108433D01*
X0367126Y0108419D01*
X0367207Y0108402D01*
X0367288Y0108381D01*
X0367367Y0108357D01*
X0367445Y0108328D01*
X0367522Y0108297D01*
X0367597Y0108261D01*
X0367671Y0108223D01*
X0367743Y0108180D01*
X0367812Y0108135D01*
X0367880Y0108086D01*
X0367945Y0108035D01*
X0368008Y0107980D01*
X0368068Y0107923D01*
X0368125Y0107863D01*
X0368180Y0107800D01*
X0368231Y0107735D01*
X0368280Y0107667D01*
X0368325Y0107598D01*
X0368368Y0107526D01*
X0368406Y0107452D01*
X0368442Y0107377D01*
X0368473Y0107300D01*
X0368502Y0107222D01*
X0368526Y0107143D01*
X0368547Y0107062D01*
X0368564Y0106981D01*
X0368578Y0106899D01*
X0368587Y0106816D01*
X0368593Y0106733D01*
X0368595Y0106650D01*
X0368595Y0100650D01*
X0368593Y0100567D01*
X0368587Y0100484D01*
X0368578Y0100401D01*
X0368564Y0100319D01*
X0368547Y0100238D01*
X0368526Y0100157D01*
X0368502Y0100078D01*
X0368473Y0100000D01*
X0368442Y0099923D01*
X0368406Y0099848D01*
X0368368Y0099774D01*
X0368325Y0099702D01*
X0368280Y0099633D01*
X0368231Y0099565D01*
X0368180Y0099500D01*
X0368125Y0099437D01*
X0368068Y0099377D01*
X0368008Y0099320D01*
X0367945Y0099265D01*
X0367880Y0099214D01*
X0367812Y0099165D01*
X0367743Y0099120D01*
X0367671Y0099077D01*
X0367597Y0099039D01*
X0367522Y0099003D01*
X0367445Y0098972D01*
X0367367Y0098943D01*
X0367288Y0098919D01*
X0367207Y0098898D01*
X0367126Y0098881D01*
X0367044Y0098867D01*
X0366961Y0098858D01*
X0366878Y0098852D01*
X0366795Y0098850D01*
X0333795Y0146850D02*
X0329395Y0146850D01*
X0329312Y0146852D01*
X0329229Y0146858D01*
X0329146Y0146867D01*
X0329064Y0146881D01*
X0328983Y0146898D01*
X0328902Y0146919D01*
X0328823Y0146943D01*
X0328745Y0146972D01*
X0328668Y0147003D01*
X0328593Y0147039D01*
X0328519Y0147077D01*
X0328447Y0147120D01*
X0328378Y0147165D01*
X0328310Y0147214D01*
X0328245Y0147265D01*
X0328182Y0147320D01*
X0328122Y0147377D01*
X0328065Y0147437D01*
X0328010Y0147500D01*
X0327959Y0147565D01*
X0327910Y0147633D01*
X0327865Y0147702D01*
X0327822Y0147774D01*
X0327784Y0147848D01*
X0327748Y0147923D01*
X0327717Y0148000D01*
X0327688Y0148078D01*
X0327664Y0148157D01*
X0327643Y0148238D01*
X0327626Y0148319D01*
X0327612Y0148401D01*
X0327603Y0148484D01*
X0327597Y0148567D01*
X0327595Y0148650D01*
X0327595Y0154650D01*
X0326419Y0155836D02*
X0326419Y0149430D01*
X0330690Y0149430D01*
X0332865Y0149430D02*
X0337135Y0149430D01*
X0335595Y0148650D02*
X0335595Y0154650D01*
X0335593Y0154733D01*
X0335587Y0154816D01*
X0335578Y0154899D01*
X0335564Y0154981D01*
X0335547Y0155062D01*
X0335526Y0155143D01*
X0335502Y0155222D01*
X0335473Y0155300D01*
X0335442Y0155377D01*
X0335406Y0155452D01*
X0335368Y0155526D01*
X0335325Y0155598D01*
X0335280Y0155667D01*
X0335231Y0155735D01*
X0335180Y0155800D01*
X0335125Y0155863D01*
X0335068Y0155923D01*
X0335008Y0155980D01*
X0334945Y0156035D01*
X0334880Y0156086D01*
X0334812Y0156135D01*
X0334743Y0156180D01*
X0334671Y0156223D01*
X0334597Y0156261D01*
X0334522Y0156297D01*
X0334445Y0156328D01*
X0334367Y0156357D01*
X0334288Y0156381D01*
X0334207Y0156402D01*
X0334126Y0156419D01*
X0334044Y0156433D01*
X0333961Y0156442D01*
X0333878Y0156448D01*
X0333795Y0156450D01*
X0329395Y0156450D01*
X0330690Y0155836D02*
X0326419Y0155836D01*
X0324244Y0154768D02*
X0323177Y0155836D01*
X0321041Y0155836D01*
X0319974Y0154768D01*
X0319974Y0150498D01*
X0321041Y0149430D01*
X0323177Y0149430D01*
X0324244Y0150498D01*
X0326419Y0152633D02*
X0328555Y0152633D01*
X0327595Y0154650D02*
X0327597Y0154733D01*
X0327603Y0154816D01*
X0327612Y0154899D01*
X0327626Y0154981D01*
X0327643Y0155062D01*
X0327664Y0155143D01*
X0327688Y0155222D01*
X0327717Y0155300D01*
X0327748Y0155377D01*
X0327784Y0155452D01*
X0327822Y0155526D01*
X0327865Y0155598D01*
X0327910Y0155667D01*
X0327959Y0155735D01*
X0328010Y0155800D01*
X0328065Y0155863D01*
X0328122Y0155923D01*
X0328182Y0155980D01*
X0328245Y0156035D01*
X0328310Y0156086D01*
X0328378Y0156135D01*
X0328447Y0156180D01*
X0328519Y0156223D01*
X0328593Y0156261D01*
X0328668Y0156297D01*
X0328745Y0156328D01*
X0328823Y0156357D01*
X0328902Y0156381D01*
X0328983Y0156402D01*
X0329064Y0156419D01*
X0329146Y0156433D01*
X0329229Y0156442D01*
X0329312Y0156448D01*
X0329395Y0156450D01*
X0332865Y0155836D02*
X0332865Y0149430D01*
X0333795Y0146850D02*
X0333878Y0146852D01*
X0333961Y0146858D01*
X0334044Y0146867D01*
X0334126Y0146881D01*
X0334207Y0146898D01*
X0334288Y0146919D01*
X0334367Y0146943D01*
X0334445Y0146972D01*
X0334522Y0147003D01*
X0334597Y0147039D01*
X0334671Y0147077D01*
X0334743Y0147120D01*
X0334812Y0147165D01*
X0334880Y0147214D01*
X0334945Y0147265D01*
X0335008Y0147320D01*
X0335068Y0147377D01*
X0335125Y0147437D01*
X0335180Y0147500D01*
X0335231Y0147565D01*
X0335280Y0147633D01*
X0335325Y0147702D01*
X0335368Y0147774D01*
X0335406Y0147848D01*
X0335442Y0147923D01*
X0335473Y0148000D01*
X0335502Y0148078D01*
X0335526Y0148157D01*
X0335547Y0148238D01*
X0335564Y0148319D01*
X0335578Y0148401D01*
X0335587Y0148484D01*
X0335593Y0148567D01*
X0335595Y0148650D01*
X0339310Y0149430D02*
X0343581Y0149430D01*
X0341446Y0149430D02*
X0341446Y0155836D01*
X0339310Y0153701D01*
X0373595Y0161250D02*
X0373595Y0168050D01*
X0373597Y0168110D01*
X0373602Y0168171D01*
X0373611Y0168230D01*
X0373624Y0168289D01*
X0373640Y0168348D01*
X0373660Y0168405D01*
X0373683Y0168460D01*
X0373710Y0168515D01*
X0373739Y0168567D01*
X0373772Y0168618D01*
X0373808Y0168667D01*
X0373846Y0168713D01*
X0373888Y0168757D01*
X0373932Y0168799D01*
X0373978Y0168837D01*
X0374027Y0168873D01*
X0374078Y0168906D01*
X0374130Y0168935D01*
X0374185Y0168962D01*
X0374240Y0168985D01*
X0374297Y0169005D01*
X0374356Y0169021D01*
X0374415Y0169034D01*
X0374474Y0169043D01*
X0374535Y0169048D01*
X0374595Y0169050D01*
X0380595Y0169050D01*
X0380655Y0169048D01*
X0380716Y0169043D01*
X0380775Y0169034D01*
X0380834Y0169021D01*
X0380893Y0169005D01*
X0380950Y0168985D01*
X0381005Y0168962D01*
X0381060Y0168935D01*
X0381112Y0168906D01*
X0381163Y0168873D01*
X0381212Y0168837D01*
X0381258Y0168799D01*
X0381302Y0168757D01*
X0381344Y0168713D01*
X0381382Y0168667D01*
X0381418Y0168618D01*
X0381451Y0168567D01*
X0381480Y0168515D01*
X0381507Y0168460D01*
X0381530Y0168405D01*
X0381550Y0168348D01*
X0381566Y0168289D01*
X0381579Y0168230D01*
X0381588Y0168171D01*
X0381593Y0168110D01*
X0381595Y0168050D01*
X0381595Y0161250D01*
X0381593Y0161190D01*
X0381588Y0161129D01*
X0381579Y0161070D01*
X0381566Y0161011D01*
X0381550Y0160952D01*
X0381530Y0160895D01*
X0381507Y0160840D01*
X0381480Y0160785D01*
X0381451Y0160733D01*
X0381418Y0160682D01*
X0381382Y0160633D01*
X0381344Y0160587D01*
X0381302Y0160543D01*
X0381258Y0160501D01*
X0381212Y0160463D01*
X0381163Y0160427D01*
X0381112Y0160394D01*
X0381060Y0160365D01*
X0381005Y0160338D01*
X0380950Y0160315D01*
X0380893Y0160295D01*
X0380834Y0160279D01*
X0380775Y0160266D01*
X0380716Y0160257D01*
X0380655Y0160252D01*
X0380595Y0160250D01*
X0374595Y0160250D01*
X0374535Y0160252D01*
X0374474Y0160257D01*
X0374415Y0160266D01*
X0374356Y0160279D01*
X0374297Y0160295D01*
X0374240Y0160315D01*
X0374185Y0160338D01*
X0374130Y0160365D01*
X0374078Y0160394D01*
X0374027Y0160427D01*
X0373978Y0160463D01*
X0373932Y0160501D01*
X0373888Y0160543D01*
X0373846Y0160587D01*
X0373808Y0160633D01*
X0373772Y0160682D01*
X0373739Y0160733D01*
X0373710Y0160785D01*
X0373683Y0160840D01*
X0373660Y0160895D01*
X0373640Y0160952D01*
X0373624Y0161011D01*
X0373611Y0161070D01*
X0373602Y0161129D01*
X0373597Y0161190D01*
X0373595Y0161250D01*
X0384595Y0161250D02*
X0384595Y0168050D01*
X0384597Y0168110D01*
X0384602Y0168171D01*
X0384611Y0168230D01*
X0384624Y0168289D01*
X0384640Y0168348D01*
X0384660Y0168405D01*
X0384683Y0168460D01*
X0384710Y0168515D01*
X0384739Y0168567D01*
X0384772Y0168618D01*
X0384808Y0168667D01*
X0384846Y0168713D01*
X0384888Y0168757D01*
X0384932Y0168799D01*
X0384978Y0168837D01*
X0385027Y0168873D01*
X0385078Y0168906D01*
X0385130Y0168935D01*
X0385185Y0168962D01*
X0385240Y0168985D01*
X0385297Y0169005D01*
X0385356Y0169021D01*
X0385415Y0169034D01*
X0385474Y0169043D01*
X0385535Y0169048D01*
X0385595Y0169050D01*
X0391595Y0169050D01*
X0391655Y0169048D01*
X0391716Y0169043D01*
X0391775Y0169034D01*
X0391834Y0169021D01*
X0391893Y0169005D01*
X0391950Y0168985D01*
X0392005Y0168962D01*
X0392060Y0168935D01*
X0392112Y0168906D01*
X0392163Y0168873D01*
X0392212Y0168837D01*
X0392258Y0168799D01*
X0392302Y0168757D01*
X0392344Y0168713D01*
X0392382Y0168667D01*
X0392418Y0168618D01*
X0392451Y0168567D01*
X0392480Y0168515D01*
X0392507Y0168460D01*
X0392530Y0168405D01*
X0392550Y0168348D01*
X0392566Y0168289D01*
X0392579Y0168230D01*
X0392588Y0168171D01*
X0392593Y0168110D01*
X0392595Y0168050D01*
X0392595Y0161250D01*
X0392593Y0161190D01*
X0392588Y0161129D01*
X0392579Y0161070D01*
X0392566Y0161011D01*
X0392550Y0160952D01*
X0392530Y0160895D01*
X0392507Y0160840D01*
X0392480Y0160785D01*
X0392451Y0160733D01*
X0392418Y0160682D01*
X0392382Y0160633D01*
X0392344Y0160587D01*
X0392302Y0160543D01*
X0392258Y0160501D01*
X0392212Y0160463D01*
X0392163Y0160427D01*
X0392112Y0160394D01*
X0392060Y0160365D01*
X0392005Y0160338D01*
X0391950Y0160315D01*
X0391893Y0160295D01*
X0391834Y0160279D01*
X0391775Y0160266D01*
X0391716Y0160257D01*
X0391655Y0160252D01*
X0391595Y0160250D01*
X0385595Y0160250D01*
X0385535Y0160252D01*
X0385474Y0160257D01*
X0385415Y0160266D01*
X0385356Y0160279D01*
X0385297Y0160295D01*
X0385240Y0160315D01*
X0385185Y0160338D01*
X0385130Y0160365D01*
X0385078Y0160394D01*
X0385027Y0160427D01*
X0384978Y0160463D01*
X0384932Y0160501D01*
X0384888Y0160543D01*
X0384846Y0160587D01*
X0384808Y0160633D01*
X0384772Y0160682D01*
X0384739Y0160733D01*
X0384710Y0160785D01*
X0384683Y0160840D01*
X0384660Y0160895D01*
X0384640Y0160952D01*
X0384624Y0161011D01*
X0384611Y0161070D01*
X0384602Y0161129D01*
X0384597Y0161190D01*
X0384595Y0161250D01*
X0273581Y0154768D02*
X0272513Y0155836D01*
X0270378Y0155836D01*
X0269310Y0154768D01*
X0273581Y0154768D02*
X0273581Y0153701D01*
X0269310Y0149430D01*
X0273581Y0149430D01*
X0267135Y0149430D02*
X0262865Y0149430D01*
X0262865Y0155836D01*
X0260690Y0155836D02*
X0256419Y0155836D01*
X0256419Y0149430D01*
X0260690Y0149430D01*
X0258555Y0152633D02*
X0256419Y0152633D01*
X0254244Y0150498D02*
X0253177Y0149430D01*
X0251041Y0149430D01*
X0249974Y0150498D01*
X0249974Y0154768D01*
X0251041Y0155836D01*
X0253177Y0155836D01*
X0254244Y0154768D01*
X0203581Y0154768D02*
X0203581Y0153701D01*
X0202513Y0152633D01*
X0203581Y0151565D01*
X0203581Y0150498D01*
X0202513Y0149430D01*
X0200378Y0149430D01*
X0199310Y0150498D01*
X0197135Y0149430D02*
X0192865Y0149430D01*
X0192865Y0155836D01*
X0190690Y0155836D02*
X0186419Y0155836D01*
X0186419Y0149430D01*
X0190690Y0149430D01*
X0188555Y0152633D02*
X0186419Y0152633D01*
X0184244Y0150498D02*
X0183177Y0149430D01*
X0181041Y0149430D01*
X0179974Y0150498D01*
X0179974Y0154768D01*
X0181041Y0155836D01*
X0183177Y0155836D01*
X0184244Y0154768D01*
X0199310Y0154768D02*
X0200378Y0155836D01*
X0202513Y0155836D01*
X0203581Y0154768D01*
X0202513Y0152633D02*
X0201446Y0152633D01*
X0195894Y0144465D02*
X0171296Y0144465D01*
X0171296Y0130843D01*
X0195894Y0130843D01*
X0195894Y0144465D01*
X0164894Y0143465D02*
X0164894Y0129843D01*
X0140296Y0129843D01*
X0140296Y0143465D01*
X0164894Y0143465D01*
X0128395Y0124850D02*
X0128395Y0120450D01*
X0128393Y0120367D01*
X0128387Y0120284D01*
X0128378Y0120201D01*
X0128364Y0120119D01*
X0128347Y0120038D01*
X0128326Y0119957D01*
X0128302Y0119878D01*
X0128273Y0119800D01*
X0128242Y0119723D01*
X0128206Y0119648D01*
X0128168Y0119574D01*
X0128125Y0119502D01*
X0128080Y0119433D01*
X0128031Y0119365D01*
X0127980Y0119300D01*
X0127925Y0119237D01*
X0127868Y0119177D01*
X0127808Y0119120D01*
X0127745Y0119065D01*
X0127680Y0119014D01*
X0127612Y0118965D01*
X0127543Y0118920D01*
X0127471Y0118877D01*
X0127397Y0118839D01*
X0127322Y0118803D01*
X0127245Y0118772D01*
X0127167Y0118743D01*
X0127088Y0118719D01*
X0127007Y0118698D01*
X0126926Y0118681D01*
X0126844Y0118667D01*
X0126761Y0118658D01*
X0126678Y0118652D01*
X0126595Y0118650D01*
X0120595Y0118650D01*
X0120512Y0118652D01*
X0120429Y0118658D01*
X0120346Y0118667D01*
X0120264Y0118681D01*
X0120183Y0118698D01*
X0120102Y0118719D01*
X0120023Y0118743D01*
X0119945Y0118772D01*
X0119868Y0118803D01*
X0119793Y0118839D01*
X0119719Y0118877D01*
X0119647Y0118920D01*
X0119578Y0118965D01*
X0119510Y0119014D01*
X0119445Y0119065D01*
X0119382Y0119120D01*
X0119322Y0119177D01*
X0119265Y0119237D01*
X0119210Y0119300D01*
X0119159Y0119365D01*
X0119110Y0119433D01*
X0119065Y0119502D01*
X0119022Y0119574D01*
X0118984Y0119648D01*
X0118948Y0119723D01*
X0118917Y0119800D01*
X0118888Y0119878D01*
X0118864Y0119957D01*
X0118843Y0120038D01*
X0118826Y0120119D01*
X0118812Y0120201D01*
X0118803Y0120284D01*
X0118797Y0120367D01*
X0118795Y0120450D01*
X0118795Y0124850D01*
X0118797Y0124933D01*
X0118803Y0125016D01*
X0118812Y0125099D01*
X0118826Y0125181D01*
X0118843Y0125262D01*
X0118864Y0125343D01*
X0118888Y0125422D01*
X0118917Y0125500D01*
X0118948Y0125577D01*
X0118984Y0125652D01*
X0119022Y0125726D01*
X0119065Y0125798D01*
X0119110Y0125867D01*
X0119159Y0125935D01*
X0119210Y0126000D01*
X0119265Y0126063D01*
X0119322Y0126123D01*
X0119382Y0126180D01*
X0119445Y0126235D01*
X0119510Y0126286D01*
X0119578Y0126335D01*
X0119647Y0126380D01*
X0119719Y0126423D01*
X0119793Y0126461D01*
X0119868Y0126497D01*
X0119945Y0126528D01*
X0120023Y0126557D01*
X0120102Y0126581D01*
X0120183Y0126602D01*
X0120264Y0126619D01*
X0120346Y0126633D01*
X0120429Y0126642D01*
X0120512Y0126648D01*
X0120595Y0126650D01*
X0126595Y0126650D01*
X0126678Y0126648D01*
X0126761Y0126642D01*
X0126844Y0126633D01*
X0126926Y0126619D01*
X0127007Y0126602D01*
X0127088Y0126581D01*
X0127167Y0126557D01*
X0127245Y0126528D01*
X0127322Y0126497D01*
X0127397Y0126461D01*
X0127471Y0126423D01*
X0127543Y0126380D01*
X0127612Y0126335D01*
X0127680Y0126286D01*
X0127745Y0126235D01*
X0127808Y0126180D01*
X0127868Y0126123D01*
X0127925Y0126063D01*
X0127980Y0126000D01*
X0128031Y0125935D01*
X0128080Y0125867D01*
X0128125Y0125798D01*
X0128168Y0125726D01*
X0128206Y0125652D01*
X0128242Y0125577D01*
X0128273Y0125500D01*
X0128302Y0125422D01*
X0128326Y0125343D01*
X0128347Y0125262D01*
X0128364Y0125181D01*
X0128378Y0125099D01*
X0128387Y0125016D01*
X0128393Y0124933D01*
X0128395Y0124850D01*
X0103595Y0125250D02*
X0103595Y0132050D01*
X0103593Y0132110D01*
X0103588Y0132171D01*
X0103579Y0132230D01*
X0103566Y0132289D01*
X0103550Y0132348D01*
X0103530Y0132405D01*
X0103507Y0132460D01*
X0103480Y0132515D01*
X0103451Y0132567D01*
X0103418Y0132618D01*
X0103382Y0132667D01*
X0103344Y0132713D01*
X0103302Y0132757D01*
X0103258Y0132799D01*
X0103212Y0132837D01*
X0103163Y0132873D01*
X0103112Y0132906D01*
X0103060Y0132935D01*
X0103005Y0132962D01*
X0102950Y0132985D01*
X0102893Y0133005D01*
X0102834Y0133021D01*
X0102775Y0133034D01*
X0102716Y0133043D01*
X0102655Y0133048D01*
X0102595Y0133050D01*
X0096595Y0133050D01*
X0096535Y0133048D01*
X0096474Y0133043D01*
X0096415Y0133034D01*
X0096356Y0133021D01*
X0096297Y0133005D01*
X0096240Y0132985D01*
X0096185Y0132962D01*
X0096130Y0132935D01*
X0096078Y0132906D01*
X0096027Y0132873D01*
X0095978Y0132837D01*
X0095932Y0132799D01*
X0095888Y0132757D01*
X0095846Y0132713D01*
X0095808Y0132667D01*
X0095772Y0132618D01*
X0095739Y0132567D01*
X0095710Y0132515D01*
X0095683Y0132460D01*
X0095660Y0132405D01*
X0095640Y0132348D01*
X0095624Y0132289D01*
X0095611Y0132230D01*
X0095602Y0132171D01*
X0095597Y0132110D01*
X0095595Y0132050D01*
X0095595Y0125250D01*
X0095597Y0125190D01*
X0095602Y0125129D01*
X0095611Y0125070D01*
X0095624Y0125011D01*
X0095640Y0124952D01*
X0095660Y0124895D01*
X0095683Y0124840D01*
X0095710Y0124785D01*
X0095739Y0124733D01*
X0095772Y0124682D01*
X0095808Y0124633D01*
X0095846Y0124587D01*
X0095888Y0124543D01*
X0095932Y0124501D01*
X0095978Y0124463D01*
X0096027Y0124427D01*
X0096078Y0124394D01*
X0096130Y0124365D01*
X0096185Y0124338D01*
X0096240Y0124315D01*
X0096297Y0124295D01*
X0096356Y0124279D01*
X0096415Y0124266D01*
X0096474Y0124257D01*
X0096535Y0124252D01*
X0096595Y0124250D01*
X0102595Y0124250D01*
X0102655Y0124252D01*
X0102716Y0124257D01*
X0102775Y0124266D01*
X0102834Y0124279D01*
X0102893Y0124295D01*
X0102950Y0124315D01*
X0103005Y0124338D01*
X0103060Y0124365D01*
X0103112Y0124394D01*
X0103163Y0124427D01*
X0103212Y0124463D01*
X0103258Y0124501D01*
X0103302Y0124543D01*
X0103344Y0124587D01*
X0103382Y0124633D01*
X0103418Y0124682D01*
X0103451Y0124733D01*
X0103480Y0124785D01*
X0103507Y0124840D01*
X0103530Y0124895D01*
X0103550Y0124952D01*
X0103566Y0125011D01*
X0103579Y0125070D01*
X0103588Y0125129D01*
X0103593Y0125190D01*
X0103595Y0125250D01*
X0103177Y0149430D02*
X0104244Y0150498D01*
X0103177Y0149430D02*
X0101041Y0149430D01*
X0099974Y0150498D01*
X0099974Y0154768D01*
X0101041Y0155836D01*
X0103177Y0155836D01*
X0104244Y0154768D01*
X0106419Y0155836D02*
X0106419Y0149430D01*
X0110690Y0149430D01*
X0112865Y0149430D02*
X0117135Y0149430D01*
X0119310Y0152633D02*
X0123581Y0152633D01*
X0122513Y0149430D02*
X0122513Y0155836D01*
X0119310Y0152633D01*
X0112865Y0155836D02*
X0112865Y0149430D01*
X0108555Y0152633D02*
X0106419Y0152633D01*
X0106419Y0155836D02*
X0110690Y0155836D01*
X0082295Y0154085D02*
X0080160Y0156220D01*
X0075890Y0156220D01*
X0079092Y0158395D02*
X0078025Y0159463D01*
X0078025Y0161598D01*
X0079092Y0162666D01*
X0080160Y0162666D01*
X0080160Y0158395D01*
X0081228Y0158395D02*
X0079092Y0158395D01*
X0081228Y0158395D02*
X0082295Y0159463D01*
X0082295Y0161598D01*
X0082295Y0164841D02*
X0078025Y0164841D01*
X0080160Y0164841D02*
X0078025Y0166976D01*
X0078025Y0168044D01*
X0079092Y0170212D02*
X0078025Y0171280D01*
X0078025Y0174483D01*
X0078025Y0176658D02*
X0078025Y0177725D01*
X0082295Y0177725D01*
X0082295Y0176658D02*
X0082295Y0178793D01*
X0081228Y0180955D02*
X0079092Y0180955D01*
X0078025Y0182022D01*
X0078025Y0184157D01*
X0079092Y0185225D01*
X0081228Y0185225D01*
X0082295Y0184157D01*
X0082295Y0182022D01*
X0081228Y0180955D01*
X0075890Y0177725D02*
X0074822Y0177725D01*
X0071795Y0178793D02*
X0070728Y0177725D01*
X0066457Y0177725D01*
X0067525Y0176658D02*
X0067525Y0178793D01*
X0065390Y0180955D02*
X0065390Y0185225D01*
X0065390Y0183090D02*
X0071795Y0183090D01*
X0071795Y0187400D02*
X0067525Y0187400D01*
X0069660Y0187400D02*
X0067525Y0189535D01*
X0067525Y0190603D01*
X0068592Y0192771D02*
X0067525Y0193839D01*
X0067525Y0195974D01*
X0068592Y0197042D01*
X0069660Y0197042D01*
X0069660Y0192771D01*
X0070728Y0192771D02*
X0068592Y0192771D01*
X0070728Y0192771D02*
X0071795Y0193839D01*
X0071795Y0195974D01*
X0078025Y0190603D02*
X0079092Y0191671D01*
X0082295Y0191671D01*
X0078025Y0190603D02*
X0078025Y0187400D01*
X0082295Y0187400D01*
X0081228Y0174483D02*
X0080160Y0173415D01*
X0080160Y0171280D01*
X0079092Y0170212D01*
X0082295Y0170212D02*
X0082295Y0173415D01*
X0081228Y0174483D01*
X0071795Y0171286D02*
X0067525Y0171286D01*
X0069660Y0171286D02*
X0067525Y0173422D01*
X0067525Y0174489D01*
X0068592Y0169111D02*
X0071795Y0169111D01*
X0071795Y0165909D01*
X0070728Y0164841D01*
X0069660Y0165909D01*
X0069660Y0169111D01*
X0068592Y0169111D02*
X0067525Y0168044D01*
X0067525Y0165909D01*
X0068592Y0162666D02*
X0071795Y0162666D01*
X0071795Y0160531D02*
X0068592Y0160531D01*
X0067525Y0161598D01*
X0068592Y0162666D01*
X0068592Y0160531D02*
X0067525Y0159463D01*
X0067525Y0158395D01*
X0071795Y0158395D01*
X0070728Y0156220D02*
X0071795Y0155153D01*
X0071795Y0153018D01*
X0070728Y0151950D01*
X0068592Y0153018D02*
X0068592Y0155153D01*
X0069660Y0156220D01*
X0070728Y0156220D01*
X0068592Y0153018D02*
X0067525Y0151950D01*
X0066457Y0151950D01*
X0065390Y0153018D01*
X0065390Y0155153D01*
X0066457Y0156220D01*
X0075890Y0151950D02*
X0080160Y0151950D01*
X0082295Y0154085D01*
X0081228Y0200291D02*
X0079092Y0200291D01*
X0079092Y0203494D01*
X0080160Y0204562D01*
X0081228Y0204562D01*
X0082295Y0203494D01*
X0082295Y0201359D01*
X0081228Y0200291D01*
X0079092Y0200291D02*
X0076957Y0202426D01*
X0075890Y0204562D01*
X0071795Y0202420D02*
X0071795Y0200285D01*
X0070728Y0199217D01*
X0068592Y0199217D01*
X0067525Y0200285D01*
X0067525Y0202420D01*
X0068592Y0203487D01*
X0069660Y0203487D01*
X0069660Y0199217D01*
X0076957Y0209959D02*
X0075890Y0211027D01*
X0075890Y0213162D01*
X0076957Y0214230D01*
X0081228Y0209959D01*
X0082295Y0211027D01*
X0082295Y0213162D01*
X0081228Y0214230D01*
X0076957Y0214230D01*
X0071795Y0215311D02*
X0071795Y0212108D01*
X0065390Y0212108D01*
X0065390Y0215311D01*
X0066457Y0216378D01*
X0067525Y0216378D01*
X0068592Y0215311D01*
X0068592Y0212108D01*
X0068592Y0215311D02*
X0069660Y0216378D01*
X0070728Y0216378D01*
X0071795Y0215311D01*
X0071795Y0218553D02*
X0065390Y0218553D01*
X0067525Y0220689D01*
X0065390Y0222824D01*
X0071795Y0222824D01*
X0070728Y0224999D02*
X0071795Y0226067D01*
X0071795Y0228202D01*
X0070728Y0229269D01*
X0069660Y0229269D01*
X0068592Y0228202D01*
X0068592Y0226067D01*
X0067525Y0224999D01*
X0066457Y0224999D01*
X0065390Y0226067D01*
X0065390Y0228202D01*
X0066457Y0229269D01*
X0076957Y0209959D02*
X0081228Y0209959D01*
X0081228Y0207804D02*
X0082295Y0207804D01*
X0082295Y0206737D01*
X0081228Y0206737D01*
X0081228Y0207804D01*
X0093195Y0077650D02*
X0099995Y0077650D01*
X0100055Y0077648D01*
X0100116Y0077643D01*
X0100175Y0077634D01*
X0100234Y0077621D01*
X0100293Y0077605D01*
X0100350Y0077585D01*
X0100405Y0077562D01*
X0100460Y0077535D01*
X0100512Y0077506D01*
X0100563Y0077473D01*
X0100612Y0077437D01*
X0100658Y0077399D01*
X0100702Y0077357D01*
X0100744Y0077313D01*
X0100782Y0077267D01*
X0100818Y0077218D01*
X0100851Y0077167D01*
X0100880Y0077115D01*
X0100907Y0077060D01*
X0100930Y0077005D01*
X0100950Y0076948D01*
X0100966Y0076889D01*
X0100979Y0076830D01*
X0100988Y0076771D01*
X0100993Y0076710D01*
X0100995Y0076650D01*
X0100995Y0070650D01*
X0100993Y0070590D01*
X0100988Y0070529D01*
X0100979Y0070470D01*
X0100966Y0070411D01*
X0100950Y0070352D01*
X0100930Y0070295D01*
X0100907Y0070240D01*
X0100880Y0070185D01*
X0100851Y0070133D01*
X0100818Y0070082D01*
X0100782Y0070033D01*
X0100744Y0069987D01*
X0100702Y0069943D01*
X0100658Y0069901D01*
X0100612Y0069863D01*
X0100563Y0069827D01*
X0100512Y0069794D01*
X0100460Y0069765D01*
X0100405Y0069738D01*
X0100350Y0069715D01*
X0100293Y0069695D01*
X0100234Y0069679D01*
X0100175Y0069666D01*
X0100116Y0069657D01*
X0100055Y0069652D01*
X0099995Y0069650D01*
X0093195Y0069650D01*
X0093135Y0069652D01*
X0093074Y0069657D01*
X0093015Y0069666D01*
X0092956Y0069679D01*
X0092897Y0069695D01*
X0092840Y0069715D01*
X0092785Y0069738D01*
X0092730Y0069765D01*
X0092678Y0069794D01*
X0092627Y0069827D01*
X0092578Y0069863D01*
X0092532Y0069901D01*
X0092488Y0069943D01*
X0092446Y0069987D01*
X0092408Y0070033D01*
X0092372Y0070082D01*
X0092339Y0070133D01*
X0092310Y0070185D01*
X0092283Y0070240D01*
X0092260Y0070295D01*
X0092240Y0070352D01*
X0092224Y0070411D01*
X0092211Y0070470D01*
X0092202Y0070529D01*
X0092197Y0070590D01*
X0092195Y0070650D01*
X0092195Y0076650D01*
X0092197Y0076710D01*
X0092202Y0076771D01*
X0092211Y0076830D01*
X0092224Y0076889D01*
X0092240Y0076948D01*
X0092260Y0077005D01*
X0092283Y0077060D01*
X0092310Y0077115D01*
X0092339Y0077167D01*
X0092372Y0077218D01*
X0092408Y0077267D01*
X0092446Y0077313D01*
X0092488Y0077357D01*
X0092532Y0077399D01*
X0092578Y0077437D01*
X0092627Y0077473D01*
X0092678Y0077506D01*
X0092730Y0077535D01*
X0092785Y0077562D01*
X0092840Y0077585D01*
X0092897Y0077605D01*
X0092956Y0077621D01*
X0093015Y0077634D01*
X0093074Y0077643D01*
X0093135Y0077648D01*
X0093195Y0077650D01*
X0107595Y0076650D02*
X0107595Y0070650D01*
X0107597Y0070567D01*
X0107603Y0070484D01*
X0107612Y0070401D01*
X0107626Y0070319D01*
X0107643Y0070238D01*
X0107664Y0070157D01*
X0107688Y0070078D01*
X0107717Y0070000D01*
X0107748Y0069923D01*
X0107784Y0069848D01*
X0107822Y0069774D01*
X0107865Y0069702D01*
X0107910Y0069633D01*
X0107959Y0069565D01*
X0108010Y0069500D01*
X0108065Y0069437D01*
X0108122Y0069377D01*
X0108182Y0069320D01*
X0108245Y0069265D01*
X0108310Y0069214D01*
X0108378Y0069165D01*
X0108447Y0069120D01*
X0108519Y0069077D01*
X0108593Y0069039D01*
X0108668Y0069003D01*
X0108745Y0068972D01*
X0108823Y0068943D01*
X0108902Y0068919D01*
X0108983Y0068898D01*
X0109064Y0068881D01*
X0109146Y0068867D01*
X0109229Y0068858D01*
X0109312Y0068852D01*
X0109395Y0068850D01*
X0113795Y0068850D01*
X0113878Y0068852D01*
X0113961Y0068858D01*
X0114044Y0068867D01*
X0114126Y0068881D01*
X0114207Y0068898D01*
X0114288Y0068919D01*
X0114367Y0068943D01*
X0114445Y0068972D01*
X0114522Y0069003D01*
X0114597Y0069039D01*
X0114671Y0069077D01*
X0114743Y0069120D01*
X0114812Y0069165D01*
X0114880Y0069214D01*
X0114945Y0069265D01*
X0115008Y0069320D01*
X0115068Y0069377D01*
X0115125Y0069437D01*
X0115180Y0069500D01*
X0115231Y0069565D01*
X0115280Y0069633D01*
X0115325Y0069702D01*
X0115368Y0069774D01*
X0115406Y0069848D01*
X0115442Y0069923D01*
X0115473Y0070000D01*
X0115502Y0070078D01*
X0115526Y0070157D01*
X0115547Y0070238D01*
X0115564Y0070319D01*
X0115578Y0070401D01*
X0115587Y0070484D01*
X0115593Y0070567D01*
X0115595Y0070650D01*
X0115595Y0076650D01*
X0115593Y0076733D01*
X0115587Y0076816D01*
X0115578Y0076899D01*
X0115564Y0076981D01*
X0115547Y0077062D01*
X0115526Y0077143D01*
X0115502Y0077222D01*
X0115473Y0077300D01*
X0115442Y0077377D01*
X0115406Y0077452D01*
X0115368Y0077526D01*
X0115325Y0077598D01*
X0115280Y0077667D01*
X0115231Y0077735D01*
X0115180Y0077800D01*
X0115125Y0077863D01*
X0115068Y0077923D01*
X0115008Y0077980D01*
X0114945Y0078035D01*
X0114880Y0078086D01*
X0114812Y0078135D01*
X0114743Y0078180D01*
X0114671Y0078223D01*
X0114597Y0078261D01*
X0114522Y0078297D01*
X0114445Y0078328D01*
X0114367Y0078357D01*
X0114288Y0078381D01*
X0114207Y0078402D01*
X0114126Y0078419D01*
X0114044Y0078433D01*
X0113961Y0078442D01*
X0113878Y0078448D01*
X0113795Y0078450D01*
X0109395Y0078450D01*
X0109312Y0078448D01*
X0109229Y0078442D01*
X0109146Y0078433D01*
X0109064Y0078419D01*
X0108983Y0078402D01*
X0108902Y0078381D01*
X0108823Y0078357D01*
X0108745Y0078328D01*
X0108668Y0078297D01*
X0108593Y0078261D01*
X0108519Y0078223D01*
X0108447Y0078180D01*
X0108378Y0078135D01*
X0108310Y0078086D01*
X0108245Y0078035D01*
X0108182Y0077980D01*
X0108122Y0077923D01*
X0108065Y0077863D01*
X0108010Y0077800D01*
X0107959Y0077735D01*
X0107910Y0077667D01*
X0107865Y0077598D01*
X0107822Y0077526D01*
X0107784Y0077452D01*
X0107748Y0077377D01*
X0107717Y0077300D01*
X0107688Y0077222D01*
X0107664Y0077143D01*
X0107643Y0077062D01*
X0107626Y0076981D01*
X0107612Y0076899D01*
X0107603Y0076816D01*
X0107597Y0076733D01*
X0107595Y0076650D01*
D12*
X0116344Y0076427D02*
X0116660Y0076110D01*
X0117928Y0076110D01*
X0118245Y0076427D01*
X0118245Y0077061D01*
X0117928Y0077378D01*
X0117294Y0077378D01*
X0117294Y0076744D01*
X0116660Y0077378D02*
X0116344Y0077061D01*
X0116344Y0076427D01*
X0116344Y0074851D02*
X0117294Y0073900D01*
X0117294Y0075168D01*
X0116344Y0074851D02*
X0118245Y0074851D01*
X0117294Y0072958D02*
X0117611Y0072641D01*
X0117611Y0071690D01*
X0118245Y0071690D02*
X0116344Y0071690D01*
X0116344Y0072641D01*
X0116660Y0072958D01*
X0117294Y0072958D01*
X0116344Y0070748D02*
X0116344Y0070114D01*
X0116344Y0070431D02*
X0117928Y0070431D01*
X0118245Y0070114D01*
X0118245Y0069797D01*
X0117928Y0069480D01*
X0100323Y0068585D02*
X0100323Y0067951D01*
X0100006Y0067634D01*
X0099055Y0067634D01*
X0099055Y0067000D02*
X0099055Y0068902D01*
X0100006Y0068902D01*
X0100323Y0068585D01*
X0098113Y0067951D02*
X0096845Y0067951D01*
X0097796Y0068902D01*
X0097796Y0067000D01*
X0095903Y0067951D02*
X0095586Y0067634D01*
X0094635Y0067634D01*
X0094635Y0067000D02*
X0094635Y0068902D01*
X0095586Y0068902D01*
X0095903Y0068585D01*
X0095903Y0067951D01*
X0093693Y0068902D02*
X0093059Y0068902D01*
X0093376Y0068902D02*
X0093376Y0067317D01*
X0093059Y0067000D01*
X0092742Y0067000D01*
X0092425Y0067317D01*
X0067068Y0086886D02*
X0126123Y0086886D01*
X0126123Y0116414D01*
X0067068Y0116414D01*
X0067068Y0086886D01*
X0065099Y0093776D02*
X0065099Y0109524D01*
X0092944Y0125114D02*
X0092944Y0125748D01*
X0092944Y0125431D02*
X0094528Y0125431D01*
X0094845Y0125114D01*
X0094845Y0124797D01*
X0094528Y0124480D01*
X0094211Y0126690D02*
X0094211Y0127641D01*
X0093894Y0127958D01*
X0093260Y0127958D01*
X0092944Y0127641D01*
X0092944Y0126690D01*
X0094845Y0126690D01*
X0094528Y0128900D02*
X0094845Y0129217D01*
X0094845Y0129851D01*
X0094528Y0130168D01*
X0094211Y0130168D01*
X0093894Y0129851D01*
X0093894Y0129534D01*
X0093894Y0129851D02*
X0093577Y0130168D01*
X0093260Y0130168D01*
X0092944Y0129851D01*
X0092944Y0129217D01*
X0093260Y0128900D01*
X0092944Y0131110D02*
X0092944Y0132061D01*
X0093260Y0132378D01*
X0093894Y0132378D01*
X0094211Y0132061D01*
X0094211Y0131110D01*
X0094845Y0131110D02*
X0092944Y0131110D01*
X0132595Y0103150D02*
X0140595Y0103150D01*
X0145595Y0103150D02*
X0153595Y0103150D01*
X0162595Y0103150D02*
X0170595Y0103150D01*
X0175595Y0103150D02*
X0183595Y0103150D01*
X0224046Y0102069D02*
X0224046Y0099734D01*
X0224630Y0099150D01*
X0225797Y0099150D01*
X0226381Y0099734D01*
X0227729Y0099150D02*
X0230064Y0099150D01*
X0228897Y0099150D02*
X0228897Y0102653D01*
X0227729Y0101485D01*
X0226381Y0102069D02*
X0225797Y0102653D01*
X0224630Y0102653D01*
X0224046Y0102069D01*
X0231412Y0102069D02*
X0231996Y0102653D01*
X0233163Y0102653D01*
X0233747Y0102069D01*
X0233747Y0101485D01*
X0233163Y0100901D01*
X0233747Y0100318D01*
X0233747Y0099734D01*
X0233163Y0099150D01*
X0231996Y0099150D01*
X0231412Y0099734D01*
X0232580Y0100901D02*
X0233163Y0100901D01*
X0233163Y0089153D02*
X0231996Y0089153D01*
X0231412Y0088569D01*
X0233163Y0089153D02*
X0233747Y0088569D01*
X0233747Y0087985D01*
X0231412Y0085650D01*
X0233747Y0085650D01*
X0230064Y0085650D02*
X0227729Y0085650D01*
X0228897Y0085650D02*
X0228897Y0089153D01*
X0227729Y0087985D01*
X0226381Y0088569D02*
X0225797Y0089153D01*
X0224630Y0089153D01*
X0224046Y0088569D01*
X0224046Y0086234D01*
X0224630Y0085650D01*
X0225797Y0085650D01*
X0226381Y0086234D01*
X0223095Y0070802D02*
X0223095Y0068467D01*
X0223095Y0069635D02*
X0219592Y0069635D01*
X0220760Y0068467D01*
X0223095Y0067119D02*
X0223095Y0064784D01*
X0223095Y0065951D02*
X0219592Y0065951D01*
X0220760Y0064784D01*
X0220176Y0063436D02*
X0219592Y0062852D01*
X0219592Y0061684D01*
X0220176Y0061101D01*
X0222511Y0061101D01*
X0223095Y0061684D01*
X0223095Y0062852D01*
X0222511Y0063436D01*
X0233592Y0065368D02*
X0234176Y0064784D01*
X0236511Y0064784D01*
X0237095Y0065368D01*
X0237095Y0066535D01*
X0236511Y0067119D01*
X0237095Y0068467D02*
X0237095Y0070802D01*
X0237095Y0069635D02*
X0233592Y0069635D01*
X0234760Y0068467D01*
X0234176Y0067119D02*
X0233592Y0066535D01*
X0233592Y0065368D01*
X0247592Y0065368D02*
X0248176Y0064784D01*
X0250511Y0064784D01*
X0251095Y0065368D01*
X0251095Y0066535D01*
X0250511Y0067119D01*
X0250511Y0068467D02*
X0251095Y0069051D01*
X0251095Y0070218D01*
X0250511Y0070802D01*
X0248176Y0070802D01*
X0247592Y0070218D01*
X0247592Y0069051D01*
X0248176Y0068467D01*
X0248760Y0068467D01*
X0249344Y0069051D01*
X0249344Y0070802D01*
X0248176Y0067119D02*
X0247592Y0066535D01*
X0247592Y0065368D01*
X0260592Y0065368D02*
X0261176Y0064784D01*
X0263511Y0064784D01*
X0264095Y0065368D01*
X0264095Y0066535D01*
X0263511Y0067119D01*
X0263511Y0068467D02*
X0264095Y0069051D01*
X0264095Y0070218D01*
X0263511Y0070802D01*
X0262344Y0070802D01*
X0261760Y0070218D01*
X0261760Y0069635D01*
X0262344Y0068467D01*
X0260592Y0068467D01*
X0260592Y0070802D01*
X0261176Y0067119D02*
X0260592Y0066535D01*
X0260592Y0065368D01*
X0276592Y0065368D02*
X0277176Y0064784D01*
X0279511Y0064784D01*
X0280095Y0065368D01*
X0280095Y0066535D01*
X0279511Y0067119D01*
X0278344Y0068467D02*
X0278344Y0070802D01*
X0280095Y0070218D02*
X0276592Y0070218D01*
X0278344Y0068467D01*
X0277176Y0067119D02*
X0276592Y0066535D01*
X0276592Y0065368D01*
X0291592Y0065368D02*
X0292176Y0064784D01*
X0294511Y0064784D01*
X0295095Y0065368D01*
X0295095Y0066535D01*
X0294511Y0067119D01*
X0294511Y0068467D02*
X0295095Y0069051D01*
X0295095Y0070218D01*
X0294511Y0070802D01*
X0293927Y0070802D01*
X0293344Y0070218D01*
X0293344Y0069635D01*
X0293344Y0070218D02*
X0292760Y0070802D01*
X0292176Y0070802D01*
X0291592Y0070218D01*
X0291592Y0069051D01*
X0292176Y0068467D01*
X0292176Y0067119D02*
X0291592Y0066535D01*
X0291592Y0065368D01*
X0307592Y0065368D02*
X0308176Y0064784D01*
X0310511Y0064784D01*
X0311095Y0065368D01*
X0311095Y0066535D01*
X0310511Y0067119D01*
X0311095Y0068467D02*
X0308760Y0070802D01*
X0308176Y0070802D01*
X0307592Y0070218D01*
X0307592Y0069051D01*
X0308176Y0068467D01*
X0308176Y0067119D02*
X0307592Y0066535D01*
X0307592Y0065368D01*
X0311095Y0068467D02*
X0311095Y0070802D01*
X0328595Y0087234D02*
X0329179Y0086650D01*
X0330347Y0086650D01*
X0330930Y0087234D01*
X0332278Y0086650D02*
X0334614Y0088985D01*
X0334614Y0089569D01*
X0334030Y0090153D01*
X0332862Y0090153D01*
X0332278Y0089569D01*
X0330930Y0089569D02*
X0330347Y0090153D01*
X0329179Y0090153D01*
X0328595Y0089569D01*
X0328595Y0087234D01*
X0332278Y0086650D02*
X0334614Y0086650D01*
X0335961Y0087234D02*
X0338297Y0089569D01*
X0338297Y0087234D01*
X0337713Y0086650D01*
X0336545Y0086650D01*
X0335961Y0087234D01*
X0335961Y0089569D01*
X0336545Y0090153D01*
X0337713Y0090153D01*
X0338297Y0089569D01*
X0337713Y0098650D02*
X0338297Y0099234D01*
X0338297Y0101569D01*
X0337713Y0102153D01*
X0336545Y0102153D01*
X0335961Y0101569D01*
X0335961Y0100985D01*
X0336545Y0100401D01*
X0338297Y0100401D01*
X0337713Y0098650D02*
X0336545Y0098650D01*
X0335961Y0099234D01*
X0334614Y0098650D02*
X0332278Y0098650D01*
X0333446Y0098650D02*
X0333446Y0102153D01*
X0332278Y0100985D01*
X0330930Y0101569D02*
X0330347Y0102153D01*
X0329179Y0102153D01*
X0328595Y0101569D01*
X0328595Y0099234D01*
X0329179Y0098650D01*
X0330347Y0098650D01*
X0330930Y0099234D01*
X0357944Y0100114D02*
X0357944Y0100748D01*
X0357944Y0100431D02*
X0359528Y0100431D01*
X0359845Y0100114D01*
X0359845Y0099797D01*
X0359528Y0099480D01*
X0359211Y0101690D02*
X0359211Y0102641D01*
X0358894Y0102958D01*
X0358260Y0102958D01*
X0357944Y0102641D01*
X0357944Y0101690D01*
X0359845Y0101690D01*
X0359845Y0103900D02*
X0359845Y0105168D01*
X0359845Y0104534D02*
X0357944Y0104534D01*
X0358577Y0103900D01*
X0358260Y0106110D02*
X0359528Y0106110D01*
X0359845Y0106427D01*
X0359845Y0107061D01*
X0359528Y0107378D01*
X0358894Y0107378D01*
X0358894Y0106744D01*
X0358260Y0107378D02*
X0357944Y0107061D01*
X0357944Y0106427D01*
X0358260Y0106110D01*
X0382123Y0114886D02*
X0323068Y0114886D01*
X0323068Y0144414D01*
X0382123Y0144414D01*
X0382123Y0114886D01*
X0384091Y0121776D02*
X0384091Y0137524D01*
X0383928Y0160480D02*
X0384245Y0160797D01*
X0384245Y0161114D01*
X0383928Y0161431D01*
X0382344Y0161431D01*
X0382344Y0161114D02*
X0382344Y0161748D01*
X0382344Y0162690D02*
X0382344Y0163641D01*
X0382660Y0163958D01*
X0383294Y0163958D01*
X0383611Y0163641D01*
X0383611Y0162690D01*
X0384245Y0162690D02*
X0382344Y0162690D01*
X0382977Y0164900D02*
X0382344Y0165534D01*
X0384245Y0165534D01*
X0384245Y0164900D02*
X0384245Y0166168D01*
X0384245Y0167110D02*
X0382344Y0167110D01*
X0382344Y0168061D01*
X0382660Y0168378D01*
X0383294Y0168378D01*
X0383611Y0168061D01*
X0383611Y0167110D01*
X0393344Y0167110D02*
X0393344Y0168061D01*
X0393660Y0168378D01*
X0394294Y0168378D01*
X0394611Y0168061D01*
X0394611Y0167110D01*
X0395245Y0167110D02*
X0393344Y0167110D01*
X0393660Y0166168D02*
X0393344Y0165851D01*
X0393344Y0165217D01*
X0393660Y0164900D01*
X0393660Y0163958D02*
X0394294Y0163958D01*
X0394611Y0163641D01*
X0394611Y0162690D01*
X0395245Y0162690D02*
X0393344Y0162690D01*
X0393344Y0163641D01*
X0393660Y0163958D01*
X0395245Y0164900D02*
X0393977Y0166168D01*
X0393660Y0166168D01*
X0395245Y0166168D02*
X0395245Y0164900D01*
X0394928Y0161431D02*
X0393344Y0161431D01*
X0393344Y0161114D02*
X0393344Y0161748D01*
X0394928Y0161431D02*
X0395245Y0161114D01*
X0395245Y0160797D01*
X0394928Y0160480D01*
X0326845Y0155061D02*
X0326528Y0155378D01*
X0325894Y0155378D01*
X0325894Y0154744D01*
X0325260Y0155378D02*
X0324944Y0155061D01*
X0324944Y0154427D01*
X0325260Y0154110D01*
X0326528Y0154110D01*
X0326845Y0154427D01*
X0326845Y0155061D01*
X0326845Y0153168D02*
X0326845Y0151900D01*
X0325577Y0153168D01*
X0325260Y0153168D01*
X0324944Y0152851D01*
X0324944Y0152217D01*
X0325260Y0151900D01*
X0325260Y0150958D02*
X0325894Y0150958D01*
X0326211Y0150641D01*
X0326211Y0149690D01*
X0326845Y0149690D02*
X0324944Y0149690D01*
X0324944Y0150641D01*
X0325260Y0150958D01*
X0324944Y0148748D02*
X0324944Y0148114D01*
X0324944Y0148431D02*
X0326528Y0148431D01*
X0326845Y0148114D01*
X0326845Y0147797D01*
X0326528Y0147480D01*
X0283595Y0136768D02*
X0283595Y0135600D01*
X0283011Y0135016D01*
X0282427Y0135016D01*
X0281844Y0135600D01*
X0281844Y0136768D01*
X0282427Y0137352D01*
X0283011Y0137352D01*
X0283595Y0136768D01*
X0281844Y0136768D02*
X0281260Y0137352D01*
X0280676Y0137352D01*
X0280092Y0136768D01*
X0280092Y0135600D01*
X0280676Y0135016D01*
X0281260Y0135016D01*
X0281844Y0135600D01*
X0283595Y0133668D02*
X0283595Y0131333D01*
X0283595Y0132501D02*
X0280092Y0132501D01*
X0281260Y0131333D01*
X0280676Y0129985D02*
X0280092Y0129401D01*
X0280092Y0128234D01*
X0280676Y0127650D01*
X0283011Y0127650D01*
X0283595Y0128234D01*
X0283595Y0129401D01*
X0283011Y0129985D01*
X0271595Y0129401D02*
X0271011Y0129985D01*
X0271595Y0129401D02*
X0271595Y0128234D01*
X0271011Y0127650D01*
X0268676Y0127650D01*
X0268092Y0128234D01*
X0268092Y0129401D01*
X0268676Y0129985D01*
X0269260Y0131333D02*
X0268092Y0132501D01*
X0271595Y0132501D01*
X0271595Y0133668D02*
X0271595Y0131333D01*
X0271011Y0135016D02*
X0271595Y0135600D01*
X0271595Y0136768D01*
X0271011Y0137352D01*
X0270427Y0137352D01*
X0269844Y0136768D01*
X0269844Y0135016D01*
X0271011Y0135016D01*
X0269844Y0135016D02*
X0268676Y0136184D01*
X0268092Y0137352D01*
X0260595Y0136768D02*
X0257092Y0136768D01*
X0258844Y0135016D01*
X0258844Y0137352D01*
X0260595Y0133668D02*
X0260595Y0131333D01*
X0260595Y0132501D02*
X0257092Y0132501D01*
X0258260Y0131333D01*
X0257676Y0129985D02*
X0257092Y0129401D01*
X0257092Y0128234D01*
X0257676Y0127650D01*
X0260011Y0127650D01*
X0260595Y0128234D01*
X0260595Y0129401D01*
X0260011Y0129985D01*
X0248095Y0129401D02*
X0247511Y0129985D01*
X0248095Y0129401D02*
X0248095Y0128234D01*
X0247511Y0127650D01*
X0245176Y0127650D01*
X0244592Y0128234D01*
X0244592Y0129401D01*
X0245176Y0129985D01*
X0245760Y0131333D02*
X0244592Y0132501D01*
X0248095Y0132501D01*
X0248095Y0133668D02*
X0248095Y0131333D01*
X0247511Y0135016D02*
X0248095Y0135600D01*
X0248095Y0136768D01*
X0247511Y0137352D01*
X0246344Y0137352D01*
X0245760Y0136768D01*
X0245760Y0136184D01*
X0246344Y0135016D01*
X0244592Y0135016D01*
X0244592Y0137352D01*
X0206176Y0070802D02*
X0208511Y0068467D01*
X0209095Y0068467D01*
X0209095Y0067119D02*
X0209095Y0064784D01*
X0209095Y0065951D02*
X0205592Y0065951D01*
X0206760Y0064784D01*
X0206176Y0063436D02*
X0205592Y0062852D01*
X0205592Y0061684D01*
X0206176Y0061101D01*
X0208511Y0061101D01*
X0209095Y0061684D01*
X0209095Y0062852D01*
X0208511Y0063436D01*
X0205592Y0068467D02*
X0205592Y0070802D01*
X0206176Y0070802D01*
X0212095Y0039650D02*
X0209595Y0037150D01*
X0209595Y0032150D01*
X0212095Y0029650D01*
X0217095Y0029650D01*
X0219595Y0032150D01*
X0222095Y0029650D01*
X0227095Y0029650D01*
X0229595Y0032150D01*
X0232095Y0029650D01*
X0237095Y0029650D01*
X0239595Y0032150D01*
X0242095Y0029650D01*
X0247095Y0029650D01*
X0249595Y0032150D01*
X0252095Y0029650D01*
X0257095Y0029650D01*
X0259595Y0032150D01*
X0262095Y0029650D01*
X0267095Y0029650D01*
X0269595Y0032150D01*
X0272095Y0029650D01*
X0277095Y0029650D01*
X0279595Y0032150D01*
X0282095Y0029650D01*
X0287095Y0029650D01*
X0289595Y0032150D01*
X0289595Y0037150D01*
X0287095Y0039650D01*
X0282095Y0039650D01*
X0279595Y0037150D01*
X0277095Y0039650D01*
X0272095Y0039650D01*
X0269595Y0037150D01*
X0267095Y0039650D01*
X0262095Y0039650D01*
X0259595Y0037150D01*
X0257095Y0039650D01*
X0252095Y0039650D01*
X0249595Y0037150D01*
X0247095Y0039650D01*
X0242095Y0039650D01*
X0239595Y0037150D01*
X0237095Y0039650D01*
X0232095Y0039650D01*
X0229595Y0037150D01*
X0227095Y0039650D01*
X0222095Y0039650D01*
X0219595Y0037150D01*
X0217095Y0039650D01*
X0212095Y0039650D01*
X0199595Y0037150D02*
X0199595Y0032150D01*
X0197095Y0029650D01*
X0192095Y0029650D01*
X0189595Y0032150D01*
X0187095Y0029650D01*
X0182095Y0029650D01*
X0179595Y0032150D01*
X0177095Y0029650D01*
X0172095Y0029650D01*
X0169595Y0032150D01*
X0167095Y0029650D01*
X0162095Y0029650D01*
X0159595Y0032150D01*
X0157095Y0029650D01*
X0152095Y0029650D01*
X0149595Y0032150D01*
X0147095Y0029650D01*
X0142095Y0029650D01*
X0139595Y0032150D01*
X0137095Y0029650D01*
X0132095Y0029650D01*
X0129595Y0032150D01*
X0127095Y0029650D01*
X0122095Y0029650D01*
X0119595Y0032150D01*
X0119595Y0037150D01*
X0122095Y0039650D01*
X0127095Y0039650D01*
X0129595Y0037150D01*
X0132095Y0039650D01*
X0137095Y0039650D01*
X0139595Y0037150D01*
X0142095Y0039650D01*
X0147095Y0039650D01*
X0149595Y0037150D01*
X0152095Y0039650D01*
X0157095Y0039650D01*
X0159595Y0037150D01*
X0162095Y0039650D01*
X0167095Y0039650D01*
X0169595Y0037150D01*
X0172095Y0039650D01*
X0177095Y0039650D01*
X0179595Y0037150D01*
X0182095Y0039650D01*
X0187095Y0039650D01*
X0189595Y0037150D01*
X0192095Y0039650D01*
X0197095Y0039650D01*
X0199595Y0037150D01*
X0299595Y0037150D02*
X0299595Y0032150D01*
X0302095Y0029650D01*
X0307095Y0029650D01*
X0309595Y0032150D01*
X0312095Y0029650D01*
X0317095Y0029650D01*
X0319595Y0032150D01*
X0322095Y0029650D01*
X0327095Y0029650D01*
X0329595Y0032150D01*
X0332095Y0029650D01*
X0337095Y0029650D01*
X0339595Y0032150D01*
X0342095Y0029650D01*
X0347095Y0029650D01*
X0349595Y0032150D01*
X0352095Y0029650D01*
X0357095Y0029650D01*
X0359595Y0032150D01*
X0362095Y0029650D01*
X0367095Y0029650D01*
X0369595Y0032150D01*
X0372095Y0029650D01*
X0377095Y0029650D01*
X0379595Y0032150D01*
X0379595Y0037150D01*
X0377095Y0039650D01*
X0372095Y0039650D01*
X0369595Y0037150D01*
X0367095Y0039650D01*
X0362095Y0039650D01*
X0359595Y0037150D01*
X0357095Y0039650D01*
X0352095Y0039650D01*
X0349595Y0037150D01*
X0347095Y0039650D01*
X0342095Y0039650D01*
X0339595Y0037150D01*
X0337095Y0039650D01*
X0332095Y0039650D01*
X0329595Y0037150D01*
X0327095Y0039650D01*
X0322095Y0039650D01*
X0319595Y0037150D01*
X0317095Y0039650D01*
X0312095Y0039650D01*
X0309595Y0037150D01*
X0307095Y0039650D01*
X0302095Y0039650D01*
X0299595Y0037150D01*
X0341095Y0058650D02*
X0354595Y0058650D01*
X0354752Y0058824D01*
X0354905Y0059002D01*
X0355054Y0059183D01*
X0355198Y0059368D01*
X0355338Y0059556D01*
X0355473Y0059748D01*
X0355603Y0059943D01*
X0355728Y0060141D01*
X0355849Y0060342D01*
X0355964Y0060546D01*
X0356075Y0060752D01*
X0356180Y0060962D01*
X0356280Y0061174D01*
X0356375Y0061388D01*
X0356465Y0061605D01*
X0356549Y0061823D01*
X0356628Y0062044D01*
X0356701Y0062267D01*
X0356769Y0062491D01*
X0356832Y0062717D01*
X0356889Y0062944D01*
X0356940Y0063173D01*
X0356986Y0063403D01*
X0357026Y0063634D01*
X0357060Y0063866D01*
X0357089Y0064099D01*
X0357112Y0064332D01*
X0357129Y0064566D01*
X0357141Y0064800D01*
X0357146Y0065034D01*
X0357146Y0065269D01*
X0357140Y0065503D01*
X0357129Y0065737D01*
X0357112Y0065971D01*
X0357089Y0066204D01*
X0357060Y0066437D01*
X0357026Y0066669D01*
X0356985Y0066900D01*
X0356940Y0067129D01*
X0356888Y0067358D01*
X0356831Y0067586D01*
X0356769Y0067811D01*
X0356701Y0068036D01*
X0356627Y0068258D01*
X0356548Y0068479D01*
X0356464Y0068698D01*
X0356374Y0068914D01*
X0356279Y0069129D01*
X0356179Y0069341D01*
X0356073Y0069550D01*
X0355963Y0069757D01*
X0355847Y0069961D01*
X0355727Y0070162D01*
X0355601Y0070360D01*
X0355471Y0070555D01*
X0355336Y0070746D01*
X0355196Y0070934D01*
X0355052Y0071119D01*
X0354903Y0071300D01*
X0354750Y0071478D01*
X0354593Y0071652D01*
X0354431Y0071821D01*
X0354265Y0071987D01*
X0354096Y0072149D01*
X0353922Y0072306D01*
X0353744Y0072459D01*
X0353563Y0072608D01*
X0353378Y0072752D01*
X0353190Y0072892D01*
X0352998Y0073027D01*
X0352804Y0073157D01*
X0352605Y0073282D01*
X0352404Y0073403D01*
X0352200Y0073518D01*
X0351994Y0073629D01*
X0351784Y0073734D01*
X0351572Y0073835D01*
X0351358Y0073930D01*
X0351142Y0074019D01*
X0350923Y0074104D01*
X0350702Y0074183D01*
X0350480Y0074256D01*
X0350255Y0074324D01*
X0350029Y0074387D01*
X0349802Y0074444D01*
X0349573Y0074495D01*
X0349343Y0074541D01*
X0349112Y0074581D01*
X0348880Y0074615D01*
X0348648Y0074644D01*
X0348414Y0074667D01*
X0348181Y0074684D01*
X0347947Y0074696D01*
X0347712Y0074701D01*
X0347478Y0074701D01*
X0347243Y0074696D01*
X0347009Y0074684D01*
X0346776Y0074667D01*
X0346542Y0074644D01*
X0346310Y0074615D01*
X0346078Y0074581D01*
X0345847Y0074541D01*
X0345617Y0074495D01*
X0345388Y0074444D01*
X0345161Y0074387D01*
X0344935Y0074324D01*
X0344710Y0074256D01*
X0344488Y0074183D01*
X0344267Y0074104D01*
X0344048Y0074019D01*
X0343832Y0073930D01*
X0343618Y0073835D01*
X0343406Y0073734D01*
X0343196Y0073629D01*
X0342990Y0073518D01*
X0342786Y0073403D01*
X0342585Y0073282D01*
X0342386Y0073157D01*
X0342192Y0073027D01*
X0342000Y0072892D01*
X0341812Y0072752D01*
X0341627Y0072608D01*
X0341446Y0072459D01*
X0341268Y0072306D01*
X0341094Y0072149D01*
X0340925Y0071987D01*
X0340759Y0071821D01*
X0340597Y0071652D01*
X0340440Y0071478D01*
X0340287Y0071300D01*
X0340138Y0071119D01*
X0339994Y0070934D01*
X0339854Y0070746D01*
X0339719Y0070555D01*
X0339589Y0070360D01*
X0339463Y0070162D01*
X0339343Y0069961D01*
X0339227Y0069757D01*
X0339117Y0069550D01*
X0339011Y0069341D01*
X0338911Y0069129D01*
X0338816Y0068914D01*
X0338726Y0068698D01*
X0338642Y0068479D01*
X0338563Y0068258D01*
X0338489Y0068036D01*
X0338421Y0067811D01*
X0338359Y0067586D01*
X0338302Y0067358D01*
X0338250Y0067129D01*
X0338205Y0066900D01*
X0338164Y0066669D01*
X0338130Y0066437D01*
X0338101Y0066204D01*
X0338078Y0065971D01*
X0338061Y0065737D01*
X0338050Y0065503D01*
X0338044Y0065269D01*
X0338044Y0065034D01*
X0338049Y0064800D01*
X0338061Y0064566D01*
X0338078Y0064332D01*
X0338101Y0064099D01*
X0338130Y0063866D01*
X0338164Y0063634D01*
X0338204Y0063403D01*
X0338250Y0063173D01*
X0338301Y0062944D01*
X0338358Y0062717D01*
X0338421Y0062491D01*
X0338489Y0062267D01*
X0338562Y0062044D01*
X0338641Y0061823D01*
X0338725Y0061605D01*
X0338815Y0061388D01*
X0338910Y0061174D01*
X0339010Y0060962D01*
X0339115Y0060752D01*
X0339226Y0060546D01*
X0339341Y0060342D01*
X0339462Y0060141D01*
X0339587Y0059943D01*
X0339717Y0059748D01*
X0339852Y0059556D01*
X0339992Y0059368D01*
X0340136Y0059183D01*
X0340285Y0059002D01*
X0340438Y0058824D01*
X0340595Y0058650D01*
X0342095Y0219650D02*
X0339595Y0222150D01*
X0337095Y0219650D01*
X0332095Y0219650D01*
X0329595Y0222150D01*
X0327095Y0219650D01*
X0322095Y0219650D01*
X0319595Y0222150D01*
X0317095Y0219650D01*
X0312095Y0219650D01*
X0309595Y0222150D01*
X0307095Y0219650D01*
X0302095Y0219650D01*
X0299595Y0222150D01*
X0297095Y0219650D01*
X0292095Y0219650D01*
X0289595Y0222150D01*
X0287095Y0219650D01*
X0282095Y0219650D01*
X0279595Y0222150D01*
X0279595Y0227150D01*
X0282095Y0229650D01*
X0287095Y0229650D01*
X0289595Y0227150D01*
X0292095Y0229650D01*
X0297095Y0229650D01*
X0299595Y0227150D01*
X0302095Y0229650D01*
X0307095Y0229650D01*
X0309595Y0227150D01*
X0312095Y0229650D01*
X0317095Y0229650D01*
X0319595Y0227150D01*
X0322095Y0229650D01*
X0327095Y0229650D01*
X0329595Y0227150D01*
X0332095Y0229650D01*
X0337095Y0229650D01*
X0339595Y0227150D01*
X0342095Y0229650D01*
X0347095Y0229650D01*
X0349595Y0227150D01*
X0352095Y0229650D01*
X0357095Y0229650D01*
X0359595Y0227150D01*
X0359595Y0222150D01*
X0357095Y0219650D01*
X0352095Y0219650D01*
X0349595Y0222150D01*
X0347095Y0219650D01*
X0342095Y0219650D01*
X0269595Y0222150D02*
X0267095Y0219650D01*
X0262095Y0219650D01*
X0259595Y0222150D01*
X0257095Y0219650D01*
X0252095Y0219650D01*
X0249595Y0222150D01*
X0247095Y0219650D01*
X0242095Y0219650D01*
X0239595Y0222150D01*
X0237095Y0219650D01*
X0232095Y0219650D01*
X0229595Y0222150D01*
X0227095Y0219650D01*
X0222095Y0219650D01*
X0219595Y0222150D01*
X0217095Y0219650D01*
X0212095Y0219650D01*
X0209595Y0222150D01*
X0207095Y0219650D01*
X0202095Y0219650D01*
X0199595Y0222150D01*
X0197095Y0219650D01*
X0192095Y0219650D01*
X0189595Y0222150D01*
X0189595Y0227150D01*
X0192095Y0229650D01*
X0197095Y0229650D01*
X0199595Y0227150D01*
X0202095Y0229650D01*
X0207095Y0229650D01*
X0209595Y0227150D01*
X0212095Y0229650D01*
X0217095Y0229650D01*
X0219595Y0227150D01*
X0222095Y0229650D01*
X0227095Y0229650D01*
X0229595Y0227150D01*
X0232095Y0229650D01*
X0237095Y0229650D01*
X0239595Y0227150D01*
X0242095Y0229650D01*
X0247095Y0229650D01*
X0249595Y0227150D01*
X0252095Y0229650D01*
X0257095Y0229650D01*
X0259595Y0227150D01*
X0262095Y0229650D01*
X0267095Y0229650D01*
X0269595Y0227150D01*
X0269595Y0222150D01*
X0184595Y0222150D02*
X0182095Y0219650D01*
X0177095Y0219650D01*
X0174595Y0222150D01*
X0172095Y0219650D01*
X0167095Y0219650D01*
X0164595Y0222150D01*
X0162095Y0219650D01*
X0157095Y0219650D01*
X0154595Y0222150D01*
X0152095Y0219650D01*
X0147095Y0219650D01*
X0144595Y0222150D01*
X0142095Y0219650D01*
X0137095Y0219650D01*
X0134595Y0222150D01*
X0132095Y0219650D01*
X0127095Y0219650D01*
X0124595Y0222150D01*
X0122095Y0219650D01*
X0117095Y0219650D01*
X0114595Y0222150D01*
X0112095Y0219650D01*
X0107095Y0219650D01*
X0104595Y0222150D01*
X0102095Y0219650D01*
X0097095Y0219650D01*
X0094595Y0222150D01*
X0092095Y0219650D01*
X0087095Y0219650D01*
X0084595Y0222150D01*
X0084595Y0227150D01*
X0087095Y0229650D01*
X0092095Y0229650D01*
X0094595Y0227150D01*
X0097095Y0229650D01*
X0102095Y0229650D01*
X0104595Y0227150D01*
X0107095Y0229650D01*
X0112095Y0229650D01*
X0114595Y0227150D01*
X0117095Y0229650D01*
X0122095Y0229650D01*
X0124595Y0227150D01*
X0127095Y0229650D01*
X0132095Y0229650D01*
X0134595Y0227150D01*
X0137095Y0229650D01*
X0142095Y0229650D01*
X0144595Y0227150D01*
X0147095Y0229650D01*
X0152095Y0229650D01*
X0154595Y0227150D01*
X0157095Y0229650D01*
X0162095Y0229650D01*
X0164595Y0227150D01*
X0167095Y0229650D01*
X0172095Y0229650D01*
X0174595Y0227150D01*
X0177095Y0229650D01*
X0182095Y0229650D01*
X0184595Y0227150D01*
X0184595Y0222150D01*
D13*
X0084949Y0019721D02*
X0053650Y0019721D01*
X0053650Y0053579D01*
X0109949Y0053579D01*
X0109949Y0047280D01*
X0109949Y0026020D02*
X0109949Y0019721D01*
X0103650Y0019721D01*
X0162095Y0054288D02*
X0162095Y0059012D01*
X0166032Y0056650D01*
X0162095Y0054288D01*
X0162095Y0075788D02*
X0162095Y0080512D01*
X0166032Y0078150D01*
X0162095Y0075788D01*
X0161871Y0091807D02*
X0161871Y0097713D01*
X0161871Y0091807D02*
X0171320Y0091807D01*
X0171320Y0097713D01*
X0174871Y0097713D02*
X0174871Y0091807D01*
X0184320Y0091807D01*
X0184320Y0097713D01*
X0184320Y0105587D02*
X0184320Y0109918D01*
X0182745Y0111493D01*
X0176446Y0111493D01*
X0174871Y0109918D01*
X0174871Y0105587D01*
X0171320Y0105587D02*
X0171320Y0109918D01*
X0169745Y0111493D01*
X0163446Y0111493D01*
X0161871Y0109918D01*
X0161871Y0105587D01*
X0154320Y0105587D02*
X0154320Y0109918D01*
X0152745Y0111493D01*
X0146446Y0111493D01*
X0144871Y0109918D01*
X0144871Y0105587D01*
X0141320Y0105587D02*
X0141320Y0109918D01*
X0139745Y0111493D01*
X0133446Y0111493D01*
X0131871Y0109918D01*
X0131871Y0105587D01*
X0131871Y0097713D02*
X0131871Y0091807D01*
X0141320Y0091807D01*
X0141320Y0097713D01*
X0144871Y0097713D02*
X0144871Y0091807D01*
X0154320Y0091807D01*
X0154320Y0097713D01*
X0126264Y0071461D02*
X0126264Y0069650D01*
X0125044Y0068730D01*
X0126264Y0067839D02*
X0126264Y0069650D01*
X0126204Y0069750D02*
X0125044Y0070510D01*
X0267863Y0089807D02*
X0267863Y0109493D01*
X0301327Y0109493D01*
X0301327Y0089807D01*
X0267863Y0089807D01*
X0269717Y0092650D02*
X0269719Y0092709D01*
X0269725Y0092767D01*
X0269735Y0092825D01*
X0269748Y0092882D01*
X0269766Y0092938D01*
X0269787Y0092993D01*
X0269811Y0093046D01*
X0269840Y0093097D01*
X0269871Y0093147D01*
X0269906Y0093194D01*
X0269944Y0093239D01*
X0269985Y0093281D01*
X0270028Y0093320D01*
X0270074Y0093357D01*
X0270123Y0093390D01*
X0270173Y0093420D01*
X0270225Y0093446D01*
X0270279Y0093469D01*
X0270335Y0093489D01*
X0270391Y0093504D01*
X0270449Y0093516D01*
X0270507Y0093524D01*
X0270566Y0093528D01*
X0270624Y0093528D01*
X0270683Y0093524D01*
X0270741Y0093516D01*
X0270799Y0093504D01*
X0270855Y0093489D01*
X0270911Y0093469D01*
X0270965Y0093446D01*
X0271017Y0093420D01*
X0271067Y0093390D01*
X0271116Y0093357D01*
X0271162Y0093320D01*
X0271205Y0093281D01*
X0271246Y0093239D01*
X0271284Y0093194D01*
X0271319Y0093147D01*
X0271350Y0093097D01*
X0271379Y0093046D01*
X0271403Y0092993D01*
X0271424Y0092938D01*
X0271442Y0092882D01*
X0271455Y0092825D01*
X0271465Y0092767D01*
X0271471Y0092709D01*
X0271473Y0092650D01*
X0271471Y0092591D01*
X0271465Y0092533D01*
X0271455Y0092475D01*
X0271442Y0092418D01*
X0271424Y0092362D01*
X0271403Y0092307D01*
X0271379Y0092254D01*
X0271350Y0092203D01*
X0271319Y0092153D01*
X0271284Y0092106D01*
X0271246Y0092061D01*
X0271205Y0092019D01*
X0271162Y0091980D01*
X0271116Y0091943D01*
X0271067Y0091910D01*
X0271017Y0091880D01*
X0270965Y0091854D01*
X0270911Y0091831D01*
X0270855Y0091811D01*
X0270799Y0091796D01*
X0270741Y0091784D01*
X0270683Y0091776D01*
X0270624Y0091772D01*
X0270566Y0091772D01*
X0270507Y0091776D01*
X0270449Y0091784D01*
X0270391Y0091796D01*
X0270335Y0091811D01*
X0270279Y0091831D01*
X0270225Y0091854D01*
X0270173Y0091880D01*
X0270123Y0091910D01*
X0270074Y0091943D01*
X0270028Y0091980D01*
X0269985Y0092019D01*
X0269944Y0092061D01*
X0269906Y0092106D01*
X0269871Y0092153D01*
X0269840Y0092203D01*
X0269811Y0092254D01*
X0269787Y0092307D01*
X0269766Y0092362D01*
X0269748Y0092418D01*
X0269735Y0092475D01*
X0269725Y0092533D01*
X0269719Y0092591D01*
X0269717Y0092650D01*
X0277075Y0159288D02*
X0239083Y0159288D01*
X0239083Y0211650D01*
X0235461Y0215193D01*
X0303729Y0215193D01*
X0300107Y0211650D01*
X0300107Y0159288D01*
X0277863Y0159288D01*
X0309083Y0159288D02*
X0347075Y0159288D01*
X0347863Y0159288D02*
X0370107Y0159288D01*
X0370107Y0211650D01*
X0373729Y0215193D01*
X0305461Y0215193D01*
X0309083Y0211650D01*
X0370107Y0211650D01*
X0397572Y0179280D02*
X0397572Y0058020D01*
X0418595Y0058020D01*
X0412264Y0033461D02*
X0412264Y0031650D01*
X0411044Y0030730D01*
X0412264Y0029839D02*
X0412264Y0031650D01*
X0412204Y0031750D02*
X0411044Y0032510D01*
X0397146Y0032570D02*
X0395926Y0031650D01*
X0395926Y0029839D01*
X0397146Y0030790D02*
X0395986Y0031550D01*
X0395926Y0031650D02*
X0395926Y0033461D01*
X0309083Y0159288D02*
X0309083Y0211650D01*
X0300107Y0211650D02*
X0239083Y0211650D01*
X0233729Y0215193D02*
X0230107Y0211650D01*
X0230107Y0159288D01*
X0207863Y0159288D01*
X0207075Y0159288D02*
X0169083Y0159288D01*
X0169083Y0211650D01*
X0165461Y0215193D01*
X0233729Y0215193D01*
X0230107Y0211650D02*
X0169083Y0211650D01*
X0153729Y0215193D02*
X0150107Y0211650D01*
X0150107Y0159288D01*
X0127863Y0159288D01*
X0127075Y0159288D02*
X0089083Y0159288D01*
X0089083Y0211650D01*
X0085461Y0215193D01*
X0153729Y0215193D01*
X0150107Y0211650D02*
X0089083Y0211650D01*
X0397572Y0179280D02*
X0418595Y0179280D01*
D14*
X0296395Y0147048D02*
X0296395Y0145513D01*
X0295628Y0144746D01*
X0292559Y0147815D01*
X0295628Y0147815D01*
X0296395Y0147048D01*
X0295628Y0144746D02*
X0292559Y0144746D01*
X0291791Y0145513D01*
X0291791Y0147048D01*
X0292559Y0147815D01*
X0284395Y0147048D02*
X0283628Y0147815D01*
X0280559Y0147815D01*
X0279791Y0147048D01*
X0279791Y0145513D01*
X0280559Y0144746D01*
X0281326Y0144746D01*
X0282093Y0145513D01*
X0282093Y0147815D01*
X0284395Y0147048D02*
X0284395Y0145513D01*
X0283628Y0144746D01*
X0284395Y0143211D02*
X0284395Y0140142D01*
X0281326Y0143211D01*
X0280559Y0143211D01*
X0279791Y0142444D01*
X0279791Y0140909D01*
X0280559Y0140142D01*
X0280559Y0138607D02*
X0282093Y0138607D01*
X0282861Y0137840D01*
X0282861Y0135538D01*
X0284395Y0135538D02*
X0279791Y0135538D01*
X0279791Y0137840D01*
X0280559Y0138607D01*
X0282861Y0137073D02*
X0284395Y0138607D01*
X0291791Y0137840D02*
X0291791Y0135538D01*
X0296395Y0135538D01*
X0294861Y0135538D02*
X0294861Y0137840D01*
X0294093Y0138607D01*
X0292559Y0138607D01*
X0291791Y0137840D01*
X0292559Y0140142D02*
X0291791Y0140909D01*
X0291791Y0142444D01*
X0292559Y0143211D01*
X0293326Y0143211D01*
X0294093Y0142444D01*
X0294861Y0143211D01*
X0295628Y0143211D01*
X0296395Y0142444D01*
X0296395Y0140909D01*
X0295628Y0140142D01*
X0296395Y0138607D02*
X0294861Y0137073D01*
X0294093Y0141677D02*
X0294093Y0142444D01*
X0272395Y0143211D02*
X0272395Y0140142D01*
X0269326Y0143211D01*
X0268559Y0143211D01*
X0267791Y0142444D01*
X0267791Y0140909D01*
X0268559Y0140142D01*
X0268559Y0138607D02*
X0270093Y0138607D01*
X0270861Y0137840D01*
X0270861Y0135538D01*
X0272395Y0135538D02*
X0267791Y0135538D01*
X0267791Y0137840D01*
X0268559Y0138607D01*
X0270861Y0137073D02*
X0272395Y0138607D01*
X0271628Y0144746D02*
X0270861Y0144746D01*
X0270093Y0145513D01*
X0270093Y0147048D01*
X0270861Y0147815D01*
X0271628Y0147815D01*
X0272395Y0147048D01*
X0272395Y0145513D01*
X0271628Y0144746D01*
X0270093Y0145513D02*
X0269326Y0144746D01*
X0268559Y0144746D01*
X0267791Y0145513D01*
X0267791Y0147048D01*
X0268559Y0147815D01*
X0269326Y0147815D01*
X0270093Y0147048D01*
X0260395Y0144746D02*
X0259628Y0144746D01*
X0256559Y0147815D01*
X0255791Y0147815D01*
X0255791Y0144746D01*
X0256559Y0143211D02*
X0255791Y0142444D01*
X0255791Y0140909D01*
X0256559Y0140142D01*
X0256559Y0138607D02*
X0258093Y0138607D01*
X0258861Y0137840D01*
X0258861Y0135538D01*
X0260395Y0135538D02*
X0255791Y0135538D01*
X0255791Y0137840D01*
X0256559Y0138607D01*
X0258861Y0137073D02*
X0260395Y0138607D01*
X0260395Y0140142D02*
X0257326Y0143211D01*
X0256559Y0143211D01*
X0260395Y0143211D02*
X0260395Y0140142D01*
X0225572Y0114454D02*
X0224038Y0113687D01*
X0222503Y0112152D01*
X0224805Y0112152D01*
X0225572Y0111385D01*
X0225572Y0110617D01*
X0224805Y0109850D01*
X0223270Y0109850D01*
X0222503Y0110617D01*
X0222503Y0112152D01*
X0220968Y0112919D02*
X0217899Y0109850D01*
X0220968Y0109850D01*
X0220968Y0112919D02*
X0220968Y0113687D01*
X0220201Y0114454D01*
X0218666Y0114454D01*
X0217899Y0113687D01*
X0216364Y0113687D02*
X0215597Y0114454D01*
X0213295Y0114454D01*
X0213295Y0109850D01*
X0213295Y0111385D02*
X0215597Y0111385D01*
X0216364Y0112152D01*
X0216364Y0113687D01*
X0214830Y0111385D02*
X0216364Y0109850D01*
X0215597Y0102454D02*
X0216364Y0101687D01*
X0216364Y0100152D01*
X0215597Y0099385D01*
X0213295Y0099385D01*
X0214830Y0099385D02*
X0216364Y0097850D01*
X0217899Y0097850D02*
X0220968Y0100919D01*
X0220968Y0101687D01*
X0220201Y0102454D01*
X0218666Y0102454D01*
X0217899Y0101687D01*
X0215597Y0102454D02*
X0213295Y0102454D01*
X0213295Y0097850D01*
X0217899Y0097850D02*
X0220968Y0097850D01*
X0222503Y0098617D02*
X0223270Y0097850D01*
X0224805Y0097850D01*
X0225572Y0098617D01*
X0225572Y0100152D01*
X0224805Y0100919D01*
X0224038Y0100919D01*
X0222503Y0100152D01*
X0222503Y0102454D01*
X0225572Y0102454D01*
X0167260Y0072096D02*
X0166493Y0072863D01*
X0164959Y0072863D01*
X0164191Y0072096D01*
X0162657Y0072096D02*
X0161889Y0072863D01*
X0159587Y0072863D01*
X0159587Y0068259D01*
X0161889Y0068259D01*
X0162657Y0069027D01*
X0162657Y0072096D01*
X0164191Y0068259D02*
X0167260Y0071329D01*
X0167260Y0072096D01*
X0167260Y0068259D02*
X0164191Y0068259D01*
X0143260Y0063152D02*
X0140191Y0063152D01*
X0142493Y0065454D01*
X0142493Y0060850D01*
X0138657Y0060850D02*
X0137122Y0062385D01*
X0137889Y0062385D02*
X0135587Y0062385D01*
X0135587Y0060850D02*
X0135587Y0065454D01*
X0137889Y0065454D01*
X0138657Y0064687D01*
X0138657Y0063152D01*
X0137889Y0062385D01*
X0119395Y0050315D02*
X0117861Y0048781D01*
X0117861Y0049548D02*
X0117861Y0047246D01*
X0119395Y0047246D02*
X0114791Y0047246D01*
X0114791Y0049548D01*
X0115559Y0050315D01*
X0117093Y0050315D01*
X0117861Y0049548D01*
X0119395Y0045711D02*
X0119395Y0042642D01*
X0114791Y0042642D01*
X0114791Y0045711D01*
X0117093Y0044177D02*
X0117093Y0042642D01*
X0119395Y0041107D02*
X0114791Y0041107D01*
X0114791Y0038038D02*
X0119395Y0038038D01*
X0117861Y0039573D01*
X0119395Y0041107D01*
X0118628Y0036504D02*
X0115559Y0036504D01*
X0114791Y0035736D01*
X0114791Y0034202D01*
X0115559Y0033434D01*
X0118628Y0033434D01*
X0119395Y0034202D01*
X0119395Y0035736D01*
X0118628Y0036504D01*
X0117093Y0031900D02*
X0117861Y0031132D01*
X0117861Y0028830D01*
X0119395Y0028830D02*
X0114791Y0028830D01*
X0114791Y0031132D01*
X0115559Y0031900D01*
X0117093Y0031900D01*
X0143059Y0025048D02*
X0146128Y0025048D01*
X0146895Y0025815D01*
X0143826Y0025815D02*
X0143826Y0024281D01*
X0143826Y0022746D02*
X0143826Y0020444D01*
X0144593Y0019677D01*
X0145361Y0020444D01*
X0145361Y0021979D01*
X0146128Y0022746D01*
X0146895Y0021979D01*
X0146895Y0019677D01*
X0146895Y0018142D02*
X0145361Y0016607D01*
X0145361Y0017375D02*
X0145361Y0015073D01*
X0146895Y0015073D02*
X0142291Y0015073D01*
X0142291Y0017375D01*
X0143059Y0018142D01*
X0144593Y0018142D01*
X0145361Y0017375D01*
X0152291Y0015840D02*
X0153059Y0016607D01*
X0153826Y0016607D01*
X0154593Y0015840D01*
X0155361Y0016607D01*
X0156128Y0016607D01*
X0156895Y0015840D01*
X0156895Y0014306D01*
X0156128Y0013538D01*
X0154593Y0015073D02*
X0154593Y0015840D01*
X0152291Y0015840D02*
X0152291Y0014306D01*
X0153059Y0013538D01*
X0153826Y0018142D02*
X0156895Y0019677D01*
X0153826Y0021211D01*
X0153059Y0022746D02*
X0152291Y0023513D01*
X0152291Y0025048D01*
X0153059Y0025815D01*
X0153826Y0025815D01*
X0154593Y0025048D01*
X0155361Y0025815D01*
X0156128Y0025815D01*
X0156895Y0025048D01*
X0156895Y0023513D01*
X0156128Y0022746D01*
X0154593Y0024281D02*
X0154593Y0025048D01*
X0162291Y0021211D02*
X0162291Y0018142D01*
X0164593Y0018142D01*
X0163826Y0019677D01*
X0163826Y0020444D01*
X0164593Y0021211D01*
X0166128Y0021211D01*
X0166895Y0020444D01*
X0166895Y0018909D01*
X0166128Y0018142D01*
X0172291Y0015840D02*
X0172291Y0014306D01*
X0173059Y0013538D01*
X0176128Y0013538D01*
X0176895Y0014306D01*
X0176895Y0015840D01*
X0176128Y0016607D01*
X0174593Y0016607D01*
X0174593Y0015073D01*
X0173059Y0016607D02*
X0172291Y0015840D01*
X0173826Y0018142D02*
X0173826Y0020444D01*
X0174593Y0021211D01*
X0176895Y0021211D01*
X0176128Y0022746D02*
X0174593Y0022746D01*
X0173826Y0023513D01*
X0173826Y0025815D01*
X0172291Y0025815D02*
X0176895Y0025815D01*
X0176895Y0023513D01*
X0176128Y0022746D01*
X0182291Y0025815D02*
X0186895Y0025815D01*
X0186895Y0023513D01*
X0186128Y0022746D01*
X0184593Y0022746D01*
X0183826Y0023513D01*
X0183826Y0025815D01*
X0184593Y0021211D02*
X0183826Y0020444D01*
X0183826Y0018142D01*
X0186895Y0018142D01*
X0186128Y0016607D02*
X0184593Y0016607D01*
X0184593Y0015073D01*
X0183059Y0016607D02*
X0182291Y0015840D01*
X0182291Y0014306D01*
X0183059Y0013538D01*
X0186128Y0013538D01*
X0186895Y0014306D01*
X0186895Y0015840D01*
X0186128Y0016607D01*
X0192291Y0015073D02*
X0195361Y0015073D01*
X0196895Y0016607D01*
X0195361Y0018142D01*
X0192291Y0018142D01*
X0193826Y0019677D02*
X0193826Y0020444D01*
X0196895Y0020444D01*
X0196895Y0019677D02*
X0196895Y0021211D01*
X0196895Y0022746D02*
X0193826Y0022746D01*
X0193826Y0025048D01*
X0194593Y0025815D01*
X0196895Y0025815D01*
X0192291Y0020444D02*
X0191524Y0020444D01*
X0186895Y0021211D02*
X0184593Y0021211D01*
X0176895Y0018142D02*
X0173826Y0018142D01*
X0166895Y0024281D02*
X0163826Y0022746D01*
X0163826Y0025815D02*
X0166895Y0024281D01*
X0167260Y0046759D02*
X0164191Y0046759D01*
X0165726Y0046759D02*
X0165726Y0051363D01*
X0164191Y0049829D01*
X0162657Y0050596D02*
X0161889Y0051363D01*
X0159587Y0051363D01*
X0159587Y0046759D01*
X0161889Y0046759D01*
X0162657Y0047527D01*
X0162657Y0050596D01*
X0192791Y0050850D02*
X0192791Y0053152D01*
X0193559Y0053919D01*
X0195093Y0053919D01*
X0195861Y0053152D01*
X0195861Y0050850D01*
X0197395Y0050850D02*
X0192791Y0050850D01*
X0195861Y0052385D02*
X0197395Y0053919D01*
X0197395Y0055454D02*
X0194326Y0058523D01*
X0193559Y0058523D01*
X0192791Y0057756D01*
X0192791Y0056221D01*
X0193559Y0055454D01*
X0197395Y0055454D02*
X0197395Y0058523D01*
X0195093Y0060058D02*
X0192791Y0062360D01*
X0197395Y0062360D01*
X0195093Y0063127D02*
X0195093Y0060058D01*
X0206791Y0060825D02*
X0206791Y0062360D01*
X0207559Y0063127D01*
X0208326Y0063127D01*
X0209093Y0062360D01*
X0209861Y0063127D01*
X0210628Y0063127D01*
X0211395Y0062360D01*
X0211395Y0060825D01*
X0210628Y0060058D01*
X0211395Y0058523D02*
X0211395Y0055454D01*
X0208326Y0058523D01*
X0207559Y0058523D01*
X0206791Y0057756D01*
X0206791Y0056221D01*
X0207559Y0055454D01*
X0207559Y0053919D02*
X0209093Y0053919D01*
X0209861Y0053152D01*
X0209861Y0050850D01*
X0211395Y0050850D02*
X0206791Y0050850D01*
X0206791Y0053152D01*
X0207559Y0053919D01*
X0209861Y0052385D02*
X0211395Y0053919D01*
X0220791Y0053152D02*
X0220791Y0050850D01*
X0225395Y0050850D01*
X0223861Y0050850D02*
X0223861Y0053152D01*
X0223093Y0053919D01*
X0221559Y0053919D01*
X0220791Y0053152D01*
X0221559Y0055454D02*
X0220791Y0056221D01*
X0220791Y0057756D01*
X0221559Y0058523D01*
X0222326Y0058523D01*
X0225395Y0055454D01*
X0225395Y0058523D01*
X0225395Y0060058D02*
X0222326Y0063127D01*
X0221559Y0063127D01*
X0220791Y0062360D01*
X0220791Y0060825D01*
X0221559Y0060058D01*
X0225395Y0060058D02*
X0225395Y0063127D01*
X0234791Y0060592D02*
X0239395Y0060592D01*
X0239395Y0059058D02*
X0239395Y0062127D01*
X0236326Y0059058D02*
X0234791Y0060592D01*
X0235559Y0057523D02*
X0234791Y0056756D01*
X0234791Y0055221D01*
X0235559Y0054454D01*
X0235559Y0052919D02*
X0237093Y0052919D01*
X0237861Y0052152D01*
X0237861Y0049850D01*
X0239395Y0049850D02*
X0234791Y0049850D01*
X0234791Y0052152D01*
X0235559Y0052919D01*
X0237861Y0051385D02*
X0239395Y0052919D01*
X0239395Y0054454D02*
X0236326Y0057523D01*
X0235559Y0057523D01*
X0239395Y0057523D02*
X0239395Y0054454D01*
X0247791Y0053152D02*
X0247791Y0050850D01*
X0252395Y0050850D01*
X0250861Y0050850D02*
X0250861Y0053152D01*
X0250093Y0053919D01*
X0248559Y0053919D01*
X0247791Y0053152D01*
X0249326Y0055454D02*
X0247791Y0056989D01*
X0252395Y0056989D01*
X0252395Y0058523D02*
X0252395Y0055454D01*
X0252395Y0053919D02*
X0250861Y0052385D01*
X0263791Y0053152D02*
X0263791Y0050850D01*
X0268395Y0050850D01*
X0266861Y0050850D02*
X0266861Y0053152D01*
X0266093Y0053919D01*
X0264559Y0053919D01*
X0263791Y0053152D01*
X0265326Y0055454D02*
X0263791Y0056989D01*
X0268395Y0056989D01*
X0268395Y0058523D02*
X0268395Y0055454D01*
X0268395Y0053919D02*
X0266861Y0052385D01*
X0268395Y0060058D02*
X0265326Y0063127D01*
X0264559Y0063127D01*
X0263791Y0062360D01*
X0263791Y0060825D01*
X0264559Y0060058D01*
X0268395Y0060058D02*
X0268395Y0063127D01*
X0278791Y0057756D02*
X0278791Y0056221D01*
X0279559Y0055454D01*
X0280326Y0055454D01*
X0281093Y0056221D01*
X0281093Y0057756D01*
X0281861Y0058523D01*
X0282628Y0058523D01*
X0283395Y0057756D01*
X0283395Y0056221D01*
X0282628Y0055454D01*
X0281861Y0055454D01*
X0281093Y0056221D01*
X0281093Y0057756D02*
X0280326Y0058523D01*
X0279559Y0058523D01*
X0278791Y0057756D01*
X0279559Y0053919D02*
X0281093Y0053919D01*
X0281861Y0053152D01*
X0281861Y0050850D01*
X0283395Y0050850D02*
X0278791Y0050850D01*
X0278791Y0053152D01*
X0279559Y0053919D01*
X0281861Y0052385D02*
X0283395Y0053919D01*
X0294791Y0053152D02*
X0294791Y0050850D01*
X0299395Y0050850D01*
X0297861Y0050850D02*
X0297861Y0053152D01*
X0297093Y0053919D01*
X0295559Y0053919D01*
X0294791Y0053152D01*
X0294791Y0055454D02*
X0294791Y0058523D01*
X0295559Y0058523D01*
X0298628Y0055454D01*
X0299395Y0055454D01*
X0299395Y0053919D02*
X0297861Y0052385D01*
X0316483Y0055617D02*
X0317251Y0054850D01*
X0318785Y0054850D01*
X0319553Y0055617D01*
X0321087Y0054850D02*
X0324157Y0057919D01*
X0324157Y0058687D01*
X0323389Y0059454D01*
X0321855Y0059454D01*
X0321087Y0058687D01*
X0319553Y0058687D02*
X0318785Y0059454D01*
X0317251Y0059454D01*
X0316483Y0058687D01*
X0316483Y0055617D01*
X0321087Y0054850D02*
X0324157Y0054850D01*
X0325691Y0055617D02*
X0326459Y0054850D01*
X0327993Y0054850D01*
X0328760Y0055617D01*
X0328760Y0056385D01*
X0327993Y0057152D01*
X0327226Y0057152D01*
X0327993Y0057152D02*
X0328760Y0057919D01*
X0328760Y0058687D01*
X0327993Y0059454D01*
X0326459Y0059454D01*
X0325691Y0058687D01*
X0337875Y0056654D02*
X0337875Y0052050D01*
X0340945Y0052050D01*
X0342479Y0052050D02*
X0342479Y0056654D01*
X0344014Y0055119D01*
X0345549Y0056654D01*
X0345549Y0052050D01*
X0348618Y0052050D02*
X0348618Y0056654D01*
X0347083Y0056654D02*
X0350153Y0056654D01*
X0351687Y0055887D02*
X0351687Y0055119D01*
X0352455Y0054352D01*
X0353989Y0054352D01*
X0354757Y0053585D01*
X0354757Y0052817D01*
X0353989Y0052050D01*
X0352455Y0052050D01*
X0351687Y0052817D01*
X0351687Y0053585D01*
X0352455Y0054352D01*
X0353989Y0054352D02*
X0354757Y0055119D01*
X0354757Y0055887D01*
X0353989Y0056654D01*
X0352455Y0056654D01*
X0351687Y0055887D01*
X0356291Y0056654D02*
X0359360Y0056654D01*
X0359360Y0055887D01*
X0356291Y0052817D01*
X0356291Y0052050D01*
X0366062Y0067850D02*
X0367597Y0067850D01*
X0368364Y0068617D01*
X0369899Y0067850D02*
X0372968Y0070919D01*
X0372968Y0071687D01*
X0372201Y0072454D01*
X0370666Y0072454D01*
X0369899Y0071687D01*
X0368364Y0071687D02*
X0367597Y0072454D01*
X0366062Y0072454D01*
X0365295Y0071687D01*
X0365295Y0068617D01*
X0366062Y0067850D01*
X0369899Y0067850D02*
X0372968Y0067850D01*
X0374503Y0070152D02*
X0377572Y0070152D01*
X0376805Y0072454D02*
X0374503Y0070152D01*
X0376805Y0067850D02*
X0376805Y0072454D01*
X0348760Y0073850D02*
X0345691Y0073850D01*
X0348760Y0076919D01*
X0348760Y0077687D01*
X0347993Y0078454D01*
X0346459Y0078454D01*
X0345691Y0077687D01*
X0344157Y0077687D02*
X0344157Y0076919D01*
X0343389Y0076152D01*
X0344157Y0075385D01*
X0344157Y0074617D01*
X0343389Y0073850D01*
X0341855Y0073850D01*
X0341087Y0074617D01*
X0339553Y0073850D02*
X0338018Y0075385D01*
X0338785Y0075385D02*
X0336483Y0075385D01*
X0336483Y0073850D02*
X0336483Y0078454D01*
X0338785Y0078454D01*
X0339553Y0077687D01*
X0339553Y0076152D01*
X0338785Y0075385D01*
X0341087Y0077687D02*
X0341855Y0078454D01*
X0343389Y0078454D01*
X0344157Y0077687D01*
X0343389Y0076152D02*
X0342622Y0076152D01*
X0343389Y0085850D02*
X0341855Y0085850D01*
X0341087Y0086617D01*
X0339553Y0085850D02*
X0338018Y0087385D01*
X0338785Y0087385D02*
X0336483Y0087385D01*
X0336483Y0085850D02*
X0336483Y0090454D01*
X0338785Y0090454D01*
X0339553Y0089687D01*
X0339553Y0088152D01*
X0338785Y0087385D01*
X0341087Y0089687D02*
X0341855Y0090454D01*
X0343389Y0090454D01*
X0344157Y0089687D01*
X0344157Y0088919D01*
X0343389Y0088152D01*
X0344157Y0087385D01*
X0344157Y0086617D01*
X0343389Y0085850D01*
X0343389Y0088152D02*
X0342622Y0088152D01*
X0345691Y0088919D02*
X0347226Y0090454D01*
X0347226Y0085850D01*
X0348760Y0085850D02*
X0345691Y0085850D01*
X0407795Y0049454D02*
X0410097Y0049454D01*
X0410864Y0048687D01*
X0410864Y0047152D01*
X0410097Y0046385D01*
X0407795Y0046385D01*
X0409330Y0046385D02*
X0410864Y0044850D01*
X0412399Y0044850D02*
X0415468Y0047919D01*
X0415468Y0048687D01*
X0414701Y0049454D01*
X0413166Y0049454D01*
X0412399Y0048687D01*
X0407795Y0049454D02*
X0407795Y0044850D01*
X0412399Y0044850D02*
X0415468Y0044850D01*
X0399260Y0035687D02*
X0399260Y0034919D01*
X0398493Y0034152D01*
X0399260Y0033385D01*
X0399260Y0032617D01*
X0398493Y0031850D01*
X0396959Y0031850D01*
X0396191Y0032617D01*
X0394657Y0031850D02*
X0393122Y0033385D01*
X0393889Y0033385D02*
X0391587Y0033385D01*
X0391587Y0031850D02*
X0391587Y0036454D01*
X0393889Y0036454D01*
X0394657Y0035687D01*
X0394657Y0034152D01*
X0393889Y0033385D01*
X0396191Y0035687D02*
X0396959Y0036454D01*
X0398493Y0036454D01*
X0399260Y0035687D01*
X0398493Y0034152D02*
X0397726Y0034152D01*
X0376895Y0025815D02*
X0372291Y0022746D01*
X0372291Y0021211D02*
X0372291Y0018142D01*
X0372291Y0019677D02*
X0376895Y0019677D01*
X0376895Y0016607D02*
X0374593Y0016607D01*
X0373826Y0015840D01*
X0373826Y0013538D01*
X0376895Y0013538D01*
X0376895Y0012004D02*
X0376895Y0009702D01*
X0376128Y0008934D01*
X0374593Y0008934D01*
X0373826Y0009702D01*
X0373826Y0012004D01*
X0366895Y0012004D02*
X0366895Y0009702D01*
X0366128Y0008934D01*
X0364593Y0008934D01*
X0363826Y0009702D01*
X0363826Y0012004D01*
X0363826Y0013538D02*
X0363826Y0015840D01*
X0364593Y0016607D01*
X0366895Y0016607D01*
X0366895Y0018142D02*
X0362291Y0018142D01*
X0362291Y0020444D01*
X0363059Y0021211D01*
X0364593Y0021211D01*
X0365361Y0020444D01*
X0365361Y0018142D01*
X0365361Y0019677D02*
X0366895Y0021211D01*
X0366895Y0022746D02*
X0362291Y0025815D01*
X0362291Y0022746D02*
X0366895Y0025815D01*
X0372291Y0025815D02*
X0376895Y0022746D01*
X0366895Y0013538D02*
X0363826Y0013538D01*
X0356895Y0013538D02*
X0353826Y0013538D01*
X0352291Y0015073D01*
X0353826Y0016607D01*
X0356895Y0016607D01*
X0356128Y0018142D02*
X0353059Y0018142D01*
X0352291Y0018909D01*
X0352291Y0020444D01*
X0353059Y0021211D01*
X0353826Y0022746D02*
X0352291Y0024281D01*
X0356895Y0024281D01*
X0356895Y0025815D02*
X0356895Y0022746D01*
X0356128Y0021211D02*
X0356895Y0020444D01*
X0356895Y0018909D01*
X0356128Y0018142D01*
X0354593Y0016607D02*
X0354593Y0013538D01*
X0353059Y0012004D02*
X0356128Y0012004D01*
X0356895Y0011236D01*
X0356895Y0008934D01*
X0352291Y0008934D01*
X0352291Y0011236D01*
X0353059Y0012004D01*
X0346895Y0011236D02*
X0346128Y0012004D01*
X0343059Y0012004D01*
X0342291Y0011236D01*
X0342291Y0008934D01*
X0346895Y0008934D01*
X0346895Y0011236D01*
X0346895Y0013538D02*
X0343826Y0013538D01*
X0342291Y0015073D01*
X0343826Y0016607D01*
X0346895Y0016607D01*
X0346128Y0018142D02*
X0343059Y0018142D01*
X0342291Y0018909D01*
X0342291Y0020444D01*
X0343059Y0021211D01*
X0343059Y0022746D02*
X0342291Y0023513D01*
X0342291Y0025048D01*
X0343059Y0025815D01*
X0346128Y0022746D01*
X0346895Y0023513D01*
X0346895Y0025048D01*
X0346128Y0025815D01*
X0343059Y0025815D01*
X0343059Y0022746D02*
X0346128Y0022746D01*
X0346128Y0021211D02*
X0346895Y0020444D01*
X0346895Y0018909D01*
X0346128Y0018142D01*
X0344593Y0016607D02*
X0344593Y0013538D01*
X0336895Y0013538D02*
X0333826Y0013538D01*
X0332291Y0015073D01*
X0333826Y0016607D01*
X0336895Y0016607D01*
X0336895Y0018142D02*
X0336895Y0021211D01*
X0336895Y0019677D02*
X0332291Y0019677D01*
X0333826Y0018142D01*
X0334593Y0016607D02*
X0334593Y0013538D01*
X0326895Y0013538D02*
X0323826Y0013538D01*
X0322291Y0015073D01*
X0323826Y0016607D01*
X0326895Y0016607D01*
X0326895Y0018142D02*
X0326895Y0021211D01*
X0326895Y0019677D02*
X0322291Y0019677D01*
X0323826Y0018142D01*
X0324593Y0016607D02*
X0324593Y0013538D01*
X0316895Y0018142D02*
X0313826Y0018142D01*
X0312291Y0019677D01*
X0313826Y0021211D01*
X0316895Y0021211D01*
X0316128Y0022746D02*
X0316895Y0023513D01*
X0316895Y0025048D01*
X0316128Y0025815D01*
X0313059Y0025815D01*
X0312291Y0025048D01*
X0312291Y0023513D01*
X0313059Y0022746D01*
X0313826Y0022746D01*
X0314593Y0023513D01*
X0314593Y0025815D01*
X0314593Y0021211D02*
X0314593Y0018142D01*
X0306895Y0018142D02*
X0303826Y0018142D01*
X0302291Y0019677D01*
X0303826Y0021211D01*
X0306895Y0021211D01*
X0306128Y0022746D02*
X0305361Y0022746D01*
X0304593Y0023513D01*
X0304593Y0025048D01*
X0305361Y0025815D01*
X0306128Y0025815D01*
X0306895Y0025048D01*
X0306895Y0023513D01*
X0306128Y0022746D01*
X0304593Y0023513D02*
X0303826Y0022746D01*
X0303059Y0022746D01*
X0302291Y0023513D01*
X0302291Y0025048D01*
X0303059Y0025815D01*
X0303826Y0025815D01*
X0304593Y0025048D01*
X0304593Y0021211D02*
X0304593Y0018142D01*
X0286895Y0018142D02*
X0283826Y0018142D01*
X0282291Y0019677D01*
X0283826Y0021211D01*
X0286895Y0021211D01*
X0286895Y0022746D02*
X0286128Y0022746D01*
X0283059Y0025815D01*
X0282291Y0025815D01*
X0282291Y0022746D01*
X0284593Y0021211D02*
X0284593Y0018142D01*
X0276895Y0018142D02*
X0273826Y0018142D01*
X0272291Y0019677D01*
X0273826Y0021211D01*
X0276895Y0021211D01*
X0276128Y0022746D02*
X0276895Y0023513D01*
X0276895Y0025048D01*
X0276128Y0025815D01*
X0275361Y0025815D01*
X0274593Y0025048D01*
X0274593Y0022746D01*
X0276128Y0022746D01*
X0274593Y0022746D02*
X0273059Y0024281D01*
X0272291Y0025815D01*
X0266895Y0025048D02*
X0266895Y0023513D01*
X0266128Y0022746D01*
X0264593Y0022746D02*
X0263826Y0024281D01*
X0263826Y0025048D01*
X0264593Y0025815D01*
X0266128Y0025815D01*
X0266895Y0025048D01*
X0264593Y0022746D02*
X0262291Y0022746D01*
X0262291Y0025815D01*
X0256895Y0025048D02*
X0252291Y0025048D01*
X0254593Y0022746D01*
X0254593Y0025815D01*
X0246895Y0025048D02*
X0246895Y0023513D01*
X0246128Y0022746D01*
X0246895Y0021211D02*
X0243826Y0021211D01*
X0242291Y0019677D01*
X0243826Y0018142D01*
X0246895Y0018142D01*
X0244593Y0018142D02*
X0244593Y0021211D01*
X0243059Y0022746D02*
X0242291Y0023513D01*
X0242291Y0025048D01*
X0243059Y0025815D01*
X0243826Y0025815D01*
X0244593Y0025048D01*
X0245361Y0025815D01*
X0246128Y0025815D01*
X0246895Y0025048D01*
X0244593Y0025048D02*
X0244593Y0024281D01*
X0236895Y0025815D02*
X0236895Y0022746D01*
X0233826Y0025815D01*
X0233059Y0025815D01*
X0232291Y0025048D01*
X0232291Y0023513D01*
X0233059Y0022746D01*
X0233826Y0021211D02*
X0236895Y0021211D01*
X0234593Y0021211D02*
X0234593Y0018142D01*
X0233826Y0018142D02*
X0232291Y0019677D01*
X0233826Y0021211D01*
X0233826Y0018142D02*
X0236895Y0018142D01*
X0226895Y0018142D02*
X0223826Y0018142D01*
X0222291Y0019677D01*
X0223826Y0021211D01*
X0226895Y0021211D01*
X0226895Y0022746D02*
X0226895Y0025815D01*
X0226895Y0024281D02*
X0222291Y0024281D01*
X0223826Y0022746D01*
X0224593Y0021211D02*
X0224593Y0018142D01*
X0216895Y0018142D02*
X0213826Y0018142D01*
X0212291Y0019677D01*
X0213826Y0021211D01*
X0216895Y0021211D01*
X0216128Y0022746D02*
X0213059Y0025815D01*
X0216128Y0025815D01*
X0216895Y0025048D01*
X0216895Y0023513D01*
X0216128Y0022746D01*
X0213059Y0022746D01*
X0212291Y0023513D01*
X0212291Y0025048D01*
X0213059Y0025815D01*
X0214593Y0021211D02*
X0214593Y0018142D01*
X0252291Y0019677D02*
X0253826Y0021211D01*
X0256895Y0021211D01*
X0254593Y0021211D02*
X0254593Y0018142D01*
X0253826Y0018142D02*
X0252291Y0019677D01*
X0253826Y0018142D02*
X0256895Y0018142D01*
X0262291Y0019677D02*
X0263826Y0021211D01*
X0266895Y0021211D01*
X0264593Y0021211D02*
X0264593Y0018142D01*
X0263826Y0018142D02*
X0266895Y0018142D01*
X0263826Y0018142D02*
X0262291Y0019677D01*
X0274593Y0018142D02*
X0274593Y0021211D01*
X0322291Y0023513D02*
X0322291Y0025048D01*
X0323059Y0025815D01*
X0326128Y0022746D01*
X0326895Y0023513D01*
X0326895Y0025048D01*
X0326128Y0025815D01*
X0323059Y0025815D01*
X0322291Y0023513D02*
X0323059Y0022746D01*
X0326128Y0022746D01*
X0332291Y0024281D02*
X0336895Y0024281D01*
X0336895Y0025815D02*
X0336895Y0022746D01*
X0333826Y0022746D02*
X0332291Y0024281D01*
X0252395Y0060825D02*
X0251628Y0060058D01*
X0252395Y0060825D02*
X0252395Y0062360D01*
X0251628Y0063127D01*
X0250861Y0063127D01*
X0250093Y0062360D01*
X0250093Y0061592D01*
X0250093Y0062360D02*
X0249326Y0063127D01*
X0248559Y0063127D01*
X0247791Y0062360D01*
X0247791Y0060825D01*
X0248559Y0060058D01*
X0225395Y0053919D02*
X0223861Y0052385D01*
X0209093Y0061592D02*
X0209093Y0062360D01*
X0207559Y0060058D02*
X0206791Y0060825D01*
D15*
X0166764Y0056650D03*
X0166764Y0078150D03*
D16*
X0164595Y0034650D03*
X0154595Y0034650D03*
X0144595Y0034650D03*
X0134595Y0034650D03*
X0124595Y0034650D03*
X0174595Y0034650D03*
X0184595Y0034650D03*
X0194595Y0034650D03*
X0214595Y0034650D03*
X0224595Y0034650D03*
X0234595Y0034650D03*
X0244595Y0034650D03*
X0254595Y0034650D03*
X0264595Y0034650D03*
X0274595Y0034650D03*
X0284595Y0034650D03*
X0304595Y0034650D03*
X0314595Y0034650D03*
X0324595Y0034650D03*
X0334595Y0034650D03*
X0344595Y0034650D03*
X0354595Y0034650D03*
X0364595Y0034650D03*
X0374595Y0034650D03*
X0354595Y0224650D03*
X0344595Y0224650D03*
X0334595Y0224650D03*
X0324595Y0224650D03*
X0314595Y0224650D03*
X0304595Y0224650D03*
X0304595Y0224650D03*
X0294595Y0224650D03*
X0284595Y0224650D03*
X0264595Y0224650D03*
X0254595Y0224650D03*
X0244595Y0224650D03*
X0234595Y0224650D03*
X0224595Y0224650D03*
X0214595Y0224650D03*
X0204595Y0224650D03*
X0194595Y0224650D03*
X0179595Y0224650D03*
X0169595Y0224650D03*
X0159595Y0224650D03*
X0149595Y0224650D03*
X0139595Y0224650D03*
X0129595Y0224650D03*
X0119595Y0224650D03*
X0109595Y0224650D03*
X0099595Y0224650D03*
X0089595Y0224650D03*
D17*
X0132241Y0025799D02*
X0133025Y0025015D01*
X0136945Y0025015D01*
X0134593Y0024231D02*
X0134593Y0025799D01*
X0134593Y0022763D02*
X0135377Y0022763D01*
X0135377Y0019627D01*
X0134593Y0019627D02*
X0133809Y0020411D01*
X0133809Y0021979D01*
X0134593Y0022763D01*
X0136945Y0021979D02*
X0136945Y0020411D01*
X0136161Y0019627D01*
X0134593Y0019627D01*
X0133809Y0018142D02*
X0133809Y0017358D01*
X0135377Y0015790D01*
X0136945Y0015790D02*
X0133809Y0015790D01*
X0133025Y0014322D02*
X0132241Y0013538D01*
X0132241Y0011970D01*
X0133025Y0011186D01*
X0136161Y0011186D01*
X0136945Y0011970D01*
X0136945Y0013538D01*
X0136161Y0014322D01*
X0133025Y0014322D01*
X0132241Y0009685D02*
X0132241Y0008117D01*
X0132241Y0008901D02*
X0136945Y0008901D01*
X0136945Y0008117D02*
X0136945Y0009685D01*
D18*
X0419009Y0118933D02*
X0420410Y0119868D01*
X0420410Y0120407D02*
X0419476Y0121341D01*
X0419242Y0121341D01*
X0419009Y0121107D01*
X0419009Y0120640D01*
X0419242Y0120407D01*
X0419009Y0119868D02*
X0420410Y0118933D01*
X0420410Y0120407D02*
X0420410Y0121341D01*
D19*
X0376217Y0121776D02*
X0376217Y0137524D01*
X0072973Y0109524D02*
X0072973Y0093776D01*
M02*
