G75*
%MOIN*%
%OFA0B0*%
%FSLAX25Y25*%
%IPPOS*%
%LPD*%
%AMOC8*
5,1,8,0,0,1.08239X$1,22.5*
%
%ADD10C,0.00000*%
%ADD11R,0.06600X0.05600*%
%ADD12R,0.05600X0.06600*%
%ADD13R,0.06899X0.06112*%
%ADD14R,0.06899X0.08868*%
%ADD15R,0.06500X0.08500*%
%ADD16R,0.15600X0.08500*%
%ADD17R,0.04537X0.06506*%
%ADD18R,0.06506X0.04537*%
%ADD19R,0.01970X0.06100*%
%ADD20C,0.08474*%
%ADD21C,0.01361*%
%ADD22R,0.05718X0.06899*%
%ADD23R,0.04931X0.04537*%
%ADD24C,0.06506*%
%ADD25C,0.06200*%
%ADD26R,0.05718X0.06506*%
%ADD27C,0.04500*%
%ADD28R,0.08000X0.08000*%
%ADD29C,0.08000*%
%ADD30C,0.20600*%
%ADD31R,0.03100X0.08474*%
%ADD32R,0.05600X0.03100*%
%ADD33C,0.00500*%
%ADD34R,0.03100X0.05600*%
%ADD35OC8,0.06506*%
%ADD36C,0.13694*%
%ADD37C,0.03300*%
%ADD38C,0.04362*%
%ADD39C,0.04000*%
D10*
X0062595Y0011650D02*
X0062595Y0241150D01*
X0420595Y0241150D01*
X0420595Y0011650D01*
X0062595Y0011650D01*
D11*
X0201595Y0064400D03*
X0201595Y0071900D03*
X0215595Y0071900D03*
X0215595Y0064400D03*
X0229595Y0064400D03*
X0229595Y0071900D03*
X0243595Y0071900D03*
X0243595Y0064400D03*
X0256595Y0064400D03*
X0256595Y0071900D03*
X0272595Y0071900D03*
X0272595Y0064400D03*
X0287595Y0064400D03*
X0287595Y0071900D03*
X0303595Y0071900D03*
X0303595Y0064400D03*
X0287595Y0127400D03*
X0275595Y0127400D03*
X0264595Y0127400D03*
X0264595Y0134900D03*
X0275595Y0134900D03*
X0287595Y0134900D03*
X0252095Y0134900D03*
X0252095Y0127400D03*
X0179595Y0105400D03*
X0179595Y0097900D03*
X0149595Y0097900D03*
X0149595Y0105400D03*
D12*
X0227345Y0106650D03*
X0234845Y0106650D03*
X0234845Y0093150D03*
X0227345Y0093150D03*
X0328345Y0094650D03*
X0335845Y0094650D03*
X0335845Y0082650D03*
X0328345Y0082650D03*
D13*
X0166595Y0096138D03*
X0166595Y0107162D03*
X0136595Y0107162D03*
X0136595Y0096138D03*
D14*
X0153737Y0078150D03*
X0171453Y0078150D03*
X0171453Y0056650D03*
X0153737Y0056650D03*
D15*
X0152695Y0124250D03*
X0143695Y0124250D03*
X0161695Y0124250D03*
X0174695Y0125250D03*
X0183695Y0125250D03*
X0192695Y0125250D03*
D16*
X0183595Y0150050D03*
X0152595Y0149050D03*
D17*
X0251595Y0150351D03*
X0251595Y0142949D03*
X0263595Y0142949D03*
X0263595Y0150351D03*
X0275595Y0150351D03*
X0275595Y0142949D03*
X0287595Y0142949D03*
X0287595Y0150351D03*
X0287595Y0056851D03*
X0287595Y0049449D03*
X0272595Y0049449D03*
X0272595Y0056851D03*
X0256595Y0056851D03*
X0256595Y0049449D03*
X0243595Y0048449D03*
X0243595Y0055851D03*
X0229595Y0056851D03*
X0229595Y0049449D03*
X0215595Y0049449D03*
X0215595Y0056851D03*
X0201595Y0056851D03*
X0201595Y0049449D03*
X0303595Y0049449D03*
X0303595Y0056851D03*
D18*
X0343894Y0082650D03*
X0351296Y0082650D03*
X0351296Y0094650D03*
X0343894Y0094650D03*
X0219296Y0093650D03*
X0211894Y0093650D03*
X0211894Y0105650D03*
X0219296Y0105650D03*
D19*
X0270520Y0114044D03*
X0273079Y0114044D03*
X0275638Y0114044D03*
X0278198Y0114044D03*
X0280757Y0114044D03*
X0283316Y0114044D03*
X0285875Y0114044D03*
X0288434Y0114044D03*
X0290993Y0114044D03*
X0293552Y0114044D03*
X0296111Y0114044D03*
X0298670Y0114044D03*
X0298670Y0085256D03*
X0296111Y0085256D03*
X0293552Y0085256D03*
X0290993Y0085256D03*
X0288434Y0085256D03*
X0285875Y0085256D03*
X0283316Y0085256D03*
X0280757Y0085256D03*
X0278198Y0085256D03*
X0275638Y0085256D03*
X0273079Y0085256D03*
X0270520Y0085256D03*
D20*
X0106800Y0040587D02*
X0106800Y0032713D01*
X0098532Y0017752D02*
X0090658Y0017752D01*
X0082784Y0032713D02*
X0082784Y0040587D01*
D21*
X0120554Y0068062D02*
X0120554Y0071238D01*
X0123730Y0071238D01*
X0123730Y0068062D01*
X0120554Y0068062D01*
X0120554Y0069422D02*
X0123730Y0069422D01*
X0123730Y0070782D02*
X0120554Y0070782D01*
X0127460Y0071238D02*
X0127460Y0068062D01*
X0127460Y0071238D02*
X0130636Y0071238D01*
X0130636Y0068062D01*
X0127460Y0068062D01*
X0127460Y0069422D02*
X0130636Y0069422D01*
X0130636Y0070782D02*
X0127460Y0070782D01*
X0394730Y0033238D02*
X0394730Y0030062D01*
X0391554Y0030062D01*
X0391554Y0033238D01*
X0394730Y0033238D01*
X0394730Y0031422D02*
X0391554Y0031422D01*
X0391554Y0032782D02*
X0394730Y0032782D01*
X0401636Y0033238D02*
X0401636Y0030062D01*
X0398460Y0030062D01*
X0398460Y0033238D01*
X0401636Y0033238D01*
X0401636Y0031422D02*
X0398460Y0031422D01*
X0398460Y0032782D02*
X0401636Y0032782D01*
X0406554Y0033238D02*
X0406554Y0030062D01*
X0406554Y0033238D02*
X0409730Y0033238D01*
X0409730Y0030062D01*
X0406554Y0030062D01*
X0406554Y0031422D02*
X0409730Y0031422D01*
X0409730Y0032782D02*
X0406554Y0032782D01*
X0413460Y0033238D02*
X0413460Y0030062D01*
X0413460Y0033238D02*
X0416636Y0033238D01*
X0416636Y0030062D01*
X0413460Y0030062D01*
X0413460Y0031422D02*
X0416636Y0031422D01*
X0416636Y0032782D02*
X0413460Y0032782D01*
D22*
X0415335Y0040650D03*
X0407855Y0040650D03*
X0400335Y0040650D03*
X0392855Y0040650D03*
X0144335Y0069650D03*
X0136855Y0069650D03*
D23*
X0129442Y0078150D03*
X0122749Y0078150D03*
X0122249Y0056650D03*
X0128942Y0056650D03*
D24*
X0144595Y0037603D02*
X0144595Y0031697D01*
X0154595Y0031697D02*
X0154595Y0037603D01*
X0164595Y0037603D02*
X0164595Y0031697D01*
X0174595Y0031697D02*
X0174595Y0037603D01*
X0184595Y0037603D02*
X0184595Y0031697D01*
X0194595Y0031697D02*
X0194595Y0037603D01*
X0214595Y0037603D02*
X0214595Y0031697D01*
X0224595Y0031697D02*
X0224595Y0037603D01*
X0234595Y0037603D02*
X0234595Y0031697D01*
X0244595Y0031697D02*
X0244595Y0037603D01*
X0254595Y0037603D02*
X0254595Y0031697D01*
X0264595Y0031697D02*
X0264595Y0037603D01*
X0274595Y0037603D02*
X0274595Y0031697D01*
X0284595Y0031697D02*
X0284595Y0037603D01*
X0304595Y0037603D02*
X0304595Y0031697D01*
X0314595Y0031697D02*
X0314595Y0037603D01*
X0324595Y0037603D02*
X0324595Y0031697D01*
X0334595Y0031697D02*
X0334595Y0037603D01*
X0344595Y0037603D02*
X0344595Y0031697D01*
X0354595Y0031697D02*
X0354595Y0037603D01*
X0364595Y0037603D02*
X0364595Y0031697D01*
X0374595Y0031697D02*
X0374595Y0037603D01*
X0354595Y0221697D02*
X0354595Y0227603D01*
X0344595Y0227603D02*
X0344595Y0221697D01*
X0334595Y0221697D02*
X0334595Y0227603D01*
X0324595Y0227603D02*
X0324595Y0221697D01*
X0314595Y0221697D02*
X0314595Y0227603D01*
X0304595Y0227603D02*
X0304595Y0221697D01*
X0294595Y0221697D02*
X0294595Y0227603D01*
X0284595Y0227603D02*
X0284595Y0221697D01*
X0264595Y0221697D02*
X0264595Y0227603D01*
X0254595Y0227603D02*
X0254595Y0221697D01*
X0244595Y0221697D02*
X0244595Y0227603D01*
X0234595Y0227603D02*
X0234595Y0221697D01*
X0224595Y0221697D02*
X0224595Y0227603D01*
X0214595Y0227603D02*
X0214595Y0221697D01*
X0204595Y0221697D02*
X0204595Y0227603D01*
X0194595Y0227603D02*
X0194595Y0221697D01*
X0179595Y0221697D02*
X0179595Y0227603D01*
X0169595Y0227603D02*
X0169595Y0221697D01*
X0159595Y0221697D02*
X0159595Y0227603D01*
X0149595Y0227603D02*
X0149595Y0221697D01*
X0139595Y0221697D02*
X0139595Y0227603D01*
X0129595Y0227603D02*
X0129595Y0221697D01*
X0119595Y0221697D02*
X0119595Y0227603D01*
X0109595Y0227603D02*
X0109595Y0221697D01*
X0109595Y0227603D01*
D25*
X0099595Y0227450D02*
X0099595Y0221850D01*
X0089595Y0221850D02*
X0089595Y0227450D01*
X0124595Y0037450D02*
X0124595Y0031850D01*
X0134595Y0031850D02*
X0134595Y0037450D01*
D26*
X0323249Y0063650D03*
X0329942Y0063650D03*
X0365249Y0063650D03*
X0371942Y0063650D03*
D27*
X0353395Y0063950D03*
X0347795Y0063950D03*
X0342095Y0063850D03*
D28*
X0403005Y0140461D03*
D29*
X0414186Y0134989D03*
X0403005Y0129556D03*
X0414186Y0124083D03*
X0403005Y0118650D03*
X0414186Y0113217D03*
X0403005Y0107744D03*
X0414186Y0102311D03*
X0403005Y0096839D03*
D30*
X0408595Y0069437D03*
X0408595Y0167863D03*
D31*
X0377595Y0145398D03*
X0357595Y0145398D03*
X0347595Y0145398D03*
X0337595Y0145398D03*
X0337595Y0113902D03*
X0347595Y0113902D03*
X0357595Y0113902D03*
X0377595Y0113902D03*
X0111595Y0117398D03*
X0101595Y0117398D03*
X0091595Y0117398D03*
X0071595Y0117398D03*
X0071595Y0085902D03*
X0091595Y0085902D03*
X0101595Y0085902D03*
X0111595Y0085902D03*
D32*
X0111595Y0075650D03*
X0111595Y0071650D03*
X0099595Y0127050D03*
X0099595Y0130250D03*
X0331595Y0149650D03*
X0331595Y0153650D03*
X0377595Y0163050D03*
X0377595Y0166250D03*
X0388595Y0166250D03*
X0388595Y0163050D03*
X0364595Y0105650D03*
X0364595Y0101650D03*
D33*
X0365095Y0102900D02*
X0364095Y0102900D01*
X0364095Y0104400D01*
X0365095Y0104400D01*
X0365095Y0102900D01*
X0365095Y0103317D02*
X0364095Y0103317D01*
X0364095Y0103815D02*
X0365095Y0103815D01*
X0365095Y0104314D02*
X0364095Y0104314D01*
X0332095Y0150900D02*
X0331095Y0150900D01*
X0331095Y0152400D01*
X0332095Y0152400D01*
X0332095Y0150900D01*
X0332095Y0151174D02*
X0331095Y0151174D01*
X0331095Y0151672D02*
X0332095Y0151672D01*
X0332095Y0152171D02*
X0331095Y0152171D01*
X0124345Y0123150D02*
X0124345Y0122150D01*
X0122845Y0122150D01*
X0122845Y0123150D01*
X0124345Y0123150D01*
X0124345Y0122758D02*
X0122845Y0122758D01*
X0122845Y0122260D02*
X0124345Y0122260D01*
X0112095Y0074400D02*
X0111095Y0074400D01*
X0111095Y0072900D01*
X0112095Y0072900D01*
X0112095Y0074400D01*
X0112095Y0073904D02*
X0111095Y0073904D01*
X0111095Y0073406D02*
X0112095Y0073406D01*
X0112095Y0072907D02*
X0111095Y0072907D01*
D34*
X0098195Y0073650D03*
X0094995Y0073650D03*
X0121595Y0122650D03*
X0125595Y0122650D03*
D35*
X0123138Y0168343D03*
X0114477Y0168343D03*
X0106209Y0168343D03*
X0106209Y0178185D03*
X0114477Y0178185D03*
X0124713Y0178185D03*
X0132981Y0178185D03*
X0132981Y0168343D03*
X0186209Y0168343D03*
X0194477Y0168343D03*
X0203138Y0168343D03*
X0212981Y0168343D03*
X0212981Y0178185D03*
X0204713Y0178185D03*
X0194477Y0178185D03*
X0186209Y0178185D03*
X0256209Y0178185D03*
X0264477Y0178185D03*
X0274713Y0178185D03*
X0282981Y0178185D03*
X0282981Y0168343D03*
X0273138Y0168343D03*
X0264477Y0168343D03*
X0256209Y0168343D03*
X0326209Y0168343D03*
X0334477Y0168343D03*
X0343138Y0168343D03*
X0352981Y0168343D03*
X0352981Y0178185D03*
X0344713Y0178185D03*
X0334477Y0178185D03*
X0326209Y0178185D03*
D36*
X0313020Y0189996D03*
X0296170Y0189996D03*
X0269595Y0193146D03*
X0243020Y0189996D03*
X0226170Y0189996D03*
X0199595Y0193146D03*
X0173020Y0189996D03*
X0146170Y0189996D03*
X0119595Y0193146D03*
X0093020Y0189996D03*
X0339595Y0193146D03*
X0366170Y0189996D03*
D37*
X0341195Y0161050D03*
X0341195Y0157550D03*
X0326145Y0157550D03*
X0332795Y0145650D03*
X0297095Y0134800D03*
X0294295Y0142500D03*
X0270495Y0127800D03*
X0267345Y0117300D03*
X0247045Y0127100D03*
X0236195Y0124650D03*
X0234095Y0118700D03*
X0234445Y0114500D03*
X0219395Y0129550D03*
X0210295Y0125700D03*
X0205395Y0117300D03*
X0183345Y0133400D03*
X0179145Y0119750D03*
X0173195Y0113800D03*
X0211345Y0135500D03*
X0227095Y0137950D03*
X0236195Y0148100D03*
X0251595Y0158950D03*
X0220445Y0151950D03*
X0210295Y0158250D03*
X0202945Y0160350D03*
X0186845Y0156500D03*
X0180195Y0163150D03*
X0162345Y0153700D03*
X0140995Y0165950D03*
X0137145Y0174000D03*
X0217295Y0173300D03*
X0291495Y0122900D03*
X0291495Y0107500D03*
X0291495Y0102600D03*
X0306195Y0102600D03*
X0320545Y0097350D03*
X0332795Y0101200D03*
X0341195Y0110650D03*
X0344345Y0113800D03*
X0364595Y0118650D03*
X0382595Y0127650D03*
X0374095Y0142150D03*
X0356595Y0097900D03*
X0322995Y0086150D03*
X0320545Y0075300D03*
X0320545Y0068650D03*
X0312495Y0069700D03*
X0310045Y0063750D03*
X0298495Y0065850D03*
X0295695Y0063400D03*
X0293945Y0056050D03*
X0277845Y0070400D03*
X0267345Y0071800D03*
X0261745Y0071800D03*
X0259995Y0079500D03*
X0264895Y0081950D03*
X0257195Y0089300D03*
X0250195Y0089300D03*
X0247745Y0083350D03*
X0231645Y0087900D03*
X0209595Y0079150D03*
X0234795Y0066550D03*
X0260695Y0049400D03*
X0291145Y0030850D03*
X0298145Y0071800D03*
X0291495Y0079150D03*
X0288695Y0090000D03*
X0306195Y0090000D03*
X0382595Y0064150D03*
X0360095Y0021650D03*
X0180195Y0078100D03*
X0096895Y0085450D03*
X0075195Y0089650D03*
D38*
X0111595Y0065650D03*
X0127595Y0128650D03*
X0331595Y0159650D03*
X0370595Y0107650D03*
X0394595Y0103650D03*
D39*
X0385595Y0108650D03*
X0362595Y0111650D03*
X0388595Y0131650D03*
X0338595Y0088650D03*
X0328595Y0076650D03*
M02*
