G75*
%MOIN*%
%OFA0B0*%
%FSLAX25Y25*%
%IPPOS*%
%LPD*%
%AMOC8*
5,1,8,0,0,1.08239X$1,22.5*
%
%ADD10C,0.00000*%
%ADD11C,0.08474*%
%ADD12C,0.06506*%
%ADD13C,0.06200*%
%ADD14C,0.04500*%
%ADD15R,0.08000X0.08000*%
%ADD16C,0.08000*%
%ADD17C,0.20600*%
%ADD18R,0.04931X0.04537*%
%ADD19R,0.04537X0.04931*%
%ADD20R,0.03200X0.08600*%
%ADD21R,0.06112X0.04931*%
%ADD22R,0.04537X0.06112*%
%ADD23OC8,0.06506*%
%ADD24C,0.13694*%
%ADD25C,0.03300*%
%ADD26C,0.04362*%
%ADD27C,0.04000*%
D10*
X0062595Y0011650D02*
X0062595Y0241150D01*
X0420595Y0241150D01*
X0420595Y0011650D01*
X0062595Y0011650D01*
D11*
X0090658Y0017752D02*
X0098532Y0017752D01*
X0106800Y0032713D02*
X0106800Y0040587D01*
X0082784Y0040587D02*
X0082784Y0032713D01*
D12*
X0144595Y0031697D02*
X0144595Y0037603D01*
X0154595Y0037603D02*
X0154595Y0031697D01*
X0164595Y0031697D02*
X0164595Y0037603D01*
X0174595Y0037603D02*
X0174595Y0031697D01*
X0184595Y0031697D02*
X0184595Y0037603D01*
X0194595Y0037603D02*
X0194595Y0031697D01*
X0214595Y0031697D02*
X0214595Y0037603D01*
X0224595Y0037603D02*
X0224595Y0031697D01*
X0234595Y0031697D02*
X0234595Y0037603D01*
X0244595Y0037603D02*
X0244595Y0031697D01*
X0254595Y0031697D02*
X0254595Y0037603D01*
X0264595Y0037603D02*
X0264595Y0031697D01*
X0274595Y0031697D02*
X0274595Y0037603D01*
X0284595Y0037603D02*
X0284595Y0031697D01*
X0304595Y0031697D02*
X0304595Y0037603D01*
X0314595Y0037603D02*
X0314595Y0031697D01*
X0324595Y0031697D02*
X0324595Y0037603D01*
X0334595Y0037603D02*
X0334595Y0031697D01*
X0344595Y0031697D02*
X0344595Y0037603D01*
X0354595Y0037603D02*
X0354595Y0031697D01*
X0364595Y0031697D02*
X0364595Y0037603D01*
X0374595Y0037603D02*
X0374595Y0031697D01*
X0354595Y0221697D02*
X0354595Y0227603D01*
X0344595Y0227603D02*
X0344595Y0221697D01*
X0334595Y0221697D02*
X0334595Y0227603D01*
X0324595Y0227603D02*
X0324595Y0221697D01*
X0314595Y0221697D02*
X0314595Y0227603D01*
X0304595Y0227603D02*
X0304595Y0221697D01*
X0294595Y0221697D02*
X0294595Y0227603D01*
X0284595Y0227603D02*
X0284595Y0221697D01*
X0264595Y0221697D02*
X0264595Y0227603D01*
X0254595Y0227603D02*
X0254595Y0221697D01*
X0244595Y0221697D02*
X0244595Y0227603D01*
X0234595Y0227603D02*
X0234595Y0221697D01*
X0224595Y0221697D02*
X0224595Y0227603D01*
X0214595Y0227603D02*
X0214595Y0221697D01*
X0204595Y0221697D02*
X0204595Y0227603D01*
X0194595Y0227603D02*
X0194595Y0221697D01*
X0179595Y0221697D02*
X0179595Y0227603D01*
X0169595Y0227603D02*
X0169595Y0221697D01*
X0159595Y0221697D02*
X0159595Y0227603D01*
X0149595Y0227603D02*
X0149595Y0221697D01*
X0139595Y0221697D02*
X0139595Y0227603D01*
X0129595Y0227603D02*
X0129595Y0221697D01*
X0119595Y0221697D02*
X0119595Y0227603D01*
X0109595Y0227603D02*
X0109595Y0221697D01*
X0109595Y0227603D01*
D13*
X0099595Y0227450D02*
X0099595Y0221850D01*
X0089595Y0221850D02*
X0089595Y0227450D01*
X0124595Y0037450D02*
X0124595Y0031850D01*
X0134595Y0031850D02*
X0134595Y0037450D01*
D14*
X0342095Y0063850D03*
X0347795Y0063950D03*
X0353395Y0063950D03*
D15*
X0403005Y0140461D03*
D16*
X0414186Y0134989D03*
X0403005Y0129556D03*
X0414186Y0124083D03*
X0403005Y0118650D03*
X0414186Y0113217D03*
X0403005Y0107744D03*
X0414186Y0102311D03*
X0403005Y0096839D03*
D17*
X0408595Y0069437D03*
X0408595Y0167863D03*
D18*
X0226942Y0158150D03*
X0220249Y0158150D03*
X0219442Y0089650D03*
X0212749Y0089650D03*
X0186442Y0089650D03*
X0179749Y0089650D03*
X0173442Y0089650D03*
X0166749Y0089650D03*
D19*
X0227595Y0090804D03*
X0227595Y0097496D03*
D20*
X0225095Y0107350D03*
X0220095Y0107350D03*
X0215095Y0107350D03*
X0210095Y0107350D03*
X0205095Y0107350D03*
X0200095Y0107350D03*
X0195095Y0107350D03*
X0190095Y0107350D03*
X0185095Y0107350D03*
X0185095Y0145950D03*
X0190095Y0145950D03*
X0195095Y0145950D03*
X0200095Y0145950D03*
X0205095Y0145950D03*
X0210095Y0145950D03*
X0215095Y0145950D03*
X0220095Y0145950D03*
X0225095Y0145950D03*
D21*
X0348595Y0136587D03*
X0348595Y0128713D03*
X0102595Y0089587D03*
X0102595Y0081713D03*
D22*
X0091335Y0081319D03*
X0083855Y0081319D03*
X0087595Y0089981D03*
X0366855Y0129319D03*
X0374335Y0129319D03*
X0370595Y0137981D03*
D23*
X0352981Y0168343D03*
X0343138Y0168343D03*
X0334477Y0168343D03*
X0326209Y0168343D03*
X0326209Y0178185D03*
X0334477Y0178185D03*
X0344713Y0178185D03*
X0352981Y0178185D03*
X0282981Y0178185D03*
X0274713Y0178185D03*
X0264477Y0178185D03*
X0256209Y0178185D03*
X0256209Y0168343D03*
X0264477Y0168343D03*
X0273138Y0168343D03*
X0282981Y0168343D03*
X0212981Y0168343D03*
X0203138Y0168343D03*
X0194477Y0168343D03*
X0186209Y0168343D03*
X0186209Y0178185D03*
X0194477Y0178185D03*
X0204713Y0178185D03*
X0212981Y0178185D03*
X0132981Y0178185D03*
X0124713Y0178185D03*
X0114477Y0178185D03*
X0106209Y0178185D03*
X0106209Y0168343D03*
X0114477Y0168343D03*
X0123138Y0168343D03*
X0132981Y0168343D03*
D24*
X0146170Y0189996D03*
X0119595Y0193146D03*
X0093020Y0189996D03*
X0173020Y0189996D03*
X0199595Y0193146D03*
X0226170Y0189996D03*
X0243020Y0189996D03*
X0269595Y0193146D03*
X0296170Y0189996D03*
X0313020Y0189996D03*
X0339595Y0193146D03*
X0366170Y0189996D03*
D25*
X0341195Y0161050D03*
X0341195Y0157550D03*
X0326145Y0157550D03*
X0332795Y0145650D03*
X0297095Y0134800D03*
X0294295Y0142500D03*
X0270495Y0127800D03*
X0267345Y0117300D03*
X0247045Y0127100D03*
X0236195Y0124650D03*
X0234095Y0118700D03*
X0234445Y0114500D03*
X0219395Y0129550D03*
X0210295Y0125700D03*
X0205395Y0117300D03*
X0183345Y0133400D03*
X0179145Y0119750D03*
X0173195Y0113800D03*
X0211345Y0135500D03*
X0227095Y0137950D03*
X0236195Y0148100D03*
X0251595Y0158950D03*
X0220445Y0151950D03*
X0210295Y0158250D03*
X0202945Y0160350D03*
X0186845Y0156500D03*
X0180195Y0163150D03*
X0162345Y0153700D03*
X0140995Y0165950D03*
X0137145Y0174000D03*
X0217295Y0173300D03*
X0291495Y0122900D03*
X0291495Y0107500D03*
X0291495Y0102600D03*
X0306195Y0102600D03*
X0320545Y0097350D03*
X0332795Y0101200D03*
X0341195Y0110650D03*
X0344345Y0113800D03*
X0364595Y0118650D03*
X0382595Y0127650D03*
X0374095Y0142150D03*
X0356595Y0097900D03*
X0322995Y0086150D03*
X0320545Y0075300D03*
X0320545Y0068650D03*
X0312495Y0069700D03*
X0310045Y0063750D03*
X0298495Y0065850D03*
X0295695Y0063400D03*
X0293945Y0056050D03*
X0277845Y0070400D03*
X0267345Y0071800D03*
X0261745Y0071800D03*
X0259995Y0079500D03*
X0264895Y0081950D03*
X0257195Y0089300D03*
X0250195Y0089300D03*
X0247745Y0083350D03*
X0231645Y0087900D03*
X0209595Y0079150D03*
X0234795Y0066550D03*
X0260695Y0049400D03*
X0291145Y0030850D03*
X0298145Y0071800D03*
X0291495Y0079150D03*
X0288695Y0090000D03*
X0306195Y0090000D03*
X0382595Y0064150D03*
X0360095Y0021650D03*
X0180195Y0078100D03*
X0096895Y0085450D03*
X0075195Y0089650D03*
D26*
X0111595Y0065650D03*
X0127595Y0128650D03*
X0331595Y0159650D03*
X0370595Y0107650D03*
X0394595Y0103650D03*
D27*
X0385595Y0108650D03*
X0362595Y0111650D03*
X0388595Y0131650D03*
X0338595Y0088650D03*
X0328595Y0076650D03*
M02*
