G75*
%MOIN*%
%OFA0B0*%
%FSLAX25Y25*%
%IPPOS*%
%LPD*%
%AMOC8*
5,1,8,0,0,1.08239X$1,22.5*
%
%ADD10C,0.00000*%
%ADD11C,0.05906*%
%ADD12C,0.09449*%
%ADD13C,0.03900*%
%ADD14C,0.07400*%
%ADD15C,0.10000*%
%ADD16OC8,0.10000*%
%ADD17R,0.10000X0.10000*%
%ADD18C,0.05315*%
%ADD19C,0.03762*%
%ADD20OC8,0.05906*%
%ADD21C,0.13094*%
%ADD22C,0.01600*%
%ADD23C,0.10000*%
D10*
X0001000Y0023933D02*
X0001000Y0213933D01*
X0281000Y0213933D01*
X0281000Y0023933D01*
X0001000Y0023933D01*
X0005094Y0033933D02*
X0005096Y0034086D01*
X0005102Y0034240D01*
X0005112Y0034393D01*
X0005126Y0034545D01*
X0005144Y0034698D01*
X0005166Y0034849D01*
X0005191Y0035000D01*
X0005221Y0035151D01*
X0005255Y0035301D01*
X0005292Y0035449D01*
X0005333Y0035597D01*
X0005378Y0035743D01*
X0005427Y0035889D01*
X0005480Y0036033D01*
X0005536Y0036175D01*
X0005596Y0036316D01*
X0005660Y0036456D01*
X0005727Y0036594D01*
X0005798Y0036730D01*
X0005873Y0036864D01*
X0005950Y0036996D01*
X0006032Y0037126D01*
X0006116Y0037254D01*
X0006204Y0037380D01*
X0006295Y0037503D01*
X0006389Y0037624D01*
X0006487Y0037742D01*
X0006587Y0037858D01*
X0006691Y0037971D01*
X0006797Y0038082D01*
X0006906Y0038190D01*
X0007018Y0038295D01*
X0007132Y0038396D01*
X0007250Y0038495D01*
X0007369Y0038591D01*
X0007491Y0038684D01*
X0007616Y0038773D01*
X0007743Y0038860D01*
X0007872Y0038942D01*
X0008003Y0039022D01*
X0008136Y0039098D01*
X0008271Y0039171D01*
X0008408Y0039240D01*
X0008547Y0039305D01*
X0008687Y0039367D01*
X0008829Y0039425D01*
X0008972Y0039480D01*
X0009117Y0039531D01*
X0009263Y0039578D01*
X0009410Y0039621D01*
X0009558Y0039660D01*
X0009707Y0039696D01*
X0009857Y0039727D01*
X0010008Y0039755D01*
X0010159Y0039779D01*
X0010312Y0039799D01*
X0010464Y0039815D01*
X0010617Y0039827D01*
X0010770Y0039835D01*
X0010923Y0039839D01*
X0011077Y0039839D01*
X0011230Y0039835D01*
X0011383Y0039827D01*
X0011536Y0039815D01*
X0011688Y0039799D01*
X0011841Y0039779D01*
X0011992Y0039755D01*
X0012143Y0039727D01*
X0012293Y0039696D01*
X0012442Y0039660D01*
X0012590Y0039621D01*
X0012737Y0039578D01*
X0012883Y0039531D01*
X0013028Y0039480D01*
X0013171Y0039425D01*
X0013313Y0039367D01*
X0013453Y0039305D01*
X0013592Y0039240D01*
X0013729Y0039171D01*
X0013864Y0039098D01*
X0013997Y0039022D01*
X0014128Y0038942D01*
X0014257Y0038860D01*
X0014384Y0038773D01*
X0014509Y0038684D01*
X0014631Y0038591D01*
X0014750Y0038495D01*
X0014868Y0038396D01*
X0014982Y0038295D01*
X0015094Y0038190D01*
X0015203Y0038082D01*
X0015309Y0037971D01*
X0015413Y0037858D01*
X0015513Y0037742D01*
X0015611Y0037624D01*
X0015705Y0037503D01*
X0015796Y0037380D01*
X0015884Y0037254D01*
X0015968Y0037126D01*
X0016050Y0036996D01*
X0016127Y0036864D01*
X0016202Y0036730D01*
X0016273Y0036594D01*
X0016340Y0036456D01*
X0016404Y0036316D01*
X0016464Y0036175D01*
X0016520Y0036033D01*
X0016573Y0035889D01*
X0016622Y0035743D01*
X0016667Y0035597D01*
X0016708Y0035449D01*
X0016745Y0035301D01*
X0016779Y0035151D01*
X0016809Y0035000D01*
X0016834Y0034849D01*
X0016856Y0034698D01*
X0016874Y0034545D01*
X0016888Y0034393D01*
X0016898Y0034240D01*
X0016904Y0034086D01*
X0016906Y0033933D01*
X0016904Y0033780D01*
X0016898Y0033626D01*
X0016888Y0033473D01*
X0016874Y0033321D01*
X0016856Y0033168D01*
X0016834Y0033017D01*
X0016809Y0032866D01*
X0016779Y0032715D01*
X0016745Y0032565D01*
X0016708Y0032417D01*
X0016667Y0032269D01*
X0016622Y0032123D01*
X0016573Y0031977D01*
X0016520Y0031833D01*
X0016464Y0031691D01*
X0016404Y0031550D01*
X0016340Y0031410D01*
X0016273Y0031272D01*
X0016202Y0031136D01*
X0016127Y0031002D01*
X0016050Y0030870D01*
X0015968Y0030740D01*
X0015884Y0030612D01*
X0015796Y0030486D01*
X0015705Y0030363D01*
X0015611Y0030242D01*
X0015513Y0030124D01*
X0015413Y0030008D01*
X0015309Y0029895D01*
X0015203Y0029784D01*
X0015094Y0029676D01*
X0014982Y0029571D01*
X0014868Y0029470D01*
X0014750Y0029371D01*
X0014631Y0029275D01*
X0014509Y0029182D01*
X0014384Y0029093D01*
X0014257Y0029006D01*
X0014128Y0028924D01*
X0013997Y0028844D01*
X0013864Y0028768D01*
X0013729Y0028695D01*
X0013592Y0028626D01*
X0013453Y0028561D01*
X0013313Y0028499D01*
X0013171Y0028441D01*
X0013028Y0028386D01*
X0012883Y0028335D01*
X0012737Y0028288D01*
X0012590Y0028245D01*
X0012442Y0028206D01*
X0012293Y0028170D01*
X0012143Y0028139D01*
X0011992Y0028111D01*
X0011841Y0028087D01*
X0011688Y0028067D01*
X0011536Y0028051D01*
X0011383Y0028039D01*
X0011230Y0028031D01*
X0011077Y0028027D01*
X0010923Y0028027D01*
X0010770Y0028031D01*
X0010617Y0028039D01*
X0010464Y0028051D01*
X0010312Y0028067D01*
X0010159Y0028087D01*
X0010008Y0028111D01*
X0009857Y0028139D01*
X0009707Y0028170D01*
X0009558Y0028206D01*
X0009410Y0028245D01*
X0009263Y0028288D01*
X0009117Y0028335D01*
X0008972Y0028386D01*
X0008829Y0028441D01*
X0008687Y0028499D01*
X0008547Y0028561D01*
X0008408Y0028626D01*
X0008271Y0028695D01*
X0008136Y0028768D01*
X0008003Y0028844D01*
X0007872Y0028924D01*
X0007743Y0029006D01*
X0007616Y0029093D01*
X0007491Y0029182D01*
X0007369Y0029275D01*
X0007250Y0029371D01*
X0007132Y0029470D01*
X0007018Y0029571D01*
X0006906Y0029676D01*
X0006797Y0029784D01*
X0006691Y0029895D01*
X0006587Y0030008D01*
X0006487Y0030124D01*
X0006389Y0030242D01*
X0006295Y0030363D01*
X0006204Y0030486D01*
X0006116Y0030612D01*
X0006032Y0030740D01*
X0005950Y0030870D01*
X0005873Y0031002D01*
X0005798Y0031136D01*
X0005727Y0031272D01*
X0005660Y0031410D01*
X0005596Y0031550D01*
X0005536Y0031691D01*
X0005480Y0031833D01*
X0005427Y0031977D01*
X0005378Y0032123D01*
X0005333Y0032269D01*
X0005292Y0032417D01*
X0005255Y0032565D01*
X0005221Y0032715D01*
X0005191Y0032866D01*
X0005166Y0033017D01*
X0005144Y0033168D01*
X0005126Y0033321D01*
X0005112Y0033473D01*
X0005102Y0033626D01*
X0005096Y0033780D01*
X0005094Y0033933D01*
X0265094Y0033933D02*
X0265096Y0034086D01*
X0265102Y0034240D01*
X0265112Y0034393D01*
X0265126Y0034545D01*
X0265144Y0034698D01*
X0265166Y0034849D01*
X0265191Y0035000D01*
X0265221Y0035151D01*
X0265255Y0035301D01*
X0265292Y0035449D01*
X0265333Y0035597D01*
X0265378Y0035743D01*
X0265427Y0035889D01*
X0265480Y0036033D01*
X0265536Y0036175D01*
X0265596Y0036316D01*
X0265660Y0036456D01*
X0265727Y0036594D01*
X0265798Y0036730D01*
X0265873Y0036864D01*
X0265950Y0036996D01*
X0266032Y0037126D01*
X0266116Y0037254D01*
X0266204Y0037380D01*
X0266295Y0037503D01*
X0266389Y0037624D01*
X0266487Y0037742D01*
X0266587Y0037858D01*
X0266691Y0037971D01*
X0266797Y0038082D01*
X0266906Y0038190D01*
X0267018Y0038295D01*
X0267132Y0038396D01*
X0267250Y0038495D01*
X0267369Y0038591D01*
X0267491Y0038684D01*
X0267616Y0038773D01*
X0267743Y0038860D01*
X0267872Y0038942D01*
X0268003Y0039022D01*
X0268136Y0039098D01*
X0268271Y0039171D01*
X0268408Y0039240D01*
X0268547Y0039305D01*
X0268687Y0039367D01*
X0268829Y0039425D01*
X0268972Y0039480D01*
X0269117Y0039531D01*
X0269263Y0039578D01*
X0269410Y0039621D01*
X0269558Y0039660D01*
X0269707Y0039696D01*
X0269857Y0039727D01*
X0270008Y0039755D01*
X0270159Y0039779D01*
X0270312Y0039799D01*
X0270464Y0039815D01*
X0270617Y0039827D01*
X0270770Y0039835D01*
X0270923Y0039839D01*
X0271077Y0039839D01*
X0271230Y0039835D01*
X0271383Y0039827D01*
X0271536Y0039815D01*
X0271688Y0039799D01*
X0271841Y0039779D01*
X0271992Y0039755D01*
X0272143Y0039727D01*
X0272293Y0039696D01*
X0272442Y0039660D01*
X0272590Y0039621D01*
X0272737Y0039578D01*
X0272883Y0039531D01*
X0273028Y0039480D01*
X0273171Y0039425D01*
X0273313Y0039367D01*
X0273453Y0039305D01*
X0273592Y0039240D01*
X0273729Y0039171D01*
X0273864Y0039098D01*
X0273997Y0039022D01*
X0274128Y0038942D01*
X0274257Y0038860D01*
X0274384Y0038773D01*
X0274509Y0038684D01*
X0274631Y0038591D01*
X0274750Y0038495D01*
X0274868Y0038396D01*
X0274982Y0038295D01*
X0275094Y0038190D01*
X0275203Y0038082D01*
X0275309Y0037971D01*
X0275413Y0037858D01*
X0275513Y0037742D01*
X0275611Y0037624D01*
X0275705Y0037503D01*
X0275796Y0037380D01*
X0275884Y0037254D01*
X0275968Y0037126D01*
X0276050Y0036996D01*
X0276127Y0036864D01*
X0276202Y0036730D01*
X0276273Y0036594D01*
X0276340Y0036456D01*
X0276404Y0036316D01*
X0276464Y0036175D01*
X0276520Y0036033D01*
X0276573Y0035889D01*
X0276622Y0035743D01*
X0276667Y0035597D01*
X0276708Y0035449D01*
X0276745Y0035301D01*
X0276779Y0035151D01*
X0276809Y0035000D01*
X0276834Y0034849D01*
X0276856Y0034698D01*
X0276874Y0034545D01*
X0276888Y0034393D01*
X0276898Y0034240D01*
X0276904Y0034086D01*
X0276906Y0033933D01*
X0276904Y0033780D01*
X0276898Y0033626D01*
X0276888Y0033473D01*
X0276874Y0033321D01*
X0276856Y0033168D01*
X0276834Y0033017D01*
X0276809Y0032866D01*
X0276779Y0032715D01*
X0276745Y0032565D01*
X0276708Y0032417D01*
X0276667Y0032269D01*
X0276622Y0032123D01*
X0276573Y0031977D01*
X0276520Y0031833D01*
X0276464Y0031691D01*
X0276404Y0031550D01*
X0276340Y0031410D01*
X0276273Y0031272D01*
X0276202Y0031136D01*
X0276127Y0031002D01*
X0276050Y0030870D01*
X0275968Y0030740D01*
X0275884Y0030612D01*
X0275796Y0030486D01*
X0275705Y0030363D01*
X0275611Y0030242D01*
X0275513Y0030124D01*
X0275413Y0030008D01*
X0275309Y0029895D01*
X0275203Y0029784D01*
X0275094Y0029676D01*
X0274982Y0029571D01*
X0274868Y0029470D01*
X0274750Y0029371D01*
X0274631Y0029275D01*
X0274509Y0029182D01*
X0274384Y0029093D01*
X0274257Y0029006D01*
X0274128Y0028924D01*
X0273997Y0028844D01*
X0273864Y0028768D01*
X0273729Y0028695D01*
X0273592Y0028626D01*
X0273453Y0028561D01*
X0273313Y0028499D01*
X0273171Y0028441D01*
X0273028Y0028386D01*
X0272883Y0028335D01*
X0272737Y0028288D01*
X0272590Y0028245D01*
X0272442Y0028206D01*
X0272293Y0028170D01*
X0272143Y0028139D01*
X0271992Y0028111D01*
X0271841Y0028087D01*
X0271688Y0028067D01*
X0271536Y0028051D01*
X0271383Y0028039D01*
X0271230Y0028031D01*
X0271077Y0028027D01*
X0270923Y0028027D01*
X0270770Y0028031D01*
X0270617Y0028039D01*
X0270464Y0028051D01*
X0270312Y0028067D01*
X0270159Y0028087D01*
X0270008Y0028111D01*
X0269857Y0028139D01*
X0269707Y0028170D01*
X0269558Y0028206D01*
X0269410Y0028245D01*
X0269263Y0028288D01*
X0269117Y0028335D01*
X0268972Y0028386D01*
X0268829Y0028441D01*
X0268687Y0028499D01*
X0268547Y0028561D01*
X0268408Y0028626D01*
X0268271Y0028695D01*
X0268136Y0028768D01*
X0268003Y0028844D01*
X0267872Y0028924D01*
X0267743Y0029006D01*
X0267616Y0029093D01*
X0267491Y0029182D01*
X0267369Y0029275D01*
X0267250Y0029371D01*
X0267132Y0029470D01*
X0267018Y0029571D01*
X0266906Y0029676D01*
X0266797Y0029784D01*
X0266691Y0029895D01*
X0266587Y0030008D01*
X0266487Y0030124D01*
X0266389Y0030242D01*
X0266295Y0030363D01*
X0266204Y0030486D01*
X0266116Y0030612D01*
X0266032Y0030740D01*
X0265950Y0030870D01*
X0265873Y0031002D01*
X0265798Y0031136D01*
X0265727Y0031272D01*
X0265660Y0031410D01*
X0265596Y0031550D01*
X0265536Y0031691D01*
X0265480Y0031833D01*
X0265427Y0031977D01*
X0265378Y0032123D01*
X0265333Y0032269D01*
X0265292Y0032417D01*
X0265255Y0032565D01*
X0265221Y0032715D01*
X0265191Y0032866D01*
X0265166Y0033017D01*
X0265144Y0033168D01*
X0265126Y0033321D01*
X0265112Y0033473D01*
X0265102Y0033626D01*
X0265096Y0033780D01*
X0265094Y0033933D01*
X0265094Y0203933D02*
X0265096Y0204086D01*
X0265102Y0204240D01*
X0265112Y0204393D01*
X0265126Y0204545D01*
X0265144Y0204698D01*
X0265166Y0204849D01*
X0265191Y0205000D01*
X0265221Y0205151D01*
X0265255Y0205301D01*
X0265292Y0205449D01*
X0265333Y0205597D01*
X0265378Y0205743D01*
X0265427Y0205889D01*
X0265480Y0206033D01*
X0265536Y0206175D01*
X0265596Y0206316D01*
X0265660Y0206456D01*
X0265727Y0206594D01*
X0265798Y0206730D01*
X0265873Y0206864D01*
X0265950Y0206996D01*
X0266032Y0207126D01*
X0266116Y0207254D01*
X0266204Y0207380D01*
X0266295Y0207503D01*
X0266389Y0207624D01*
X0266487Y0207742D01*
X0266587Y0207858D01*
X0266691Y0207971D01*
X0266797Y0208082D01*
X0266906Y0208190D01*
X0267018Y0208295D01*
X0267132Y0208396D01*
X0267250Y0208495D01*
X0267369Y0208591D01*
X0267491Y0208684D01*
X0267616Y0208773D01*
X0267743Y0208860D01*
X0267872Y0208942D01*
X0268003Y0209022D01*
X0268136Y0209098D01*
X0268271Y0209171D01*
X0268408Y0209240D01*
X0268547Y0209305D01*
X0268687Y0209367D01*
X0268829Y0209425D01*
X0268972Y0209480D01*
X0269117Y0209531D01*
X0269263Y0209578D01*
X0269410Y0209621D01*
X0269558Y0209660D01*
X0269707Y0209696D01*
X0269857Y0209727D01*
X0270008Y0209755D01*
X0270159Y0209779D01*
X0270312Y0209799D01*
X0270464Y0209815D01*
X0270617Y0209827D01*
X0270770Y0209835D01*
X0270923Y0209839D01*
X0271077Y0209839D01*
X0271230Y0209835D01*
X0271383Y0209827D01*
X0271536Y0209815D01*
X0271688Y0209799D01*
X0271841Y0209779D01*
X0271992Y0209755D01*
X0272143Y0209727D01*
X0272293Y0209696D01*
X0272442Y0209660D01*
X0272590Y0209621D01*
X0272737Y0209578D01*
X0272883Y0209531D01*
X0273028Y0209480D01*
X0273171Y0209425D01*
X0273313Y0209367D01*
X0273453Y0209305D01*
X0273592Y0209240D01*
X0273729Y0209171D01*
X0273864Y0209098D01*
X0273997Y0209022D01*
X0274128Y0208942D01*
X0274257Y0208860D01*
X0274384Y0208773D01*
X0274509Y0208684D01*
X0274631Y0208591D01*
X0274750Y0208495D01*
X0274868Y0208396D01*
X0274982Y0208295D01*
X0275094Y0208190D01*
X0275203Y0208082D01*
X0275309Y0207971D01*
X0275413Y0207858D01*
X0275513Y0207742D01*
X0275611Y0207624D01*
X0275705Y0207503D01*
X0275796Y0207380D01*
X0275884Y0207254D01*
X0275968Y0207126D01*
X0276050Y0206996D01*
X0276127Y0206864D01*
X0276202Y0206730D01*
X0276273Y0206594D01*
X0276340Y0206456D01*
X0276404Y0206316D01*
X0276464Y0206175D01*
X0276520Y0206033D01*
X0276573Y0205889D01*
X0276622Y0205743D01*
X0276667Y0205597D01*
X0276708Y0205449D01*
X0276745Y0205301D01*
X0276779Y0205151D01*
X0276809Y0205000D01*
X0276834Y0204849D01*
X0276856Y0204698D01*
X0276874Y0204545D01*
X0276888Y0204393D01*
X0276898Y0204240D01*
X0276904Y0204086D01*
X0276906Y0203933D01*
X0276904Y0203780D01*
X0276898Y0203626D01*
X0276888Y0203473D01*
X0276874Y0203321D01*
X0276856Y0203168D01*
X0276834Y0203017D01*
X0276809Y0202866D01*
X0276779Y0202715D01*
X0276745Y0202565D01*
X0276708Y0202417D01*
X0276667Y0202269D01*
X0276622Y0202123D01*
X0276573Y0201977D01*
X0276520Y0201833D01*
X0276464Y0201691D01*
X0276404Y0201550D01*
X0276340Y0201410D01*
X0276273Y0201272D01*
X0276202Y0201136D01*
X0276127Y0201002D01*
X0276050Y0200870D01*
X0275968Y0200740D01*
X0275884Y0200612D01*
X0275796Y0200486D01*
X0275705Y0200363D01*
X0275611Y0200242D01*
X0275513Y0200124D01*
X0275413Y0200008D01*
X0275309Y0199895D01*
X0275203Y0199784D01*
X0275094Y0199676D01*
X0274982Y0199571D01*
X0274868Y0199470D01*
X0274750Y0199371D01*
X0274631Y0199275D01*
X0274509Y0199182D01*
X0274384Y0199093D01*
X0274257Y0199006D01*
X0274128Y0198924D01*
X0273997Y0198844D01*
X0273864Y0198768D01*
X0273729Y0198695D01*
X0273592Y0198626D01*
X0273453Y0198561D01*
X0273313Y0198499D01*
X0273171Y0198441D01*
X0273028Y0198386D01*
X0272883Y0198335D01*
X0272737Y0198288D01*
X0272590Y0198245D01*
X0272442Y0198206D01*
X0272293Y0198170D01*
X0272143Y0198139D01*
X0271992Y0198111D01*
X0271841Y0198087D01*
X0271688Y0198067D01*
X0271536Y0198051D01*
X0271383Y0198039D01*
X0271230Y0198031D01*
X0271077Y0198027D01*
X0270923Y0198027D01*
X0270770Y0198031D01*
X0270617Y0198039D01*
X0270464Y0198051D01*
X0270312Y0198067D01*
X0270159Y0198087D01*
X0270008Y0198111D01*
X0269857Y0198139D01*
X0269707Y0198170D01*
X0269558Y0198206D01*
X0269410Y0198245D01*
X0269263Y0198288D01*
X0269117Y0198335D01*
X0268972Y0198386D01*
X0268829Y0198441D01*
X0268687Y0198499D01*
X0268547Y0198561D01*
X0268408Y0198626D01*
X0268271Y0198695D01*
X0268136Y0198768D01*
X0268003Y0198844D01*
X0267872Y0198924D01*
X0267743Y0199006D01*
X0267616Y0199093D01*
X0267491Y0199182D01*
X0267369Y0199275D01*
X0267250Y0199371D01*
X0267132Y0199470D01*
X0267018Y0199571D01*
X0266906Y0199676D01*
X0266797Y0199784D01*
X0266691Y0199895D01*
X0266587Y0200008D01*
X0266487Y0200124D01*
X0266389Y0200242D01*
X0266295Y0200363D01*
X0266204Y0200486D01*
X0266116Y0200612D01*
X0266032Y0200740D01*
X0265950Y0200870D01*
X0265873Y0201002D01*
X0265798Y0201136D01*
X0265727Y0201272D01*
X0265660Y0201410D01*
X0265596Y0201550D01*
X0265536Y0201691D01*
X0265480Y0201833D01*
X0265427Y0201977D01*
X0265378Y0202123D01*
X0265333Y0202269D01*
X0265292Y0202417D01*
X0265255Y0202565D01*
X0265221Y0202715D01*
X0265191Y0202866D01*
X0265166Y0203017D01*
X0265144Y0203168D01*
X0265126Y0203321D01*
X0265112Y0203473D01*
X0265102Y0203626D01*
X0265096Y0203780D01*
X0265094Y0203933D01*
X0004937Y0205193D02*
X0004939Y0205346D01*
X0004945Y0205500D01*
X0004955Y0205653D01*
X0004969Y0205805D01*
X0004987Y0205958D01*
X0005009Y0206109D01*
X0005034Y0206260D01*
X0005064Y0206411D01*
X0005098Y0206561D01*
X0005135Y0206709D01*
X0005176Y0206857D01*
X0005221Y0207003D01*
X0005270Y0207149D01*
X0005323Y0207293D01*
X0005379Y0207435D01*
X0005439Y0207576D01*
X0005503Y0207716D01*
X0005570Y0207854D01*
X0005641Y0207990D01*
X0005716Y0208124D01*
X0005793Y0208256D01*
X0005875Y0208386D01*
X0005959Y0208514D01*
X0006047Y0208640D01*
X0006138Y0208763D01*
X0006232Y0208884D01*
X0006330Y0209002D01*
X0006430Y0209118D01*
X0006534Y0209231D01*
X0006640Y0209342D01*
X0006749Y0209450D01*
X0006861Y0209555D01*
X0006975Y0209656D01*
X0007093Y0209755D01*
X0007212Y0209851D01*
X0007334Y0209944D01*
X0007459Y0210033D01*
X0007586Y0210120D01*
X0007715Y0210202D01*
X0007846Y0210282D01*
X0007979Y0210358D01*
X0008114Y0210431D01*
X0008251Y0210500D01*
X0008390Y0210565D01*
X0008530Y0210627D01*
X0008672Y0210685D01*
X0008815Y0210740D01*
X0008960Y0210791D01*
X0009106Y0210838D01*
X0009253Y0210881D01*
X0009401Y0210920D01*
X0009550Y0210956D01*
X0009700Y0210987D01*
X0009851Y0211015D01*
X0010002Y0211039D01*
X0010155Y0211059D01*
X0010307Y0211075D01*
X0010460Y0211087D01*
X0010613Y0211095D01*
X0010766Y0211099D01*
X0010920Y0211099D01*
X0011073Y0211095D01*
X0011226Y0211087D01*
X0011379Y0211075D01*
X0011531Y0211059D01*
X0011684Y0211039D01*
X0011835Y0211015D01*
X0011986Y0210987D01*
X0012136Y0210956D01*
X0012285Y0210920D01*
X0012433Y0210881D01*
X0012580Y0210838D01*
X0012726Y0210791D01*
X0012871Y0210740D01*
X0013014Y0210685D01*
X0013156Y0210627D01*
X0013296Y0210565D01*
X0013435Y0210500D01*
X0013572Y0210431D01*
X0013707Y0210358D01*
X0013840Y0210282D01*
X0013971Y0210202D01*
X0014100Y0210120D01*
X0014227Y0210033D01*
X0014352Y0209944D01*
X0014474Y0209851D01*
X0014593Y0209755D01*
X0014711Y0209656D01*
X0014825Y0209555D01*
X0014937Y0209450D01*
X0015046Y0209342D01*
X0015152Y0209231D01*
X0015256Y0209118D01*
X0015356Y0209002D01*
X0015454Y0208884D01*
X0015548Y0208763D01*
X0015639Y0208640D01*
X0015727Y0208514D01*
X0015811Y0208386D01*
X0015893Y0208256D01*
X0015970Y0208124D01*
X0016045Y0207990D01*
X0016116Y0207854D01*
X0016183Y0207716D01*
X0016247Y0207576D01*
X0016307Y0207435D01*
X0016363Y0207293D01*
X0016416Y0207149D01*
X0016465Y0207003D01*
X0016510Y0206857D01*
X0016551Y0206709D01*
X0016588Y0206561D01*
X0016622Y0206411D01*
X0016652Y0206260D01*
X0016677Y0206109D01*
X0016699Y0205958D01*
X0016717Y0205805D01*
X0016731Y0205653D01*
X0016741Y0205500D01*
X0016747Y0205346D01*
X0016749Y0205193D01*
X0016747Y0205040D01*
X0016741Y0204886D01*
X0016731Y0204733D01*
X0016717Y0204581D01*
X0016699Y0204428D01*
X0016677Y0204277D01*
X0016652Y0204126D01*
X0016622Y0203975D01*
X0016588Y0203825D01*
X0016551Y0203677D01*
X0016510Y0203529D01*
X0016465Y0203383D01*
X0016416Y0203237D01*
X0016363Y0203093D01*
X0016307Y0202951D01*
X0016247Y0202810D01*
X0016183Y0202670D01*
X0016116Y0202532D01*
X0016045Y0202396D01*
X0015970Y0202262D01*
X0015893Y0202130D01*
X0015811Y0202000D01*
X0015727Y0201872D01*
X0015639Y0201746D01*
X0015548Y0201623D01*
X0015454Y0201502D01*
X0015356Y0201384D01*
X0015256Y0201268D01*
X0015152Y0201155D01*
X0015046Y0201044D01*
X0014937Y0200936D01*
X0014825Y0200831D01*
X0014711Y0200730D01*
X0014593Y0200631D01*
X0014474Y0200535D01*
X0014352Y0200442D01*
X0014227Y0200353D01*
X0014100Y0200266D01*
X0013971Y0200184D01*
X0013840Y0200104D01*
X0013707Y0200028D01*
X0013572Y0199955D01*
X0013435Y0199886D01*
X0013296Y0199821D01*
X0013156Y0199759D01*
X0013014Y0199701D01*
X0012871Y0199646D01*
X0012726Y0199595D01*
X0012580Y0199548D01*
X0012433Y0199505D01*
X0012285Y0199466D01*
X0012136Y0199430D01*
X0011986Y0199399D01*
X0011835Y0199371D01*
X0011684Y0199347D01*
X0011531Y0199327D01*
X0011379Y0199311D01*
X0011226Y0199299D01*
X0011073Y0199291D01*
X0010920Y0199287D01*
X0010766Y0199287D01*
X0010613Y0199291D01*
X0010460Y0199299D01*
X0010307Y0199311D01*
X0010155Y0199327D01*
X0010002Y0199347D01*
X0009851Y0199371D01*
X0009700Y0199399D01*
X0009550Y0199430D01*
X0009401Y0199466D01*
X0009253Y0199505D01*
X0009106Y0199548D01*
X0008960Y0199595D01*
X0008815Y0199646D01*
X0008672Y0199701D01*
X0008530Y0199759D01*
X0008390Y0199821D01*
X0008251Y0199886D01*
X0008114Y0199955D01*
X0007979Y0200028D01*
X0007846Y0200104D01*
X0007715Y0200184D01*
X0007586Y0200266D01*
X0007459Y0200353D01*
X0007334Y0200442D01*
X0007212Y0200535D01*
X0007093Y0200631D01*
X0006975Y0200730D01*
X0006861Y0200831D01*
X0006749Y0200936D01*
X0006640Y0201044D01*
X0006534Y0201155D01*
X0006430Y0201268D01*
X0006330Y0201384D01*
X0006232Y0201502D01*
X0006138Y0201623D01*
X0006047Y0201746D01*
X0005959Y0201872D01*
X0005875Y0202000D01*
X0005793Y0202130D01*
X0005716Y0202262D01*
X0005641Y0202396D01*
X0005570Y0202532D01*
X0005503Y0202670D01*
X0005439Y0202810D01*
X0005379Y0202951D01*
X0005323Y0203093D01*
X0005270Y0203237D01*
X0005221Y0203383D01*
X0005176Y0203529D01*
X0005135Y0203677D01*
X0005098Y0203825D01*
X0005064Y0203975D01*
X0005034Y0204126D01*
X0005009Y0204277D01*
X0004987Y0204428D01*
X0004969Y0204581D01*
X0004955Y0204733D01*
X0004945Y0204886D01*
X0004939Y0205040D01*
X0004937Y0205193D01*
D11*
X0159823Y0082012D03*
X0159823Y0071776D03*
X0159823Y0061933D03*
D12*
X0185500Y0082933D03*
X0185500Y0097933D03*
X0185500Y0127933D03*
X0185500Y0142933D03*
X0021000Y0144433D03*
X0021000Y0129433D03*
X0021000Y0099433D03*
X0021000Y0084433D03*
D13*
X0139000Y0116633D03*
X0144700Y0116733D03*
X0150300Y0116733D03*
D14*
X0172000Y0058333D02*
X0172000Y0050933D01*
X0105700Y0050933D02*
X0098300Y0050933D01*
X0098300Y0040933D02*
X0105700Y0040933D01*
D15*
X0049000Y0033933D03*
X0049000Y0053933D03*
X0191000Y0053933D03*
X0191000Y0033933D03*
D16*
X0029000Y0033933D03*
X0029000Y0053933D03*
D17*
X0216000Y0053933D03*
X0216000Y0033933D03*
D18*
X0206000Y0095311D03*
X0206000Y0105311D03*
X0206000Y0115311D03*
X0256000Y0115311D03*
X0256000Y0105311D03*
X0256000Y0095311D03*
X0096000Y0095311D03*
X0096000Y0105311D03*
X0096000Y0115311D03*
X0046000Y0115311D03*
X0046000Y0105311D03*
X0046000Y0095311D03*
D19*
X0061000Y0145232D03*
X0071000Y0145232D03*
X0081000Y0145232D03*
X0132000Y0152933D03*
X0147000Y0152933D03*
X0191000Y0163933D03*
X0211000Y0173933D03*
X0231000Y0175933D03*
X0261000Y0172933D03*
X0241000Y0145232D03*
X0231000Y0145232D03*
X0221000Y0145232D03*
X0224000Y0199933D03*
X0069000Y0199933D03*
X0054000Y0174933D03*
D20*
X0127614Y0175469D03*
X0135882Y0175469D03*
X0146118Y0175469D03*
X0154386Y0175469D03*
X0154386Y0165626D03*
X0144543Y0165626D03*
X0135882Y0165626D03*
X0127614Y0165626D03*
D21*
X0114425Y0187280D03*
X0141000Y0190429D03*
X0167575Y0187280D03*
D22*
X0174976Y0190178D02*
X0194134Y0190178D01*
X0192535Y0188580D02*
X0175522Y0188580D01*
X0175522Y0188860D02*
X0174312Y0191781D01*
X0172077Y0194017D01*
X0169156Y0195227D01*
X0165994Y0195227D01*
X0163073Y0194017D01*
X0160837Y0191781D01*
X0159628Y0188860D01*
X0159628Y0185699D01*
X0160837Y0182778D01*
X0163073Y0180542D01*
X0165544Y0179519D01*
X0156491Y0179519D01*
X0156189Y0179821D01*
X0152583Y0179821D01*
X0150252Y0177490D01*
X0147921Y0179821D01*
X0144315Y0179821D01*
X0141765Y0177271D01*
X0141765Y0173666D01*
X0144315Y0171116D01*
X0147921Y0171116D01*
X0150252Y0173447D01*
X0152583Y0171116D01*
X0156189Y0171116D01*
X0158739Y0173666D01*
X0158739Y0175119D01*
X0185297Y0175119D01*
X0201911Y0191733D01*
X0212089Y0191733D01*
X0227719Y0176103D01*
X0227719Y0175280D01*
X0228218Y0174074D01*
X0229141Y0173151D01*
X0230347Y0172652D01*
X0231653Y0172652D01*
X0232859Y0173151D01*
X0233782Y0174074D01*
X0234281Y0175280D01*
X0234281Y0176586D01*
X0233782Y0177792D01*
X0232859Y0178715D01*
X0231653Y0179214D01*
X0230830Y0179214D01*
X0215200Y0194844D01*
X0213911Y0196133D01*
X0200089Y0196133D01*
X0198800Y0194844D01*
X0183475Y0179519D01*
X0169606Y0179519D01*
X0172077Y0180542D01*
X0174312Y0182778D01*
X0175522Y0185699D01*
X0175522Y0188860D01*
X0175522Y0186981D02*
X0190937Y0186981D01*
X0189338Y0185383D02*
X0175391Y0185383D01*
X0174729Y0183784D02*
X0187740Y0183784D01*
X0186141Y0182186D02*
X0173720Y0182186D01*
X0172122Y0180587D02*
X0184543Y0180587D01*
X0189167Y0178989D02*
X0224833Y0178989D01*
X0223235Y0180587D02*
X0190765Y0180587D01*
X0192364Y0182186D02*
X0221636Y0182186D01*
X0220038Y0183784D02*
X0193962Y0183784D01*
X0195561Y0185383D02*
X0218439Y0185383D01*
X0216841Y0186981D02*
X0197159Y0186981D01*
X0198758Y0188580D02*
X0215242Y0188580D01*
X0213644Y0190178D02*
X0200356Y0190178D01*
X0197331Y0193375D02*
X0172718Y0193375D01*
X0174314Y0191777D02*
X0195732Y0191777D01*
X0198929Y0194974D02*
X0169766Y0194974D01*
X0165383Y0194974D02*
X0147694Y0194974D01*
X0147737Y0194931D02*
X0145502Y0197166D01*
X0142581Y0198376D01*
X0139419Y0198376D01*
X0136498Y0197166D01*
X0134263Y0194931D01*
X0133053Y0192010D01*
X0133053Y0188848D01*
X0134263Y0185927D01*
X0136498Y0183692D01*
X0139419Y0182482D01*
X0142581Y0182482D01*
X0145502Y0183692D01*
X0147737Y0185927D01*
X0148947Y0188848D01*
X0148947Y0192010D01*
X0147737Y0194931D01*
X0148382Y0193375D02*
X0162431Y0193375D01*
X0160836Y0191777D02*
X0148947Y0191777D01*
X0148947Y0190178D02*
X0160173Y0190178D01*
X0159628Y0188580D02*
X0148836Y0188580D01*
X0148174Y0186981D02*
X0159628Y0186981D01*
X0159758Y0185383D02*
X0147193Y0185383D01*
X0145594Y0183784D02*
X0160421Y0183784D01*
X0161430Y0182186D02*
X0120570Y0182186D01*
X0121163Y0182778D02*
X0118927Y0180542D01*
X0116006Y0179332D01*
X0112844Y0179332D01*
X0109923Y0180542D01*
X0107688Y0182778D01*
X0106478Y0185699D01*
X0106478Y0188860D01*
X0107688Y0191781D01*
X0109923Y0194017D01*
X0112844Y0195227D01*
X0116006Y0195227D01*
X0118927Y0194017D01*
X0121163Y0191781D01*
X0122372Y0188860D01*
X0122372Y0185699D01*
X0121163Y0182778D01*
X0121579Y0183784D02*
X0136406Y0183784D01*
X0134807Y0185383D02*
X0122242Y0185383D01*
X0122372Y0186981D02*
X0133826Y0186981D01*
X0133164Y0188580D02*
X0122372Y0188580D01*
X0121827Y0190178D02*
X0133053Y0190178D01*
X0133053Y0191777D02*
X0121164Y0191777D01*
X0119569Y0193375D02*
X0133618Y0193375D01*
X0134306Y0194974D02*
X0116617Y0194974D01*
X0112234Y0194974D02*
X0011000Y0194974D01*
X0011000Y0196572D02*
X0135904Y0196572D01*
X0138923Y0198171D02*
X0015332Y0198171D01*
X0015491Y0198237D02*
X0017799Y0200545D01*
X0017960Y0200933D01*
X0263361Y0200933D01*
X0264000Y0199391D01*
X0264000Y0038476D01*
X0262794Y0035565D01*
X0262794Y0032301D01*
X0264000Y0029391D01*
X0264000Y0028933D01*
X0224300Y0028933D01*
X0224300Y0039589D01*
X0223798Y0040802D01*
X0222869Y0041731D01*
X0221656Y0042233D01*
X0210344Y0042233D01*
X0209131Y0041731D01*
X0208202Y0040802D01*
X0207700Y0039589D01*
X0207700Y0028933D01*
X0197738Y0028933D01*
X0198036Y0029231D01*
X0199300Y0032282D01*
X0199300Y0035584D01*
X0198036Y0038635D01*
X0195702Y0040969D01*
X0192651Y0042233D01*
X0189349Y0042233D01*
X0186298Y0040969D01*
X0183964Y0038635D01*
X0182700Y0035584D01*
X0182700Y0032282D01*
X0183964Y0029231D01*
X0184262Y0028933D01*
X0055738Y0028933D01*
X0056036Y0029231D01*
X0057300Y0032282D01*
X0057300Y0035584D01*
X0056036Y0038635D01*
X0053702Y0040969D01*
X0050651Y0042233D01*
X0047349Y0042233D01*
X0044298Y0040969D01*
X0041964Y0038635D01*
X0040700Y0035584D01*
X0040700Y0032282D01*
X0041964Y0029231D01*
X0042262Y0028933D01*
X0035738Y0028933D01*
X0036036Y0029231D01*
X0036036Y0029232D01*
X0037300Y0030495D01*
X0037300Y0053495D01*
X0041627Y0057822D01*
X0040700Y0055584D01*
X0040700Y0052282D01*
X0041964Y0049231D01*
X0044298Y0046897D01*
X0047349Y0045633D01*
X0050651Y0045633D01*
X0053702Y0046897D01*
X0056036Y0049231D01*
X0057300Y0052282D01*
X0057300Y0055584D01*
X0056036Y0058635D01*
X0053702Y0060969D01*
X0050651Y0062233D01*
X0047349Y0062233D01*
X0045111Y0061306D01*
X0049438Y0065633D01*
X0112562Y0065633D01*
X0138964Y0039232D01*
X0138964Y0039231D01*
X0141298Y0036897D01*
X0144349Y0035633D01*
X0166651Y0035633D01*
X0169702Y0036897D01*
X0179036Y0046231D01*
X0180300Y0049282D01*
X0180300Y0052584D01*
X0179036Y0055635D01*
X0179000Y0055671D01*
X0179000Y0059725D01*
X0177934Y0062298D01*
X0175965Y0064267D01*
X0173392Y0065333D01*
X0170608Y0065333D01*
X0168035Y0064267D01*
X0166066Y0062298D01*
X0165000Y0059725D01*
X0165000Y0055671D01*
X0161562Y0052233D01*
X0149438Y0052233D01*
X0123036Y0078635D01*
X0120702Y0080969D01*
X0117651Y0082233D01*
X0044349Y0082233D01*
X0041298Y0080969D01*
X0038964Y0078635D01*
X0021964Y0061635D01*
X0020700Y0058584D01*
X0020700Y0030495D01*
X0021964Y0029232D01*
X0021964Y0029231D01*
X0022262Y0028933D01*
X0017604Y0028933D01*
X0017956Y0029285D01*
X0019205Y0032301D01*
X0019205Y0035565D01*
X0017956Y0038581D01*
X0015648Y0040889D01*
X0012632Y0042139D01*
X0011000Y0042139D01*
X0011000Y0196987D01*
X0012475Y0196987D01*
X0015491Y0198237D01*
X0017023Y0199769D02*
X0263843Y0199769D01*
X0264000Y0198171D02*
X0143077Y0198171D01*
X0146096Y0196572D02*
X0264000Y0196572D01*
X0264000Y0194974D02*
X0215071Y0194974D01*
X0216669Y0193375D02*
X0264000Y0193375D01*
X0264000Y0191777D02*
X0218268Y0191777D01*
X0219866Y0190178D02*
X0264000Y0190178D01*
X0264000Y0188580D02*
X0221465Y0188580D01*
X0223063Y0186981D02*
X0264000Y0186981D01*
X0264000Y0185383D02*
X0224662Y0185383D01*
X0226260Y0183784D02*
X0264000Y0183784D01*
X0264000Y0182186D02*
X0227859Y0182186D01*
X0229457Y0180587D02*
X0264000Y0180587D01*
X0264000Y0178989D02*
X0232197Y0178989D01*
X0233948Y0177390D02*
X0264000Y0177390D01*
X0264000Y0175792D02*
X0234281Y0175792D01*
X0233831Y0174193D02*
X0264000Y0174193D01*
X0264000Y0172595D02*
X0213997Y0172595D01*
X0213782Y0172074D02*
X0214281Y0173280D01*
X0214281Y0174586D01*
X0213782Y0175792D01*
X0227719Y0175792D01*
X0228169Y0174193D02*
X0214281Y0174193D01*
X0213782Y0175792D02*
X0212859Y0176715D01*
X0211653Y0177214D01*
X0210347Y0177214D01*
X0209141Y0176715D01*
X0208218Y0175792D01*
X0185970Y0175792D01*
X0184386Y0177319D02*
X0201000Y0193933D01*
X0213000Y0193933D01*
X0231000Y0175933D01*
X0226432Y0177390D02*
X0187568Y0177390D01*
X0184386Y0177319D02*
X0154386Y0177319D01*
X0154386Y0175469D01*
X0157668Y0172595D02*
X0206550Y0172595D01*
X0207719Y0173763D02*
X0203800Y0169844D01*
X0203800Y0144844D01*
X0190525Y0131569D01*
X0188969Y0133125D01*
X0186718Y0134057D01*
X0184282Y0134057D01*
X0182031Y0133125D01*
X0180308Y0131402D01*
X0179376Y0129151D01*
X0179376Y0126715D01*
X0180308Y0124464D01*
X0182031Y0122741D01*
X0184282Y0121809D01*
X0186718Y0121809D01*
X0188969Y0122741D01*
X0190692Y0124464D01*
X0191434Y0126256D01*
X0206911Y0141733D01*
X0208200Y0143022D01*
X0208200Y0168022D01*
X0210830Y0170652D01*
X0211653Y0170652D01*
X0212859Y0171151D01*
X0213782Y0172074D01*
X0212483Y0170996D02*
X0264000Y0170996D01*
X0264000Y0169398D02*
X0209576Y0169398D01*
X0208200Y0167799D02*
X0264000Y0167799D01*
X0264000Y0166201D02*
X0208200Y0166201D01*
X0208200Y0164602D02*
X0264000Y0164602D01*
X0264000Y0163004D02*
X0208200Y0163004D01*
X0208200Y0161405D02*
X0264000Y0161405D01*
X0264000Y0159807D02*
X0208200Y0159807D01*
X0208200Y0158208D02*
X0264000Y0158208D01*
X0264000Y0156610D02*
X0208200Y0156610D01*
X0208200Y0155011D02*
X0264000Y0155011D01*
X0264000Y0153412D02*
X0208200Y0153412D01*
X0208200Y0151814D02*
X0264000Y0151814D01*
X0264000Y0150215D02*
X0208200Y0150215D01*
X0208200Y0148617D02*
X0229552Y0148617D01*
X0229256Y0148494D02*
X0229926Y0148772D01*
X0230637Y0148913D01*
X0231000Y0148913D01*
X0231363Y0148913D01*
X0232074Y0148772D01*
X0232744Y0148494D01*
X0233347Y0148092D01*
X0233859Y0147579D01*
X0234262Y0146976D01*
X0234540Y0146306D01*
X0234681Y0145595D01*
X0234681Y0145232D01*
X0231000Y0145232D01*
X0231000Y0141551D01*
X0231363Y0141551D01*
X0232074Y0141693D01*
X0232744Y0141970D01*
X0233347Y0142373D01*
X0233859Y0142886D01*
X0234262Y0143489D01*
X0234540Y0144159D01*
X0234681Y0144870D01*
X0234681Y0145232D01*
X0231000Y0145232D01*
X0231000Y0145232D01*
X0231000Y0141551D01*
X0230637Y0141551D01*
X0229926Y0141693D01*
X0229256Y0141970D01*
X0228653Y0142373D01*
X0228141Y0142886D01*
X0227738Y0143489D01*
X0227460Y0144159D01*
X0227319Y0144870D01*
X0227319Y0145232D01*
X0231000Y0145232D01*
X0231000Y0145232D01*
X0231000Y0145232D01*
X0227319Y0145232D01*
X0227319Y0145595D01*
X0227460Y0146306D01*
X0227738Y0146976D01*
X0228141Y0147579D01*
X0228653Y0148092D01*
X0229256Y0148494D01*
X0231000Y0148617D02*
X0231000Y0148617D01*
X0231000Y0148913D02*
X0231000Y0145232D01*
X0231000Y0148913D01*
X0232448Y0148617D02*
X0264000Y0148617D01*
X0264000Y0147018D02*
X0243812Y0147018D01*
X0243782Y0147091D02*
X0242859Y0148014D01*
X0241653Y0148513D01*
X0240347Y0148513D01*
X0239141Y0148014D01*
X0238218Y0147091D01*
X0237719Y0145885D01*
X0237719Y0144580D01*
X0238218Y0143374D01*
X0239141Y0142451D01*
X0240347Y0141951D01*
X0241653Y0141951D01*
X0242859Y0142451D01*
X0243782Y0143374D01*
X0244281Y0144580D01*
X0244281Y0145885D01*
X0243782Y0147091D01*
X0244281Y0145420D02*
X0264000Y0145420D01*
X0264000Y0143821D02*
X0243967Y0143821D01*
X0242309Y0142223D02*
X0264000Y0142223D01*
X0264000Y0140624D02*
X0205803Y0140624D01*
X0207401Y0142223D02*
X0219691Y0142223D01*
X0219141Y0142451D02*
X0220347Y0141951D01*
X0221653Y0141951D01*
X0222859Y0142451D01*
X0223782Y0143374D01*
X0224281Y0144580D01*
X0224281Y0145885D01*
X0223782Y0147091D01*
X0222859Y0148014D01*
X0221653Y0148513D01*
X0220347Y0148513D01*
X0219141Y0148014D01*
X0218218Y0147091D01*
X0217719Y0145885D01*
X0217719Y0144580D01*
X0218218Y0143374D01*
X0219141Y0142451D01*
X0218033Y0143821D02*
X0208200Y0143821D01*
X0208200Y0145420D02*
X0217719Y0145420D01*
X0218188Y0147018D02*
X0208200Y0147018D01*
X0206000Y0143933D02*
X0206000Y0168933D01*
X0211000Y0173933D01*
X0207719Y0173763D02*
X0207719Y0174586D01*
X0208218Y0175792D01*
X0207719Y0174193D02*
X0158739Y0174193D01*
X0156189Y0169979D02*
X0152583Y0169979D01*
X0150033Y0167429D01*
X0150033Y0163823D01*
X0152583Y0161273D01*
X0156189Y0161273D01*
X0158739Y0163823D01*
X0158739Y0167429D01*
X0156189Y0169979D01*
X0156770Y0169398D02*
X0203800Y0169398D01*
X0203800Y0167799D02*
X0158368Y0167799D01*
X0158739Y0166201D02*
X0188627Y0166201D01*
X0188218Y0165792D02*
X0187719Y0164586D01*
X0187719Y0163280D01*
X0188218Y0162074D01*
X0188800Y0161493D01*
X0188800Y0149844D01*
X0187634Y0148678D01*
X0186718Y0149057D01*
X0184282Y0149057D01*
X0182031Y0148125D01*
X0180308Y0146402D01*
X0179376Y0144151D01*
X0179376Y0141715D01*
X0180308Y0139464D01*
X0182031Y0137741D01*
X0184282Y0136809D01*
X0186718Y0136809D01*
X0188969Y0137741D01*
X0190692Y0139464D01*
X0191624Y0141715D01*
X0191624Y0144151D01*
X0190952Y0145774D01*
X0191911Y0146733D01*
X0193200Y0148022D01*
X0193200Y0161493D01*
X0193782Y0162074D01*
X0194281Y0163280D01*
X0194281Y0164586D01*
X0193782Y0165792D01*
X0192859Y0166715D01*
X0191653Y0167214D01*
X0190347Y0167214D01*
X0189141Y0166715D01*
X0188218Y0165792D01*
X0187726Y0164602D02*
X0158739Y0164602D01*
X0157919Y0163004D02*
X0187834Y0163004D01*
X0188800Y0161405D02*
X0156321Y0161405D01*
X0152451Y0161405D02*
X0146478Y0161405D01*
X0146346Y0161273D02*
X0148896Y0163823D01*
X0148896Y0167429D01*
X0146346Y0169979D01*
X0142740Y0169979D01*
X0140213Y0167451D01*
X0137685Y0169979D01*
X0134079Y0169979D01*
X0131748Y0167648D01*
X0129417Y0169979D01*
X0125811Y0169979D01*
X0123261Y0167429D01*
X0123261Y0163823D01*
X0125811Y0161273D01*
X0129417Y0161273D01*
X0131748Y0163604D01*
X0134079Y0161273D01*
X0137685Y0161273D01*
X0138800Y0162388D01*
X0138800Y0134844D01*
X0128800Y0124844D01*
X0128800Y0073022D01*
X0130089Y0071733D01*
X0132246Y0069576D01*
X0156023Y0069576D01*
X0156133Y0069310D01*
X0157357Y0068085D01*
X0158957Y0067423D01*
X0160689Y0067423D01*
X0162288Y0068085D01*
X0163513Y0069310D01*
X0164176Y0070910D01*
X0164176Y0072641D01*
X0163513Y0074241D01*
X0162288Y0075466D01*
X0160689Y0076128D01*
X0158957Y0076128D01*
X0157357Y0075466D01*
X0156133Y0074241D01*
X0156023Y0073976D01*
X0134069Y0073976D01*
X0133200Y0074844D01*
X0133200Y0123022D01*
X0141911Y0131733D01*
X0143200Y0133022D01*
X0143200Y0161171D01*
X0143302Y0161273D01*
X0146346Y0161273D01*
X0148077Y0163004D02*
X0150853Y0163004D01*
X0150033Y0164602D02*
X0148896Y0164602D01*
X0148896Y0166201D02*
X0150033Y0166201D01*
X0150403Y0167799D02*
X0148526Y0167799D01*
X0146927Y0169398D02*
X0152002Y0169398D01*
X0151104Y0172595D02*
X0149400Y0172595D01*
X0142836Y0172595D02*
X0139729Y0172595D01*
X0140635Y0173500D02*
X0140635Y0175284D01*
X0136066Y0175284D01*
X0136066Y0170716D01*
X0137851Y0170716D01*
X0140635Y0173500D01*
X0140635Y0174193D02*
X0141765Y0174193D01*
X0141765Y0175792D02*
X0140635Y0175792D01*
X0140635Y0175653D02*
X0140635Y0177437D01*
X0137851Y0180221D01*
X0136066Y0180221D01*
X0136066Y0175653D01*
X0135698Y0175653D01*
X0135698Y0180221D01*
X0133913Y0180221D01*
X0131465Y0177773D01*
X0129417Y0179821D01*
X0125811Y0179821D01*
X0123261Y0177271D01*
X0123261Y0173666D01*
X0125811Y0171116D01*
X0129417Y0171116D01*
X0131465Y0173164D01*
X0133913Y0170716D01*
X0135698Y0170716D01*
X0135698Y0175284D01*
X0136066Y0175284D01*
X0136066Y0175653D01*
X0140635Y0175653D01*
X0140635Y0177390D02*
X0141884Y0177390D01*
X0143483Y0178989D02*
X0139083Y0178989D01*
X0136066Y0178989D02*
X0135698Y0178989D01*
X0135698Y0177390D02*
X0136066Y0177390D01*
X0136066Y0175792D02*
X0135698Y0175792D01*
X0135698Y0174193D02*
X0136066Y0174193D01*
X0136066Y0172595D02*
X0135698Y0172595D01*
X0135698Y0170996D02*
X0136066Y0170996D01*
X0138131Y0170996D02*
X0204952Y0170996D01*
X0203800Y0166201D02*
X0193373Y0166201D01*
X0194274Y0164602D02*
X0203800Y0164602D01*
X0203800Y0163004D02*
X0194166Y0163004D01*
X0193200Y0161405D02*
X0203800Y0161405D01*
X0203800Y0159807D02*
X0193200Y0159807D01*
X0193200Y0158208D02*
X0203800Y0158208D01*
X0203800Y0156610D02*
X0193200Y0156610D01*
X0193200Y0155011D02*
X0203800Y0155011D01*
X0203800Y0153412D02*
X0193200Y0153412D01*
X0193200Y0151814D02*
X0203800Y0151814D01*
X0203800Y0150215D02*
X0193200Y0150215D01*
X0193200Y0148617D02*
X0203800Y0148617D01*
X0203800Y0147018D02*
X0192197Y0147018D01*
X0191099Y0145420D02*
X0203800Y0145420D01*
X0202777Y0143821D02*
X0191624Y0143821D01*
X0191624Y0142223D02*
X0201179Y0142223D01*
X0199580Y0140624D02*
X0191173Y0140624D01*
X0190254Y0139026D02*
X0197982Y0139026D01*
X0196383Y0137427D02*
X0188212Y0137427D01*
X0182788Y0137427D02*
X0143200Y0137427D01*
X0143200Y0135829D02*
X0194785Y0135829D01*
X0193186Y0134230D02*
X0143200Y0134230D01*
X0142810Y0132632D02*
X0181538Y0132632D01*
X0180155Y0131033D02*
X0141212Y0131033D01*
X0139613Y0129435D02*
X0179493Y0129435D01*
X0179376Y0127836D02*
X0138015Y0127836D01*
X0136416Y0126238D02*
X0179573Y0126238D01*
X0180235Y0124639D02*
X0134817Y0124639D01*
X0133219Y0123041D02*
X0181731Y0123041D01*
X0189269Y0123041D02*
X0264000Y0123041D01*
X0264000Y0124639D02*
X0190765Y0124639D01*
X0191427Y0126238D02*
X0264000Y0126238D01*
X0264000Y0127836D02*
X0193014Y0127836D01*
X0194613Y0129435D02*
X0264000Y0129435D01*
X0264000Y0131033D02*
X0196212Y0131033D01*
X0197810Y0132632D02*
X0264000Y0132632D01*
X0264000Y0134230D02*
X0199409Y0134230D01*
X0201007Y0135829D02*
X0264000Y0135829D01*
X0264000Y0137427D02*
X0202606Y0137427D01*
X0204204Y0139026D02*
X0264000Y0139026D01*
X0239691Y0142223D02*
X0233122Y0142223D01*
X0234400Y0143821D02*
X0238033Y0143821D01*
X0237719Y0145420D02*
X0234681Y0145420D01*
X0234234Y0147018D02*
X0238188Y0147018D01*
X0231000Y0147018D02*
X0231000Y0147018D01*
X0231000Y0145420D02*
X0231000Y0145420D01*
X0231000Y0145232D02*
X0231000Y0145232D01*
X0231000Y0143821D02*
X0231000Y0143821D01*
X0231000Y0142223D02*
X0231000Y0142223D01*
X0228878Y0142223D02*
X0222309Y0142223D01*
X0223967Y0143821D02*
X0227600Y0143821D01*
X0227319Y0145420D02*
X0224281Y0145420D01*
X0223812Y0147018D02*
X0227766Y0147018D01*
X0206000Y0143933D02*
X0190000Y0127933D01*
X0185500Y0127933D01*
X0189462Y0132632D02*
X0191588Y0132632D01*
X0180746Y0139026D02*
X0143200Y0139026D01*
X0143200Y0140624D02*
X0179827Y0140624D01*
X0179376Y0142223D02*
X0143200Y0142223D01*
X0143200Y0143821D02*
X0179376Y0143821D01*
X0179901Y0145420D02*
X0143200Y0145420D01*
X0143200Y0147018D02*
X0180924Y0147018D01*
X0183218Y0148617D02*
X0143200Y0148617D01*
X0143200Y0150215D02*
X0188800Y0150215D01*
X0188800Y0151814D02*
X0143200Y0151814D01*
X0143200Y0153412D02*
X0188800Y0153412D01*
X0188800Y0155011D02*
X0143200Y0155011D01*
X0143200Y0156610D02*
X0188800Y0156610D01*
X0188800Y0158208D02*
X0143200Y0158208D01*
X0143200Y0159807D02*
X0188800Y0159807D01*
X0191000Y0163933D02*
X0191000Y0148933D01*
X0185500Y0143433D01*
X0185500Y0142933D01*
X0202625Y0120362D02*
X0204815Y0121268D01*
X0207185Y0121268D01*
X0209375Y0120362D01*
X0211050Y0118686D01*
X0211957Y0116496D01*
X0211957Y0114126D01*
X0211050Y0111936D01*
X0209425Y0110311D01*
X0211050Y0108686D01*
X0211957Y0106496D01*
X0211957Y0104126D01*
X0211050Y0101936D01*
X0209425Y0100311D01*
X0211050Y0098686D01*
X0211957Y0096496D01*
X0211957Y0094126D01*
X0211050Y0091936D01*
X0209375Y0090261D01*
X0207185Y0089354D01*
X0204815Y0089354D01*
X0202625Y0090261D01*
X0200949Y0091936D01*
X0200043Y0094126D01*
X0200043Y0096496D01*
X0200949Y0098686D01*
X0202575Y0100311D01*
X0200949Y0101936D01*
X0200043Y0104126D01*
X0200043Y0106496D01*
X0200949Y0108686D01*
X0202575Y0110311D01*
X0200949Y0111936D01*
X0200043Y0114126D01*
X0200043Y0116496D01*
X0200949Y0118686D01*
X0202625Y0120362D01*
X0202108Y0119844D02*
X0152394Y0119844D01*
X0152690Y0119646D02*
X0152076Y0120056D01*
X0151394Y0120339D01*
X0150669Y0120483D01*
X0150300Y0120483D01*
X0150300Y0116733D01*
X0150300Y0112983D01*
X0150669Y0112983D01*
X0151394Y0113127D01*
X0152076Y0113410D01*
X0152690Y0113820D01*
X0153213Y0114343D01*
X0153623Y0114957D01*
X0153906Y0115639D01*
X0154050Y0116364D01*
X0154050Y0116733D01*
X0150300Y0116733D01*
X0150300Y0116733D01*
X0150300Y0112983D01*
X0149931Y0112983D01*
X0149206Y0113127D01*
X0148524Y0113410D01*
X0147910Y0113820D01*
X0147387Y0114343D01*
X0147251Y0114546D01*
X0146598Y0113893D01*
X0145366Y0113383D01*
X0144034Y0113383D01*
X0142802Y0113893D01*
X0141875Y0114820D01*
X0141840Y0114735D01*
X0140898Y0113793D01*
X0139666Y0113283D01*
X0138334Y0113283D01*
X0137102Y0113793D01*
X0136160Y0114735D01*
X0135650Y0115967D01*
X0135650Y0117299D01*
X0136160Y0118531D01*
X0137102Y0119473D01*
X0138334Y0119983D01*
X0139666Y0119983D01*
X0140898Y0119473D01*
X0141825Y0118546D01*
X0141860Y0118631D01*
X0142802Y0119573D01*
X0144034Y0120083D01*
X0145366Y0120083D01*
X0146598Y0119573D01*
X0147251Y0118920D01*
X0147387Y0119124D01*
X0147910Y0119646D01*
X0148524Y0120056D01*
X0149206Y0120339D01*
X0149931Y0120483D01*
X0150300Y0120483D01*
X0150300Y0116733D01*
X0150300Y0116733D01*
X0154050Y0116733D01*
X0154050Y0117102D01*
X0153906Y0117827D01*
X0153623Y0118509D01*
X0153213Y0119124D01*
X0152690Y0119646D01*
X0153733Y0118245D02*
X0200767Y0118245D01*
X0200105Y0116647D02*
X0154050Y0116647D01*
X0153661Y0115048D02*
X0200043Y0115048D01*
X0200323Y0113450D02*
X0152136Y0113450D01*
X0150300Y0113450D02*
X0150300Y0113450D01*
X0150300Y0115048D02*
X0150300Y0115048D01*
X0150300Y0116647D02*
X0150300Y0116647D01*
X0150300Y0116733D02*
X0150300Y0116733D01*
X0150300Y0118245D02*
X0150300Y0118245D01*
X0150300Y0119844D02*
X0150300Y0119844D01*
X0148206Y0119844D02*
X0145944Y0119844D01*
X0143456Y0119844D02*
X0140003Y0119844D01*
X0137997Y0119844D02*
X0133200Y0119844D01*
X0133200Y0121442D02*
X0264000Y0121442D01*
X0264000Y0119844D02*
X0209892Y0119844D01*
X0211233Y0118245D02*
X0253196Y0118245D01*
X0253702Y0118751D02*
X0252560Y0117609D01*
X0251943Y0116118D01*
X0251943Y0114504D01*
X0252560Y0113013D01*
X0253702Y0111871D01*
X0255193Y0111254D01*
X0256807Y0111254D01*
X0258298Y0111871D01*
X0259440Y0113013D01*
X0260057Y0114504D01*
X0260057Y0116118D01*
X0259440Y0117609D01*
X0258298Y0118751D01*
X0256807Y0119368D01*
X0255193Y0119368D01*
X0253702Y0118751D01*
X0252161Y0116647D02*
X0211895Y0116647D01*
X0211957Y0115048D02*
X0251943Y0115048D01*
X0252379Y0113450D02*
X0211677Y0113450D01*
X0210965Y0111851D02*
X0253750Y0111851D01*
X0255193Y0109368D02*
X0253702Y0108751D01*
X0252560Y0107609D01*
X0251943Y0106118D01*
X0251943Y0104504D01*
X0252560Y0103013D01*
X0253702Y0101871D01*
X0255193Y0101254D01*
X0256807Y0101254D01*
X0258298Y0101871D01*
X0259440Y0103013D01*
X0260057Y0104504D01*
X0260057Y0106118D01*
X0259440Y0107609D01*
X0258298Y0108751D01*
X0256807Y0109368D01*
X0255193Y0109368D01*
X0253605Y0108654D02*
X0211064Y0108654D01*
X0211726Y0107056D02*
X0252331Y0107056D01*
X0251943Y0105457D02*
X0211957Y0105457D01*
X0211847Y0103859D02*
X0252210Y0103859D01*
X0253313Y0102260D02*
X0211185Y0102260D01*
X0209776Y0100662D02*
X0264000Y0100662D01*
X0264000Y0102260D02*
X0258687Y0102260D01*
X0259790Y0103859D02*
X0264000Y0103859D01*
X0264000Y0105457D02*
X0260057Y0105457D01*
X0259669Y0107056D02*
X0264000Y0107056D01*
X0264000Y0108654D02*
X0258395Y0108654D01*
X0258250Y0111851D02*
X0264000Y0111851D01*
X0264000Y0110253D02*
X0209483Y0110253D01*
X0202517Y0110253D02*
X0133200Y0110253D01*
X0133200Y0111851D02*
X0201035Y0111851D01*
X0200936Y0108654D02*
X0133200Y0108654D01*
X0133200Y0107056D02*
X0200274Y0107056D01*
X0200043Y0105457D02*
X0188304Y0105457D01*
X0187096Y0105957D02*
X0190045Y0104736D01*
X0192303Y0102479D01*
X0193524Y0099529D01*
X0193524Y0096337D01*
X0192303Y0093388D01*
X0190045Y0091130D01*
X0188362Y0090433D01*
X0190045Y0089736D01*
X0192303Y0087479D01*
X0193524Y0084529D01*
X0193524Y0081337D01*
X0192303Y0078388D01*
X0190045Y0076130D01*
X0187096Y0074909D01*
X0183904Y0074909D01*
X0180955Y0076130D01*
X0178697Y0078388D01*
X0177476Y0081337D01*
X0177476Y0084529D01*
X0178697Y0087479D01*
X0180955Y0089736D01*
X0182638Y0090433D01*
X0180955Y0091130D01*
X0178697Y0093388D01*
X0177476Y0096337D01*
X0177476Y0099529D01*
X0178697Y0102479D01*
X0180955Y0104736D01*
X0183904Y0105957D01*
X0187096Y0105957D01*
X0190923Y0103859D02*
X0200153Y0103859D01*
X0200815Y0102260D02*
X0192393Y0102260D01*
X0193055Y0100662D02*
X0202224Y0100662D01*
X0201327Y0099063D02*
X0193524Y0099063D01*
X0193524Y0097465D02*
X0200444Y0097465D01*
X0200043Y0095866D02*
X0193329Y0095866D01*
X0192667Y0094268D02*
X0200043Y0094268D01*
X0200646Y0092669D02*
X0191584Y0092669D01*
X0189901Y0091071D02*
X0201815Y0091071D01*
X0204529Y0089472D02*
X0190309Y0089472D01*
X0191908Y0087874D02*
X0264000Y0087874D01*
X0264000Y0089472D02*
X0207471Y0089472D01*
X0210185Y0091071D02*
X0264000Y0091071D01*
X0264000Y0092669D02*
X0259096Y0092669D01*
X0259440Y0093013D02*
X0260057Y0094504D01*
X0260057Y0096118D01*
X0259440Y0097609D01*
X0258298Y0098751D01*
X0256807Y0099368D01*
X0255193Y0099368D01*
X0253702Y0098751D01*
X0252560Y0097609D01*
X0251943Y0096118D01*
X0251943Y0094504D01*
X0252560Y0093013D01*
X0253702Y0091871D01*
X0255193Y0091254D01*
X0256807Y0091254D01*
X0258298Y0091871D01*
X0259440Y0093013D01*
X0259960Y0094268D02*
X0264000Y0094268D01*
X0264000Y0095866D02*
X0260057Y0095866D01*
X0259500Y0097465D02*
X0264000Y0097465D01*
X0264000Y0099063D02*
X0257544Y0099063D01*
X0254456Y0099063D02*
X0210673Y0099063D01*
X0211556Y0097465D02*
X0252500Y0097465D01*
X0251943Y0095866D02*
X0211957Y0095866D01*
X0211957Y0094268D02*
X0252040Y0094268D01*
X0252904Y0092669D02*
X0211354Y0092669D01*
X0193463Y0084677D02*
X0264000Y0084677D01*
X0264000Y0086275D02*
X0192801Y0086275D01*
X0193524Y0083078D02*
X0264000Y0083078D01*
X0264000Y0081479D02*
X0193524Y0081479D01*
X0192921Y0079881D02*
X0264000Y0079881D01*
X0264000Y0078282D02*
X0192198Y0078282D01*
X0190599Y0076684D02*
X0264000Y0076684D01*
X0264000Y0075085D02*
X0187523Y0075085D01*
X0183477Y0075085D02*
X0162669Y0075085D01*
X0163825Y0073487D02*
X0264000Y0073487D01*
X0264000Y0071888D02*
X0164176Y0071888D01*
X0163919Y0070290D02*
X0264000Y0070290D01*
X0264000Y0068691D02*
X0162894Y0068691D01*
X0162288Y0065623D02*
X0160689Y0066286D01*
X0158957Y0066286D01*
X0157357Y0065623D01*
X0156133Y0064399D01*
X0155470Y0062799D01*
X0155470Y0061067D01*
X0156133Y0059467D01*
X0157357Y0058243D01*
X0158957Y0057580D01*
X0160689Y0057580D01*
X0162288Y0058243D01*
X0163513Y0059467D01*
X0164176Y0061067D01*
X0164176Y0062799D01*
X0163513Y0064399D01*
X0162288Y0065623D01*
X0162417Y0065494D02*
X0264000Y0065494D01*
X0264000Y0063896D02*
X0176337Y0063896D01*
X0177935Y0062297D02*
X0264000Y0062297D01*
X0264000Y0060699D02*
X0223840Y0060699D01*
X0223798Y0060802D02*
X0222869Y0061731D01*
X0221656Y0062233D01*
X0210344Y0062233D01*
X0209131Y0061731D01*
X0208202Y0060802D01*
X0207700Y0059589D01*
X0207700Y0048277D01*
X0208202Y0047064D01*
X0209131Y0046135D01*
X0210344Y0045633D01*
X0221656Y0045633D01*
X0222869Y0046135D01*
X0223798Y0047064D01*
X0224300Y0048277D01*
X0224300Y0059589D01*
X0223798Y0060802D01*
X0224300Y0059100D02*
X0264000Y0059100D01*
X0264000Y0057502D02*
X0224300Y0057502D01*
X0224300Y0055903D02*
X0264000Y0055903D01*
X0264000Y0054305D02*
X0224300Y0054305D01*
X0224300Y0052706D02*
X0264000Y0052706D01*
X0264000Y0051108D02*
X0224300Y0051108D01*
X0224300Y0049509D02*
X0264000Y0049509D01*
X0264000Y0047911D02*
X0224148Y0047911D01*
X0223046Y0046312D02*
X0264000Y0046312D01*
X0264000Y0044714D02*
X0177519Y0044714D01*
X0179070Y0046312D02*
X0187709Y0046312D01*
X0186298Y0046897D02*
X0189349Y0045633D01*
X0192651Y0045633D01*
X0195702Y0046897D01*
X0198036Y0049231D01*
X0199300Y0052282D01*
X0199300Y0055584D01*
X0198036Y0058635D01*
X0195702Y0060969D01*
X0192651Y0062233D01*
X0189349Y0062233D01*
X0186298Y0060969D01*
X0183964Y0058635D01*
X0182700Y0055584D01*
X0182700Y0052282D01*
X0183964Y0049231D01*
X0186298Y0046897D01*
X0185284Y0047911D02*
X0179732Y0047911D01*
X0180300Y0049509D02*
X0183849Y0049509D01*
X0183186Y0051108D02*
X0180300Y0051108D01*
X0180249Y0052706D02*
X0182700Y0052706D01*
X0182700Y0054305D02*
X0179587Y0054305D01*
X0179000Y0055903D02*
X0182832Y0055903D01*
X0183494Y0057502D02*
X0179000Y0057502D01*
X0179000Y0059100D02*
X0184429Y0059100D01*
X0186028Y0060699D02*
X0178597Y0060699D01*
X0167663Y0063896D02*
X0163721Y0063896D01*
X0164176Y0062297D02*
X0166065Y0062297D01*
X0165403Y0060699D02*
X0164023Y0060699D01*
X0163146Y0059100D02*
X0165000Y0059100D01*
X0165000Y0057502D02*
X0144169Y0057502D01*
X0142571Y0059100D02*
X0156500Y0059100D01*
X0155623Y0060699D02*
X0140972Y0060699D01*
X0139374Y0062297D02*
X0155470Y0062297D01*
X0155924Y0063896D02*
X0137775Y0063896D01*
X0136177Y0065494D02*
X0157228Y0065494D01*
X0156751Y0068691D02*
X0132980Y0068691D01*
X0131532Y0070290D02*
X0131381Y0070290D01*
X0129933Y0071888D02*
X0129783Y0071888D01*
X0128800Y0073487D02*
X0128184Y0073487D01*
X0128800Y0075085D02*
X0126586Y0075085D01*
X0124987Y0076684D02*
X0128800Y0076684D01*
X0128800Y0078282D02*
X0123389Y0078282D01*
X0123036Y0078635D02*
X0123036Y0078635D01*
X0121790Y0079881D02*
X0128800Y0079881D01*
X0128800Y0081479D02*
X0119470Y0081479D01*
X0128800Y0083078D02*
X0029024Y0083078D01*
X0029024Y0082837D02*
X0027803Y0079888D01*
X0025545Y0077630D01*
X0022596Y0076409D01*
X0019404Y0076409D01*
X0016455Y0077630D01*
X0014197Y0079888D01*
X0012976Y0082837D01*
X0012976Y0086029D01*
X0014197Y0088979D01*
X0016455Y0091236D01*
X0018138Y0091933D01*
X0016455Y0092630D01*
X0014197Y0094888D01*
X0012976Y0097837D01*
X0012976Y0101029D01*
X0014197Y0103979D01*
X0016455Y0106236D01*
X0019404Y0107457D01*
X0022596Y0107457D01*
X0025545Y0106236D01*
X0027803Y0103979D01*
X0029024Y0101029D01*
X0029024Y0097837D01*
X0027803Y0094888D01*
X0025545Y0092630D01*
X0023862Y0091933D01*
X0025545Y0091236D01*
X0027803Y0088979D01*
X0029024Y0086029D01*
X0029024Y0082837D01*
X0028462Y0081479D02*
X0042530Y0081479D01*
X0040210Y0079881D02*
X0027796Y0079881D01*
X0026198Y0078282D02*
X0038611Y0078282D01*
X0037013Y0076684D02*
X0023261Y0076684D01*
X0018739Y0076684D02*
X0011000Y0076684D01*
X0011000Y0078282D02*
X0015802Y0078282D01*
X0014204Y0079881D02*
X0011000Y0079881D01*
X0011000Y0081479D02*
X0013538Y0081479D01*
X0012976Y0083078D02*
X0011000Y0083078D01*
X0011000Y0084677D02*
X0012976Y0084677D01*
X0013077Y0086275D02*
X0011000Y0086275D01*
X0011000Y0087874D02*
X0013740Y0087874D01*
X0014691Y0089472D02*
X0011000Y0089472D01*
X0011000Y0091071D02*
X0016289Y0091071D01*
X0016416Y0092669D02*
X0011000Y0092669D01*
X0011000Y0094268D02*
X0014817Y0094268D01*
X0013792Y0095866D02*
X0011000Y0095866D01*
X0011000Y0097465D02*
X0013130Y0097465D01*
X0012976Y0099063D02*
X0011000Y0099063D01*
X0011000Y0100662D02*
X0012976Y0100662D01*
X0013485Y0102260D02*
X0011000Y0102260D01*
X0011000Y0103859D02*
X0014148Y0103859D01*
X0015676Y0105457D02*
X0011000Y0105457D01*
X0011000Y0107056D02*
X0018434Y0107056D01*
X0023566Y0107056D02*
X0040274Y0107056D01*
X0040043Y0106496D02*
X0040043Y0104126D01*
X0040949Y0101936D01*
X0042575Y0100311D01*
X0040949Y0098686D01*
X0040043Y0096496D01*
X0040043Y0094126D01*
X0040949Y0091936D01*
X0042625Y0090261D01*
X0044815Y0089354D01*
X0047185Y0089354D01*
X0049375Y0090261D01*
X0051050Y0091936D01*
X0051957Y0094126D01*
X0051957Y0096496D01*
X0051050Y0098686D01*
X0049425Y0100311D01*
X0051050Y0101936D01*
X0051957Y0104126D01*
X0051957Y0106496D01*
X0051050Y0108686D01*
X0049425Y0110311D01*
X0051050Y0111936D01*
X0051957Y0114126D01*
X0051957Y0116496D01*
X0051050Y0118686D01*
X0049375Y0120362D01*
X0047185Y0121268D01*
X0044815Y0121268D01*
X0042625Y0120362D01*
X0040949Y0118686D01*
X0040043Y0116496D01*
X0040043Y0114126D01*
X0040949Y0111936D01*
X0042575Y0110311D01*
X0040949Y0108686D01*
X0040043Y0106496D01*
X0040043Y0105457D02*
X0026324Y0105457D01*
X0027852Y0103859D02*
X0040153Y0103859D01*
X0040815Y0102260D02*
X0028515Y0102260D01*
X0029024Y0100662D02*
X0042224Y0100662D01*
X0041327Y0099063D02*
X0029024Y0099063D01*
X0028870Y0097465D02*
X0040444Y0097465D01*
X0040043Y0095866D02*
X0028208Y0095866D01*
X0027183Y0094268D02*
X0040043Y0094268D01*
X0040646Y0092669D02*
X0025584Y0092669D01*
X0025711Y0091071D02*
X0041815Y0091071D01*
X0044529Y0089472D02*
X0027309Y0089472D01*
X0028260Y0087874D02*
X0128800Y0087874D01*
X0128800Y0089472D02*
X0097471Y0089472D01*
X0097185Y0089354D02*
X0099375Y0090261D01*
X0101050Y0091936D01*
X0101957Y0094126D01*
X0101957Y0096496D01*
X0101050Y0098686D01*
X0099425Y0100311D01*
X0101050Y0101936D01*
X0101957Y0104126D01*
X0101957Y0106496D01*
X0101050Y0108686D01*
X0099425Y0110311D01*
X0101050Y0111936D01*
X0101957Y0114126D01*
X0101957Y0116496D01*
X0101050Y0118686D01*
X0099375Y0120362D01*
X0097185Y0121268D01*
X0094815Y0121268D01*
X0092625Y0120362D01*
X0090949Y0118686D01*
X0090043Y0116496D01*
X0090043Y0114126D01*
X0090949Y0111936D01*
X0092575Y0110311D01*
X0090949Y0108686D01*
X0090043Y0106496D01*
X0090043Y0104126D01*
X0090949Y0101936D01*
X0092575Y0100311D01*
X0090949Y0098686D01*
X0090043Y0096496D01*
X0090043Y0094126D01*
X0090949Y0091936D01*
X0092625Y0090261D01*
X0094815Y0089354D01*
X0097185Y0089354D01*
X0094529Y0089472D02*
X0047471Y0089472D01*
X0050185Y0091071D02*
X0091815Y0091071D01*
X0090646Y0092669D02*
X0051354Y0092669D01*
X0051957Y0094268D02*
X0090043Y0094268D01*
X0090043Y0095866D02*
X0051957Y0095866D01*
X0051556Y0097465D02*
X0090444Y0097465D01*
X0091327Y0099063D02*
X0050673Y0099063D01*
X0049776Y0100662D02*
X0092224Y0100662D01*
X0090815Y0102260D02*
X0051185Y0102260D01*
X0051847Y0103859D02*
X0090153Y0103859D01*
X0090043Y0105457D02*
X0051957Y0105457D01*
X0051726Y0107056D02*
X0090274Y0107056D01*
X0090936Y0108654D02*
X0051064Y0108654D01*
X0049483Y0110253D02*
X0092517Y0110253D01*
X0091035Y0111851D02*
X0050965Y0111851D01*
X0051677Y0113450D02*
X0090323Y0113450D01*
X0090043Y0115048D02*
X0051957Y0115048D01*
X0051895Y0116647D02*
X0090105Y0116647D01*
X0090767Y0118245D02*
X0051233Y0118245D01*
X0049892Y0119844D02*
X0092108Y0119844D01*
X0099892Y0119844D02*
X0128800Y0119844D01*
X0128800Y0121442D02*
X0011000Y0121442D01*
X0011000Y0119844D02*
X0042108Y0119844D01*
X0040767Y0118245D02*
X0011000Y0118245D01*
X0011000Y0116647D02*
X0040105Y0116647D01*
X0040043Y0115048D02*
X0011000Y0115048D01*
X0011000Y0113450D02*
X0040323Y0113450D01*
X0041035Y0111851D02*
X0011000Y0111851D01*
X0011000Y0110253D02*
X0042517Y0110253D01*
X0040936Y0108654D02*
X0011000Y0108654D01*
X0011000Y0123041D02*
X0128800Y0123041D01*
X0128800Y0124639D02*
X0024867Y0124639D01*
X0024469Y0124241D02*
X0026192Y0125964D01*
X0027124Y0128215D01*
X0027124Y0130651D01*
X0026192Y0132902D01*
X0024469Y0134625D01*
X0022218Y0135557D01*
X0019782Y0135557D01*
X0017531Y0134625D01*
X0015808Y0132902D01*
X0014876Y0130651D01*
X0014876Y0128215D01*
X0015808Y0125964D01*
X0017531Y0124241D01*
X0019782Y0123309D01*
X0022218Y0123309D01*
X0024469Y0124241D01*
X0026305Y0126238D02*
X0130193Y0126238D01*
X0131792Y0127836D02*
X0026968Y0127836D01*
X0027124Y0129435D02*
X0133390Y0129435D01*
X0134989Y0131033D02*
X0026966Y0131033D01*
X0026304Y0132632D02*
X0136588Y0132632D01*
X0138186Y0134230D02*
X0024864Y0134230D01*
X0022218Y0138309D02*
X0024469Y0139241D01*
X0026192Y0140964D01*
X0027124Y0143215D01*
X0027124Y0145651D01*
X0026192Y0147902D01*
X0024469Y0149625D01*
X0022218Y0150557D01*
X0019782Y0150557D01*
X0017531Y0149625D01*
X0015808Y0147902D01*
X0014876Y0145651D01*
X0014876Y0143215D01*
X0015808Y0140964D01*
X0017531Y0139241D01*
X0019782Y0138309D01*
X0022218Y0138309D01*
X0023950Y0139026D02*
X0138800Y0139026D01*
X0138800Y0140624D02*
X0025853Y0140624D01*
X0026714Y0142223D02*
X0059691Y0142223D01*
X0059141Y0142451D02*
X0060347Y0141951D01*
X0061653Y0141951D01*
X0062859Y0142451D01*
X0063782Y0143374D01*
X0064281Y0144580D01*
X0064281Y0145885D01*
X0063782Y0147091D01*
X0062859Y0148014D01*
X0061653Y0148513D01*
X0060347Y0148513D01*
X0059141Y0148014D01*
X0058218Y0147091D01*
X0057719Y0145885D01*
X0057719Y0144580D01*
X0058218Y0143374D01*
X0059141Y0142451D01*
X0058033Y0143821D02*
X0027124Y0143821D01*
X0027124Y0145420D02*
X0057719Y0145420D01*
X0058188Y0147018D02*
X0026558Y0147018D01*
X0025477Y0148617D02*
X0069552Y0148617D01*
X0069256Y0148494D02*
X0068653Y0148092D01*
X0068141Y0147579D01*
X0067738Y0146976D01*
X0067460Y0146306D01*
X0067319Y0145595D01*
X0067319Y0145232D01*
X0067319Y0144870D01*
X0067460Y0144159D01*
X0067738Y0143489D01*
X0068141Y0142886D01*
X0068653Y0142373D01*
X0069256Y0141970D01*
X0069926Y0141693D01*
X0070637Y0141551D01*
X0071000Y0141551D01*
X0071363Y0141551D01*
X0072074Y0141693D01*
X0072744Y0141970D01*
X0073347Y0142373D01*
X0073859Y0142886D01*
X0074262Y0143489D01*
X0074540Y0144159D01*
X0074681Y0144870D01*
X0074681Y0145232D01*
X0071000Y0145232D01*
X0071000Y0141551D01*
X0071000Y0145232D01*
X0071000Y0145232D01*
X0071000Y0145232D01*
X0067319Y0145232D01*
X0071000Y0145232D01*
X0071000Y0145232D01*
X0074681Y0145232D01*
X0074681Y0145595D01*
X0074540Y0146306D01*
X0074262Y0146976D01*
X0073859Y0147579D01*
X0073347Y0148092D01*
X0072744Y0148494D01*
X0072074Y0148772D01*
X0071363Y0148913D01*
X0071000Y0148913D01*
X0071000Y0145232D01*
X0071000Y0148913D01*
X0070637Y0148913D01*
X0069926Y0148772D01*
X0069256Y0148494D01*
X0071000Y0148617D02*
X0071000Y0148617D01*
X0072448Y0148617D02*
X0138800Y0148617D01*
X0138800Y0150215D02*
X0023044Y0150215D01*
X0018956Y0150215D02*
X0011000Y0150215D01*
X0011000Y0148617D02*
X0016523Y0148617D01*
X0015442Y0147018D02*
X0011000Y0147018D01*
X0011000Y0145420D02*
X0014876Y0145420D01*
X0014876Y0143821D02*
X0011000Y0143821D01*
X0011000Y0142223D02*
X0015286Y0142223D01*
X0016147Y0140624D02*
X0011000Y0140624D01*
X0011000Y0139026D02*
X0018050Y0139026D01*
X0011000Y0137427D02*
X0138800Y0137427D01*
X0138800Y0135829D02*
X0011000Y0135829D01*
X0011000Y0134230D02*
X0017136Y0134230D01*
X0015696Y0132632D02*
X0011000Y0132632D01*
X0011000Y0131033D02*
X0015034Y0131033D01*
X0014876Y0129435D02*
X0011000Y0129435D01*
X0011000Y0127836D02*
X0015032Y0127836D01*
X0015695Y0126238D02*
X0011000Y0126238D01*
X0011000Y0124639D02*
X0017133Y0124639D01*
X0062309Y0142223D02*
X0068878Y0142223D01*
X0067600Y0143821D02*
X0063967Y0143821D01*
X0064281Y0145420D02*
X0067319Y0145420D01*
X0067766Y0147018D02*
X0063812Y0147018D01*
X0071000Y0147018D02*
X0071000Y0147018D01*
X0071000Y0145420D02*
X0071000Y0145420D01*
X0071000Y0145232D02*
X0071000Y0145232D01*
X0071000Y0143821D02*
X0071000Y0143821D01*
X0071000Y0142223D02*
X0071000Y0142223D01*
X0073122Y0142223D02*
X0079691Y0142223D01*
X0079141Y0142451D02*
X0080347Y0141951D01*
X0081653Y0141951D01*
X0082859Y0142451D01*
X0083782Y0143374D01*
X0084281Y0144580D01*
X0084281Y0145885D01*
X0083782Y0147091D01*
X0082859Y0148014D01*
X0081653Y0148513D01*
X0080347Y0148513D01*
X0079141Y0148014D01*
X0078218Y0147091D01*
X0077719Y0145885D01*
X0077719Y0144580D01*
X0078218Y0143374D01*
X0079141Y0142451D01*
X0078033Y0143821D02*
X0074400Y0143821D01*
X0074681Y0145420D02*
X0077719Y0145420D01*
X0078188Y0147018D02*
X0074234Y0147018D01*
X0082309Y0142223D02*
X0138800Y0142223D01*
X0138800Y0143821D02*
X0083967Y0143821D01*
X0084281Y0145420D02*
X0138800Y0145420D01*
X0138800Y0147018D02*
X0083812Y0147018D01*
X0123261Y0164602D02*
X0011000Y0164602D01*
X0011000Y0163004D02*
X0124081Y0163004D01*
X0125679Y0161405D02*
X0011000Y0161405D01*
X0011000Y0159807D02*
X0138800Y0159807D01*
X0138800Y0161405D02*
X0137817Y0161405D01*
X0141000Y0162083D02*
X0144543Y0165626D01*
X0140561Y0167799D02*
X0139864Y0167799D01*
X0138266Y0169398D02*
X0142159Y0169398D01*
X0133498Y0169398D02*
X0129998Y0169398D01*
X0131597Y0167799D02*
X0131899Y0167799D01*
X0133633Y0170996D02*
X0011000Y0170996D01*
X0011000Y0169398D02*
X0125230Y0169398D01*
X0123632Y0167799D02*
X0011000Y0167799D01*
X0011000Y0166201D02*
X0123261Y0166201D01*
X0131147Y0163004D02*
X0132349Y0163004D01*
X0133947Y0161405D02*
X0129549Y0161405D01*
X0138800Y0158208D02*
X0011000Y0158208D01*
X0011000Y0156610D02*
X0138800Y0156610D01*
X0138800Y0155011D02*
X0011000Y0155011D01*
X0011000Y0153412D02*
X0138800Y0153412D01*
X0138800Y0151814D02*
X0011000Y0151814D01*
X0011000Y0172595D02*
X0124332Y0172595D01*
X0123261Y0174193D02*
X0011000Y0174193D01*
X0011000Y0175792D02*
X0123261Y0175792D01*
X0123380Y0177390D02*
X0011000Y0177390D01*
X0011000Y0178989D02*
X0124979Y0178989D01*
X0130250Y0178989D02*
X0132681Y0178989D01*
X0132034Y0172595D02*
X0130896Y0172595D01*
X0118972Y0180587D02*
X0163028Y0180587D01*
X0151750Y0178989D02*
X0148754Y0178989D01*
X0141000Y0162083D02*
X0141000Y0133933D01*
X0131000Y0123933D01*
X0131000Y0073933D01*
X0133157Y0071776D01*
X0148157Y0071776D01*
X0138157Y0071776D01*
X0134578Y0067093D02*
X0264000Y0067093D01*
X0264000Y0043115D02*
X0175920Y0043115D01*
X0174322Y0041517D02*
X0187620Y0041517D01*
X0185247Y0039918D02*
X0172723Y0039918D01*
X0171125Y0038320D02*
X0183833Y0038320D01*
X0183171Y0036721D02*
X0169278Y0036721D01*
X0182700Y0035123D02*
X0109789Y0035123D01*
X0109665Y0034999D02*
X0111634Y0036968D01*
X0112700Y0039541D01*
X0112700Y0042325D01*
X0111634Y0044898D01*
X0110599Y0045933D01*
X0111634Y0046968D01*
X0112700Y0049541D01*
X0112700Y0052325D01*
X0111634Y0054898D01*
X0109665Y0056867D01*
X0107092Y0057933D01*
X0096908Y0057933D01*
X0094335Y0056867D01*
X0092366Y0054898D01*
X0091300Y0052325D01*
X0091300Y0049541D01*
X0092366Y0046968D01*
X0093401Y0045933D01*
X0092366Y0044898D01*
X0091300Y0042325D01*
X0091300Y0039541D01*
X0092366Y0036968D01*
X0094335Y0034999D01*
X0096908Y0033933D01*
X0107092Y0033933D01*
X0109665Y0034999D01*
X0111388Y0036721D02*
X0141722Y0036721D01*
X0139875Y0038320D02*
X0112194Y0038320D01*
X0112700Y0039918D02*
X0138277Y0039918D01*
X0136678Y0041517D02*
X0112700Y0041517D01*
X0112373Y0043115D02*
X0135080Y0043115D01*
X0133481Y0044714D02*
X0111711Y0044714D01*
X0110979Y0046312D02*
X0131883Y0046312D01*
X0130284Y0047911D02*
X0112025Y0047911D01*
X0112687Y0049509D02*
X0128686Y0049509D01*
X0127087Y0051108D02*
X0112700Y0051108D01*
X0112542Y0052706D02*
X0125489Y0052706D01*
X0123890Y0054305D02*
X0111880Y0054305D01*
X0110629Y0055903D02*
X0122292Y0055903D01*
X0120693Y0057502D02*
X0108134Y0057502D01*
X0115898Y0062297D02*
X0046102Y0062297D01*
X0047701Y0063896D02*
X0114299Y0063896D01*
X0112701Y0065494D02*
X0049299Y0065494D01*
X0053972Y0060699D02*
X0117496Y0060699D01*
X0119095Y0059100D02*
X0055571Y0059100D01*
X0056506Y0057502D02*
X0095866Y0057502D01*
X0093371Y0055903D02*
X0057168Y0055903D01*
X0057300Y0054305D02*
X0092120Y0054305D01*
X0091458Y0052706D02*
X0057300Y0052706D01*
X0056814Y0051108D02*
X0091300Y0051108D01*
X0091313Y0049509D02*
X0056151Y0049509D01*
X0054716Y0047911D02*
X0091975Y0047911D01*
X0093021Y0046312D02*
X0052291Y0046312D01*
X0045709Y0046312D02*
X0037300Y0046312D01*
X0037300Y0044714D02*
X0092289Y0044714D01*
X0091627Y0043115D02*
X0037300Y0043115D01*
X0037300Y0041517D02*
X0045620Y0041517D01*
X0043247Y0039918D02*
X0037300Y0039918D01*
X0037300Y0038320D02*
X0041833Y0038320D01*
X0041171Y0036721D02*
X0037300Y0036721D01*
X0037300Y0035123D02*
X0040700Y0035123D01*
X0040700Y0033524D02*
X0037300Y0033524D01*
X0037300Y0031926D02*
X0040848Y0031926D01*
X0041510Y0030327D02*
X0037132Y0030327D01*
X0020868Y0030327D02*
X0018388Y0030327D01*
X0019050Y0031926D02*
X0020700Y0031926D01*
X0020700Y0033524D02*
X0019205Y0033524D01*
X0019205Y0035123D02*
X0020700Y0035123D01*
X0020700Y0036721D02*
X0018727Y0036721D01*
X0018065Y0038320D02*
X0020700Y0038320D01*
X0020700Y0039918D02*
X0016619Y0039918D01*
X0014134Y0041517D02*
X0020700Y0041517D01*
X0020700Y0043115D02*
X0011000Y0043115D01*
X0011000Y0044714D02*
X0020700Y0044714D01*
X0020700Y0046312D02*
X0011000Y0046312D01*
X0011000Y0047911D02*
X0020700Y0047911D01*
X0020700Y0049509D02*
X0011000Y0049509D01*
X0011000Y0051108D02*
X0020700Y0051108D01*
X0020700Y0052706D02*
X0011000Y0052706D01*
X0011000Y0054305D02*
X0020700Y0054305D01*
X0020700Y0055903D02*
X0011000Y0055903D01*
X0011000Y0057502D02*
X0020700Y0057502D01*
X0020914Y0059100D02*
X0011000Y0059100D01*
X0011000Y0060699D02*
X0021576Y0060699D01*
X0022626Y0062297D02*
X0011000Y0062297D01*
X0011000Y0063896D02*
X0024225Y0063896D01*
X0025823Y0065494D02*
X0011000Y0065494D01*
X0011000Y0067093D02*
X0027422Y0067093D01*
X0029020Y0068691D02*
X0011000Y0068691D01*
X0011000Y0070290D02*
X0030619Y0070290D01*
X0032217Y0071888D02*
X0011000Y0071888D01*
X0011000Y0073487D02*
X0033816Y0073487D01*
X0035414Y0075085D02*
X0011000Y0075085D01*
X0029024Y0084677D02*
X0128800Y0084677D01*
X0128800Y0086275D02*
X0028923Y0086275D01*
X0041307Y0057502D02*
X0041494Y0057502D01*
X0040832Y0055903D02*
X0039708Y0055903D01*
X0040700Y0054305D02*
X0038110Y0054305D01*
X0037300Y0052706D02*
X0040700Y0052706D01*
X0041186Y0051108D02*
X0037300Y0051108D01*
X0037300Y0049509D02*
X0041849Y0049509D01*
X0043284Y0047911D02*
X0037300Y0047911D01*
X0052380Y0041517D02*
X0091300Y0041517D01*
X0091300Y0039918D02*
X0054753Y0039918D01*
X0056167Y0038320D02*
X0091806Y0038320D01*
X0092612Y0036721D02*
X0056829Y0036721D01*
X0057300Y0035123D02*
X0094211Y0035123D01*
X0057300Y0033524D02*
X0182700Y0033524D01*
X0182848Y0031926D02*
X0057152Y0031926D01*
X0056490Y0030327D02*
X0183510Y0030327D01*
X0198490Y0030327D02*
X0207700Y0030327D01*
X0207700Y0031926D02*
X0199152Y0031926D01*
X0199300Y0033524D02*
X0207700Y0033524D01*
X0207700Y0035123D02*
X0199300Y0035123D01*
X0198829Y0036721D02*
X0207700Y0036721D01*
X0207700Y0038320D02*
X0198167Y0038320D01*
X0196753Y0039918D02*
X0207836Y0039918D01*
X0208917Y0041517D02*
X0194380Y0041517D01*
X0194291Y0046312D02*
X0208954Y0046312D01*
X0207852Y0047911D02*
X0196716Y0047911D01*
X0198151Y0049509D02*
X0207700Y0049509D01*
X0207700Y0051108D02*
X0198814Y0051108D01*
X0199300Y0052706D02*
X0207700Y0052706D01*
X0207700Y0054305D02*
X0199300Y0054305D01*
X0199168Y0055903D02*
X0207700Y0055903D01*
X0207700Y0057502D02*
X0198506Y0057502D01*
X0197571Y0059100D02*
X0207700Y0059100D01*
X0208160Y0060699D02*
X0195972Y0060699D01*
X0180401Y0076684D02*
X0133200Y0076684D01*
X0133200Y0078282D02*
X0156870Y0078282D01*
X0156727Y0078387D02*
X0157332Y0077947D01*
X0157998Y0077607D01*
X0158710Y0077376D01*
X0159449Y0077259D01*
X0159639Y0077259D01*
X0159639Y0081827D01*
X0160007Y0081827D01*
X0160007Y0077259D01*
X0160197Y0077259D01*
X0160936Y0077376D01*
X0161647Y0077607D01*
X0162314Y0077947D01*
X0162919Y0078387D01*
X0163448Y0078916D01*
X0163888Y0079521D01*
X0164227Y0080187D01*
X0164459Y0080899D01*
X0164576Y0081638D01*
X0164576Y0081828D01*
X0160007Y0081828D01*
X0160007Y0082196D01*
X0164576Y0082196D01*
X0164576Y0082386D01*
X0164459Y0083125D01*
X0164227Y0083836D01*
X0163888Y0084503D01*
X0163448Y0085108D01*
X0162919Y0085637D01*
X0162314Y0086077D01*
X0161647Y0086416D01*
X0160936Y0086648D01*
X0160197Y0086765D01*
X0160007Y0086765D01*
X0160007Y0082196D01*
X0159639Y0082196D01*
X0159639Y0086765D01*
X0159449Y0086765D01*
X0158710Y0086648D01*
X0157998Y0086416D01*
X0157332Y0086077D01*
X0156727Y0085637D01*
X0156198Y0085108D01*
X0155758Y0084503D01*
X0155418Y0083836D01*
X0155187Y0083125D01*
X0155070Y0082386D01*
X0155070Y0082196D01*
X0159638Y0082196D01*
X0159638Y0081828D01*
X0155070Y0081828D01*
X0155070Y0081638D01*
X0155187Y0080899D01*
X0155418Y0080187D01*
X0155758Y0079521D01*
X0156198Y0078916D01*
X0156727Y0078387D01*
X0155574Y0079881D02*
X0133200Y0079881D01*
X0133200Y0081479D02*
X0155095Y0081479D01*
X0155180Y0083078D02*
X0133200Y0083078D01*
X0133200Y0084677D02*
X0155884Y0084677D01*
X0157721Y0086275D02*
X0133200Y0086275D01*
X0133200Y0087874D02*
X0179092Y0087874D01*
X0178199Y0086275D02*
X0161925Y0086275D01*
X0160007Y0086275D02*
X0159639Y0086275D01*
X0159639Y0084677D02*
X0160007Y0084677D01*
X0160007Y0083078D02*
X0159639Y0083078D01*
X0159639Y0081479D02*
X0160007Y0081479D01*
X0160007Y0079881D02*
X0159639Y0079881D01*
X0159639Y0078282D02*
X0160007Y0078282D01*
X0162776Y0078282D02*
X0178802Y0078282D01*
X0178079Y0079881D02*
X0164071Y0079881D01*
X0164551Y0081479D02*
X0177476Y0081479D01*
X0177476Y0083078D02*
X0164466Y0083078D01*
X0163762Y0084677D02*
X0177537Y0084677D01*
X0180691Y0089472D02*
X0133200Y0089472D01*
X0133200Y0091071D02*
X0181099Y0091071D01*
X0179416Y0092669D02*
X0133200Y0092669D01*
X0133200Y0094268D02*
X0178333Y0094268D01*
X0177671Y0095866D02*
X0133200Y0095866D01*
X0133200Y0097465D02*
X0177476Y0097465D01*
X0177476Y0099063D02*
X0133200Y0099063D01*
X0133200Y0100662D02*
X0177945Y0100662D01*
X0178607Y0102260D02*
X0133200Y0102260D01*
X0133200Y0103859D02*
X0180077Y0103859D01*
X0182696Y0105457D02*
X0133200Y0105457D01*
X0128800Y0105457D02*
X0101957Y0105457D01*
X0101847Y0103859D02*
X0128800Y0103859D01*
X0128800Y0102260D02*
X0101185Y0102260D01*
X0099776Y0100662D02*
X0128800Y0100662D01*
X0128800Y0099063D02*
X0100673Y0099063D01*
X0101556Y0097465D02*
X0128800Y0097465D01*
X0128800Y0095866D02*
X0101957Y0095866D01*
X0101957Y0094268D02*
X0128800Y0094268D01*
X0128800Y0092669D02*
X0101354Y0092669D01*
X0100185Y0091071D02*
X0128800Y0091071D01*
X0128800Y0107056D02*
X0101726Y0107056D01*
X0101064Y0108654D02*
X0128800Y0108654D01*
X0128800Y0110253D02*
X0099483Y0110253D01*
X0100965Y0111851D02*
X0128800Y0111851D01*
X0128800Y0113450D02*
X0101677Y0113450D01*
X0101957Y0115048D02*
X0128800Y0115048D01*
X0128800Y0116647D02*
X0101895Y0116647D01*
X0101233Y0118245D02*
X0128800Y0118245D01*
X0133200Y0118245D02*
X0136042Y0118245D01*
X0135650Y0116647D02*
X0133200Y0116647D01*
X0133200Y0115048D02*
X0136030Y0115048D01*
X0137931Y0113450D02*
X0133200Y0113450D01*
X0140069Y0113450D02*
X0143873Y0113450D01*
X0145527Y0113450D02*
X0148464Y0113450D01*
X0156977Y0075085D02*
X0133200Y0075085D01*
X0148157Y0071776D02*
X0159823Y0071776D01*
X0165000Y0055903D02*
X0145768Y0055903D01*
X0147366Y0054305D02*
X0163634Y0054305D01*
X0162035Y0052706D02*
X0148965Y0052706D01*
X0223083Y0041517D02*
X0264000Y0041517D01*
X0264000Y0039918D02*
X0224164Y0039918D01*
X0224300Y0038320D02*
X0263935Y0038320D01*
X0263273Y0036721D02*
X0224300Y0036721D01*
X0224300Y0035123D02*
X0262794Y0035123D01*
X0262794Y0033524D02*
X0224300Y0033524D01*
X0224300Y0031926D02*
X0262950Y0031926D01*
X0263612Y0030327D02*
X0224300Y0030327D01*
X0259621Y0113450D02*
X0264000Y0113450D01*
X0264000Y0115048D02*
X0260057Y0115048D01*
X0259839Y0116647D02*
X0264000Y0116647D01*
X0264000Y0118245D02*
X0258804Y0118245D01*
X0109878Y0180587D02*
X0011000Y0180587D01*
X0011000Y0182186D02*
X0108280Y0182186D01*
X0107271Y0183784D02*
X0011000Y0183784D01*
X0011000Y0185383D02*
X0106609Y0185383D01*
X0106478Y0186981D02*
X0011000Y0186981D01*
X0011000Y0188580D02*
X0106478Y0188580D01*
X0107024Y0190178D02*
X0011000Y0190178D01*
X0011000Y0191777D02*
X0107686Y0191777D01*
X0109282Y0193375D02*
X0011000Y0193375D01*
D23*
X0046000Y0073933D02*
X0116000Y0073933D01*
X0146000Y0043933D01*
X0165000Y0043933D01*
X0172000Y0050933D01*
X0046000Y0073933D02*
X0029000Y0056933D01*
X0029000Y0053933D01*
X0029000Y0033933D01*
M02*
