%
M48
M72
T01C0.01300
T02C0.02000
T03C0.02362
T04C0.02500
T05C0.03150
T06C0.03937
T07C0.04000
T08C0.09094
T09C0.13000
%
T01
X96895Y85450
X75195Y89650
X173195Y113800
X179145Y119750
X183345Y133400
X205395Y117300
X210295Y125700
X219395Y129550
X211345Y135500
X227095Y137950
X236195Y148100
X251595Y158950
X220445Y151950
X210295Y158250
X202945Y160350
X186845Y156500
X180195Y163150
X162345Y153700
X140995Y165950
X137145Y174000
X217295Y173300
X247045Y127100
X236195Y124650
X234095Y118700
X234445Y114500
X267345Y117300
X270495Y127800
X291495Y122900
X297095Y134800
X294295Y142500
X326145Y157550
X341195Y157550
X341195Y161050
X332795Y145650
X374095Y142150
X382595Y127650
X364595Y118650
X344345Y113800
X341195Y110650
X332795Y101200
X320545Y97350
X306195Y102600
X291495Y102600
X291495Y107500
X288695Y90000
X306195Y90000
X322995Y86150
X320545Y75300
X320545Y68650
X312495Y69700
X310045Y63750
X298495Y65850
X295695Y63400
X293945Y56050
X277845Y70400
X267345Y71800
X261745Y71800
X259995Y79500
X264895Y81950
X257195Y89300
X250195Y89300
X247745Y83350
X231645Y87900
X209595Y79150
X234795Y66550
X260695Y49400
X291145Y30850
X298145Y71800
X291495Y79150
X356595Y97900
X382595Y64150
X360095Y21650
X180195Y78100
T02
X328595Y76650
X338595Y88650
X362595Y111650
X385595Y108650
X388595Y131650
T03
X370595Y107650
X394595Y103650
X331595Y159650
X127595Y128650
X111595Y65650
T04
X342095Y63850
X347795Y63950
X353395Y63950
T05
X134595Y34650
X124595Y34650
X99595Y224650
X89595Y224650
T06
X82784Y36650
X106800Y36650
X94595Y17752
X144595Y34650
X154595Y34650
X164595Y34650
X174595Y34650
X184595Y34650
X194595Y34650
X214595Y34650
X224595Y34650
X234595Y34650
X244595Y34650
X254595Y34650
X264595Y34650
X274595Y34650
X284595Y34650
X304595Y34650
X314595Y34650
X324595Y34650
X334595Y34650
X344595Y34650
X354595Y34650
X364595Y34650
X374595Y34650
X352981Y168343
X343138Y168343
X334477Y168343
X326209Y168343
X326209Y178185
X334477Y178185
X344713Y178185
X352981Y178185
X282981Y178185
X274713Y178185
X264477Y178185
X256209Y178185
X256209Y168343
X264477Y168343
X273138Y168343
X282981Y168343
X212981Y168343
X203138Y168343
X194477Y168343
X186209Y168343
X186209Y178185
X194477Y178185
X204713Y178185
X212981Y178185
X214595Y224650
X204595Y224650
X194595Y224650
X179595Y224650
X169595Y224650
X159595Y224650
X149595Y224650
X139595Y224650
X129595Y224650
X119595Y224650
X109595Y224650
X109595Y224650
X106209Y178185
X114477Y178185
X124713Y178185
X132981Y178185
X132981Y168343
X123138Y168343
X114477Y168343
X106209Y168343
X224595Y224650
X234595Y224650
X244595Y224650
X254595Y224650
X264595Y224650
X284595Y224650
X294595Y224650
X304595Y224650
X314595Y224650
X324595Y224650
X334595Y224650
X344595Y224650
X354595Y224650
T07
X403005Y140461
X414186Y134989
X403005Y129556
X414186Y124083
X403005Y118650
X414186Y113217
X403005Y107744
X414186Y102311
X403005Y96839
T08
X366170Y189996
X339595Y193146
X313020Y189996
X296170Y189996
X269595Y193146
X243020Y189996
X226170Y189996
X199595Y193146
X173020Y189996
X146170Y189996
X119595Y193146
X93020Y189996
T09
X408595Y167863
X408595Y69437
M30
